M48
; DRILL file {KiCad 7.0.9} date Sun Aug 10 16:07:41 2025
; FORMAT={-:-/ absolute / inch / decimal}
; #@! TF.CreationDate,2025-08-10T16:07:41+02:00
; #@! TF.GenerationSoftware,Kicad,Pcbnew,7.0.9
; #@! TF.FileFunction,Plated,1,2,PTH
FMAT,2
INCH
; #@! TA.AperFunction,Plated,PTH,ViaDrill
T1C0.0157
; #@! TA.AperFunction,Plated,PTH,ComponentDrill
T2C0.0256
; #@! TA.AperFunction,Plated,PTH,ComponentDrill
T3C0.0315
; #@! TA.AperFunction,Plated,PTH,ComponentDrill
T4C0.0329
; #@! TA.AperFunction,Plated,PTH,ComponentDrill
T5C0.0354
; #@! TA.AperFunction,Plated,PTH,ComponentDrill
T6C0.0394
; #@! TA.AperFunction,Plated,PTH,ComponentDrill
T7C0.0433
; #@! TA.AperFunction,Plated,PTH,ComponentDrill
T8C0.1260
%
G90
G05
T1
X5.1598Y-3.686
X6.218Y-3.2713
T2
X6.685Y-2.2587
X6.685Y-2.3906
X6.685Y-2.5224
X6.685Y-2.6543
X6.685Y-2.7862
X6.685Y-2.9181
X6.685Y-3.05
T3
X5.4Y-3.95
X5.5016Y-3.4
X5.6Y-3.4
X5.7Y-3.95
X5.9Y-2.15
X5.9Y-2.25
X5.9Y-2.35
X5.9Y-2.45
X5.9Y-2.55
X5.9Y-2.65
X5.9Y-2.75
X5.9Y-2.85
X6.5Y-2.15
X6.5Y-2.25
X6.5Y-2.35
X6.5Y-2.45
X6.5Y-2.55
X6.5Y-2.65
X6.5Y-2.75
X6.5Y-2.85
T4
X4.8Y-3.4
X5.0Y-3.4
T5
X5.5Y-3.7
X5.6Y-3.7
T6
X5.15Y-3.3228
X5.25Y-3.3228
X5.35Y-3.3228
T7
X5.9181Y-3.7
X6.115Y-3.7
X6.4131Y-3.7
X6.45Y-3.2
X6.45Y-3.4
X6.61Y-3.7
X6.85Y-3.2
X6.85Y-3.4
T8
X4.6Y-2.0
X4.6Y-4.1
X6.85Y-2.0
X6.85Y-4.1
T0
M30
