%TF.GenerationSoftware,KiCad,Pcbnew,7.0.9*%
%TF.CreationDate,2025-08-10T16:07:43+02:00*%
%TF.ProjectId,Kicad_Projet_Sons_HW896_V1,4b696361-645f-4507-926f-6a65745f536f,rev?*%
%TF.SameCoordinates,Original*%
%TF.FileFunction,Drillmap*%
%TF.FilePolarity,Positive*%
%FSLAX45Y45*%
G04 Gerber Fmt 4.5, Leading zero omitted, Abs format (unit mm)*
G04 Created by KiCad (PCBNEW 7.0.9) date 2025-08-10 16:07:43*
%MOMM*%
%LPD*%
G01*
G04 APERTURE LIST*
%ADD10C,0.100000*%
%ADD11C,0.200000*%
%ADD12C,0.110000*%
%ADD13C,0.320000*%
G04 APERTURE END LIST*
D10*
X11300000Y-10800000D02*
X11300000Y-4700000D01*
X17800000Y-4700000D02*
X17800000Y-10800000D01*
X11300000Y-4700000D02*
X17800000Y-4700000D01*
X17800000Y-10800000D02*
X11300000Y-10800000D01*
D11*
D10*
X13085820Y-9342490D02*
X13125820Y-9382490D01*
X13125820Y-9342490D02*
X13085820Y-9382490D01*
X15773800Y-8289170D02*
X15813800Y-8329170D01*
X15813800Y-8289170D02*
X15773800Y-8329170D01*
X17012400Y-5737000D02*
G75*
G03*
X17012400Y-5737000I-32500J0D01*
G01*
X17012400Y-6072000D02*
G75*
G03*
X17012400Y-6072000I-32500J0D01*
G01*
X17012400Y-6407000D02*
G75*
G03*
X17012400Y-6407000I-32500J0D01*
G01*
X17012400Y-6742000D02*
G75*
G03*
X17012400Y-6742000I-32500J0D01*
G01*
X17012400Y-7077000D02*
G75*
G03*
X17012400Y-7077000I-32500J0D01*
G01*
X17012400Y-7412000D02*
G75*
G03*
X17012400Y-7412000I-32500J0D01*
G01*
X17012400Y-7747000D02*
G75*
G03*
X17012400Y-7747000I-32500J0D01*
G01*
X13716000Y-9993000D02*
X13716000Y-10073000D01*
X13676000Y-10033000D02*
X13756000Y-10033000D01*
X13974000Y-8596000D02*
X13974000Y-8676000D01*
X13934000Y-8636000D02*
X14014000Y-8636000D01*
X14224000Y-8596000D02*
X14224000Y-8676000D01*
X14184000Y-8636000D02*
X14264000Y-8636000D01*
X14478000Y-9993000D02*
X14478000Y-10073000D01*
X14438000Y-10033000D02*
X14518000Y-10033000D01*
X14986000Y-5421000D02*
X14986000Y-5501000D01*
X14946000Y-5461000D02*
X15026000Y-5461000D01*
X14986000Y-5675000D02*
X14986000Y-5755000D01*
X14946000Y-5715000D02*
X15026000Y-5715000D01*
X14986000Y-5929000D02*
X14986000Y-6009000D01*
X14946000Y-5969000D02*
X15026000Y-5969000D01*
X14986000Y-6183000D02*
X14986000Y-6263000D01*
X14946000Y-6223000D02*
X15026000Y-6223000D01*
X14986000Y-6437000D02*
X14986000Y-6517000D01*
X14946000Y-6477000D02*
X15026000Y-6477000D01*
X14986000Y-6691000D02*
X14986000Y-6771000D01*
X14946000Y-6731000D02*
X15026000Y-6731000D01*
X14986000Y-6945000D02*
X14986000Y-7025000D01*
X14946000Y-6985000D02*
X15026000Y-6985000D01*
X14986000Y-7199000D02*
X14986000Y-7279000D01*
X14946000Y-7239000D02*
X15026000Y-7239000D01*
X16510000Y-5421000D02*
X16510000Y-5501000D01*
X16470000Y-5461000D02*
X16550000Y-5461000D01*
X16510000Y-5675000D02*
X16510000Y-5755000D01*
X16470000Y-5715000D02*
X16550000Y-5715000D01*
X16510000Y-5929000D02*
X16510000Y-6009000D01*
X16470000Y-5969000D02*
X16550000Y-5969000D01*
X16510000Y-6183000D02*
X16510000Y-6263000D01*
X16470000Y-6223000D02*
X16550000Y-6223000D01*
X16510000Y-6437000D02*
X16510000Y-6517000D01*
X16470000Y-6477000D02*
X16550000Y-6477000D01*
X16510000Y-6691000D02*
X16510000Y-6771000D01*
X16470000Y-6731000D02*
X16550000Y-6731000D01*
X16510000Y-6945000D02*
X16510000Y-7025000D01*
X16470000Y-6985000D02*
X16550000Y-6985000D01*
X16510000Y-7199000D02*
X16510000Y-7279000D01*
X16470000Y-7239000D02*
X16550000Y-7239000D01*
X12221522Y-8665522D02*
X12221522Y-8606478D01*
X12162478Y-8606478D01*
X12162478Y-8665522D01*
X12221522Y-8665522D01*
X12729522Y-8665522D02*
X12729522Y-8606478D01*
X12670478Y-8606478D01*
X12670478Y-8665522D01*
X12729522Y-8665522D01*
X13970000Y-9443000D02*
X14015000Y-9398000D01*
X13970000Y-9353000D01*
X13925000Y-9398000D01*
X13970000Y-9443000D01*
X14224000Y-9443000D02*
X14269000Y-9398000D01*
X14224000Y-9353000D01*
X14179000Y-9398000D01*
X14224000Y-9443000D01*
X13031000Y-8389900D02*
X13131000Y-8489900D01*
X13131000Y-8389900D02*
X13031000Y-8489900D01*
X13131000Y-8439900D02*
G75*
G03*
X13131000Y-8439900I-50000J0D01*
G01*
X13285000Y-8389900D02*
X13385000Y-8489900D01*
X13385000Y-8389900D02*
X13285000Y-8489900D01*
X13385000Y-8439900D02*
G75*
G03*
X13385000Y-8439900I-50000J0D01*
G01*
X13539000Y-8389900D02*
X13639000Y-8489900D01*
X13639000Y-8389900D02*
X13539000Y-8489900D01*
X13639000Y-8439900D02*
G75*
G03*
X13639000Y-8439900I-50000J0D01*
G01*
D12*
X14977100Y-9343000D02*
X15087100Y-9453000D01*
X15087100Y-9343000D02*
X14977100Y-9453000D01*
X15032100Y-9343000D02*
X15032100Y-9453000D01*
X14977100Y-9398000D02*
X15087100Y-9398000D01*
X15477100Y-9343000D02*
X15587100Y-9453000D01*
X15587100Y-9343000D02*
X15477100Y-9453000D01*
X15532100Y-9343000D02*
X15532100Y-9453000D01*
X15477100Y-9398000D02*
X15587100Y-9398000D01*
X16234400Y-9343000D02*
X16344400Y-9453000D01*
X16344400Y-9343000D02*
X16234400Y-9453000D01*
X16289400Y-9343000D02*
X16289400Y-9453000D01*
X16234400Y-9398000D02*
X16344400Y-9398000D01*
X16328000Y-8073000D02*
X16438000Y-8183000D01*
X16438000Y-8073000D02*
X16328000Y-8183000D01*
X16383000Y-8073000D02*
X16383000Y-8183000D01*
X16328000Y-8128000D02*
X16438000Y-8128000D01*
X16328000Y-8581000D02*
X16438000Y-8691000D01*
X16438000Y-8581000D02*
X16328000Y-8691000D01*
X16383000Y-8581000D02*
X16383000Y-8691000D01*
X16328000Y-8636000D02*
X16438000Y-8636000D01*
X16734400Y-9343000D02*
X16844400Y-9453000D01*
X16844400Y-9343000D02*
X16734400Y-9453000D01*
X16789400Y-9343000D02*
X16789400Y-9453000D01*
X16734400Y-9398000D02*
X16844400Y-9398000D01*
X17344000Y-8073000D02*
X17454000Y-8183000D01*
X17454000Y-8073000D02*
X17344000Y-8183000D01*
X17399000Y-8073000D02*
X17399000Y-8183000D01*
X17344000Y-8128000D02*
X17454000Y-8128000D01*
X17344000Y-8581000D02*
X17454000Y-8691000D01*
X17454000Y-8581000D02*
X17344000Y-8691000D01*
X17399000Y-8581000D02*
X17399000Y-8691000D01*
X17344000Y-8636000D02*
X17454000Y-8636000D01*
D13*
X11524000Y-4920000D02*
X11844000Y-5240000D01*
X11844000Y-4920000D02*
X11524000Y-5240000D01*
X11797138Y-5193138D02*
X11797138Y-4966862D01*
X11570862Y-4966862D01*
X11570862Y-5193138D01*
X11797138Y-5193138D01*
X11524000Y-10254000D02*
X11844000Y-10574000D01*
X11844000Y-10254000D02*
X11524000Y-10574000D01*
X11797138Y-10527138D02*
X11797138Y-10300862D01*
X11570862Y-10300862D01*
X11570862Y-10527138D01*
X11797138Y-10527138D01*
X17239000Y-4920000D02*
X17559000Y-5240000D01*
X17559000Y-4920000D02*
X17239000Y-5240000D01*
X17512138Y-5193138D02*
X17512138Y-4966862D01*
X17285862Y-4966862D01*
X17285862Y-5193138D01*
X17512138Y-5193138D01*
X17239000Y-10254000D02*
X17559000Y-10574000D01*
X17559000Y-10254000D02*
X17239000Y-10574000D01*
X17512138Y-10527138D02*
X17512138Y-10300862D01*
X17285862Y-10300862D01*
X17285862Y-10527138D01*
X17512138Y-10527138D01*
D11*
X11555777Y-11116484D02*
X11555777Y-10916484D01*
X11555777Y-10916484D02*
X11603396Y-10916484D01*
X11603396Y-10916484D02*
X11631967Y-10926008D01*
X11631967Y-10926008D02*
X11651015Y-10945055D01*
X11651015Y-10945055D02*
X11660539Y-10964103D01*
X11660539Y-10964103D02*
X11670062Y-11002198D01*
X11670062Y-11002198D02*
X11670062Y-11030770D01*
X11670062Y-11030770D02*
X11660539Y-11068865D01*
X11660539Y-11068865D02*
X11651015Y-11087912D01*
X11651015Y-11087912D02*
X11631967Y-11106960D01*
X11631967Y-11106960D02*
X11603396Y-11116484D01*
X11603396Y-11116484D02*
X11555777Y-11116484D01*
X11755777Y-11116484D02*
X11755777Y-10983150D01*
X11755777Y-11021246D02*
X11765301Y-11002198D01*
X11765301Y-11002198D02*
X11774824Y-10992674D01*
X11774824Y-10992674D02*
X11793872Y-10983150D01*
X11793872Y-10983150D02*
X11812920Y-10983150D01*
X11879586Y-11116484D02*
X11879586Y-10983150D01*
X11879586Y-10916484D02*
X11870062Y-10926008D01*
X11870062Y-10926008D02*
X11879586Y-10935531D01*
X11879586Y-10935531D02*
X11889110Y-10926008D01*
X11889110Y-10926008D02*
X11879586Y-10916484D01*
X11879586Y-10916484D02*
X11879586Y-10935531D01*
X12003396Y-11116484D02*
X11984348Y-11106960D01*
X11984348Y-11106960D02*
X11974824Y-11087912D01*
X11974824Y-11087912D02*
X11974824Y-10916484D01*
X12108158Y-11116484D02*
X12089110Y-11106960D01*
X12089110Y-11106960D02*
X12079586Y-11087912D01*
X12079586Y-11087912D02*
X12079586Y-10916484D01*
X12336729Y-11116484D02*
X12336729Y-10916484D01*
X12336729Y-10916484D02*
X12403396Y-11059341D01*
X12403396Y-11059341D02*
X12470062Y-10916484D01*
X12470062Y-10916484D02*
X12470062Y-11116484D01*
X12651015Y-11116484D02*
X12651015Y-11011722D01*
X12651015Y-11011722D02*
X12641491Y-10992674D01*
X12641491Y-10992674D02*
X12622443Y-10983150D01*
X12622443Y-10983150D02*
X12584348Y-10983150D01*
X12584348Y-10983150D02*
X12565301Y-10992674D01*
X12651015Y-11106960D02*
X12631967Y-11116484D01*
X12631967Y-11116484D02*
X12584348Y-11116484D01*
X12584348Y-11116484D02*
X12565301Y-11106960D01*
X12565301Y-11106960D02*
X12555777Y-11087912D01*
X12555777Y-11087912D02*
X12555777Y-11068865D01*
X12555777Y-11068865D02*
X12565301Y-11049817D01*
X12565301Y-11049817D02*
X12584348Y-11040293D01*
X12584348Y-11040293D02*
X12631967Y-11040293D01*
X12631967Y-11040293D02*
X12651015Y-11030770D01*
X12746253Y-10983150D02*
X12746253Y-11183150D01*
X12746253Y-10992674D02*
X12765301Y-10983150D01*
X12765301Y-10983150D02*
X12803396Y-10983150D01*
X12803396Y-10983150D02*
X12822443Y-10992674D01*
X12822443Y-10992674D02*
X12831967Y-11002198D01*
X12831967Y-11002198D02*
X12841491Y-11021246D01*
X12841491Y-11021246D02*
X12841491Y-11078389D01*
X12841491Y-11078389D02*
X12831967Y-11097436D01*
X12831967Y-11097436D02*
X12822443Y-11106960D01*
X12822443Y-11106960D02*
X12803396Y-11116484D01*
X12803396Y-11116484D02*
X12765301Y-11116484D01*
X12765301Y-11116484D02*
X12746253Y-11106960D01*
X12927205Y-11097436D02*
X12936729Y-11106960D01*
X12936729Y-11106960D02*
X12927205Y-11116484D01*
X12927205Y-11116484D02*
X12917682Y-11106960D01*
X12917682Y-11106960D02*
X12927205Y-11097436D01*
X12927205Y-11097436D02*
X12927205Y-11116484D01*
X12927205Y-10992674D02*
X12936729Y-11002198D01*
X12936729Y-11002198D02*
X12927205Y-11011722D01*
X12927205Y-11011722D02*
X12917682Y-11002198D01*
X12917682Y-11002198D02*
X12927205Y-10992674D01*
X12927205Y-10992674D02*
X12927205Y-11011722D01*
D10*
X11255000Y-11425000D02*
X11295000Y-11465000D01*
X11295000Y-11425000D02*
X11255000Y-11465000D01*
D11*
X11593872Y-11336484D02*
X11612920Y-11336484D01*
X11612920Y-11336484D02*
X11631967Y-11346008D01*
X11631967Y-11346008D02*
X11641491Y-11355531D01*
X11641491Y-11355531D02*
X11651015Y-11374579D01*
X11651015Y-11374579D02*
X11660539Y-11412674D01*
X11660539Y-11412674D02*
X11660539Y-11460293D01*
X11660539Y-11460293D02*
X11651015Y-11498388D01*
X11651015Y-11498388D02*
X11641491Y-11517436D01*
X11641491Y-11517436D02*
X11631967Y-11526960D01*
X11631967Y-11526960D02*
X11612920Y-11536484D01*
X11612920Y-11536484D02*
X11593872Y-11536484D01*
X11593872Y-11536484D02*
X11574824Y-11526960D01*
X11574824Y-11526960D02*
X11565301Y-11517436D01*
X11565301Y-11517436D02*
X11555777Y-11498388D01*
X11555777Y-11498388D02*
X11546253Y-11460293D01*
X11546253Y-11460293D02*
X11546253Y-11412674D01*
X11546253Y-11412674D02*
X11555777Y-11374579D01*
X11555777Y-11374579D02*
X11565301Y-11355531D01*
X11565301Y-11355531D02*
X11574824Y-11346008D01*
X11574824Y-11346008D02*
X11593872Y-11336484D01*
X11746253Y-11517436D02*
X11755777Y-11526960D01*
X11755777Y-11526960D02*
X11746253Y-11536484D01*
X11746253Y-11536484D02*
X11736729Y-11526960D01*
X11736729Y-11526960D02*
X11746253Y-11517436D01*
X11746253Y-11517436D02*
X11746253Y-11536484D01*
X11927205Y-11403150D02*
X11927205Y-11536484D01*
X11879586Y-11326960D02*
X11831967Y-11469817D01*
X11831967Y-11469817D02*
X11955777Y-11469817D01*
X12070062Y-11336484D02*
X12089110Y-11336484D01*
X12089110Y-11336484D02*
X12108158Y-11346008D01*
X12108158Y-11346008D02*
X12117682Y-11355531D01*
X12117682Y-11355531D02*
X12127205Y-11374579D01*
X12127205Y-11374579D02*
X12136729Y-11412674D01*
X12136729Y-11412674D02*
X12136729Y-11460293D01*
X12136729Y-11460293D02*
X12127205Y-11498388D01*
X12127205Y-11498388D02*
X12117682Y-11517436D01*
X12117682Y-11517436D02*
X12108158Y-11526960D01*
X12108158Y-11526960D02*
X12089110Y-11536484D01*
X12089110Y-11536484D02*
X12070062Y-11536484D01*
X12070062Y-11536484D02*
X12051015Y-11526960D01*
X12051015Y-11526960D02*
X12041491Y-11517436D01*
X12041491Y-11517436D02*
X12031967Y-11498388D01*
X12031967Y-11498388D02*
X12022443Y-11460293D01*
X12022443Y-11460293D02*
X12022443Y-11412674D01*
X12022443Y-11412674D02*
X12031967Y-11374579D01*
X12031967Y-11374579D02*
X12041491Y-11355531D01*
X12041491Y-11355531D02*
X12051015Y-11346008D01*
X12051015Y-11346008D02*
X12070062Y-11336484D01*
X12260539Y-11336484D02*
X12279586Y-11336484D01*
X12279586Y-11336484D02*
X12298634Y-11346008D01*
X12298634Y-11346008D02*
X12308158Y-11355531D01*
X12308158Y-11355531D02*
X12317682Y-11374579D01*
X12317682Y-11374579D02*
X12327205Y-11412674D01*
X12327205Y-11412674D02*
X12327205Y-11460293D01*
X12327205Y-11460293D02*
X12317682Y-11498388D01*
X12317682Y-11498388D02*
X12308158Y-11517436D01*
X12308158Y-11517436D02*
X12298634Y-11526960D01*
X12298634Y-11526960D02*
X12279586Y-11536484D01*
X12279586Y-11536484D02*
X12260539Y-11536484D01*
X12260539Y-11536484D02*
X12241491Y-11526960D01*
X12241491Y-11526960D02*
X12231967Y-11517436D01*
X12231967Y-11517436D02*
X12222443Y-11498388D01*
X12222443Y-11498388D02*
X12212920Y-11460293D01*
X12212920Y-11460293D02*
X12212920Y-11412674D01*
X12212920Y-11412674D02*
X12222443Y-11374579D01*
X12222443Y-11374579D02*
X12231967Y-11355531D01*
X12231967Y-11355531D02*
X12241491Y-11346008D01*
X12241491Y-11346008D02*
X12260539Y-11336484D01*
X12412920Y-11536484D02*
X12412920Y-11403150D01*
X12412920Y-11422198D02*
X12422443Y-11412674D01*
X12422443Y-11412674D02*
X12441491Y-11403150D01*
X12441491Y-11403150D02*
X12470063Y-11403150D01*
X12470063Y-11403150D02*
X12489110Y-11412674D01*
X12489110Y-11412674D02*
X12498634Y-11431722D01*
X12498634Y-11431722D02*
X12498634Y-11536484D01*
X12498634Y-11431722D02*
X12508158Y-11412674D01*
X12508158Y-11412674D02*
X12527205Y-11403150D01*
X12527205Y-11403150D02*
X12555777Y-11403150D01*
X12555777Y-11403150D02*
X12574824Y-11412674D01*
X12574824Y-11412674D02*
X12584348Y-11431722D01*
X12584348Y-11431722D02*
X12584348Y-11536484D01*
X12679586Y-11536484D02*
X12679586Y-11403150D01*
X12679586Y-11422198D02*
X12689110Y-11412674D01*
X12689110Y-11412674D02*
X12708158Y-11403150D01*
X12708158Y-11403150D02*
X12736729Y-11403150D01*
X12736729Y-11403150D02*
X12755777Y-11412674D01*
X12755777Y-11412674D02*
X12765301Y-11431722D01*
X12765301Y-11431722D02*
X12765301Y-11536484D01*
X12765301Y-11431722D02*
X12774824Y-11412674D01*
X12774824Y-11412674D02*
X12793872Y-11403150D01*
X12793872Y-11403150D02*
X12822443Y-11403150D01*
X12822443Y-11403150D02*
X12841491Y-11412674D01*
X12841491Y-11412674D02*
X12851015Y-11431722D01*
X12851015Y-11431722D02*
X12851015Y-11536484D01*
X13241491Y-11326960D02*
X13070063Y-11584103D01*
X13498634Y-11336484D02*
X13517682Y-11336484D01*
X13517682Y-11336484D02*
X13536729Y-11346008D01*
X13536729Y-11346008D02*
X13546253Y-11355531D01*
X13546253Y-11355531D02*
X13555777Y-11374579D01*
X13555777Y-11374579D02*
X13565301Y-11412674D01*
X13565301Y-11412674D02*
X13565301Y-11460293D01*
X13565301Y-11460293D02*
X13555777Y-11498388D01*
X13555777Y-11498388D02*
X13546253Y-11517436D01*
X13546253Y-11517436D02*
X13536729Y-11526960D01*
X13536729Y-11526960D02*
X13517682Y-11536484D01*
X13517682Y-11536484D02*
X13498634Y-11536484D01*
X13498634Y-11536484D02*
X13479586Y-11526960D01*
X13479586Y-11526960D02*
X13470063Y-11517436D01*
X13470063Y-11517436D02*
X13460539Y-11498388D01*
X13460539Y-11498388D02*
X13451015Y-11460293D01*
X13451015Y-11460293D02*
X13451015Y-11412674D01*
X13451015Y-11412674D02*
X13460539Y-11374579D01*
X13460539Y-11374579D02*
X13470063Y-11355531D01*
X13470063Y-11355531D02*
X13479586Y-11346008D01*
X13479586Y-11346008D02*
X13498634Y-11336484D01*
X13651015Y-11517436D02*
X13660539Y-11526960D01*
X13660539Y-11526960D02*
X13651015Y-11536484D01*
X13651015Y-11536484D02*
X13641491Y-11526960D01*
X13641491Y-11526960D02*
X13651015Y-11517436D01*
X13651015Y-11517436D02*
X13651015Y-11536484D01*
X13784348Y-11336484D02*
X13803396Y-11336484D01*
X13803396Y-11336484D02*
X13822444Y-11346008D01*
X13822444Y-11346008D02*
X13831967Y-11355531D01*
X13831967Y-11355531D02*
X13841491Y-11374579D01*
X13841491Y-11374579D02*
X13851015Y-11412674D01*
X13851015Y-11412674D02*
X13851015Y-11460293D01*
X13851015Y-11460293D02*
X13841491Y-11498388D01*
X13841491Y-11498388D02*
X13831967Y-11517436D01*
X13831967Y-11517436D02*
X13822444Y-11526960D01*
X13822444Y-11526960D02*
X13803396Y-11536484D01*
X13803396Y-11536484D02*
X13784348Y-11536484D01*
X13784348Y-11536484D02*
X13765301Y-11526960D01*
X13765301Y-11526960D02*
X13755777Y-11517436D01*
X13755777Y-11517436D02*
X13746253Y-11498388D01*
X13746253Y-11498388D02*
X13736729Y-11460293D01*
X13736729Y-11460293D02*
X13736729Y-11412674D01*
X13736729Y-11412674D02*
X13746253Y-11374579D01*
X13746253Y-11374579D02*
X13755777Y-11355531D01*
X13755777Y-11355531D02*
X13765301Y-11346008D01*
X13765301Y-11346008D02*
X13784348Y-11336484D01*
X14041491Y-11536484D02*
X13927206Y-11536484D01*
X13984348Y-11536484D02*
X13984348Y-11336484D01*
X13984348Y-11336484D02*
X13965301Y-11365055D01*
X13965301Y-11365055D02*
X13946253Y-11384103D01*
X13946253Y-11384103D02*
X13927206Y-11393627D01*
X14222444Y-11336484D02*
X14127206Y-11336484D01*
X14127206Y-11336484D02*
X14117682Y-11431722D01*
X14117682Y-11431722D02*
X14127206Y-11422198D01*
X14127206Y-11422198D02*
X14146253Y-11412674D01*
X14146253Y-11412674D02*
X14193872Y-11412674D01*
X14193872Y-11412674D02*
X14212920Y-11422198D01*
X14212920Y-11422198D02*
X14222444Y-11431722D01*
X14222444Y-11431722D02*
X14231967Y-11450769D01*
X14231967Y-11450769D02*
X14231967Y-11498388D01*
X14231967Y-11498388D02*
X14222444Y-11517436D01*
X14222444Y-11517436D02*
X14212920Y-11526960D01*
X14212920Y-11526960D02*
X14193872Y-11536484D01*
X14193872Y-11536484D02*
X14146253Y-11536484D01*
X14146253Y-11536484D02*
X14127206Y-11526960D01*
X14127206Y-11526960D02*
X14117682Y-11517436D01*
X14298634Y-11336484D02*
X14431967Y-11336484D01*
X14431967Y-11336484D02*
X14346253Y-11536484D01*
X14498634Y-11336484D02*
X14498634Y-11374579D01*
X14574825Y-11336484D02*
X14574825Y-11374579D01*
X14870063Y-11612674D02*
X14860539Y-11603150D01*
X14860539Y-11603150D02*
X14841491Y-11574579D01*
X14841491Y-11574579D02*
X14831968Y-11555531D01*
X14831968Y-11555531D02*
X14822444Y-11526960D01*
X14822444Y-11526960D02*
X14812920Y-11479341D01*
X14812920Y-11479341D02*
X14812920Y-11441246D01*
X14812920Y-11441246D02*
X14822444Y-11393627D01*
X14822444Y-11393627D02*
X14831968Y-11365055D01*
X14831968Y-11365055D02*
X14841491Y-11346008D01*
X14841491Y-11346008D02*
X14860539Y-11317436D01*
X14860539Y-11317436D02*
X14870063Y-11307912D01*
X14936729Y-11355531D02*
X14946253Y-11346008D01*
X14946253Y-11346008D02*
X14965301Y-11336484D01*
X14965301Y-11336484D02*
X15012920Y-11336484D01*
X15012920Y-11336484D02*
X15031968Y-11346008D01*
X15031968Y-11346008D02*
X15041491Y-11355531D01*
X15041491Y-11355531D02*
X15051015Y-11374579D01*
X15051015Y-11374579D02*
X15051015Y-11393627D01*
X15051015Y-11393627D02*
X15041491Y-11422198D01*
X15041491Y-11422198D02*
X14927206Y-11536484D01*
X14927206Y-11536484D02*
X15051015Y-11536484D01*
X15289110Y-11536484D02*
X15289110Y-11336484D01*
X15374825Y-11536484D02*
X15374825Y-11431722D01*
X15374825Y-11431722D02*
X15365301Y-11412674D01*
X15365301Y-11412674D02*
X15346253Y-11403150D01*
X15346253Y-11403150D02*
X15317682Y-11403150D01*
X15317682Y-11403150D02*
X15298634Y-11412674D01*
X15298634Y-11412674D02*
X15289110Y-11422198D01*
X15498634Y-11536484D02*
X15479587Y-11526960D01*
X15479587Y-11526960D02*
X15470063Y-11517436D01*
X15470063Y-11517436D02*
X15460539Y-11498388D01*
X15460539Y-11498388D02*
X15460539Y-11441246D01*
X15460539Y-11441246D02*
X15470063Y-11422198D01*
X15470063Y-11422198D02*
X15479587Y-11412674D01*
X15479587Y-11412674D02*
X15498634Y-11403150D01*
X15498634Y-11403150D02*
X15527206Y-11403150D01*
X15527206Y-11403150D02*
X15546253Y-11412674D01*
X15546253Y-11412674D02*
X15555777Y-11422198D01*
X15555777Y-11422198D02*
X15565301Y-11441246D01*
X15565301Y-11441246D02*
X15565301Y-11498388D01*
X15565301Y-11498388D02*
X15555777Y-11517436D01*
X15555777Y-11517436D02*
X15546253Y-11526960D01*
X15546253Y-11526960D02*
X15527206Y-11536484D01*
X15527206Y-11536484D02*
X15498634Y-11536484D01*
X15679587Y-11536484D02*
X15660539Y-11526960D01*
X15660539Y-11526960D02*
X15651015Y-11507912D01*
X15651015Y-11507912D02*
X15651015Y-11336484D01*
X15831968Y-11526960D02*
X15812920Y-11536484D01*
X15812920Y-11536484D02*
X15774825Y-11536484D01*
X15774825Y-11536484D02*
X15755777Y-11526960D01*
X15755777Y-11526960D02*
X15746253Y-11507912D01*
X15746253Y-11507912D02*
X15746253Y-11431722D01*
X15746253Y-11431722D02*
X15755777Y-11412674D01*
X15755777Y-11412674D02*
X15774825Y-11403150D01*
X15774825Y-11403150D02*
X15812920Y-11403150D01*
X15812920Y-11403150D02*
X15831968Y-11412674D01*
X15831968Y-11412674D02*
X15841491Y-11431722D01*
X15841491Y-11431722D02*
X15841491Y-11450769D01*
X15841491Y-11450769D02*
X15746253Y-11469817D01*
X15917682Y-11526960D02*
X15936730Y-11536484D01*
X15936730Y-11536484D02*
X15974825Y-11536484D01*
X15974825Y-11536484D02*
X15993872Y-11526960D01*
X15993872Y-11526960D02*
X16003396Y-11507912D01*
X16003396Y-11507912D02*
X16003396Y-11498388D01*
X16003396Y-11498388D02*
X15993872Y-11479341D01*
X15993872Y-11479341D02*
X15974825Y-11469817D01*
X15974825Y-11469817D02*
X15946253Y-11469817D01*
X15946253Y-11469817D02*
X15927206Y-11460293D01*
X15927206Y-11460293D02*
X15917682Y-11441246D01*
X15917682Y-11441246D02*
X15917682Y-11431722D01*
X15917682Y-11431722D02*
X15927206Y-11412674D01*
X15927206Y-11412674D02*
X15946253Y-11403150D01*
X15946253Y-11403150D02*
X15974825Y-11403150D01*
X15974825Y-11403150D02*
X15993872Y-11412674D01*
X16070063Y-11612674D02*
X16079587Y-11603150D01*
X16079587Y-11603150D02*
X16098634Y-11574579D01*
X16098634Y-11574579D02*
X16108158Y-11555531D01*
X16108158Y-11555531D02*
X16117682Y-11526960D01*
X16117682Y-11526960D02*
X16127206Y-11479341D01*
X16127206Y-11479341D02*
X16127206Y-11441246D01*
X16127206Y-11441246D02*
X16117682Y-11393627D01*
X16117682Y-11393627D02*
X16108158Y-11365055D01*
X16108158Y-11365055D02*
X16098634Y-11346008D01*
X16098634Y-11346008D02*
X16079587Y-11317436D01*
X16079587Y-11317436D02*
X16070063Y-11307912D01*
D10*
X11295000Y-11709000D02*
G75*
G03*
X11295000Y-11709000I-32500J0D01*
G01*
D11*
X11593872Y-11600484D02*
X11612920Y-11600484D01*
X11612920Y-11600484D02*
X11631967Y-11610008D01*
X11631967Y-11610008D02*
X11641491Y-11619531D01*
X11641491Y-11619531D02*
X11651015Y-11638579D01*
X11651015Y-11638579D02*
X11660539Y-11676674D01*
X11660539Y-11676674D02*
X11660539Y-11724293D01*
X11660539Y-11724293D02*
X11651015Y-11762388D01*
X11651015Y-11762388D02*
X11641491Y-11781436D01*
X11641491Y-11781436D02*
X11631967Y-11790960D01*
X11631967Y-11790960D02*
X11612920Y-11800484D01*
X11612920Y-11800484D02*
X11593872Y-11800484D01*
X11593872Y-11800484D02*
X11574824Y-11790960D01*
X11574824Y-11790960D02*
X11565301Y-11781436D01*
X11565301Y-11781436D02*
X11555777Y-11762388D01*
X11555777Y-11762388D02*
X11546253Y-11724293D01*
X11546253Y-11724293D02*
X11546253Y-11676674D01*
X11546253Y-11676674D02*
X11555777Y-11638579D01*
X11555777Y-11638579D02*
X11565301Y-11619531D01*
X11565301Y-11619531D02*
X11574824Y-11610008D01*
X11574824Y-11610008D02*
X11593872Y-11600484D01*
X11746253Y-11781436D02*
X11755777Y-11790960D01*
X11755777Y-11790960D02*
X11746253Y-11800484D01*
X11746253Y-11800484D02*
X11736729Y-11790960D01*
X11736729Y-11790960D02*
X11746253Y-11781436D01*
X11746253Y-11781436D02*
X11746253Y-11800484D01*
X11927205Y-11600484D02*
X11889110Y-11600484D01*
X11889110Y-11600484D02*
X11870062Y-11610008D01*
X11870062Y-11610008D02*
X11860539Y-11619531D01*
X11860539Y-11619531D02*
X11841491Y-11648103D01*
X11841491Y-11648103D02*
X11831967Y-11686198D01*
X11831967Y-11686198D02*
X11831967Y-11762388D01*
X11831967Y-11762388D02*
X11841491Y-11781436D01*
X11841491Y-11781436D02*
X11851015Y-11790960D01*
X11851015Y-11790960D02*
X11870062Y-11800484D01*
X11870062Y-11800484D02*
X11908158Y-11800484D01*
X11908158Y-11800484D02*
X11927205Y-11790960D01*
X11927205Y-11790960D02*
X11936729Y-11781436D01*
X11936729Y-11781436D02*
X11946253Y-11762388D01*
X11946253Y-11762388D02*
X11946253Y-11714769D01*
X11946253Y-11714769D02*
X11936729Y-11695722D01*
X11936729Y-11695722D02*
X11927205Y-11686198D01*
X11927205Y-11686198D02*
X11908158Y-11676674D01*
X11908158Y-11676674D02*
X11870062Y-11676674D01*
X11870062Y-11676674D02*
X11851015Y-11686198D01*
X11851015Y-11686198D02*
X11841491Y-11695722D01*
X11841491Y-11695722D02*
X11831967Y-11714769D01*
X12127205Y-11600484D02*
X12031967Y-11600484D01*
X12031967Y-11600484D02*
X12022443Y-11695722D01*
X12022443Y-11695722D02*
X12031967Y-11686198D01*
X12031967Y-11686198D02*
X12051015Y-11676674D01*
X12051015Y-11676674D02*
X12098634Y-11676674D01*
X12098634Y-11676674D02*
X12117682Y-11686198D01*
X12117682Y-11686198D02*
X12127205Y-11695722D01*
X12127205Y-11695722D02*
X12136729Y-11714769D01*
X12136729Y-11714769D02*
X12136729Y-11762388D01*
X12136729Y-11762388D02*
X12127205Y-11781436D01*
X12127205Y-11781436D02*
X12117682Y-11790960D01*
X12117682Y-11790960D02*
X12098634Y-11800484D01*
X12098634Y-11800484D02*
X12051015Y-11800484D01*
X12051015Y-11800484D02*
X12031967Y-11790960D01*
X12031967Y-11790960D02*
X12022443Y-11781436D01*
X12260539Y-11600484D02*
X12279586Y-11600484D01*
X12279586Y-11600484D02*
X12298634Y-11610008D01*
X12298634Y-11610008D02*
X12308158Y-11619531D01*
X12308158Y-11619531D02*
X12317682Y-11638579D01*
X12317682Y-11638579D02*
X12327205Y-11676674D01*
X12327205Y-11676674D02*
X12327205Y-11724293D01*
X12327205Y-11724293D02*
X12317682Y-11762388D01*
X12317682Y-11762388D02*
X12308158Y-11781436D01*
X12308158Y-11781436D02*
X12298634Y-11790960D01*
X12298634Y-11790960D02*
X12279586Y-11800484D01*
X12279586Y-11800484D02*
X12260539Y-11800484D01*
X12260539Y-11800484D02*
X12241491Y-11790960D01*
X12241491Y-11790960D02*
X12231967Y-11781436D01*
X12231967Y-11781436D02*
X12222443Y-11762388D01*
X12222443Y-11762388D02*
X12212920Y-11724293D01*
X12212920Y-11724293D02*
X12212920Y-11676674D01*
X12212920Y-11676674D02*
X12222443Y-11638579D01*
X12222443Y-11638579D02*
X12231967Y-11619531D01*
X12231967Y-11619531D02*
X12241491Y-11610008D01*
X12241491Y-11610008D02*
X12260539Y-11600484D01*
X12412920Y-11800484D02*
X12412920Y-11667150D01*
X12412920Y-11686198D02*
X12422443Y-11676674D01*
X12422443Y-11676674D02*
X12441491Y-11667150D01*
X12441491Y-11667150D02*
X12470063Y-11667150D01*
X12470063Y-11667150D02*
X12489110Y-11676674D01*
X12489110Y-11676674D02*
X12498634Y-11695722D01*
X12498634Y-11695722D02*
X12498634Y-11800484D01*
X12498634Y-11695722D02*
X12508158Y-11676674D01*
X12508158Y-11676674D02*
X12527205Y-11667150D01*
X12527205Y-11667150D02*
X12555777Y-11667150D01*
X12555777Y-11667150D02*
X12574824Y-11676674D01*
X12574824Y-11676674D02*
X12584348Y-11695722D01*
X12584348Y-11695722D02*
X12584348Y-11800484D01*
X12679586Y-11800484D02*
X12679586Y-11667150D01*
X12679586Y-11686198D02*
X12689110Y-11676674D01*
X12689110Y-11676674D02*
X12708158Y-11667150D01*
X12708158Y-11667150D02*
X12736729Y-11667150D01*
X12736729Y-11667150D02*
X12755777Y-11676674D01*
X12755777Y-11676674D02*
X12765301Y-11695722D01*
X12765301Y-11695722D02*
X12765301Y-11800484D01*
X12765301Y-11695722D02*
X12774824Y-11676674D01*
X12774824Y-11676674D02*
X12793872Y-11667150D01*
X12793872Y-11667150D02*
X12822443Y-11667150D01*
X12822443Y-11667150D02*
X12841491Y-11676674D01*
X12841491Y-11676674D02*
X12851015Y-11695722D01*
X12851015Y-11695722D02*
X12851015Y-11800484D01*
X13241491Y-11590960D02*
X13070063Y-11848103D01*
X13498634Y-11600484D02*
X13517682Y-11600484D01*
X13517682Y-11600484D02*
X13536729Y-11610008D01*
X13536729Y-11610008D02*
X13546253Y-11619531D01*
X13546253Y-11619531D02*
X13555777Y-11638579D01*
X13555777Y-11638579D02*
X13565301Y-11676674D01*
X13565301Y-11676674D02*
X13565301Y-11724293D01*
X13565301Y-11724293D02*
X13555777Y-11762388D01*
X13555777Y-11762388D02*
X13546253Y-11781436D01*
X13546253Y-11781436D02*
X13536729Y-11790960D01*
X13536729Y-11790960D02*
X13517682Y-11800484D01*
X13517682Y-11800484D02*
X13498634Y-11800484D01*
X13498634Y-11800484D02*
X13479586Y-11790960D01*
X13479586Y-11790960D02*
X13470063Y-11781436D01*
X13470063Y-11781436D02*
X13460539Y-11762388D01*
X13460539Y-11762388D02*
X13451015Y-11724293D01*
X13451015Y-11724293D02*
X13451015Y-11676674D01*
X13451015Y-11676674D02*
X13460539Y-11638579D01*
X13460539Y-11638579D02*
X13470063Y-11619531D01*
X13470063Y-11619531D02*
X13479586Y-11610008D01*
X13479586Y-11610008D02*
X13498634Y-11600484D01*
X13651015Y-11781436D02*
X13660539Y-11790960D01*
X13660539Y-11790960D02*
X13651015Y-11800484D01*
X13651015Y-11800484D02*
X13641491Y-11790960D01*
X13641491Y-11790960D02*
X13651015Y-11781436D01*
X13651015Y-11781436D02*
X13651015Y-11800484D01*
X13784348Y-11600484D02*
X13803396Y-11600484D01*
X13803396Y-11600484D02*
X13822444Y-11610008D01*
X13822444Y-11610008D02*
X13831967Y-11619531D01*
X13831967Y-11619531D02*
X13841491Y-11638579D01*
X13841491Y-11638579D02*
X13851015Y-11676674D01*
X13851015Y-11676674D02*
X13851015Y-11724293D01*
X13851015Y-11724293D02*
X13841491Y-11762388D01*
X13841491Y-11762388D02*
X13831967Y-11781436D01*
X13831967Y-11781436D02*
X13822444Y-11790960D01*
X13822444Y-11790960D02*
X13803396Y-11800484D01*
X13803396Y-11800484D02*
X13784348Y-11800484D01*
X13784348Y-11800484D02*
X13765301Y-11790960D01*
X13765301Y-11790960D02*
X13755777Y-11781436D01*
X13755777Y-11781436D02*
X13746253Y-11762388D01*
X13746253Y-11762388D02*
X13736729Y-11724293D01*
X13736729Y-11724293D02*
X13736729Y-11676674D01*
X13736729Y-11676674D02*
X13746253Y-11638579D01*
X13746253Y-11638579D02*
X13755777Y-11619531D01*
X13755777Y-11619531D02*
X13765301Y-11610008D01*
X13765301Y-11610008D02*
X13784348Y-11600484D01*
X13927206Y-11619531D02*
X13936729Y-11610008D01*
X13936729Y-11610008D02*
X13955777Y-11600484D01*
X13955777Y-11600484D02*
X14003396Y-11600484D01*
X14003396Y-11600484D02*
X14022444Y-11610008D01*
X14022444Y-11610008D02*
X14031967Y-11619531D01*
X14031967Y-11619531D02*
X14041491Y-11638579D01*
X14041491Y-11638579D02*
X14041491Y-11657627D01*
X14041491Y-11657627D02*
X14031967Y-11686198D01*
X14031967Y-11686198D02*
X13917682Y-11800484D01*
X13917682Y-11800484D02*
X14041491Y-11800484D01*
X14222444Y-11600484D02*
X14127206Y-11600484D01*
X14127206Y-11600484D02*
X14117682Y-11695722D01*
X14117682Y-11695722D02*
X14127206Y-11686198D01*
X14127206Y-11686198D02*
X14146253Y-11676674D01*
X14146253Y-11676674D02*
X14193872Y-11676674D01*
X14193872Y-11676674D02*
X14212920Y-11686198D01*
X14212920Y-11686198D02*
X14222444Y-11695722D01*
X14222444Y-11695722D02*
X14231967Y-11714769D01*
X14231967Y-11714769D02*
X14231967Y-11762388D01*
X14231967Y-11762388D02*
X14222444Y-11781436D01*
X14222444Y-11781436D02*
X14212920Y-11790960D01*
X14212920Y-11790960D02*
X14193872Y-11800484D01*
X14193872Y-11800484D02*
X14146253Y-11800484D01*
X14146253Y-11800484D02*
X14127206Y-11790960D01*
X14127206Y-11790960D02*
X14117682Y-11781436D01*
X14403396Y-11600484D02*
X14365301Y-11600484D01*
X14365301Y-11600484D02*
X14346253Y-11610008D01*
X14346253Y-11610008D02*
X14336729Y-11619531D01*
X14336729Y-11619531D02*
X14317682Y-11648103D01*
X14317682Y-11648103D02*
X14308158Y-11686198D01*
X14308158Y-11686198D02*
X14308158Y-11762388D01*
X14308158Y-11762388D02*
X14317682Y-11781436D01*
X14317682Y-11781436D02*
X14327206Y-11790960D01*
X14327206Y-11790960D02*
X14346253Y-11800484D01*
X14346253Y-11800484D02*
X14384348Y-11800484D01*
X14384348Y-11800484D02*
X14403396Y-11790960D01*
X14403396Y-11790960D02*
X14412920Y-11781436D01*
X14412920Y-11781436D02*
X14422444Y-11762388D01*
X14422444Y-11762388D02*
X14422444Y-11714769D01*
X14422444Y-11714769D02*
X14412920Y-11695722D01*
X14412920Y-11695722D02*
X14403396Y-11686198D01*
X14403396Y-11686198D02*
X14384348Y-11676674D01*
X14384348Y-11676674D02*
X14346253Y-11676674D01*
X14346253Y-11676674D02*
X14327206Y-11686198D01*
X14327206Y-11686198D02*
X14317682Y-11695722D01*
X14317682Y-11695722D02*
X14308158Y-11714769D01*
X14498634Y-11600484D02*
X14498634Y-11638579D01*
X14574825Y-11600484D02*
X14574825Y-11638579D01*
X14870063Y-11876674D02*
X14860539Y-11867150D01*
X14860539Y-11867150D02*
X14841491Y-11838579D01*
X14841491Y-11838579D02*
X14831968Y-11819531D01*
X14831968Y-11819531D02*
X14822444Y-11790960D01*
X14822444Y-11790960D02*
X14812920Y-11743341D01*
X14812920Y-11743341D02*
X14812920Y-11705246D01*
X14812920Y-11705246D02*
X14822444Y-11657627D01*
X14822444Y-11657627D02*
X14831968Y-11629055D01*
X14831968Y-11629055D02*
X14841491Y-11610008D01*
X14841491Y-11610008D02*
X14860539Y-11581436D01*
X14860539Y-11581436D02*
X14870063Y-11571912D01*
X14927206Y-11600484D02*
X15060539Y-11600484D01*
X15060539Y-11600484D02*
X14974825Y-11800484D01*
X15289110Y-11800484D02*
X15289110Y-11600484D01*
X15374825Y-11800484D02*
X15374825Y-11695722D01*
X15374825Y-11695722D02*
X15365301Y-11676674D01*
X15365301Y-11676674D02*
X15346253Y-11667150D01*
X15346253Y-11667150D02*
X15317682Y-11667150D01*
X15317682Y-11667150D02*
X15298634Y-11676674D01*
X15298634Y-11676674D02*
X15289110Y-11686198D01*
X15498634Y-11800484D02*
X15479587Y-11790960D01*
X15479587Y-11790960D02*
X15470063Y-11781436D01*
X15470063Y-11781436D02*
X15460539Y-11762388D01*
X15460539Y-11762388D02*
X15460539Y-11705246D01*
X15460539Y-11705246D02*
X15470063Y-11686198D01*
X15470063Y-11686198D02*
X15479587Y-11676674D01*
X15479587Y-11676674D02*
X15498634Y-11667150D01*
X15498634Y-11667150D02*
X15527206Y-11667150D01*
X15527206Y-11667150D02*
X15546253Y-11676674D01*
X15546253Y-11676674D02*
X15555777Y-11686198D01*
X15555777Y-11686198D02*
X15565301Y-11705246D01*
X15565301Y-11705246D02*
X15565301Y-11762388D01*
X15565301Y-11762388D02*
X15555777Y-11781436D01*
X15555777Y-11781436D02*
X15546253Y-11790960D01*
X15546253Y-11790960D02*
X15527206Y-11800484D01*
X15527206Y-11800484D02*
X15498634Y-11800484D01*
X15679587Y-11800484D02*
X15660539Y-11790960D01*
X15660539Y-11790960D02*
X15651015Y-11771912D01*
X15651015Y-11771912D02*
X15651015Y-11600484D01*
X15831968Y-11790960D02*
X15812920Y-11800484D01*
X15812920Y-11800484D02*
X15774825Y-11800484D01*
X15774825Y-11800484D02*
X15755777Y-11790960D01*
X15755777Y-11790960D02*
X15746253Y-11771912D01*
X15746253Y-11771912D02*
X15746253Y-11695722D01*
X15746253Y-11695722D02*
X15755777Y-11676674D01*
X15755777Y-11676674D02*
X15774825Y-11667150D01*
X15774825Y-11667150D02*
X15812920Y-11667150D01*
X15812920Y-11667150D02*
X15831968Y-11676674D01*
X15831968Y-11676674D02*
X15841491Y-11695722D01*
X15841491Y-11695722D02*
X15841491Y-11714769D01*
X15841491Y-11714769D02*
X15746253Y-11733817D01*
X15917682Y-11790960D02*
X15936730Y-11800484D01*
X15936730Y-11800484D02*
X15974825Y-11800484D01*
X15974825Y-11800484D02*
X15993872Y-11790960D01*
X15993872Y-11790960D02*
X16003396Y-11771912D01*
X16003396Y-11771912D02*
X16003396Y-11762388D01*
X16003396Y-11762388D02*
X15993872Y-11743341D01*
X15993872Y-11743341D02*
X15974825Y-11733817D01*
X15974825Y-11733817D02*
X15946253Y-11733817D01*
X15946253Y-11733817D02*
X15927206Y-11724293D01*
X15927206Y-11724293D02*
X15917682Y-11705246D01*
X15917682Y-11705246D02*
X15917682Y-11695722D01*
X15917682Y-11695722D02*
X15927206Y-11676674D01*
X15927206Y-11676674D02*
X15946253Y-11667150D01*
X15946253Y-11667150D02*
X15974825Y-11667150D01*
X15974825Y-11667150D02*
X15993872Y-11676674D01*
X16070063Y-11876674D02*
X16079587Y-11867150D01*
X16079587Y-11867150D02*
X16098634Y-11838579D01*
X16098634Y-11838579D02*
X16108158Y-11819531D01*
X16108158Y-11819531D02*
X16117682Y-11790960D01*
X16117682Y-11790960D02*
X16127206Y-11743341D01*
X16127206Y-11743341D02*
X16127206Y-11705246D01*
X16127206Y-11705246D02*
X16117682Y-11657627D01*
X16117682Y-11657627D02*
X16108158Y-11629055D01*
X16108158Y-11629055D02*
X16098634Y-11610008D01*
X16098634Y-11610008D02*
X16079587Y-11581436D01*
X16079587Y-11581436D02*
X16070063Y-11571912D01*
D10*
X11255000Y-11933000D02*
X11255000Y-12013000D01*
X11215000Y-11973000D02*
X11295000Y-11973000D01*
D11*
X11593872Y-11864484D02*
X11612920Y-11864484D01*
X11612920Y-11864484D02*
X11631967Y-11874008D01*
X11631967Y-11874008D02*
X11641491Y-11883531D01*
X11641491Y-11883531D02*
X11651015Y-11902579D01*
X11651015Y-11902579D02*
X11660539Y-11940674D01*
X11660539Y-11940674D02*
X11660539Y-11988293D01*
X11660539Y-11988293D02*
X11651015Y-12026388D01*
X11651015Y-12026388D02*
X11641491Y-12045436D01*
X11641491Y-12045436D02*
X11631967Y-12054960D01*
X11631967Y-12054960D02*
X11612920Y-12064484D01*
X11612920Y-12064484D02*
X11593872Y-12064484D01*
X11593872Y-12064484D02*
X11574824Y-12054960D01*
X11574824Y-12054960D02*
X11565301Y-12045436D01*
X11565301Y-12045436D02*
X11555777Y-12026388D01*
X11555777Y-12026388D02*
X11546253Y-11988293D01*
X11546253Y-11988293D02*
X11546253Y-11940674D01*
X11546253Y-11940674D02*
X11555777Y-11902579D01*
X11555777Y-11902579D02*
X11565301Y-11883531D01*
X11565301Y-11883531D02*
X11574824Y-11874008D01*
X11574824Y-11874008D02*
X11593872Y-11864484D01*
X11746253Y-12045436D02*
X11755777Y-12054960D01*
X11755777Y-12054960D02*
X11746253Y-12064484D01*
X11746253Y-12064484D02*
X11736729Y-12054960D01*
X11736729Y-12054960D02*
X11746253Y-12045436D01*
X11746253Y-12045436D02*
X11746253Y-12064484D01*
X11870062Y-11950198D02*
X11851015Y-11940674D01*
X11851015Y-11940674D02*
X11841491Y-11931150D01*
X11841491Y-11931150D02*
X11831967Y-11912103D01*
X11831967Y-11912103D02*
X11831967Y-11902579D01*
X11831967Y-11902579D02*
X11841491Y-11883531D01*
X11841491Y-11883531D02*
X11851015Y-11874008D01*
X11851015Y-11874008D02*
X11870062Y-11864484D01*
X11870062Y-11864484D02*
X11908158Y-11864484D01*
X11908158Y-11864484D02*
X11927205Y-11874008D01*
X11927205Y-11874008D02*
X11936729Y-11883531D01*
X11936729Y-11883531D02*
X11946253Y-11902579D01*
X11946253Y-11902579D02*
X11946253Y-11912103D01*
X11946253Y-11912103D02*
X11936729Y-11931150D01*
X11936729Y-11931150D02*
X11927205Y-11940674D01*
X11927205Y-11940674D02*
X11908158Y-11950198D01*
X11908158Y-11950198D02*
X11870062Y-11950198D01*
X11870062Y-11950198D02*
X11851015Y-11959722D01*
X11851015Y-11959722D02*
X11841491Y-11969246D01*
X11841491Y-11969246D02*
X11831967Y-11988293D01*
X11831967Y-11988293D02*
X11831967Y-12026388D01*
X11831967Y-12026388D02*
X11841491Y-12045436D01*
X11841491Y-12045436D02*
X11851015Y-12054960D01*
X11851015Y-12054960D02*
X11870062Y-12064484D01*
X11870062Y-12064484D02*
X11908158Y-12064484D01*
X11908158Y-12064484D02*
X11927205Y-12054960D01*
X11927205Y-12054960D02*
X11936729Y-12045436D01*
X11936729Y-12045436D02*
X11946253Y-12026388D01*
X11946253Y-12026388D02*
X11946253Y-11988293D01*
X11946253Y-11988293D02*
X11936729Y-11969246D01*
X11936729Y-11969246D02*
X11927205Y-11959722D01*
X11927205Y-11959722D02*
X11908158Y-11950198D01*
X12070062Y-11864484D02*
X12089110Y-11864484D01*
X12089110Y-11864484D02*
X12108158Y-11874008D01*
X12108158Y-11874008D02*
X12117682Y-11883531D01*
X12117682Y-11883531D02*
X12127205Y-11902579D01*
X12127205Y-11902579D02*
X12136729Y-11940674D01*
X12136729Y-11940674D02*
X12136729Y-11988293D01*
X12136729Y-11988293D02*
X12127205Y-12026388D01*
X12127205Y-12026388D02*
X12117682Y-12045436D01*
X12117682Y-12045436D02*
X12108158Y-12054960D01*
X12108158Y-12054960D02*
X12089110Y-12064484D01*
X12089110Y-12064484D02*
X12070062Y-12064484D01*
X12070062Y-12064484D02*
X12051015Y-12054960D01*
X12051015Y-12054960D02*
X12041491Y-12045436D01*
X12041491Y-12045436D02*
X12031967Y-12026388D01*
X12031967Y-12026388D02*
X12022443Y-11988293D01*
X12022443Y-11988293D02*
X12022443Y-11940674D01*
X12022443Y-11940674D02*
X12031967Y-11902579D01*
X12031967Y-11902579D02*
X12041491Y-11883531D01*
X12041491Y-11883531D02*
X12051015Y-11874008D01*
X12051015Y-11874008D02*
X12070062Y-11864484D01*
X12260539Y-11864484D02*
X12279586Y-11864484D01*
X12279586Y-11864484D02*
X12298634Y-11874008D01*
X12298634Y-11874008D02*
X12308158Y-11883531D01*
X12308158Y-11883531D02*
X12317682Y-11902579D01*
X12317682Y-11902579D02*
X12327205Y-11940674D01*
X12327205Y-11940674D02*
X12327205Y-11988293D01*
X12327205Y-11988293D02*
X12317682Y-12026388D01*
X12317682Y-12026388D02*
X12308158Y-12045436D01*
X12308158Y-12045436D02*
X12298634Y-12054960D01*
X12298634Y-12054960D02*
X12279586Y-12064484D01*
X12279586Y-12064484D02*
X12260539Y-12064484D01*
X12260539Y-12064484D02*
X12241491Y-12054960D01*
X12241491Y-12054960D02*
X12231967Y-12045436D01*
X12231967Y-12045436D02*
X12222443Y-12026388D01*
X12222443Y-12026388D02*
X12212920Y-11988293D01*
X12212920Y-11988293D02*
X12212920Y-11940674D01*
X12212920Y-11940674D02*
X12222443Y-11902579D01*
X12222443Y-11902579D02*
X12231967Y-11883531D01*
X12231967Y-11883531D02*
X12241491Y-11874008D01*
X12241491Y-11874008D02*
X12260539Y-11864484D01*
X12412920Y-12064484D02*
X12412920Y-11931150D01*
X12412920Y-11950198D02*
X12422443Y-11940674D01*
X12422443Y-11940674D02*
X12441491Y-11931150D01*
X12441491Y-11931150D02*
X12470063Y-11931150D01*
X12470063Y-11931150D02*
X12489110Y-11940674D01*
X12489110Y-11940674D02*
X12498634Y-11959722D01*
X12498634Y-11959722D02*
X12498634Y-12064484D01*
X12498634Y-11959722D02*
X12508158Y-11940674D01*
X12508158Y-11940674D02*
X12527205Y-11931150D01*
X12527205Y-11931150D02*
X12555777Y-11931150D01*
X12555777Y-11931150D02*
X12574824Y-11940674D01*
X12574824Y-11940674D02*
X12584348Y-11959722D01*
X12584348Y-11959722D02*
X12584348Y-12064484D01*
X12679586Y-12064484D02*
X12679586Y-11931150D01*
X12679586Y-11950198D02*
X12689110Y-11940674D01*
X12689110Y-11940674D02*
X12708158Y-11931150D01*
X12708158Y-11931150D02*
X12736729Y-11931150D01*
X12736729Y-11931150D02*
X12755777Y-11940674D01*
X12755777Y-11940674D02*
X12765301Y-11959722D01*
X12765301Y-11959722D02*
X12765301Y-12064484D01*
X12765301Y-11959722D02*
X12774824Y-11940674D01*
X12774824Y-11940674D02*
X12793872Y-11931150D01*
X12793872Y-11931150D02*
X12822443Y-11931150D01*
X12822443Y-11931150D02*
X12841491Y-11940674D01*
X12841491Y-11940674D02*
X12851015Y-11959722D01*
X12851015Y-11959722D02*
X12851015Y-12064484D01*
X13241491Y-11854960D02*
X13070063Y-12112103D01*
X13498634Y-11864484D02*
X13517682Y-11864484D01*
X13517682Y-11864484D02*
X13536729Y-11874008D01*
X13536729Y-11874008D02*
X13546253Y-11883531D01*
X13546253Y-11883531D02*
X13555777Y-11902579D01*
X13555777Y-11902579D02*
X13565301Y-11940674D01*
X13565301Y-11940674D02*
X13565301Y-11988293D01*
X13565301Y-11988293D02*
X13555777Y-12026388D01*
X13555777Y-12026388D02*
X13546253Y-12045436D01*
X13546253Y-12045436D02*
X13536729Y-12054960D01*
X13536729Y-12054960D02*
X13517682Y-12064484D01*
X13517682Y-12064484D02*
X13498634Y-12064484D01*
X13498634Y-12064484D02*
X13479586Y-12054960D01*
X13479586Y-12054960D02*
X13470063Y-12045436D01*
X13470063Y-12045436D02*
X13460539Y-12026388D01*
X13460539Y-12026388D02*
X13451015Y-11988293D01*
X13451015Y-11988293D02*
X13451015Y-11940674D01*
X13451015Y-11940674D02*
X13460539Y-11902579D01*
X13460539Y-11902579D02*
X13470063Y-11883531D01*
X13470063Y-11883531D02*
X13479586Y-11874008D01*
X13479586Y-11874008D02*
X13498634Y-11864484D01*
X13651015Y-12045436D02*
X13660539Y-12054960D01*
X13660539Y-12054960D02*
X13651015Y-12064484D01*
X13651015Y-12064484D02*
X13641491Y-12054960D01*
X13641491Y-12054960D02*
X13651015Y-12045436D01*
X13651015Y-12045436D02*
X13651015Y-12064484D01*
X13784348Y-11864484D02*
X13803396Y-11864484D01*
X13803396Y-11864484D02*
X13822444Y-11874008D01*
X13822444Y-11874008D02*
X13831967Y-11883531D01*
X13831967Y-11883531D02*
X13841491Y-11902579D01*
X13841491Y-11902579D02*
X13851015Y-11940674D01*
X13851015Y-11940674D02*
X13851015Y-11988293D01*
X13851015Y-11988293D02*
X13841491Y-12026388D01*
X13841491Y-12026388D02*
X13831967Y-12045436D01*
X13831967Y-12045436D02*
X13822444Y-12054960D01*
X13822444Y-12054960D02*
X13803396Y-12064484D01*
X13803396Y-12064484D02*
X13784348Y-12064484D01*
X13784348Y-12064484D02*
X13765301Y-12054960D01*
X13765301Y-12054960D02*
X13755777Y-12045436D01*
X13755777Y-12045436D02*
X13746253Y-12026388D01*
X13746253Y-12026388D02*
X13736729Y-11988293D01*
X13736729Y-11988293D02*
X13736729Y-11940674D01*
X13736729Y-11940674D02*
X13746253Y-11902579D01*
X13746253Y-11902579D02*
X13755777Y-11883531D01*
X13755777Y-11883531D02*
X13765301Y-11874008D01*
X13765301Y-11874008D02*
X13784348Y-11864484D01*
X13917682Y-11864484D02*
X14041491Y-11864484D01*
X14041491Y-11864484D02*
X13974825Y-11940674D01*
X13974825Y-11940674D02*
X14003396Y-11940674D01*
X14003396Y-11940674D02*
X14022444Y-11950198D01*
X14022444Y-11950198D02*
X14031967Y-11959722D01*
X14031967Y-11959722D02*
X14041491Y-11978769D01*
X14041491Y-11978769D02*
X14041491Y-12026388D01*
X14041491Y-12026388D02*
X14031967Y-12045436D01*
X14031967Y-12045436D02*
X14022444Y-12054960D01*
X14022444Y-12054960D02*
X14003396Y-12064484D01*
X14003396Y-12064484D02*
X13946253Y-12064484D01*
X13946253Y-12064484D02*
X13927206Y-12054960D01*
X13927206Y-12054960D02*
X13917682Y-12045436D01*
X14231967Y-12064484D02*
X14117682Y-12064484D01*
X14174825Y-12064484D02*
X14174825Y-11864484D01*
X14174825Y-11864484D02*
X14155777Y-11893055D01*
X14155777Y-11893055D02*
X14136729Y-11912103D01*
X14136729Y-11912103D02*
X14117682Y-11921627D01*
X14412920Y-11864484D02*
X14317682Y-11864484D01*
X14317682Y-11864484D02*
X14308158Y-11959722D01*
X14308158Y-11959722D02*
X14317682Y-11950198D01*
X14317682Y-11950198D02*
X14336729Y-11940674D01*
X14336729Y-11940674D02*
X14384348Y-11940674D01*
X14384348Y-11940674D02*
X14403396Y-11950198D01*
X14403396Y-11950198D02*
X14412920Y-11959722D01*
X14412920Y-11959722D02*
X14422444Y-11978769D01*
X14422444Y-11978769D02*
X14422444Y-12026388D01*
X14422444Y-12026388D02*
X14412920Y-12045436D01*
X14412920Y-12045436D02*
X14403396Y-12054960D01*
X14403396Y-12054960D02*
X14384348Y-12064484D01*
X14384348Y-12064484D02*
X14336729Y-12064484D01*
X14336729Y-12064484D02*
X14317682Y-12054960D01*
X14317682Y-12054960D02*
X14308158Y-12045436D01*
X14498634Y-11864484D02*
X14498634Y-11902579D01*
X14574825Y-11864484D02*
X14574825Y-11902579D01*
X14870063Y-12140674D02*
X14860539Y-12131150D01*
X14860539Y-12131150D02*
X14841491Y-12102579D01*
X14841491Y-12102579D02*
X14831968Y-12083531D01*
X14831968Y-12083531D02*
X14822444Y-12054960D01*
X14822444Y-12054960D02*
X14812920Y-12007341D01*
X14812920Y-12007341D02*
X14812920Y-11969246D01*
X14812920Y-11969246D02*
X14822444Y-11921627D01*
X14822444Y-11921627D02*
X14831968Y-11893055D01*
X14831968Y-11893055D02*
X14841491Y-11874008D01*
X14841491Y-11874008D02*
X14860539Y-11845436D01*
X14860539Y-11845436D02*
X14870063Y-11835912D01*
X14936729Y-11883531D02*
X14946253Y-11874008D01*
X14946253Y-11874008D02*
X14965301Y-11864484D01*
X14965301Y-11864484D02*
X15012920Y-11864484D01*
X15012920Y-11864484D02*
X15031968Y-11874008D01*
X15031968Y-11874008D02*
X15041491Y-11883531D01*
X15041491Y-11883531D02*
X15051015Y-11902579D01*
X15051015Y-11902579D02*
X15051015Y-11921627D01*
X15051015Y-11921627D02*
X15041491Y-11950198D01*
X15041491Y-11950198D02*
X14927206Y-12064484D01*
X14927206Y-12064484D02*
X15051015Y-12064484D01*
X15174825Y-11864484D02*
X15193872Y-11864484D01*
X15193872Y-11864484D02*
X15212920Y-11874008D01*
X15212920Y-11874008D02*
X15222444Y-11883531D01*
X15222444Y-11883531D02*
X15231968Y-11902579D01*
X15231968Y-11902579D02*
X15241491Y-11940674D01*
X15241491Y-11940674D02*
X15241491Y-11988293D01*
X15241491Y-11988293D02*
X15231968Y-12026388D01*
X15231968Y-12026388D02*
X15222444Y-12045436D01*
X15222444Y-12045436D02*
X15212920Y-12054960D01*
X15212920Y-12054960D02*
X15193872Y-12064484D01*
X15193872Y-12064484D02*
X15174825Y-12064484D01*
X15174825Y-12064484D02*
X15155777Y-12054960D01*
X15155777Y-12054960D02*
X15146253Y-12045436D01*
X15146253Y-12045436D02*
X15136729Y-12026388D01*
X15136729Y-12026388D02*
X15127206Y-11988293D01*
X15127206Y-11988293D02*
X15127206Y-11940674D01*
X15127206Y-11940674D02*
X15136729Y-11902579D01*
X15136729Y-11902579D02*
X15146253Y-11883531D01*
X15146253Y-11883531D02*
X15155777Y-11874008D01*
X15155777Y-11874008D02*
X15174825Y-11864484D01*
X15479587Y-12064484D02*
X15479587Y-11864484D01*
X15565301Y-12064484D02*
X15565301Y-11959722D01*
X15565301Y-11959722D02*
X15555777Y-11940674D01*
X15555777Y-11940674D02*
X15536730Y-11931150D01*
X15536730Y-11931150D02*
X15508158Y-11931150D01*
X15508158Y-11931150D02*
X15489110Y-11940674D01*
X15489110Y-11940674D02*
X15479587Y-11950198D01*
X15689110Y-12064484D02*
X15670063Y-12054960D01*
X15670063Y-12054960D02*
X15660539Y-12045436D01*
X15660539Y-12045436D02*
X15651015Y-12026388D01*
X15651015Y-12026388D02*
X15651015Y-11969246D01*
X15651015Y-11969246D02*
X15660539Y-11950198D01*
X15660539Y-11950198D02*
X15670063Y-11940674D01*
X15670063Y-11940674D02*
X15689110Y-11931150D01*
X15689110Y-11931150D02*
X15717682Y-11931150D01*
X15717682Y-11931150D02*
X15736730Y-11940674D01*
X15736730Y-11940674D02*
X15746253Y-11950198D01*
X15746253Y-11950198D02*
X15755777Y-11969246D01*
X15755777Y-11969246D02*
X15755777Y-12026388D01*
X15755777Y-12026388D02*
X15746253Y-12045436D01*
X15746253Y-12045436D02*
X15736730Y-12054960D01*
X15736730Y-12054960D02*
X15717682Y-12064484D01*
X15717682Y-12064484D02*
X15689110Y-12064484D01*
X15870063Y-12064484D02*
X15851015Y-12054960D01*
X15851015Y-12054960D02*
X15841491Y-12035912D01*
X15841491Y-12035912D02*
X15841491Y-11864484D01*
X16022444Y-12054960D02*
X16003396Y-12064484D01*
X16003396Y-12064484D02*
X15965301Y-12064484D01*
X15965301Y-12064484D02*
X15946253Y-12054960D01*
X15946253Y-12054960D02*
X15936730Y-12035912D01*
X15936730Y-12035912D02*
X15936730Y-11959722D01*
X15936730Y-11959722D02*
X15946253Y-11940674D01*
X15946253Y-11940674D02*
X15965301Y-11931150D01*
X15965301Y-11931150D02*
X16003396Y-11931150D01*
X16003396Y-11931150D02*
X16022444Y-11940674D01*
X16022444Y-11940674D02*
X16031968Y-11959722D01*
X16031968Y-11959722D02*
X16031968Y-11978769D01*
X16031968Y-11978769D02*
X15936730Y-11997817D01*
X16108158Y-12054960D02*
X16127206Y-12064484D01*
X16127206Y-12064484D02*
X16165301Y-12064484D01*
X16165301Y-12064484D02*
X16184349Y-12054960D01*
X16184349Y-12054960D02*
X16193872Y-12035912D01*
X16193872Y-12035912D02*
X16193872Y-12026388D01*
X16193872Y-12026388D02*
X16184349Y-12007341D01*
X16184349Y-12007341D02*
X16165301Y-11997817D01*
X16165301Y-11997817D02*
X16136730Y-11997817D01*
X16136730Y-11997817D02*
X16117682Y-11988293D01*
X16117682Y-11988293D02*
X16108158Y-11969246D01*
X16108158Y-11969246D02*
X16108158Y-11959722D01*
X16108158Y-11959722D02*
X16117682Y-11940674D01*
X16117682Y-11940674D02*
X16136730Y-11931150D01*
X16136730Y-11931150D02*
X16165301Y-11931150D01*
X16165301Y-11931150D02*
X16184349Y-11940674D01*
X16260539Y-12140674D02*
X16270063Y-12131150D01*
X16270063Y-12131150D02*
X16289111Y-12102579D01*
X16289111Y-12102579D02*
X16298634Y-12083531D01*
X16298634Y-12083531D02*
X16308158Y-12054960D01*
X16308158Y-12054960D02*
X16317682Y-12007341D01*
X16317682Y-12007341D02*
X16317682Y-11969246D01*
X16317682Y-11969246D02*
X16308158Y-11921627D01*
X16308158Y-11921627D02*
X16298634Y-11893055D01*
X16298634Y-11893055D02*
X16289111Y-11874008D01*
X16289111Y-11874008D02*
X16270063Y-11845436D01*
X16270063Y-11845436D02*
X16260539Y-11835912D01*
D10*
X11282772Y-12266522D02*
X11282772Y-12207478D01*
X11223728Y-12207478D01*
X11223728Y-12266522D01*
X11282772Y-12266522D01*
D11*
X11593872Y-12128484D02*
X11612920Y-12128484D01*
X11612920Y-12128484D02*
X11631967Y-12138008D01*
X11631967Y-12138008D02*
X11641491Y-12147531D01*
X11641491Y-12147531D02*
X11651015Y-12166579D01*
X11651015Y-12166579D02*
X11660539Y-12204674D01*
X11660539Y-12204674D02*
X11660539Y-12252293D01*
X11660539Y-12252293D02*
X11651015Y-12290388D01*
X11651015Y-12290388D02*
X11641491Y-12309436D01*
X11641491Y-12309436D02*
X11631967Y-12318960D01*
X11631967Y-12318960D02*
X11612920Y-12328484D01*
X11612920Y-12328484D02*
X11593872Y-12328484D01*
X11593872Y-12328484D02*
X11574824Y-12318960D01*
X11574824Y-12318960D02*
X11565301Y-12309436D01*
X11565301Y-12309436D02*
X11555777Y-12290388D01*
X11555777Y-12290388D02*
X11546253Y-12252293D01*
X11546253Y-12252293D02*
X11546253Y-12204674D01*
X11546253Y-12204674D02*
X11555777Y-12166579D01*
X11555777Y-12166579D02*
X11565301Y-12147531D01*
X11565301Y-12147531D02*
X11574824Y-12138008D01*
X11574824Y-12138008D02*
X11593872Y-12128484D01*
X11746253Y-12309436D02*
X11755777Y-12318960D01*
X11755777Y-12318960D02*
X11746253Y-12328484D01*
X11746253Y-12328484D02*
X11736729Y-12318960D01*
X11736729Y-12318960D02*
X11746253Y-12309436D01*
X11746253Y-12309436D02*
X11746253Y-12328484D01*
X11870062Y-12214198D02*
X11851015Y-12204674D01*
X11851015Y-12204674D02*
X11841491Y-12195150D01*
X11841491Y-12195150D02*
X11831967Y-12176103D01*
X11831967Y-12176103D02*
X11831967Y-12166579D01*
X11831967Y-12166579D02*
X11841491Y-12147531D01*
X11841491Y-12147531D02*
X11851015Y-12138008D01*
X11851015Y-12138008D02*
X11870062Y-12128484D01*
X11870062Y-12128484D02*
X11908158Y-12128484D01*
X11908158Y-12128484D02*
X11927205Y-12138008D01*
X11927205Y-12138008D02*
X11936729Y-12147531D01*
X11936729Y-12147531D02*
X11946253Y-12166579D01*
X11946253Y-12166579D02*
X11946253Y-12176103D01*
X11946253Y-12176103D02*
X11936729Y-12195150D01*
X11936729Y-12195150D02*
X11927205Y-12204674D01*
X11927205Y-12204674D02*
X11908158Y-12214198D01*
X11908158Y-12214198D02*
X11870062Y-12214198D01*
X11870062Y-12214198D02*
X11851015Y-12223722D01*
X11851015Y-12223722D02*
X11841491Y-12233246D01*
X11841491Y-12233246D02*
X11831967Y-12252293D01*
X11831967Y-12252293D02*
X11831967Y-12290388D01*
X11831967Y-12290388D02*
X11841491Y-12309436D01*
X11841491Y-12309436D02*
X11851015Y-12318960D01*
X11851015Y-12318960D02*
X11870062Y-12328484D01*
X11870062Y-12328484D02*
X11908158Y-12328484D01*
X11908158Y-12328484D02*
X11927205Y-12318960D01*
X11927205Y-12318960D02*
X11936729Y-12309436D01*
X11936729Y-12309436D02*
X11946253Y-12290388D01*
X11946253Y-12290388D02*
X11946253Y-12252293D01*
X11946253Y-12252293D02*
X11936729Y-12233246D01*
X11936729Y-12233246D02*
X11927205Y-12223722D01*
X11927205Y-12223722D02*
X11908158Y-12214198D01*
X12012920Y-12128484D02*
X12136729Y-12128484D01*
X12136729Y-12128484D02*
X12070062Y-12204674D01*
X12070062Y-12204674D02*
X12098634Y-12204674D01*
X12098634Y-12204674D02*
X12117682Y-12214198D01*
X12117682Y-12214198D02*
X12127205Y-12223722D01*
X12127205Y-12223722D02*
X12136729Y-12242769D01*
X12136729Y-12242769D02*
X12136729Y-12290388D01*
X12136729Y-12290388D02*
X12127205Y-12309436D01*
X12127205Y-12309436D02*
X12117682Y-12318960D01*
X12117682Y-12318960D02*
X12098634Y-12328484D01*
X12098634Y-12328484D02*
X12041491Y-12328484D01*
X12041491Y-12328484D02*
X12022443Y-12318960D01*
X12022443Y-12318960D02*
X12012920Y-12309436D01*
X12317682Y-12128484D02*
X12222443Y-12128484D01*
X12222443Y-12128484D02*
X12212920Y-12223722D01*
X12212920Y-12223722D02*
X12222443Y-12214198D01*
X12222443Y-12214198D02*
X12241491Y-12204674D01*
X12241491Y-12204674D02*
X12289110Y-12204674D01*
X12289110Y-12204674D02*
X12308158Y-12214198D01*
X12308158Y-12214198D02*
X12317682Y-12223722D01*
X12317682Y-12223722D02*
X12327205Y-12242769D01*
X12327205Y-12242769D02*
X12327205Y-12290388D01*
X12327205Y-12290388D02*
X12317682Y-12309436D01*
X12317682Y-12309436D02*
X12308158Y-12318960D01*
X12308158Y-12318960D02*
X12289110Y-12328484D01*
X12289110Y-12328484D02*
X12241491Y-12328484D01*
X12241491Y-12328484D02*
X12222443Y-12318960D01*
X12222443Y-12318960D02*
X12212920Y-12309436D01*
X12412920Y-12328484D02*
X12412920Y-12195150D01*
X12412920Y-12214198D02*
X12422443Y-12204674D01*
X12422443Y-12204674D02*
X12441491Y-12195150D01*
X12441491Y-12195150D02*
X12470063Y-12195150D01*
X12470063Y-12195150D02*
X12489110Y-12204674D01*
X12489110Y-12204674D02*
X12498634Y-12223722D01*
X12498634Y-12223722D02*
X12498634Y-12328484D01*
X12498634Y-12223722D02*
X12508158Y-12204674D01*
X12508158Y-12204674D02*
X12527205Y-12195150D01*
X12527205Y-12195150D02*
X12555777Y-12195150D01*
X12555777Y-12195150D02*
X12574824Y-12204674D01*
X12574824Y-12204674D02*
X12584348Y-12223722D01*
X12584348Y-12223722D02*
X12584348Y-12328484D01*
X12679586Y-12328484D02*
X12679586Y-12195150D01*
X12679586Y-12214198D02*
X12689110Y-12204674D01*
X12689110Y-12204674D02*
X12708158Y-12195150D01*
X12708158Y-12195150D02*
X12736729Y-12195150D01*
X12736729Y-12195150D02*
X12755777Y-12204674D01*
X12755777Y-12204674D02*
X12765301Y-12223722D01*
X12765301Y-12223722D02*
X12765301Y-12328484D01*
X12765301Y-12223722D02*
X12774824Y-12204674D01*
X12774824Y-12204674D02*
X12793872Y-12195150D01*
X12793872Y-12195150D02*
X12822443Y-12195150D01*
X12822443Y-12195150D02*
X12841491Y-12204674D01*
X12841491Y-12204674D02*
X12851015Y-12223722D01*
X12851015Y-12223722D02*
X12851015Y-12328484D01*
X13241491Y-12118960D02*
X13070063Y-12376103D01*
X13498634Y-12128484D02*
X13517682Y-12128484D01*
X13517682Y-12128484D02*
X13536729Y-12138008D01*
X13536729Y-12138008D02*
X13546253Y-12147531D01*
X13546253Y-12147531D02*
X13555777Y-12166579D01*
X13555777Y-12166579D02*
X13565301Y-12204674D01*
X13565301Y-12204674D02*
X13565301Y-12252293D01*
X13565301Y-12252293D02*
X13555777Y-12290388D01*
X13555777Y-12290388D02*
X13546253Y-12309436D01*
X13546253Y-12309436D02*
X13536729Y-12318960D01*
X13536729Y-12318960D02*
X13517682Y-12328484D01*
X13517682Y-12328484D02*
X13498634Y-12328484D01*
X13498634Y-12328484D02*
X13479586Y-12318960D01*
X13479586Y-12318960D02*
X13470063Y-12309436D01*
X13470063Y-12309436D02*
X13460539Y-12290388D01*
X13460539Y-12290388D02*
X13451015Y-12252293D01*
X13451015Y-12252293D02*
X13451015Y-12204674D01*
X13451015Y-12204674D02*
X13460539Y-12166579D01*
X13460539Y-12166579D02*
X13470063Y-12147531D01*
X13470063Y-12147531D02*
X13479586Y-12138008D01*
X13479586Y-12138008D02*
X13498634Y-12128484D01*
X13651015Y-12309436D02*
X13660539Y-12318960D01*
X13660539Y-12318960D02*
X13651015Y-12328484D01*
X13651015Y-12328484D02*
X13641491Y-12318960D01*
X13641491Y-12318960D02*
X13651015Y-12309436D01*
X13651015Y-12309436D02*
X13651015Y-12328484D01*
X13784348Y-12128484D02*
X13803396Y-12128484D01*
X13803396Y-12128484D02*
X13822444Y-12138008D01*
X13822444Y-12138008D02*
X13831967Y-12147531D01*
X13831967Y-12147531D02*
X13841491Y-12166579D01*
X13841491Y-12166579D02*
X13851015Y-12204674D01*
X13851015Y-12204674D02*
X13851015Y-12252293D01*
X13851015Y-12252293D02*
X13841491Y-12290388D01*
X13841491Y-12290388D02*
X13831967Y-12309436D01*
X13831967Y-12309436D02*
X13822444Y-12318960D01*
X13822444Y-12318960D02*
X13803396Y-12328484D01*
X13803396Y-12328484D02*
X13784348Y-12328484D01*
X13784348Y-12328484D02*
X13765301Y-12318960D01*
X13765301Y-12318960D02*
X13755777Y-12309436D01*
X13755777Y-12309436D02*
X13746253Y-12290388D01*
X13746253Y-12290388D02*
X13736729Y-12252293D01*
X13736729Y-12252293D02*
X13736729Y-12204674D01*
X13736729Y-12204674D02*
X13746253Y-12166579D01*
X13746253Y-12166579D02*
X13755777Y-12147531D01*
X13755777Y-12147531D02*
X13765301Y-12138008D01*
X13765301Y-12138008D02*
X13784348Y-12128484D01*
X13917682Y-12128484D02*
X14041491Y-12128484D01*
X14041491Y-12128484D02*
X13974825Y-12204674D01*
X13974825Y-12204674D02*
X14003396Y-12204674D01*
X14003396Y-12204674D02*
X14022444Y-12214198D01*
X14022444Y-12214198D02*
X14031967Y-12223722D01*
X14031967Y-12223722D02*
X14041491Y-12242769D01*
X14041491Y-12242769D02*
X14041491Y-12290388D01*
X14041491Y-12290388D02*
X14031967Y-12309436D01*
X14031967Y-12309436D02*
X14022444Y-12318960D01*
X14022444Y-12318960D02*
X14003396Y-12328484D01*
X14003396Y-12328484D02*
X13946253Y-12328484D01*
X13946253Y-12328484D02*
X13927206Y-12318960D01*
X13927206Y-12318960D02*
X13917682Y-12309436D01*
X14117682Y-12147531D02*
X14127206Y-12138008D01*
X14127206Y-12138008D02*
X14146253Y-12128484D01*
X14146253Y-12128484D02*
X14193872Y-12128484D01*
X14193872Y-12128484D02*
X14212920Y-12138008D01*
X14212920Y-12138008D02*
X14222444Y-12147531D01*
X14222444Y-12147531D02*
X14231967Y-12166579D01*
X14231967Y-12166579D02*
X14231967Y-12185627D01*
X14231967Y-12185627D02*
X14222444Y-12214198D01*
X14222444Y-12214198D02*
X14108158Y-12328484D01*
X14108158Y-12328484D02*
X14231967Y-12328484D01*
X14327206Y-12328484D02*
X14365301Y-12328484D01*
X14365301Y-12328484D02*
X14384348Y-12318960D01*
X14384348Y-12318960D02*
X14393872Y-12309436D01*
X14393872Y-12309436D02*
X14412920Y-12280865D01*
X14412920Y-12280865D02*
X14422444Y-12242769D01*
X14422444Y-12242769D02*
X14422444Y-12166579D01*
X14422444Y-12166579D02*
X14412920Y-12147531D01*
X14412920Y-12147531D02*
X14403396Y-12138008D01*
X14403396Y-12138008D02*
X14384348Y-12128484D01*
X14384348Y-12128484D02*
X14346253Y-12128484D01*
X14346253Y-12128484D02*
X14327206Y-12138008D01*
X14327206Y-12138008D02*
X14317682Y-12147531D01*
X14317682Y-12147531D02*
X14308158Y-12166579D01*
X14308158Y-12166579D02*
X14308158Y-12214198D01*
X14308158Y-12214198D02*
X14317682Y-12233246D01*
X14317682Y-12233246D02*
X14327206Y-12242769D01*
X14327206Y-12242769D02*
X14346253Y-12252293D01*
X14346253Y-12252293D02*
X14384348Y-12252293D01*
X14384348Y-12252293D02*
X14403396Y-12242769D01*
X14403396Y-12242769D02*
X14412920Y-12233246D01*
X14412920Y-12233246D02*
X14422444Y-12214198D01*
X14498634Y-12128484D02*
X14498634Y-12166579D01*
X14574825Y-12128484D02*
X14574825Y-12166579D01*
X14870063Y-12404674D02*
X14860539Y-12395150D01*
X14860539Y-12395150D02*
X14841491Y-12366579D01*
X14841491Y-12366579D02*
X14831968Y-12347531D01*
X14831968Y-12347531D02*
X14822444Y-12318960D01*
X14822444Y-12318960D02*
X14812920Y-12271341D01*
X14812920Y-12271341D02*
X14812920Y-12233246D01*
X14812920Y-12233246D02*
X14822444Y-12185627D01*
X14822444Y-12185627D02*
X14831968Y-12157055D01*
X14831968Y-12157055D02*
X14841491Y-12138008D01*
X14841491Y-12138008D02*
X14860539Y-12109436D01*
X14860539Y-12109436D02*
X14870063Y-12099912D01*
X14936729Y-12147531D02*
X14946253Y-12138008D01*
X14946253Y-12138008D02*
X14965301Y-12128484D01*
X14965301Y-12128484D02*
X15012920Y-12128484D01*
X15012920Y-12128484D02*
X15031968Y-12138008D01*
X15031968Y-12138008D02*
X15041491Y-12147531D01*
X15041491Y-12147531D02*
X15051015Y-12166579D01*
X15051015Y-12166579D02*
X15051015Y-12185627D01*
X15051015Y-12185627D02*
X15041491Y-12214198D01*
X15041491Y-12214198D02*
X14927206Y-12328484D01*
X14927206Y-12328484D02*
X15051015Y-12328484D01*
X15289110Y-12328484D02*
X15289110Y-12128484D01*
X15374825Y-12328484D02*
X15374825Y-12223722D01*
X15374825Y-12223722D02*
X15365301Y-12204674D01*
X15365301Y-12204674D02*
X15346253Y-12195150D01*
X15346253Y-12195150D02*
X15317682Y-12195150D01*
X15317682Y-12195150D02*
X15298634Y-12204674D01*
X15298634Y-12204674D02*
X15289110Y-12214198D01*
X15498634Y-12328484D02*
X15479587Y-12318960D01*
X15479587Y-12318960D02*
X15470063Y-12309436D01*
X15470063Y-12309436D02*
X15460539Y-12290388D01*
X15460539Y-12290388D02*
X15460539Y-12233246D01*
X15460539Y-12233246D02*
X15470063Y-12214198D01*
X15470063Y-12214198D02*
X15479587Y-12204674D01*
X15479587Y-12204674D02*
X15498634Y-12195150D01*
X15498634Y-12195150D02*
X15527206Y-12195150D01*
X15527206Y-12195150D02*
X15546253Y-12204674D01*
X15546253Y-12204674D02*
X15555777Y-12214198D01*
X15555777Y-12214198D02*
X15565301Y-12233246D01*
X15565301Y-12233246D02*
X15565301Y-12290388D01*
X15565301Y-12290388D02*
X15555777Y-12309436D01*
X15555777Y-12309436D02*
X15546253Y-12318960D01*
X15546253Y-12318960D02*
X15527206Y-12328484D01*
X15527206Y-12328484D02*
X15498634Y-12328484D01*
X15679587Y-12328484D02*
X15660539Y-12318960D01*
X15660539Y-12318960D02*
X15651015Y-12299912D01*
X15651015Y-12299912D02*
X15651015Y-12128484D01*
X15831968Y-12318960D02*
X15812920Y-12328484D01*
X15812920Y-12328484D02*
X15774825Y-12328484D01*
X15774825Y-12328484D02*
X15755777Y-12318960D01*
X15755777Y-12318960D02*
X15746253Y-12299912D01*
X15746253Y-12299912D02*
X15746253Y-12223722D01*
X15746253Y-12223722D02*
X15755777Y-12204674D01*
X15755777Y-12204674D02*
X15774825Y-12195150D01*
X15774825Y-12195150D02*
X15812920Y-12195150D01*
X15812920Y-12195150D02*
X15831968Y-12204674D01*
X15831968Y-12204674D02*
X15841491Y-12223722D01*
X15841491Y-12223722D02*
X15841491Y-12242769D01*
X15841491Y-12242769D02*
X15746253Y-12261817D01*
X15917682Y-12318960D02*
X15936730Y-12328484D01*
X15936730Y-12328484D02*
X15974825Y-12328484D01*
X15974825Y-12328484D02*
X15993872Y-12318960D01*
X15993872Y-12318960D02*
X16003396Y-12299912D01*
X16003396Y-12299912D02*
X16003396Y-12290388D01*
X16003396Y-12290388D02*
X15993872Y-12271341D01*
X15993872Y-12271341D02*
X15974825Y-12261817D01*
X15974825Y-12261817D02*
X15946253Y-12261817D01*
X15946253Y-12261817D02*
X15927206Y-12252293D01*
X15927206Y-12252293D02*
X15917682Y-12233246D01*
X15917682Y-12233246D02*
X15917682Y-12223722D01*
X15917682Y-12223722D02*
X15927206Y-12204674D01*
X15927206Y-12204674D02*
X15946253Y-12195150D01*
X15946253Y-12195150D02*
X15974825Y-12195150D01*
X15974825Y-12195150D02*
X15993872Y-12204674D01*
X16070063Y-12404674D02*
X16079587Y-12395150D01*
X16079587Y-12395150D02*
X16098634Y-12366579D01*
X16098634Y-12366579D02*
X16108158Y-12347531D01*
X16108158Y-12347531D02*
X16117682Y-12318960D01*
X16117682Y-12318960D02*
X16127206Y-12271341D01*
X16127206Y-12271341D02*
X16127206Y-12233246D01*
X16127206Y-12233246D02*
X16117682Y-12185627D01*
X16117682Y-12185627D02*
X16108158Y-12157055D01*
X16108158Y-12157055D02*
X16098634Y-12138008D01*
X16098634Y-12138008D02*
X16079587Y-12109436D01*
X16079587Y-12109436D02*
X16070063Y-12099912D01*
D10*
X11250000Y-12546000D02*
X11295000Y-12501000D01*
X11250000Y-12456000D01*
X11205000Y-12501000D01*
X11250000Y-12546000D01*
D11*
X11593872Y-12392484D02*
X11612920Y-12392484D01*
X11612920Y-12392484D02*
X11631967Y-12402008D01*
X11631967Y-12402008D02*
X11641491Y-12411531D01*
X11641491Y-12411531D02*
X11651015Y-12430579D01*
X11651015Y-12430579D02*
X11660539Y-12468674D01*
X11660539Y-12468674D02*
X11660539Y-12516293D01*
X11660539Y-12516293D02*
X11651015Y-12554388D01*
X11651015Y-12554388D02*
X11641491Y-12573436D01*
X11641491Y-12573436D02*
X11631967Y-12582960D01*
X11631967Y-12582960D02*
X11612920Y-12592484D01*
X11612920Y-12592484D02*
X11593872Y-12592484D01*
X11593872Y-12592484D02*
X11574824Y-12582960D01*
X11574824Y-12582960D02*
X11565301Y-12573436D01*
X11565301Y-12573436D02*
X11555777Y-12554388D01*
X11555777Y-12554388D02*
X11546253Y-12516293D01*
X11546253Y-12516293D02*
X11546253Y-12468674D01*
X11546253Y-12468674D02*
X11555777Y-12430579D01*
X11555777Y-12430579D02*
X11565301Y-12411531D01*
X11565301Y-12411531D02*
X11574824Y-12402008D01*
X11574824Y-12402008D02*
X11593872Y-12392484D01*
X11746253Y-12573436D02*
X11755777Y-12582960D01*
X11755777Y-12582960D02*
X11746253Y-12592484D01*
X11746253Y-12592484D02*
X11736729Y-12582960D01*
X11736729Y-12582960D02*
X11746253Y-12573436D01*
X11746253Y-12573436D02*
X11746253Y-12592484D01*
X11851015Y-12592484D02*
X11889110Y-12592484D01*
X11889110Y-12592484D02*
X11908158Y-12582960D01*
X11908158Y-12582960D02*
X11917682Y-12573436D01*
X11917682Y-12573436D02*
X11936729Y-12544865D01*
X11936729Y-12544865D02*
X11946253Y-12506769D01*
X11946253Y-12506769D02*
X11946253Y-12430579D01*
X11946253Y-12430579D02*
X11936729Y-12411531D01*
X11936729Y-12411531D02*
X11927205Y-12402008D01*
X11927205Y-12402008D02*
X11908158Y-12392484D01*
X11908158Y-12392484D02*
X11870062Y-12392484D01*
X11870062Y-12392484D02*
X11851015Y-12402008D01*
X11851015Y-12402008D02*
X11841491Y-12411531D01*
X11841491Y-12411531D02*
X11831967Y-12430579D01*
X11831967Y-12430579D02*
X11831967Y-12478198D01*
X11831967Y-12478198D02*
X11841491Y-12497246D01*
X11841491Y-12497246D02*
X11851015Y-12506769D01*
X11851015Y-12506769D02*
X11870062Y-12516293D01*
X11870062Y-12516293D02*
X11908158Y-12516293D01*
X11908158Y-12516293D02*
X11927205Y-12506769D01*
X11927205Y-12506769D02*
X11936729Y-12497246D01*
X11936729Y-12497246D02*
X11946253Y-12478198D01*
X12070062Y-12392484D02*
X12089110Y-12392484D01*
X12089110Y-12392484D02*
X12108158Y-12402008D01*
X12108158Y-12402008D02*
X12117682Y-12411531D01*
X12117682Y-12411531D02*
X12127205Y-12430579D01*
X12127205Y-12430579D02*
X12136729Y-12468674D01*
X12136729Y-12468674D02*
X12136729Y-12516293D01*
X12136729Y-12516293D02*
X12127205Y-12554388D01*
X12127205Y-12554388D02*
X12117682Y-12573436D01*
X12117682Y-12573436D02*
X12108158Y-12582960D01*
X12108158Y-12582960D02*
X12089110Y-12592484D01*
X12089110Y-12592484D02*
X12070062Y-12592484D01*
X12070062Y-12592484D02*
X12051015Y-12582960D01*
X12051015Y-12582960D02*
X12041491Y-12573436D01*
X12041491Y-12573436D02*
X12031967Y-12554388D01*
X12031967Y-12554388D02*
X12022443Y-12516293D01*
X12022443Y-12516293D02*
X12022443Y-12468674D01*
X12022443Y-12468674D02*
X12031967Y-12430579D01*
X12031967Y-12430579D02*
X12041491Y-12411531D01*
X12041491Y-12411531D02*
X12051015Y-12402008D01*
X12051015Y-12402008D02*
X12070062Y-12392484D01*
X12260539Y-12392484D02*
X12279586Y-12392484D01*
X12279586Y-12392484D02*
X12298634Y-12402008D01*
X12298634Y-12402008D02*
X12308158Y-12411531D01*
X12308158Y-12411531D02*
X12317682Y-12430579D01*
X12317682Y-12430579D02*
X12327205Y-12468674D01*
X12327205Y-12468674D02*
X12327205Y-12516293D01*
X12327205Y-12516293D02*
X12317682Y-12554388D01*
X12317682Y-12554388D02*
X12308158Y-12573436D01*
X12308158Y-12573436D02*
X12298634Y-12582960D01*
X12298634Y-12582960D02*
X12279586Y-12592484D01*
X12279586Y-12592484D02*
X12260539Y-12592484D01*
X12260539Y-12592484D02*
X12241491Y-12582960D01*
X12241491Y-12582960D02*
X12231967Y-12573436D01*
X12231967Y-12573436D02*
X12222443Y-12554388D01*
X12222443Y-12554388D02*
X12212920Y-12516293D01*
X12212920Y-12516293D02*
X12212920Y-12468674D01*
X12212920Y-12468674D02*
X12222443Y-12430579D01*
X12222443Y-12430579D02*
X12231967Y-12411531D01*
X12231967Y-12411531D02*
X12241491Y-12402008D01*
X12241491Y-12402008D02*
X12260539Y-12392484D01*
X12412920Y-12592484D02*
X12412920Y-12459150D01*
X12412920Y-12478198D02*
X12422443Y-12468674D01*
X12422443Y-12468674D02*
X12441491Y-12459150D01*
X12441491Y-12459150D02*
X12470063Y-12459150D01*
X12470063Y-12459150D02*
X12489110Y-12468674D01*
X12489110Y-12468674D02*
X12498634Y-12487722D01*
X12498634Y-12487722D02*
X12498634Y-12592484D01*
X12498634Y-12487722D02*
X12508158Y-12468674D01*
X12508158Y-12468674D02*
X12527205Y-12459150D01*
X12527205Y-12459150D02*
X12555777Y-12459150D01*
X12555777Y-12459150D02*
X12574824Y-12468674D01*
X12574824Y-12468674D02*
X12584348Y-12487722D01*
X12584348Y-12487722D02*
X12584348Y-12592484D01*
X12679586Y-12592484D02*
X12679586Y-12459150D01*
X12679586Y-12478198D02*
X12689110Y-12468674D01*
X12689110Y-12468674D02*
X12708158Y-12459150D01*
X12708158Y-12459150D02*
X12736729Y-12459150D01*
X12736729Y-12459150D02*
X12755777Y-12468674D01*
X12755777Y-12468674D02*
X12765301Y-12487722D01*
X12765301Y-12487722D02*
X12765301Y-12592484D01*
X12765301Y-12487722D02*
X12774824Y-12468674D01*
X12774824Y-12468674D02*
X12793872Y-12459150D01*
X12793872Y-12459150D02*
X12822443Y-12459150D01*
X12822443Y-12459150D02*
X12841491Y-12468674D01*
X12841491Y-12468674D02*
X12851015Y-12487722D01*
X12851015Y-12487722D02*
X12851015Y-12592484D01*
X13241491Y-12382960D02*
X13070063Y-12640103D01*
X13498634Y-12392484D02*
X13517682Y-12392484D01*
X13517682Y-12392484D02*
X13536729Y-12402008D01*
X13536729Y-12402008D02*
X13546253Y-12411531D01*
X13546253Y-12411531D02*
X13555777Y-12430579D01*
X13555777Y-12430579D02*
X13565301Y-12468674D01*
X13565301Y-12468674D02*
X13565301Y-12516293D01*
X13565301Y-12516293D02*
X13555777Y-12554388D01*
X13555777Y-12554388D02*
X13546253Y-12573436D01*
X13546253Y-12573436D02*
X13536729Y-12582960D01*
X13536729Y-12582960D02*
X13517682Y-12592484D01*
X13517682Y-12592484D02*
X13498634Y-12592484D01*
X13498634Y-12592484D02*
X13479586Y-12582960D01*
X13479586Y-12582960D02*
X13470063Y-12573436D01*
X13470063Y-12573436D02*
X13460539Y-12554388D01*
X13460539Y-12554388D02*
X13451015Y-12516293D01*
X13451015Y-12516293D02*
X13451015Y-12468674D01*
X13451015Y-12468674D02*
X13460539Y-12430579D01*
X13460539Y-12430579D02*
X13470063Y-12411531D01*
X13470063Y-12411531D02*
X13479586Y-12402008D01*
X13479586Y-12402008D02*
X13498634Y-12392484D01*
X13651015Y-12573436D02*
X13660539Y-12582960D01*
X13660539Y-12582960D02*
X13651015Y-12592484D01*
X13651015Y-12592484D02*
X13641491Y-12582960D01*
X13641491Y-12582960D02*
X13651015Y-12573436D01*
X13651015Y-12573436D02*
X13651015Y-12592484D01*
X13784348Y-12392484D02*
X13803396Y-12392484D01*
X13803396Y-12392484D02*
X13822444Y-12402008D01*
X13822444Y-12402008D02*
X13831967Y-12411531D01*
X13831967Y-12411531D02*
X13841491Y-12430579D01*
X13841491Y-12430579D02*
X13851015Y-12468674D01*
X13851015Y-12468674D02*
X13851015Y-12516293D01*
X13851015Y-12516293D02*
X13841491Y-12554388D01*
X13841491Y-12554388D02*
X13831967Y-12573436D01*
X13831967Y-12573436D02*
X13822444Y-12582960D01*
X13822444Y-12582960D02*
X13803396Y-12592484D01*
X13803396Y-12592484D02*
X13784348Y-12592484D01*
X13784348Y-12592484D02*
X13765301Y-12582960D01*
X13765301Y-12582960D02*
X13755777Y-12573436D01*
X13755777Y-12573436D02*
X13746253Y-12554388D01*
X13746253Y-12554388D02*
X13736729Y-12516293D01*
X13736729Y-12516293D02*
X13736729Y-12468674D01*
X13736729Y-12468674D02*
X13746253Y-12430579D01*
X13746253Y-12430579D02*
X13755777Y-12411531D01*
X13755777Y-12411531D02*
X13765301Y-12402008D01*
X13765301Y-12402008D02*
X13784348Y-12392484D01*
X13917682Y-12392484D02*
X14041491Y-12392484D01*
X14041491Y-12392484D02*
X13974825Y-12468674D01*
X13974825Y-12468674D02*
X14003396Y-12468674D01*
X14003396Y-12468674D02*
X14022444Y-12478198D01*
X14022444Y-12478198D02*
X14031967Y-12487722D01*
X14031967Y-12487722D02*
X14041491Y-12506769D01*
X14041491Y-12506769D02*
X14041491Y-12554388D01*
X14041491Y-12554388D02*
X14031967Y-12573436D01*
X14031967Y-12573436D02*
X14022444Y-12582960D01*
X14022444Y-12582960D02*
X14003396Y-12592484D01*
X14003396Y-12592484D02*
X13946253Y-12592484D01*
X13946253Y-12592484D02*
X13927206Y-12582960D01*
X13927206Y-12582960D02*
X13917682Y-12573436D01*
X14222444Y-12392484D02*
X14127206Y-12392484D01*
X14127206Y-12392484D02*
X14117682Y-12487722D01*
X14117682Y-12487722D02*
X14127206Y-12478198D01*
X14127206Y-12478198D02*
X14146253Y-12468674D01*
X14146253Y-12468674D02*
X14193872Y-12468674D01*
X14193872Y-12468674D02*
X14212920Y-12478198D01*
X14212920Y-12478198D02*
X14222444Y-12487722D01*
X14222444Y-12487722D02*
X14231967Y-12506769D01*
X14231967Y-12506769D02*
X14231967Y-12554388D01*
X14231967Y-12554388D02*
X14222444Y-12573436D01*
X14222444Y-12573436D02*
X14212920Y-12582960D01*
X14212920Y-12582960D02*
X14193872Y-12592484D01*
X14193872Y-12592484D02*
X14146253Y-12592484D01*
X14146253Y-12592484D02*
X14127206Y-12582960D01*
X14127206Y-12582960D02*
X14117682Y-12573436D01*
X14403396Y-12459150D02*
X14403396Y-12592484D01*
X14355777Y-12382960D02*
X14308158Y-12525817D01*
X14308158Y-12525817D02*
X14431967Y-12525817D01*
X14498634Y-12392484D02*
X14498634Y-12430579D01*
X14574825Y-12392484D02*
X14574825Y-12430579D01*
X14870063Y-12668674D02*
X14860539Y-12659150D01*
X14860539Y-12659150D02*
X14841491Y-12630579D01*
X14841491Y-12630579D02*
X14831968Y-12611531D01*
X14831968Y-12611531D02*
X14822444Y-12582960D01*
X14822444Y-12582960D02*
X14812920Y-12535341D01*
X14812920Y-12535341D02*
X14812920Y-12497246D01*
X14812920Y-12497246D02*
X14822444Y-12449627D01*
X14822444Y-12449627D02*
X14831968Y-12421055D01*
X14831968Y-12421055D02*
X14841491Y-12402008D01*
X14841491Y-12402008D02*
X14860539Y-12373436D01*
X14860539Y-12373436D02*
X14870063Y-12363912D01*
X14936729Y-12411531D02*
X14946253Y-12402008D01*
X14946253Y-12402008D02*
X14965301Y-12392484D01*
X14965301Y-12392484D02*
X15012920Y-12392484D01*
X15012920Y-12392484D02*
X15031968Y-12402008D01*
X15031968Y-12402008D02*
X15041491Y-12411531D01*
X15041491Y-12411531D02*
X15051015Y-12430579D01*
X15051015Y-12430579D02*
X15051015Y-12449627D01*
X15051015Y-12449627D02*
X15041491Y-12478198D01*
X15041491Y-12478198D02*
X14927206Y-12592484D01*
X14927206Y-12592484D02*
X15051015Y-12592484D01*
X15289110Y-12592484D02*
X15289110Y-12392484D01*
X15374825Y-12592484D02*
X15374825Y-12487722D01*
X15374825Y-12487722D02*
X15365301Y-12468674D01*
X15365301Y-12468674D02*
X15346253Y-12459150D01*
X15346253Y-12459150D02*
X15317682Y-12459150D01*
X15317682Y-12459150D02*
X15298634Y-12468674D01*
X15298634Y-12468674D02*
X15289110Y-12478198D01*
X15498634Y-12592484D02*
X15479587Y-12582960D01*
X15479587Y-12582960D02*
X15470063Y-12573436D01*
X15470063Y-12573436D02*
X15460539Y-12554388D01*
X15460539Y-12554388D02*
X15460539Y-12497246D01*
X15460539Y-12497246D02*
X15470063Y-12478198D01*
X15470063Y-12478198D02*
X15479587Y-12468674D01*
X15479587Y-12468674D02*
X15498634Y-12459150D01*
X15498634Y-12459150D02*
X15527206Y-12459150D01*
X15527206Y-12459150D02*
X15546253Y-12468674D01*
X15546253Y-12468674D02*
X15555777Y-12478198D01*
X15555777Y-12478198D02*
X15565301Y-12497246D01*
X15565301Y-12497246D02*
X15565301Y-12554388D01*
X15565301Y-12554388D02*
X15555777Y-12573436D01*
X15555777Y-12573436D02*
X15546253Y-12582960D01*
X15546253Y-12582960D02*
X15527206Y-12592484D01*
X15527206Y-12592484D02*
X15498634Y-12592484D01*
X15679587Y-12592484D02*
X15660539Y-12582960D01*
X15660539Y-12582960D02*
X15651015Y-12563912D01*
X15651015Y-12563912D02*
X15651015Y-12392484D01*
X15831968Y-12582960D02*
X15812920Y-12592484D01*
X15812920Y-12592484D02*
X15774825Y-12592484D01*
X15774825Y-12592484D02*
X15755777Y-12582960D01*
X15755777Y-12582960D02*
X15746253Y-12563912D01*
X15746253Y-12563912D02*
X15746253Y-12487722D01*
X15746253Y-12487722D02*
X15755777Y-12468674D01*
X15755777Y-12468674D02*
X15774825Y-12459150D01*
X15774825Y-12459150D02*
X15812920Y-12459150D01*
X15812920Y-12459150D02*
X15831968Y-12468674D01*
X15831968Y-12468674D02*
X15841491Y-12487722D01*
X15841491Y-12487722D02*
X15841491Y-12506769D01*
X15841491Y-12506769D02*
X15746253Y-12525817D01*
X15917682Y-12582960D02*
X15936730Y-12592484D01*
X15936730Y-12592484D02*
X15974825Y-12592484D01*
X15974825Y-12592484D02*
X15993872Y-12582960D01*
X15993872Y-12582960D02*
X16003396Y-12563912D01*
X16003396Y-12563912D02*
X16003396Y-12554388D01*
X16003396Y-12554388D02*
X15993872Y-12535341D01*
X15993872Y-12535341D02*
X15974825Y-12525817D01*
X15974825Y-12525817D02*
X15946253Y-12525817D01*
X15946253Y-12525817D02*
X15927206Y-12516293D01*
X15927206Y-12516293D02*
X15917682Y-12497246D01*
X15917682Y-12497246D02*
X15917682Y-12487722D01*
X15917682Y-12487722D02*
X15927206Y-12468674D01*
X15927206Y-12468674D02*
X15946253Y-12459150D01*
X15946253Y-12459150D02*
X15974825Y-12459150D01*
X15974825Y-12459150D02*
X15993872Y-12468674D01*
X16070063Y-12668674D02*
X16079587Y-12659150D01*
X16079587Y-12659150D02*
X16098634Y-12630579D01*
X16098634Y-12630579D02*
X16108158Y-12611531D01*
X16108158Y-12611531D02*
X16117682Y-12582960D01*
X16117682Y-12582960D02*
X16127206Y-12535341D01*
X16127206Y-12535341D02*
X16127206Y-12497246D01*
X16127206Y-12497246D02*
X16117682Y-12449627D01*
X16117682Y-12449627D02*
X16108158Y-12421055D01*
X16108158Y-12421055D02*
X16098634Y-12402008D01*
X16098634Y-12402008D02*
X16079587Y-12373436D01*
X16079587Y-12373436D02*
X16070063Y-12363912D01*
D10*
X11195000Y-12715000D02*
X11295000Y-12815000D01*
X11295000Y-12715000D02*
X11195000Y-12815000D01*
X11295000Y-12765000D02*
G75*
G03*
X11295000Y-12765000I-50000J0D01*
G01*
D11*
X11660539Y-12856484D02*
X11546253Y-12856484D01*
X11603396Y-12856484D02*
X11603396Y-12656484D01*
X11603396Y-12656484D02*
X11584348Y-12685055D01*
X11584348Y-12685055D02*
X11565301Y-12704103D01*
X11565301Y-12704103D02*
X11546253Y-12713627D01*
X11746253Y-12837436D02*
X11755777Y-12846960D01*
X11755777Y-12846960D02*
X11746253Y-12856484D01*
X11746253Y-12856484D02*
X11736729Y-12846960D01*
X11736729Y-12846960D02*
X11746253Y-12837436D01*
X11746253Y-12837436D02*
X11746253Y-12856484D01*
X11879586Y-12656484D02*
X11898634Y-12656484D01*
X11898634Y-12656484D02*
X11917682Y-12666008D01*
X11917682Y-12666008D02*
X11927205Y-12675531D01*
X11927205Y-12675531D02*
X11936729Y-12694579D01*
X11936729Y-12694579D02*
X11946253Y-12732674D01*
X11946253Y-12732674D02*
X11946253Y-12780293D01*
X11946253Y-12780293D02*
X11936729Y-12818388D01*
X11936729Y-12818388D02*
X11927205Y-12837436D01*
X11927205Y-12837436D02*
X11917682Y-12846960D01*
X11917682Y-12846960D02*
X11898634Y-12856484D01*
X11898634Y-12856484D02*
X11879586Y-12856484D01*
X11879586Y-12856484D02*
X11860539Y-12846960D01*
X11860539Y-12846960D02*
X11851015Y-12837436D01*
X11851015Y-12837436D02*
X11841491Y-12818388D01*
X11841491Y-12818388D02*
X11831967Y-12780293D01*
X11831967Y-12780293D02*
X11831967Y-12732674D01*
X11831967Y-12732674D02*
X11841491Y-12694579D01*
X11841491Y-12694579D02*
X11851015Y-12675531D01*
X11851015Y-12675531D02*
X11860539Y-12666008D01*
X11860539Y-12666008D02*
X11879586Y-12656484D01*
X12070062Y-12656484D02*
X12089110Y-12656484D01*
X12089110Y-12656484D02*
X12108158Y-12666008D01*
X12108158Y-12666008D02*
X12117682Y-12675531D01*
X12117682Y-12675531D02*
X12127205Y-12694579D01*
X12127205Y-12694579D02*
X12136729Y-12732674D01*
X12136729Y-12732674D02*
X12136729Y-12780293D01*
X12136729Y-12780293D02*
X12127205Y-12818388D01*
X12127205Y-12818388D02*
X12117682Y-12837436D01*
X12117682Y-12837436D02*
X12108158Y-12846960D01*
X12108158Y-12846960D02*
X12089110Y-12856484D01*
X12089110Y-12856484D02*
X12070062Y-12856484D01*
X12070062Y-12856484D02*
X12051015Y-12846960D01*
X12051015Y-12846960D02*
X12041491Y-12837436D01*
X12041491Y-12837436D02*
X12031967Y-12818388D01*
X12031967Y-12818388D02*
X12022443Y-12780293D01*
X12022443Y-12780293D02*
X12022443Y-12732674D01*
X12022443Y-12732674D02*
X12031967Y-12694579D01*
X12031967Y-12694579D02*
X12041491Y-12675531D01*
X12041491Y-12675531D02*
X12051015Y-12666008D01*
X12051015Y-12666008D02*
X12070062Y-12656484D01*
X12260539Y-12656484D02*
X12279586Y-12656484D01*
X12279586Y-12656484D02*
X12298634Y-12666008D01*
X12298634Y-12666008D02*
X12308158Y-12675531D01*
X12308158Y-12675531D02*
X12317682Y-12694579D01*
X12317682Y-12694579D02*
X12327205Y-12732674D01*
X12327205Y-12732674D02*
X12327205Y-12780293D01*
X12327205Y-12780293D02*
X12317682Y-12818388D01*
X12317682Y-12818388D02*
X12308158Y-12837436D01*
X12308158Y-12837436D02*
X12298634Y-12846960D01*
X12298634Y-12846960D02*
X12279586Y-12856484D01*
X12279586Y-12856484D02*
X12260539Y-12856484D01*
X12260539Y-12856484D02*
X12241491Y-12846960D01*
X12241491Y-12846960D02*
X12231967Y-12837436D01*
X12231967Y-12837436D02*
X12222443Y-12818388D01*
X12222443Y-12818388D02*
X12212920Y-12780293D01*
X12212920Y-12780293D02*
X12212920Y-12732674D01*
X12212920Y-12732674D02*
X12222443Y-12694579D01*
X12222443Y-12694579D02*
X12231967Y-12675531D01*
X12231967Y-12675531D02*
X12241491Y-12666008D01*
X12241491Y-12666008D02*
X12260539Y-12656484D01*
X12412920Y-12856484D02*
X12412920Y-12723150D01*
X12412920Y-12742198D02*
X12422443Y-12732674D01*
X12422443Y-12732674D02*
X12441491Y-12723150D01*
X12441491Y-12723150D02*
X12470063Y-12723150D01*
X12470063Y-12723150D02*
X12489110Y-12732674D01*
X12489110Y-12732674D02*
X12498634Y-12751722D01*
X12498634Y-12751722D02*
X12498634Y-12856484D01*
X12498634Y-12751722D02*
X12508158Y-12732674D01*
X12508158Y-12732674D02*
X12527205Y-12723150D01*
X12527205Y-12723150D02*
X12555777Y-12723150D01*
X12555777Y-12723150D02*
X12574824Y-12732674D01*
X12574824Y-12732674D02*
X12584348Y-12751722D01*
X12584348Y-12751722D02*
X12584348Y-12856484D01*
X12679586Y-12856484D02*
X12679586Y-12723150D01*
X12679586Y-12742198D02*
X12689110Y-12732674D01*
X12689110Y-12732674D02*
X12708158Y-12723150D01*
X12708158Y-12723150D02*
X12736729Y-12723150D01*
X12736729Y-12723150D02*
X12755777Y-12732674D01*
X12755777Y-12732674D02*
X12765301Y-12751722D01*
X12765301Y-12751722D02*
X12765301Y-12856484D01*
X12765301Y-12751722D02*
X12774824Y-12732674D01*
X12774824Y-12732674D02*
X12793872Y-12723150D01*
X12793872Y-12723150D02*
X12822443Y-12723150D01*
X12822443Y-12723150D02*
X12841491Y-12732674D01*
X12841491Y-12732674D02*
X12851015Y-12751722D01*
X12851015Y-12751722D02*
X12851015Y-12856484D01*
X13241491Y-12646960D02*
X13070063Y-12904103D01*
X13498634Y-12656484D02*
X13517682Y-12656484D01*
X13517682Y-12656484D02*
X13536729Y-12666008D01*
X13536729Y-12666008D02*
X13546253Y-12675531D01*
X13546253Y-12675531D02*
X13555777Y-12694579D01*
X13555777Y-12694579D02*
X13565301Y-12732674D01*
X13565301Y-12732674D02*
X13565301Y-12780293D01*
X13565301Y-12780293D02*
X13555777Y-12818388D01*
X13555777Y-12818388D02*
X13546253Y-12837436D01*
X13546253Y-12837436D02*
X13536729Y-12846960D01*
X13536729Y-12846960D02*
X13517682Y-12856484D01*
X13517682Y-12856484D02*
X13498634Y-12856484D01*
X13498634Y-12856484D02*
X13479586Y-12846960D01*
X13479586Y-12846960D02*
X13470063Y-12837436D01*
X13470063Y-12837436D02*
X13460539Y-12818388D01*
X13460539Y-12818388D02*
X13451015Y-12780293D01*
X13451015Y-12780293D02*
X13451015Y-12732674D01*
X13451015Y-12732674D02*
X13460539Y-12694579D01*
X13460539Y-12694579D02*
X13470063Y-12675531D01*
X13470063Y-12675531D02*
X13479586Y-12666008D01*
X13479586Y-12666008D02*
X13498634Y-12656484D01*
X13651015Y-12837436D02*
X13660539Y-12846960D01*
X13660539Y-12846960D02*
X13651015Y-12856484D01*
X13651015Y-12856484D02*
X13641491Y-12846960D01*
X13641491Y-12846960D02*
X13651015Y-12837436D01*
X13651015Y-12837436D02*
X13651015Y-12856484D01*
X13784348Y-12656484D02*
X13803396Y-12656484D01*
X13803396Y-12656484D02*
X13822444Y-12666008D01*
X13822444Y-12666008D02*
X13831967Y-12675531D01*
X13831967Y-12675531D02*
X13841491Y-12694579D01*
X13841491Y-12694579D02*
X13851015Y-12732674D01*
X13851015Y-12732674D02*
X13851015Y-12780293D01*
X13851015Y-12780293D02*
X13841491Y-12818388D01*
X13841491Y-12818388D02*
X13831967Y-12837436D01*
X13831967Y-12837436D02*
X13822444Y-12846960D01*
X13822444Y-12846960D02*
X13803396Y-12856484D01*
X13803396Y-12856484D02*
X13784348Y-12856484D01*
X13784348Y-12856484D02*
X13765301Y-12846960D01*
X13765301Y-12846960D02*
X13755777Y-12837436D01*
X13755777Y-12837436D02*
X13746253Y-12818388D01*
X13746253Y-12818388D02*
X13736729Y-12780293D01*
X13736729Y-12780293D02*
X13736729Y-12732674D01*
X13736729Y-12732674D02*
X13746253Y-12694579D01*
X13746253Y-12694579D02*
X13755777Y-12675531D01*
X13755777Y-12675531D02*
X13765301Y-12666008D01*
X13765301Y-12666008D02*
X13784348Y-12656484D01*
X13917682Y-12656484D02*
X14041491Y-12656484D01*
X14041491Y-12656484D02*
X13974825Y-12732674D01*
X13974825Y-12732674D02*
X14003396Y-12732674D01*
X14003396Y-12732674D02*
X14022444Y-12742198D01*
X14022444Y-12742198D02*
X14031967Y-12751722D01*
X14031967Y-12751722D02*
X14041491Y-12770769D01*
X14041491Y-12770769D02*
X14041491Y-12818388D01*
X14041491Y-12818388D02*
X14031967Y-12837436D01*
X14031967Y-12837436D02*
X14022444Y-12846960D01*
X14022444Y-12846960D02*
X14003396Y-12856484D01*
X14003396Y-12856484D02*
X13946253Y-12856484D01*
X13946253Y-12856484D02*
X13927206Y-12846960D01*
X13927206Y-12846960D02*
X13917682Y-12837436D01*
X14136729Y-12856484D02*
X14174825Y-12856484D01*
X14174825Y-12856484D02*
X14193872Y-12846960D01*
X14193872Y-12846960D02*
X14203396Y-12837436D01*
X14203396Y-12837436D02*
X14222444Y-12808865D01*
X14222444Y-12808865D02*
X14231967Y-12770769D01*
X14231967Y-12770769D02*
X14231967Y-12694579D01*
X14231967Y-12694579D02*
X14222444Y-12675531D01*
X14222444Y-12675531D02*
X14212920Y-12666008D01*
X14212920Y-12666008D02*
X14193872Y-12656484D01*
X14193872Y-12656484D02*
X14155777Y-12656484D01*
X14155777Y-12656484D02*
X14136729Y-12666008D01*
X14136729Y-12666008D02*
X14127206Y-12675531D01*
X14127206Y-12675531D02*
X14117682Y-12694579D01*
X14117682Y-12694579D02*
X14117682Y-12742198D01*
X14117682Y-12742198D02*
X14127206Y-12761246D01*
X14127206Y-12761246D02*
X14136729Y-12770769D01*
X14136729Y-12770769D02*
X14155777Y-12780293D01*
X14155777Y-12780293D02*
X14193872Y-12780293D01*
X14193872Y-12780293D02*
X14212920Y-12770769D01*
X14212920Y-12770769D02*
X14222444Y-12761246D01*
X14222444Y-12761246D02*
X14231967Y-12742198D01*
X14403396Y-12723150D02*
X14403396Y-12856484D01*
X14355777Y-12646960D02*
X14308158Y-12789817D01*
X14308158Y-12789817D02*
X14431967Y-12789817D01*
X14498634Y-12656484D02*
X14498634Y-12694579D01*
X14574825Y-12656484D02*
X14574825Y-12694579D01*
X14870063Y-12932674D02*
X14860539Y-12923150D01*
X14860539Y-12923150D02*
X14841491Y-12894579D01*
X14841491Y-12894579D02*
X14831968Y-12875531D01*
X14831968Y-12875531D02*
X14822444Y-12846960D01*
X14822444Y-12846960D02*
X14812920Y-12799341D01*
X14812920Y-12799341D02*
X14812920Y-12761246D01*
X14812920Y-12761246D02*
X14822444Y-12713627D01*
X14822444Y-12713627D02*
X14831968Y-12685055D01*
X14831968Y-12685055D02*
X14841491Y-12666008D01*
X14841491Y-12666008D02*
X14860539Y-12637436D01*
X14860539Y-12637436D02*
X14870063Y-12627912D01*
X14927206Y-12656484D02*
X15051015Y-12656484D01*
X15051015Y-12656484D02*
X14984348Y-12732674D01*
X14984348Y-12732674D02*
X15012920Y-12732674D01*
X15012920Y-12732674D02*
X15031968Y-12742198D01*
X15031968Y-12742198D02*
X15041491Y-12751722D01*
X15041491Y-12751722D02*
X15051015Y-12770769D01*
X15051015Y-12770769D02*
X15051015Y-12818388D01*
X15051015Y-12818388D02*
X15041491Y-12837436D01*
X15041491Y-12837436D02*
X15031968Y-12846960D01*
X15031968Y-12846960D02*
X15012920Y-12856484D01*
X15012920Y-12856484D02*
X14955777Y-12856484D01*
X14955777Y-12856484D02*
X14936729Y-12846960D01*
X14936729Y-12846960D02*
X14927206Y-12837436D01*
X15289110Y-12856484D02*
X15289110Y-12656484D01*
X15374825Y-12856484D02*
X15374825Y-12751722D01*
X15374825Y-12751722D02*
X15365301Y-12732674D01*
X15365301Y-12732674D02*
X15346253Y-12723150D01*
X15346253Y-12723150D02*
X15317682Y-12723150D01*
X15317682Y-12723150D02*
X15298634Y-12732674D01*
X15298634Y-12732674D02*
X15289110Y-12742198D01*
X15498634Y-12856484D02*
X15479587Y-12846960D01*
X15479587Y-12846960D02*
X15470063Y-12837436D01*
X15470063Y-12837436D02*
X15460539Y-12818388D01*
X15460539Y-12818388D02*
X15460539Y-12761246D01*
X15460539Y-12761246D02*
X15470063Y-12742198D01*
X15470063Y-12742198D02*
X15479587Y-12732674D01*
X15479587Y-12732674D02*
X15498634Y-12723150D01*
X15498634Y-12723150D02*
X15527206Y-12723150D01*
X15527206Y-12723150D02*
X15546253Y-12732674D01*
X15546253Y-12732674D02*
X15555777Y-12742198D01*
X15555777Y-12742198D02*
X15565301Y-12761246D01*
X15565301Y-12761246D02*
X15565301Y-12818388D01*
X15565301Y-12818388D02*
X15555777Y-12837436D01*
X15555777Y-12837436D02*
X15546253Y-12846960D01*
X15546253Y-12846960D02*
X15527206Y-12856484D01*
X15527206Y-12856484D02*
X15498634Y-12856484D01*
X15679587Y-12856484D02*
X15660539Y-12846960D01*
X15660539Y-12846960D02*
X15651015Y-12827912D01*
X15651015Y-12827912D02*
X15651015Y-12656484D01*
X15831968Y-12846960D02*
X15812920Y-12856484D01*
X15812920Y-12856484D02*
X15774825Y-12856484D01*
X15774825Y-12856484D02*
X15755777Y-12846960D01*
X15755777Y-12846960D02*
X15746253Y-12827912D01*
X15746253Y-12827912D02*
X15746253Y-12751722D01*
X15746253Y-12751722D02*
X15755777Y-12732674D01*
X15755777Y-12732674D02*
X15774825Y-12723150D01*
X15774825Y-12723150D02*
X15812920Y-12723150D01*
X15812920Y-12723150D02*
X15831968Y-12732674D01*
X15831968Y-12732674D02*
X15841491Y-12751722D01*
X15841491Y-12751722D02*
X15841491Y-12770769D01*
X15841491Y-12770769D02*
X15746253Y-12789817D01*
X15917682Y-12846960D02*
X15936730Y-12856484D01*
X15936730Y-12856484D02*
X15974825Y-12856484D01*
X15974825Y-12856484D02*
X15993872Y-12846960D01*
X15993872Y-12846960D02*
X16003396Y-12827912D01*
X16003396Y-12827912D02*
X16003396Y-12818388D01*
X16003396Y-12818388D02*
X15993872Y-12799341D01*
X15993872Y-12799341D02*
X15974825Y-12789817D01*
X15974825Y-12789817D02*
X15946253Y-12789817D01*
X15946253Y-12789817D02*
X15927206Y-12780293D01*
X15927206Y-12780293D02*
X15917682Y-12761246D01*
X15917682Y-12761246D02*
X15917682Y-12751722D01*
X15917682Y-12751722D02*
X15927206Y-12732674D01*
X15927206Y-12732674D02*
X15946253Y-12723150D01*
X15946253Y-12723150D02*
X15974825Y-12723150D01*
X15974825Y-12723150D02*
X15993872Y-12732674D01*
X16070063Y-12932674D02*
X16079587Y-12923150D01*
X16079587Y-12923150D02*
X16098634Y-12894579D01*
X16098634Y-12894579D02*
X16108158Y-12875531D01*
X16108158Y-12875531D02*
X16117682Y-12846960D01*
X16117682Y-12846960D02*
X16127206Y-12799341D01*
X16127206Y-12799341D02*
X16127206Y-12761246D01*
X16127206Y-12761246D02*
X16117682Y-12713627D01*
X16117682Y-12713627D02*
X16108158Y-12685055D01*
X16108158Y-12685055D02*
X16098634Y-12666008D01*
X16098634Y-12666008D02*
X16079587Y-12637436D01*
X16079587Y-12637436D02*
X16070063Y-12627912D01*
D12*
X11185000Y-12974000D02*
X11295000Y-13084000D01*
X11295000Y-12974000D02*
X11185000Y-13084000D01*
X11240000Y-12974000D02*
X11240000Y-13084000D01*
X11185000Y-13029000D02*
X11295000Y-13029000D01*
D11*
X11660539Y-13120484D02*
X11546253Y-13120484D01*
X11603396Y-13120484D02*
X11603396Y-12920484D01*
X11603396Y-12920484D02*
X11584348Y-12949055D01*
X11584348Y-12949055D02*
X11565301Y-12968103D01*
X11565301Y-12968103D02*
X11546253Y-12977627D01*
X11746253Y-13101436D02*
X11755777Y-13110960D01*
X11755777Y-13110960D02*
X11746253Y-13120484D01*
X11746253Y-13120484D02*
X11736729Y-13110960D01*
X11736729Y-13110960D02*
X11746253Y-13101436D01*
X11746253Y-13101436D02*
X11746253Y-13120484D01*
X11946253Y-13120484D02*
X11831967Y-13120484D01*
X11889110Y-13120484D02*
X11889110Y-12920484D01*
X11889110Y-12920484D02*
X11870062Y-12949055D01*
X11870062Y-12949055D02*
X11851015Y-12968103D01*
X11851015Y-12968103D02*
X11831967Y-12977627D01*
X12070062Y-12920484D02*
X12089110Y-12920484D01*
X12089110Y-12920484D02*
X12108158Y-12930008D01*
X12108158Y-12930008D02*
X12117682Y-12939531D01*
X12117682Y-12939531D02*
X12127205Y-12958579D01*
X12127205Y-12958579D02*
X12136729Y-12996674D01*
X12136729Y-12996674D02*
X12136729Y-13044293D01*
X12136729Y-13044293D02*
X12127205Y-13082388D01*
X12127205Y-13082388D02*
X12117682Y-13101436D01*
X12117682Y-13101436D02*
X12108158Y-13110960D01*
X12108158Y-13110960D02*
X12089110Y-13120484D01*
X12089110Y-13120484D02*
X12070062Y-13120484D01*
X12070062Y-13120484D02*
X12051015Y-13110960D01*
X12051015Y-13110960D02*
X12041491Y-13101436D01*
X12041491Y-13101436D02*
X12031967Y-13082388D01*
X12031967Y-13082388D02*
X12022443Y-13044293D01*
X12022443Y-13044293D02*
X12022443Y-12996674D01*
X12022443Y-12996674D02*
X12031967Y-12958579D01*
X12031967Y-12958579D02*
X12041491Y-12939531D01*
X12041491Y-12939531D02*
X12051015Y-12930008D01*
X12051015Y-12930008D02*
X12070062Y-12920484D01*
X12260539Y-12920484D02*
X12279586Y-12920484D01*
X12279586Y-12920484D02*
X12298634Y-12930008D01*
X12298634Y-12930008D02*
X12308158Y-12939531D01*
X12308158Y-12939531D02*
X12317682Y-12958579D01*
X12317682Y-12958579D02*
X12327205Y-12996674D01*
X12327205Y-12996674D02*
X12327205Y-13044293D01*
X12327205Y-13044293D02*
X12317682Y-13082388D01*
X12317682Y-13082388D02*
X12308158Y-13101436D01*
X12308158Y-13101436D02*
X12298634Y-13110960D01*
X12298634Y-13110960D02*
X12279586Y-13120484D01*
X12279586Y-13120484D02*
X12260539Y-13120484D01*
X12260539Y-13120484D02*
X12241491Y-13110960D01*
X12241491Y-13110960D02*
X12231967Y-13101436D01*
X12231967Y-13101436D02*
X12222443Y-13082388D01*
X12222443Y-13082388D02*
X12212920Y-13044293D01*
X12212920Y-13044293D02*
X12212920Y-12996674D01*
X12212920Y-12996674D02*
X12222443Y-12958579D01*
X12222443Y-12958579D02*
X12231967Y-12939531D01*
X12231967Y-12939531D02*
X12241491Y-12930008D01*
X12241491Y-12930008D02*
X12260539Y-12920484D01*
X12412920Y-13120484D02*
X12412920Y-12987150D01*
X12412920Y-13006198D02*
X12422443Y-12996674D01*
X12422443Y-12996674D02*
X12441491Y-12987150D01*
X12441491Y-12987150D02*
X12470063Y-12987150D01*
X12470063Y-12987150D02*
X12489110Y-12996674D01*
X12489110Y-12996674D02*
X12498634Y-13015722D01*
X12498634Y-13015722D02*
X12498634Y-13120484D01*
X12498634Y-13015722D02*
X12508158Y-12996674D01*
X12508158Y-12996674D02*
X12527205Y-12987150D01*
X12527205Y-12987150D02*
X12555777Y-12987150D01*
X12555777Y-12987150D02*
X12574824Y-12996674D01*
X12574824Y-12996674D02*
X12584348Y-13015722D01*
X12584348Y-13015722D02*
X12584348Y-13120484D01*
X12679586Y-13120484D02*
X12679586Y-12987150D01*
X12679586Y-13006198D02*
X12689110Y-12996674D01*
X12689110Y-12996674D02*
X12708158Y-12987150D01*
X12708158Y-12987150D02*
X12736729Y-12987150D01*
X12736729Y-12987150D02*
X12755777Y-12996674D01*
X12755777Y-12996674D02*
X12765301Y-13015722D01*
X12765301Y-13015722D02*
X12765301Y-13120484D01*
X12765301Y-13015722D02*
X12774824Y-12996674D01*
X12774824Y-12996674D02*
X12793872Y-12987150D01*
X12793872Y-12987150D02*
X12822443Y-12987150D01*
X12822443Y-12987150D02*
X12841491Y-12996674D01*
X12841491Y-12996674D02*
X12851015Y-13015722D01*
X12851015Y-13015722D02*
X12851015Y-13120484D01*
X13241491Y-12910960D02*
X13070063Y-13168103D01*
X13498634Y-12920484D02*
X13517682Y-12920484D01*
X13517682Y-12920484D02*
X13536729Y-12930008D01*
X13536729Y-12930008D02*
X13546253Y-12939531D01*
X13546253Y-12939531D02*
X13555777Y-12958579D01*
X13555777Y-12958579D02*
X13565301Y-12996674D01*
X13565301Y-12996674D02*
X13565301Y-13044293D01*
X13565301Y-13044293D02*
X13555777Y-13082388D01*
X13555777Y-13082388D02*
X13546253Y-13101436D01*
X13546253Y-13101436D02*
X13536729Y-13110960D01*
X13536729Y-13110960D02*
X13517682Y-13120484D01*
X13517682Y-13120484D02*
X13498634Y-13120484D01*
X13498634Y-13120484D02*
X13479586Y-13110960D01*
X13479586Y-13110960D02*
X13470063Y-13101436D01*
X13470063Y-13101436D02*
X13460539Y-13082388D01*
X13460539Y-13082388D02*
X13451015Y-13044293D01*
X13451015Y-13044293D02*
X13451015Y-12996674D01*
X13451015Y-12996674D02*
X13460539Y-12958579D01*
X13460539Y-12958579D02*
X13470063Y-12939531D01*
X13470063Y-12939531D02*
X13479586Y-12930008D01*
X13479586Y-12930008D02*
X13498634Y-12920484D01*
X13651015Y-13101436D02*
X13660539Y-13110960D01*
X13660539Y-13110960D02*
X13651015Y-13120484D01*
X13651015Y-13120484D02*
X13641491Y-13110960D01*
X13641491Y-13110960D02*
X13651015Y-13101436D01*
X13651015Y-13101436D02*
X13651015Y-13120484D01*
X13784348Y-12920484D02*
X13803396Y-12920484D01*
X13803396Y-12920484D02*
X13822444Y-12930008D01*
X13822444Y-12930008D02*
X13831967Y-12939531D01*
X13831967Y-12939531D02*
X13841491Y-12958579D01*
X13841491Y-12958579D02*
X13851015Y-12996674D01*
X13851015Y-12996674D02*
X13851015Y-13044293D01*
X13851015Y-13044293D02*
X13841491Y-13082388D01*
X13841491Y-13082388D02*
X13831967Y-13101436D01*
X13831967Y-13101436D02*
X13822444Y-13110960D01*
X13822444Y-13110960D02*
X13803396Y-13120484D01*
X13803396Y-13120484D02*
X13784348Y-13120484D01*
X13784348Y-13120484D02*
X13765301Y-13110960D01*
X13765301Y-13110960D02*
X13755777Y-13101436D01*
X13755777Y-13101436D02*
X13746253Y-13082388D01*
X13746253Y-13082388D02*
X13736729Y-13044293D01*
X13736729Y-13044293D02*
X13736729Y-12996674D01*
X13736729Y-12996674D02*
X13746253Y-12958579D01*
X13746253Y-12958579D02*
X13755777Y-12939531D01*
X13755777Y-12939531D02*
X13765301Y-12930008D01*
X13765301Y-12930008D02*
X13784348Y-12920484D01*
X14022444Y-12987150D02*
X14022444Y-13120484D01*
X13974825Y-12910960D02*
X13927206Y-13053817D01*
X13927206Y-13053817D02*
X14051015Y-13053817D01*
X14108158Y-12920484D02*
X14231967Y-12920484D01*
X14231967Y-12920484D02*
X14165301Y-12996674D01*
X14165301Y-12996674D02*
X14193872Y-12996674D01*
X14193872Y-12996674D02*
X14212920Y-13006198D01*
X14212920Y-13006198D02*
X14222444Y-13015722D01*
X14222444Y-13015722D02*
X14231967Y-13034769D01*
X14231967Y-13034769D02*
X14231967Y-13082388D01*
X14231967Y-13082388D02*
X14222444Y-13101436D01*
X14222444Y-13101436D02*
X14212920Y-13110960D01*
X14212920Y-13110960D02*
X14193872Y-13120484D01*
X14193872Y-13120484D02*
X14136729Y-13120484D01*
X14136729Y-13120484D02*
X14117682Y-13110960D01*
X14117682Y-13110960D02*
X14108158Y-13101436D01*
X14298634Y-12920484D02*
X14422444Y-12920484D01*
X14422444Y-12920484D02*
X14355777Y-12996674D01*
X14355777Y-12996674D02*
X14384348Y-12996674D01*
X14384348Y-12996674D02*
X14403396Y-13006198D01*
X14403396Y-13006198D02*
X14412920Y-13015722D01*
X14412920Y-13015722D02*
X14422444Y-13034769D01*
X14422444Y-13034769D02*
X14422444Y-13082388D01*
X14422444Y-13082388D02*
X14412920Y-13101436D01*
X14412920Y-13101436D02*
X14403396Y-13110960D01*
X14403396Y-13110960D02*
X14384348Y-13120484D01*
X14384348Y-13120484D02*
X14327206Y-13120484D01*
X14327206Y-13120484D02*
X14308158Y-13110960D01*
X14308158Y-13110960D02*
X14298634Y-13101436D01*
X14498634Y-12920484D02*
X14498634Y-12958579D01*
X14574825Y-12920484D02*
X14574825Y-12958579D01*
X14870063Y-13196674D02*
X14860539Y-13187150D01*
X14860539Y-13187150D02*
X14841491Y-13158579D01*
X14841491Y-13158579D02*
X14831968Y-13139531D01*
X14831968Y-13139531D02*
X14822444Y-13110960D01*
X14822444Y-13110960D02*
X14812920Y-13063341D01*
X14812920Y-13063341D02*
X14812920Y-13025246D01*
X14812920Y-13025246D02*
X14822444Y-12977627D01*
X14822444Y-12977627D02*
X14831968Y-12949055D01*
X14831968Y-12949055D02*
X14841491Y-12930008D01*
X14841491Y-12930008D02*
X14860539Y-12901436D01*
X14860539Y-12901436D02*
X14870063Y-12891912D01*
X14974825Y-13006198D02*
X14955777Y-12996674D01*
X14955777Y-12996674D02*
X14946253Y-12987150D01*
X14946253Y-12987150D02*
X14936729Y-12968103D01*
X14936729Y-12968103D02*
X14936729Y-12958579D01*
X14936729Y-12958579D02*
X14946253Y-12939531D01*
X14946253Y-12939531D02*
X14955777Y-12930008D01*
X14955777Y-12930008D02*
X14974825Y-12920484D01*
X14974825Y-12920484D02*
X15012920Y-12920484D01*
X15012920Y-12920484D02*
X15031968Y-12930008D01*
X15031968Y-12930008D02*
X15041491Y-12939531D01*
X15041491Y-12939531D02*
X15051015Y-12958579D01*
X15051015Y-12958579D02*
X15051015Y-12968103D01*
X15051015Y-12968103D02*
X15041491Y-12987150D01*
X15041491Y-12987150D02*
X15031968Y-12996674D01*
X15031968Y-12996674D02*
X15012920Y-13006198D01*
X15012920Y-13006198D02*
X14974825Y-13006198D01*
X14974825Y-13006198D02*
X14955777Y-13015722D01*
X14955777Y-13015722D02*
X14946253Y-13025246D01*
X14946253Y-13025246D02*
X14936729Y-13044293D01*
X14936729Y-13044293D02*
X14936729Y-13082388D01*
X14936729Y-13082388D02*
X14946253Y-13101436D01*
X14946253Y-13101436D02*
X14955777Y-13110960D01*
X14955777Y-13110960D02*
X14974825Y-13120484D01*
X14974825Y-13120484D02*
X15012920Y-13120484D01*
X15012920Y-13120484D02*
X15031968Y-13110960D01*
X15031968Y-13110960D02*
X15041491Y-13101436D01*
X15041491Y-13101436D02*
X15051015Y-13082388D01*
X15051015Y-13082388D02*
X15051015Y-13044293D01*
X15051015Y-13044293D02*
X15041491Y-13025246D01*
X15041491Y-13025246D02*
X15031968Y-13015722D01*
X15031968Y-13015722D02*
X15012920Y-13006198D01*
X15289110Y-13120484D02*
X15289110Y-12920484D01*
X15374825Y-13120484D02*
X15374825Y-13015722D01*
X15374825Y-13015722D02*
X15365301Y-12996674D01*
X15365301Y-12996674D02*
X15346253Y-12987150D01*
X15346253Y-12987150D02*
X15317682Y-12987150D01*
X15317682Y-12987150D02*
X15298634Y-12996674D01*
X15298634Y-12996674D02*
X15289110Y-13006198D01*
X15498634Y-13120484D02*
X15479587Y-13110960D01*
X15479587Y-13110960D02*
X15470063Y-13101436D01*
X15470063Y-13101436D02*
X15460539Y-13082388D01*
X15460539Y-13082388D02*
X15460539Y-13025246D01*
X15460539Y-13025246D02*
X15470063Y-13006198D01*
X15470063Y-13006198D02*
X15479587Y-12996674D01*
X15479587Y-12996674D02*
X15498634Y-12987150D01*
X15498634Y-12987150D02*
X15527206Y-12987150D01*
X15527206Y-12987150D02*
X15546253Y-12996674D01*
X15546253Y-12996674D02*
X15555777Y-13006198D01*
X15555777Y-13006198D02*
X15565301Y-13025246D01*
X15565301Y-13025246D02*
X15565301Y-13082388D01*
X15565301Y-13082388D02*
X15555777Y-13101436D01*
X15555777Y-13101436D02*
X15546253Y-13110960D01*
X15546253Y-13110960D02*
X15527206Y-13120484D01*
X15527206Y-13120484D02*
X15498634Y-13120484D01*
X15679587Y-13120484D02*
X15660539Y-13110960D01*
X15660539Y-13110960D02*
X15651015Y-13091912D01*
X15651015Y-13091912D02*
X15651015Y-12920484D01*
X15831968Y-13110960D02*
X15812920Y-13120484D01*
X15812920Y-13120484D02*
X15774825Y-13120484D01*
X15774825Y-13120484D02*
X15755777Y-13110960D01*
X15755777Y-13110960D02*
X15746253Y-13091912D01*
X15746253Y-13091912D02*
X15746253Y-13015722D01*
X15746253Y-13015722D02*
X15755777Y-12996674D01*
X15755777Y-12996674D02*
X15774825Y-12987150D01*
X15774825Y-12987150D02*
X15812920Y-12987150D01*
X15812920Y-12987150D02*
X15831968Y-12996674D01*
X15831968Y-12996674D02*
X15841491Y-13015722D01*
X15841491Y-13015722D02*
X15841491Y-13034769D01*
X15841491Y-13034769D02*
X15746253Y-13053817D01*
X15917682Y-13110960D02*
X15936730Y-13120484D01*
X15936730Y-13120484D02*
X15974825Y-13120484D01*
X15974825Y-13120484D02*
X15993872Y-13110960D01*
X15993872Y-13110960D02*
X16003396Y-13091912D01*
X16003396Y-13091912D02*
X16003396Y-13082388D01*
X16003396Y-13082388D02*
X15993872Y-13063341D01*
X15993872Y-13063341D02*
X15974825Y-13053817D01*
X15974825Y-13053817D02*
X15946253Y-13053817D01*
X15946253Y-13053817D02*
X15927206Y-13044293D01*
X15927206Y-13044293D02*
X15917682Y-13025246D01*
X15917682Y-13025246D02*
X15917682Y-13015722D01*
X15917682Y-13015722D02*
X15927206Y-12996674D01*
X15927206Y-12996674D02*
X15946253Y-12987150D01*
X15946253Y-12987150D02*
X15974825Y-12987150D01*
X15974825Y-12987150D02*
X15993872Y-12996674D01*
X16070063Y-13196674D02*
X16079587Y-13187150D01*
X16079587Y-13187150D02*
X16098634Y-13158579D01*
X16098634Y-13158579D02*
X16108158Y-13139531D01*
X16108158Y-13139531D02*
X16117682Y-13110960D01*
X16117682Y-13110960D02*
X16127206Y-13063341D01*
X16127206Y-13063341D02*
X16127206Y-13025246D01*
X16127206Y-13025246D02*
X16117682Y-12977627D01*
X16117682Y-12977627D02*
X16108158Y-12949055D01*
X16108158Y-12949055D02*
X16098634Y-12930008D01*
X16098634Y-12930008D02*
X16079587Y-12901436D01*
X16079587Y-12901436D02*
X16070063Y-12891912D01*
X11095000Y-13193000D02*
X11295000Y-13393000D01*
X11295000Y-13193000D02*
X11095000Y-13393000D01*
X11265711Y-13363711D02*
X11265711Y-13222289D01*
X11124289Y-13222289D01*
X11124289Y-13363711D01*
X11265711Y-13363711D01*
X11536729Y-13184484D02*
X11660539Y-13184484D01*
X11660539Y-13184484D02*
X11593872Y-13260674D01*
X11593872Y-13260674D02*
X11622443Y-13260674D01*
X11622443Y-13260674D02*
X11641491Y-13270198D01*
X11641491Y-13270198D02*
X11651015Y-13279722D01*
X11651015Y-13279722D02*
X11660539Y-13298769D01*
X11660539Y-13298769D02*
X11660539Y-13346388D01*
X11660539Y-13346388D02*
X11651015Y-13365436D01*
X11651015Y-13365436D02*
X11641491Y-13374960D01*
X11641491Y-13374960D02*
X11622443Y-13384484D01*
X11622443Y-13384484D02*
X11565301Y-13384484D01*
X11565301Y-13384484D02*
X11546253Y-13374960D01*
X11546253Y-13374960D02*
X11536729Y-13365436D01*
X11746253Y-13365436D02*
X11755777Y-13374960D01*
X11755777Y-13374960D02*
X11746253Y-13384484D01*
X11746253Y-13384484D02*
X11736729Y-13374960D01*
X11736729Y-13374960D02*
X11746253Y-13365436D01*
X11746253Y-13365436D02*
X11746253Y-13384484D01*
X11831967Y-13203531D02*
X11841491Y-13194008D01*
X11841491Y-13194008D02*
X11860539Y-13184484D01*
X11860539Y-13184484D02*
X11908158Y-13184484D01*
X11908158Y-13184484D02*
X11927205Y-13194008D01*
X11927205Y-13194008D02*
X11936729Y-13203531D01*
X11936729Y-13203531D02*
X11946253Y-13222579D01*
X11946253Y-13222579D02*
X11946253Y-13241627D01*
X11946253Y-13241627D02*
X11936729Y-13270198D01*
X11936729Y-13270198D02*
X11822443Y-13384484D01*
X11822443Y-13384484D02*
X11946253Y-13384484D01*
X12070062Y-13184484D02*
X12089110Y-13184484D01*
X12089110Y-13184484D02*
X12108158Y-13194008D01*
X12108158Y-13194008D02*
X12117682Y-13203531D01*
X12117682Y-13203531D02*
X12127205Y-13222579D01*
X12127205Y-13222579D02*
X12136729Y-13260674D01*
X12136729Y-13260674D02*
X12136729Y-13308293D01*
X12136729Y-13308293D02*
X12127205Y-13346388D01*
X12127205Y-13346388D02*
X12117682Y-13365436D01*
X12117682Y-13365436D02*
X12108158Y-13374960D01*
X12108158Y-13374960D02*
X12089110Y-13384484D01*
X12089110Y-13384484D02*
X12070062Y-13384484D01*
X12070062Y-13384484D02*
X12051015Y-13374960D01*
X12051015Y-13374960D02*
X12041491Y-13365436D01*
X12041491Y-13365436D02*
X12031967Y-13346388D01*
X12031967Y-13346388D02*
X12022443Y-13308293D01*
X12022443Y-13308293D02*
X12022443Y-13260674D01*
X12022443Y-13260674D02*
X12031967Y-13222579D01*
X12031967Y-13222579D02*
X12041491Y-13203531D01*
X12041491Y-13203531D02*
X12051015Y-13194008D01*
X12051015Y-13194008D02*
X12070062Y-13184484D01*
X12260539Y-13184484D02*
X12279586Y-13184484D01*
X12279586Y-13184484D02*
X12298634Y-13194008D01*
X12298634Y-13194008D02*
X12308158Y-13203531D01*
X12308158Y-13203531D02*
X12317682Y-13222579D01*
X12317682Y-13222579D02*
X12327205Y-13260674D01*
X12327205Y-13260674D02*
X12327205Y-13308293D01*
X12327205Y-13308293D02*
X12317682Y-13346388D01*
X12317682Y-13346388D02*
X12308158Y-13365436D01*
X12308158Y-13365436D02*
X12298634Y-13374960D01*
X12298634Y-13374960D02*
X12279586Y-13384484D01*
X12279586Y-13384484D02*
X12260539Y-13384484D01*
X12260539Y-13384484D02*
X12241491Y-13374960D01*
X12241491Y-13374960D02*
X12231967Y-13365436D01*
X12231967Y-13365436D02*
X12222443Y-13346388D01*
X12222443Y-13346388D02*
X12212920Y-13308293D01*
X12212920Y-13308293D02*
X12212920Y-13260674D01*
X12212920Y-13260674D02*
X12222443Y-13222579D01*
X12222443Y-13222579D02*
X12231967Y-13203531D01*
X12231967Y-13203531D02*
X12241491Y-13194008D01*
X12241491Y-13194008D02*
X12260539Y-13184484D01*
X12412920Y-13384484D02*
X12412920Y-13251150D01*
X12412920Y-13270198D02*
X12422443Y-13260674D01*
X12422443Y-13260674D02*
X12441491Y-13251150D01*
X12441491Y-13251150D02*
X12470063Y-13251150D01*
X12470063Y-13251150D02*
X12489110Y-13260674D01*
X12489110Y-13260674D02*
X12498634Y-13279722D01*
X12498634Y-13279722D02*
X12498634Y-13384484D01*
X12498634Y-13279722D02*
X12508158Y-13260674D01*
X12508158Y-13260674D02*
X12527205Y-13251150D01*
X12527205Y-13251150D02*
X12555777Y-13251150D01*
X12555777Y-13251150D02*
X12574824Y-13260674D01*
X12574824Y-13260674D02*
X12584348Y-13279722D01*
X12584348Y-13279722D02*
X12584348Y-13384484D01*
X12679586Y-13384484D02*
X12679586Y-13251150D01*
X12679586Y-13270198D02*
X12689110Y-13260674D01*
X12689110Y-13260674D02*
X12708158Y-13251150D01*
X12708158Y-13251150D02*
X12736729Y-13251150D01*
X12736729Y-13251150D02*
X12755777Y-13260674D01*
X12755777Y-13260674D02*
X12765301Y-13279722D01*
X12765301Y-13279722D02*
X12765301Y-13384484D01*
X12765301Y-13279722D02*
X12774824Y-13260674D01*
X12774824Y-13260674D02*
X12793872Y-13251150D01*
X12793872Y-13251150D02*
X12822443Y-13251150D01*
X12822443Y-13251150D02*
X12841491Y-13260674D01*
X12841491Y-13260674D02*
X12851015Y-13279722D01*
X12851015Y-13279722D02*
X12851015Y-13384484D01*
X13241491Y-13174960D02*
X13070063Y-13432103D01*
X13498634Y-13184484D02*
X13517682Y-13184484D01*
X13517682Y-13184484D02*
X13536729Y-13194008D01*
X13536729Y-13194008D02*
X13546253Y-13203531D01*
X13546253Y-13203531D02*
X13555777Y-13222579D01*
X13555777Y-13222579D02*
X13565301Y-13260674D01*
X13565301Y-13260674D02*
X13565301Y-13308293D01*
X13565301Y-13308293D02*
X13555777Y-13346388D01*
X13555777Y-13346388D02*
X13546253Y-13365436D01*
X13546253Y-13365436D02*
X13536729Y-13374960D01*
X13536729Y-13374960D02*
X13517682Y-13384484D01*
X13517682Y-13384484D02*
X13498634Y-13384484D01*
X13498634Y-13384484D02*
X13479586Y-13374960D01*
X13479586Y-13374960D02*
X13470063Y-13365436D01*
X13470063Y-13365436D02*
X13460539Y-13346388D01*
X13460539Y-13346388D02*
X13451015Y-13308293D01*
X13451015Y-13308293D02*
X13451015Y-13260674D01*
X13451015Y-13260674D02*
X13460539Y-13222579D01*
X13460539Y-13222579D02*
X13470063Y-13203531D01*
X13470063Y-13203531D02*
X13479586Y-13194008D01*
X13479586Y-13194008D02*
X13498634Y-13184484D01*
X13651015Y-13365436D02*
X13660539Y-13374960D01*
X13660539Y-13374960D02*
X13651015Y-13384484D01*
X13651015Y-13384484D02*
X13641491Y-13374960D01*
X13641491Y-13374960D02*
X13651015Y-13365436D01*
X13651015Y-13365436D02*
X13651015Y-13384484D01*
X13851015Y-13384484D02*
X13736729Y-13384484D01*
X13793872Y-13384484D02*
X13793872Y-13184484D01*
X13793872Y-13184484D02*
X13774825Y-13213055D01*
X13774825Y-13213055D02*
X13755777Y-13232103D01*
X13755777Y-13232103D02*
X13736729Y-13241627D01*
X13927206Y-13203531D02*
X13936729Y-13194008D01*
X13936729Y-13194008D02*
X13955777Y-13184484D01*
X13955777Y-13184484D02*
X14003396Y-13184484D01*
X14003396Y-13184484D02*
X14022444Y-13194008D01*
X14022444Y-13194008D02*
X14031967Y-13203531D01*
X14031967Y-13203531D02*
X14041491Y-13222579D01*
X14041491Y-13222579D02*
X14041491Y-13241627D01*
X14041491Y-13241627D02*
X14031967Y-13270198D01*
X14031967Y-13270198D02*
X13917682Y-13384484D01*
X13917682Y-13384484D02*
X14041491Y-13384484D01*
X14212920Y-13184484D02*
X14174825Y-13184484D01*
X14174825Y-13184484D02*
X14155777Y-13194008D01*
X14155777Y-13194008D02*
X14146253Y-13203531D01*
X14146253Y-13203531D02*
X14127206Y-13232103D01*
X14127206Y-13232103D02*
X14117682Y-13270198D01*
X14117682Y-13270198D02*
X14117682Y-13346388D01*
X14117682Y-13346388D02*
X14127206Y-13365436D01*
X14127206Y-13365436D02*
X14136729Y-13374960D01*
X14136729Y-13374960D02*
X14155777Y-13384484D01*
X14155777Y-13384484D02*
X14193872Y-13384484D01*
X14193872Y-13384484D02*
X14212920Y-13374960D01*
X14212920Y-13374960D02*
X14222444Y-13365436D01*
X14222444Y-13365436D02*
X14231967Y-13346388D01*
X14231967Y-13346388D02*
X14231967Y-13298769D01*
X14231967Y-13298769D02*
X14222444Y-13279722D01*
X14222444Y-13279722D02*
X14212920Y-13270198D01*
X14212920Y-13270198D02*
X14193872Y-13260674D01*
X14193872Y-13260674D02*
X14155777Y-13260674D01*
X14155777Y-13260674D02*
X14136729Y-13270198D01*
X14136729Y-13270198D02*
X14127206Y-13279722D01*
X14127206Y-13279722D02*
X14117682Y-13298769D01*
X14355777Y-13184484D02*
X14374825Y-13184484D01*
X14374825Y-13184484D02*
X14393872Y-13194008D01*
X14393872Y-13194008D02*
X14403396Y-13203531D01*
X14403396Y-13203531D02*
X14412920Y-13222579D01*
X14412920Y-13222579D02*
X14422444Y-13260674D01*
X14422444Y-13260674D02*
X14422444Y-13308293D01*
X14422444Y-13308293D02*
X14412920Y-13346388D01*
X14412920Y-13346388D02*
X14403396Y-13365436D01*
X14403396Y-13365436D02*
X14393872Y-13374960D01*
X14393872Y-13374960D02*
X14374825Y-13384484D01*
X14374825Y-13384484D02*
X14355777Y-13384484D01*
X14355777Y-13384484D02*
X14336729Y-13374960D01*
X14336729Y-13374960D02*
X14327206Y-13365436D01*
X14327206Y-13365436D02*
X14317682Y-13346388D01*
X14317682Y-13346388D02*
X14308158Y-13308293D01*
X14308158Y-13308293D02*
X14308158Y-13260674D01*
X14308158Y-13260674D02*
X14317682Y-13222579D01*
X14317682Y-13222579D02*
X14327206Y-13203531D01*
X14327206Y-13203531D02*
X14336729Y-13194008D01*
X14336729Y-13194008D02*
X14355777Y-13184484D01*
X14498634Y-13184484D02*
X14498634Y-13222579D01*
X14574825Y-13184484D02*
X14574825Y-13222579D01*
X14870063Y-13460674D02*
X14860539Y-13451150D01*
X14860539Y-13451150D02*
X14841491Y-13422579D01*
X14841491Y-13422579D02*
X14831968Y-13403531D01*
X14831968Y-13403531D02*
X14822444Y-13374960D01*
X14822444Y-13374960D02*
X14812920Y-13327341D01*
X14812920Y-13327341D02*
X14812920Y-13289246D01*
X14812920Y-13289246D02*
X14822444Y-13241627D01*
X14822444Y-13241627D02*
X14831968Y-13213055D01*
X14831968Y-13213055D02*
X14841491Y-13194008D01*
X14841491Y-13194008D02*
X14860539Y-13165436D01*
X14860539Y-13165436D02*
X14870063Y-13155912D01*
X15031968Y-13251150D02*
X15031968Y-13384484D01*
X14984348Y-13174960D02*
X14936729Y-13317817D01*
X14936729Y-13317817D02*
X15060539Y-13317817D01*
X15289110Y-13384484D02*
X15289110Y-13184484D01*
X15374825Y-13384484D02*
X15374825Y-13279722D01*
X15374825Y-13279722D02*
X15365301Y-13260674D01*
X15365301Y-13260674D02*
X15346253Y-13251150D01*
X15346253Y-13251150D02*
X15317682Y-13251150D01*
X15317682Y-13251150D02*
X15298634Y-13260674D01*
X15298634Y-13260674D02*
X15289110Y-13270198D01*
X15498634Y-13384484D02*
X15479587Y-13374960D01*
X15479587Y-13374960D02*
X15470063Y-13365436D01*
X15470063Y-13365436D02*
X15460539Y-13346388D01*
X15460539Y-13346388D02*
X15460539Y-13289246D01*
X15460539Y-13289246D02*
X15470063Y-13270198D01*
X15470063Y-13270198D02*
X15479587Y-13260674D01*
X15479587Y-13260674D02*
X15498634Y-13251150D01*
X15498634Y-13251150D02*
X15527206Y-13251150D01*
X15527206Y-13251150D02*
X15546253Y-13260674D01*
X15546253Y-13260674D02*
X15555777Y-13270198D01*
X15555777Y-13270198D02*
X15565301Y-13289246D01*
X15565301Y-13289246D02*
X15565301Y-13346388D01*
X15565301Y-13346388D02*
X15555777Y-13365436D01*
X15555777Y-13365436D02*
X15546253Y-13374960D01*
X15546253Y-13374960D02*
X15527206Y-13384484D01*
X15527206Y-13384484D02*
X15498634Y-13384484D01*
X15679587Y-13384484D02*
X15660539Y-13374960D01*
X15660539Y-13374960D02*
X15651015Y-13355912D01*
X15651015Y-13355912D02*
X15651015Y-13184484D01*
X15831968Y-13374960D02*
X15812920Y-13384484D01*
X15812920Y-13384484D02*
X15774825Y-13384484D01*
X15774825Y-13384484D02*
X15755777Y-13374960D01*
X15755777Y-13374960D02*
X15746253Y-13355912D01*
X15746253Y-13355912D02*
X15746253Y-13279722D01*
X15746253Y-13279722D02*
X15755777Y-13260674D01*
X15755777Y-13260674D02*
X15774825Y-13251150D01*
X15774825Y-13251150D02*
X15812920Y-13251150D01*
X15812920Y-13251150D02*
X15831968Y-13260674D01*
X15831968Y-13260674D02*
X15841491Y-13279722D01*
X15841491Y-13279722D02*
X15841491Y-13298769D01*
X15841491Y-13298769D02*
X15746253Y-13317817D01*
X15917682Y-13374960D02*
X15936730Y-13384484D01*
X15936730Y-13384484D02*
X15974825Y-13384484D01*
X15974825Y-13384484D02*
X15993872Y-13374960D01*
X15993872Y-13374960D02*
X16003396Y-13355912D01*
X16003396Y-13355912D02*
X16003396Y-13346388D01*
X16003396Y-13346388D02*
X15993872Y-13327341D01*
X15993872Y-13327341D02*
X15974825Y-13317817D01*
X15974825Y-13317817D02*
X15946253Y-13317817D01*
X15946253Y-13317817D02*
X15927206Y-13308293D01*
X15927206Y-13308293D02*
X15917682Y-13289246D01*
X15917682Y-13289246D02*
X15917682Y-13279722D01*
X15917682Y-13279722D02*
X15927206Y-13260674D01*
X15927206Y-13260674D02*
X15946253Y-13251150D01*
X15946253Y-13251150D02*
X15974825Y-13251150D01*
X15974825Y-13251150D02*
X15993872Y-13260674D01*
X16070063Y-13460674D02*
X16079587Y-13451150D01*
X16079587Y-13451150D02*
X16098634Y-13422579D01*
X16098634Y-13422579D02*
X16108158Y-13403531D01*
X16108158Y-13403531D02*
X16117682Y-13374960D01*
X16117682Y-13374960D02*
X16127206Y-13327341D01*
X16127206Y-13327341D02*
X16127206Y-13289246D01*
X16127206Y-13289246D02*
X16117682Y-13241627D01*
X16117682Y-13241627D02*
X16108158Y-13213055D01*
X16108158Y-13213055D02*
X16098634Y-13194008D01*
X16098634Y-13194008D02*
X16079587Y-13165436D01*
X16079587Y-13165436D02*
X16070063Y-13155912D01*
M02*
