%TF.GenerationSoftware,KiCad,Pcbnew,7.0.9*%
%TF.CreationDate,2025-09-04T13:27:59+02:00*%
%TF.ProjectId,Kicad_Projet_Sons_HW896_V1,4b696361-645f-4507-926f-6a65745f536f,rev?*%
%TF.SameCoordinates,Original*%
%TF.FileFunction,Soldermask,Bot*%
%TF.FilePolarity,Negative*%
%FSLAX46Y46*%
G04 Gerber Fmt 4.6, Leading zero omitted, Abs format (unit mm)*
G04 Created by KiCad (PCBNEW 7.0.9) date 2025-09-04 13:27:59*
%MOMM*%
%LPD*%
G01*
G04 APERTURE LIST*
G04 Aperture macros list*
%AMRoundRect*
0 Rectangle with rounded corners*
0 $1 Rounding radius*
0 $2 $3 $4 $5 $6 $7 $8 $9 X,Y pos of 4 corners*
0 Add a 4 corners polygon primitive as box body*
4,1,4,$2,$3,$4,$5,$6,$7,$8,$9,$2,$3,0*
0 Add four circle primitives for the rounded corners*
1,1,$1+$1,$2,$3*
1,1,$1+$1,$4,$5*
1,1,$1+$1,$6,$7*
1,1,$1+$1,$8,$9*
0 Add four rect primitives between the rounded corners*
20,1,$1+$1,$2,$3,$4,$5,0*
20,1,$1+$1,$4,$5,$6,$7,0*
20,1,$1+$1,$6,$7,$8,$9,0*
20,1,$1+$1,$8,$9,$2,$3,0*%
G04 Aperture macros list end*
%ADD10C,5.600000*%
%ADD11R,1.800000X1.800000*%
%ADD12C,1.800000*%
%ADD13C,1.600000*%
%ADD14C,2.000000*%
%ADD15R,1.357000X1.357000*%
%ADD16C,1.357000*%
%ADD17R,2.200000X2.200000*%
%ADD18O,2.200000X2.200000*%
%ADD19R,1.700000X1.700000*%
%ADD20O,1.700000X1.700000*%
%ADD21C,1.650000*%
%ADD22RoundRect,0.102000X-0.654000X-0.654000X0.654000X-0.654000X0.654000X0.654000X-0.654000X0.654000X0*%
%ADD23C,1.512000*%
%ADD24O,3.500000X3.500000*%
%ADD25R,1.900000X2.500000*%
%ADD26O,1.900000X2.500000*%
G04 APERTURE END LIST*
D10*
%TO.C,REF\u002A\u002A*%
X173800000Y-104600000D03*
%TD*%
D11*
%TO.C,D3*%
X138660000Y-90280000D03*
D12*
X141200000Y-90280000D03*
%TD*%
D13*
%TO.C,C3*%
X132090000Y-91600000D03*
X134590000Y-91600000D03*
%TD*%
D14*
%TO.C,R1*%
X141200000Y-102980000D03*
X141200000Y-95360000D03*
%TD*%
D15*
%TO.C,C1*%
X118340000Y-91450000D03*
D16*
X123420000Y-91450000D03*
%TD*%
D10*
%TO.C,REF\u002A\u002A*%
X173800000Y-50600000D03*
%TD*%
D17*
%TO.C,D1*%
X158720000Y-76210000D03*
D18*
X158720000Y-86370000D03*
%TD*%
D19*
%TO.C,J10*%
X166400000Y-58320000D03*
D20*
X166400000Y-60860000D03*
X166400000Y-63400000D03*
X166400000Y-65940000D03*
X166400000Y-68480000D03*
X166400000Y-71020000D03*
X166400000Y-73560000D03*
%TD*%
D21*
%TO.C,J1*%
X152290000Y-93900000D03*
X147290000Y-93900000D03*
%TD*%
D17*
%TO.C,D2*%
X163165000Y-76845000D03*
D18*
X163165000Y-87005000D03*
%TD*%
D10*
%TO.C,REF\u002A\u002A*%
X119300000Y-50600000D03*
%TD*%
D21*
%TO.C,J2*%
X164990000Y-93900000D03*
X159990000Y-93900000D03*
%TD*%
D22*
%TO.C,U2*%
X146020000Y-54620000D03*
D23*
X146020000Y-57160000D03*
X146020000Y-59700000D03*
X146020000Y-62240000D03*
X146020000Y-64780000D03*
X146020000Y-67320000D03*
X146020000Y-69860000D03*
X146020000Y-72400000D03*
X161260000Y-72400000D03*
X161260000Y-69860000D03*
X161260000Y-67320000D03*
X161260000Y-64780000D03*
X161260000Y-62240000D03*
X161260000Y-59700000D03*
X161260000Y-57160000D03*
X161260000Y-54620000D03*
%TD*%
D10*
%TO.C,REF\u002A\u002A*%
X119300000Y-104600000D03*
%TD*%
D24*
%TO.C,U1*%
X129510000Y-71540000D03*
D25*
X126970000Y-87740000D03*
D26*
X129510000Y-87740000D03*
X132050000Y-87740000D03*
%TD*%
M02*
