%TF.GenerationSoftware,KiCad,Pcbnew,7.0.9*%
%TF.CreationDate,2025-09-04T13:27:58+02:00*%
%TF.ProjectId,Kicad_Projet_Sons_HW896_V1,4b696361-645f-4507-926f-6a65745f536f,rev?*%
%TF.SameCoordinates,Original*%
%TF.FileFunction,Copper,L1,Top*%
%TF.FilePolarity,Positive*%
%FSLAX46Y46*%
G04 Gerber Fmt 4.6, Leading zero omitted, Abs format (unit mm)*
G04 Created by KiCad (PCBNEW 7.0.9) date 2025-09-04 13:27:58*
%MOMM*%
%LPD*%
G01*
G04 APERTURE LIST*
%ADD10C,0.300000*%
%TA.AperFunction,NonConductor*%
%ADD11C,0.300000*%
%TD*%
%TA.AperFunction,NonConductor*%
%ADD12C,0.200000*%
%TD*%
%TA.AperFunction,ComponentPad*%
%ADD13C,5.600000*%
%TD*%
%TA.AperFunction,ComponentPad*%
%ADD14R,1.800000X1.800000*%
%TD*%
%TA.AperFunction,ComponentPad*%
%ADD15C,1.800000*%
%TD*%
%TA.AperFunction,ComponentPad*%
%ADD16C,1.600000*%
%TD*%
%TA.AperFunction,ComponentPad*%
%ADD17C,2.000000*%
%TD*%
%TA.AperFunction,ComponentPad*%
%ADD18R,1.357000X1.357000*%
%TD*%
%TA.AperFunction,ComponentPad*%
%ADD19C,1.357000*%
%TD*%
%TA.AperFunction,ComponentPad*%
%ADD20R,2.200000X2.200000*%
%TD*%
%TA.AperFunction,ComponentPad*%
%ADD21O,2.200000X2.200000*%
%TD*%
%TA.AperFunction,ComponentPad*%
%ADD22R,1.700000X1.700000*%
%TD*%
%TA.AperFunction,ComponentPad*%
%ADD23O,1.700000X1.700000*%
%TD*%
%TA.AperFunction,SMDPad,CuDef*%
%ADD24R,3.500000X1.850000*%
%TD*%
%TA.AperFunction,ComponentPad*%
%ADD25C,1.650000*%
%TD*%
%TA.AperFunction,SMDPad,CuDef*%
%ADD26R,4.100000X2.000000*%
%TD*%
%TA.AperFunction,ComponentPad*%
%ADD27R,1.308000X1.308000*%
%TD*%
%TA.AperFunction,ComponentPad*%
%ADD28C,1.308000*%
%TD*%
%TA.AperFunction,ComponentPad*%
%ADD29R,1.900000X2.500000*%
%TD*%
%TA.AperFunction,ComponentPad*%
%ADD30O,1.900000X2.500000*%
%TD*%
%TA.AperFunction,ViaPad*%
%ADD31C,0.800000*%
%TD*%
%TA.AperFunction,Conductor*%
%ADD32C,0.250000*%
%TD*%
G04 APERTURE END LIST*
D10*
D11*
X110638328Y-83742855D02*
X110638328Y-84457141D01*
X110638328Y-84457141D02*
X111352614Y-84528569D01*
X111352614Y-84528569D02*
X111281185Y-84457141D01*
X111281185Y-84457141D02*
X111209757Y-84314284D01*
X111209757Y-84314284D02*
X111209757Y-83957141D01*
X111209757Y-83957141D02*
X111281185Y-83814284D01*
X111281185Y-83814284D02*
X111352614Y-83742855D01*
X111352614Y-83742855D02*
X111495471Y-83671426D01*
X111495471Y-83671426D02*
X111852614Y-83671426D01*
X111852614Y-83671426D02*
X111995471Y-83742855D01*
X111995471Y-83742855D02*
X112066900Y-83814284D01*
X112066900Y-83814284D02*
X112138328Y-83957141D01*
X112138328Y-83957141D02*
X112138328Y-84314284D01*
X112138328Y-84314284D02*
X112066900Y-84457141D01*
X112066900Y-84457141D02*
X111995471Y-84528569D01*
X111138328Y-82385713D02*
X112138328Y-82385713D01*
X110566900Y-82742855D02*
X111638328Y-83099998D01*
X111638328Y-83099998D02*
X111638328Y-82171427D01*
X112066900Y-81528570D02*
X112138328Y-81528570D01*
X112138328Y-81528570D02*
X112281185Y-81599999D01*
X112281185Y-81599999D02*
X112352614Y-81671427D01*
X110638328Y-80599998D02*
X110638328Y-80457141D01*
X110638328Y-80457141D02*
X110709757Y-80314284D01*
X110709757Y-80314284D02*
X110781185Y-80242856D01*
X110781185Y-80242856D02*
X110924042Y-80171427D01*
X110924042Y-80171427D02*
X111209757Y-80099998D01*
X111209757Y-80099998D02*
X111566900Y-80099998D01*
X111566900Y-80099998D02*
X111852614Y-80171427D01*
X111852614Y-80171427D02*
X111995471Y-80242856D01*
X111995471Y-80242856D02*
X112066900Y-80314284D01*
X112066900Y-80314284D02*
X112138328Y-80457141D01*
X112138328Y-80457141D02*
X112138328Y-80599998D01*
X112138328Y-80599998D02*
X112066900Y-80742856D01*
X112066900Y-80742856D02*
X111995471Y-80814284D01*
X111995471Y-80814284D02*
X111852614Y-80885713D01*
X111852614Y-80885713D02*
X111566900Y-80957141D01*
X111566900Y-80957141D02*
X111209757Y-80957141D01*
X111209757Y-80957141D02*
X110924042Y-80885713D01*
X110924042Y-80885713D02*
X110781185Y-80814284D01*
X110781185Y-80814284D02*
X110709757Y-80742856D01*
X110709757Y-80742856D02*
X110638328Y-80599998D01*
X110638328Y-79171427D02*
X110638328Y-79028570D01*
X110638328Y-79028570D02*
X110709757Y-78885713D01*
X110709757Y-78885713D02*
X110781185Y-78814285D01*
X110781185Y-78814285D02*
X110924042Y-78742856D01*
X110924042Y-78742856D02*
X111209757Y-78671427D01*
X111209757Y-78671427D02*
X111566900Y-78671427D01*
X111566900Y-78671427D02*
X111852614Y-78742856D01*
X111852614Y-78742856D02*
X111995471Y-78814285D01*
X111995471Y-78814285D02*
X112066900Y-78885713D01*
X112066900Y-78885713D02*
X112138328Y-79028570D01*
X112138328Y-79028570D02*
X112138328Y-79171427D01*
X112138328Y-79171427D02*
X112066900Y-79314285D01*
X112066900Y-79314285D02*
X111995471Y-79385713D01*
X111995471Y-79385713D02*
X111852614Y-79457142D01*
X111852614Y-79457142D02*
X111566900Y-79528570D01*
X111566900Y-79528570D02*
X111209757Y-79528570D01*
X111209757Y-79528570D02*
X110924042Y-79457142D01*
X110924042Y-79457142D02*
X110781185Y-79385713D01*
X110781185Y-79385713D02*
X110709757Y-79314285D01*
X110709757Y-79314285D02*
X110638328Y-79171427D01*
X110638328Y-77742856D02*
X110638328Y-77599999D01*
X110638328Y-77599999D02*
X110709757Y-77457142D01*
X110709757Y-77457142D02*
X110781185Y-77385714D01*
X110781185Y-77385714D02*
X110924042Y-77314285D01*
X110924042Y-77314285D02*
X111209757Y-77242856D01*
X111209757Y-77242856D02*
X111566900Y-77242856D01*
X111566900Y-77242856D02*
X111852614Y-77314285D01*
X111852614Y-77314285D02*
X111995471Y-77385714D01*
X111995471Y-77385714D02*
X112066900Y-77457142D01*
X112066900Y-77457142D02*
X112138328Y-77599999D01*
X112138328Y-77599999D02*
X112138328Y-77742856D01*
X112138328Y-77742856D02*
X112066900Y-77885714D01*
X112066900Y-77885714D02*
X111995471Y-77957142D01*
X111995471Y-77957142D02*
X111852614Y-78028571D01*
X111852614Y-78028571D02*
X111566900Y-78099999D01*
X111566900Y-78099999D02*
X111209757Y-78099999D01*
X111209757Y-78099999D02*
X110924042Y-78028571D01*
X110924042Y-78028571D02*
X110781185Y-77957142D01*
X110781185Y-77957142D02*
X110709757Y-77885714D01*
X110709757Y-77885714D02*
X110638328Y-77742856D01*
X110638328Y-76314285D02*
X110638328Y-76171428D01*
X110638328Y-76171428D02*
X110709757Y-76028571D01*
X110709757Y-76028571D02*
X110781185Y-75957143D01*
X110781185Y-75957143D02*
X110924042Y-75885714D01*
X110924042Y-75885714D02*
X111209757Y-75814285D01*
X111209757Y-75814285D02*
X111566900Y-75814285D01*
X111566900Y-75814285D02*
X111852614Y-75885714D01*
X111852614Y-75885714D02*
X111995471Y-75957143D01*
X111995471Y-75957143D02*
X112066900Y-76028571D01*
X112066900Y-76028571D02*
X112138328Y-76171428D01*
X112138328Y-76171428D02*
X112138328Y-76314285D01*
X112138328Y-76314285D02*
X112066900Y-76457143D01*
X112066900Y-76457143D02*
X111995471Y-76528571D01*
X111995471Y-76528571D02*
X111852614Y-76600000D01*
X111852614Y-76600000D02*
X111566900Y-76671428D01*
X111566900Y-76671428D02*
X111209757Y-76671428D01*
X111209757Y-76671428D02*
X110924042Y-76600000D01*
X110924042Y-76600000D02*
X110781185Y-76528571D01*
X110781185Y-76528571D02*
X110709757Y-76457143D01*
X110709757Y-76457143D02*
X110638328Y-76314285D01*
X112138328Y-74028572D02*
X111138328Y-74028572D01*
X111281185Y-74028572D02*
X111209757Y-73957143D01*
X111209757Y-73957143D02*
X111138328Y-73814286D01*
X111138328Y-73814286D02*
X111138328Y-73600000D01*
X111138328Y-73600000D02*
X111209757Y-73457143D01*
X111209757Y-73457143D02*
X111352614Y-73385715D01*
X111352614Y-73385715D02*
X112138328Y-73385715D01*
X111352614Y-73385715D02*
X111209757Y-73314286D01*
X111209757Y-73314286D02*
X111138328Y-73171429D01*
X111138328Y-73171429D02*
X111138328Y-72957143D01*
X111138328Y-72957143D02*
X111209757Y-72814286D01*
X111209757Y-72814286D02*
X111352614Y-72742857D01*
X111352614Y-72742857D02*
X112138328Y-72742857D01*
X112138328Y-72028572D02*
X111138328Y-72028572D01*
X111281185Y-72028572D02*
X111209757Y-71957143D01*
X111209757Y-71957143D02*
X111138328Y-71814286D01*
X111138328Y-71814286D02*
X111138328Y-71600000D01*
X111138328Y-71600000D02*
X111209757Y-71457143D01*
X111209757Y-71457143D02*
X111352614Y-71385715D01*
X111352614Y-71385715D02*
X112138328Y-71385715D01*
X111352614Y-71385715D02*
X111209757Y-71314286D01*
X111209757Y-71314286D02*
X111138328Y-71171429D01*
X111138328Y-71171429D02*
X111138328Y-70957143D01*
X111138328Y-70957143D02*
X111209757Y-70814286D01*
X111209757Y-70814286D02*
X111352614Y-70742857D01*
X111352614Y-70742857D02*
X112138328Y-70742857D01*
D12*
X113760000Y-50600000D02*
X113846420Y-50600000D01*
X113760000Y-104600000D02*
X113846420Y-104600000D01*
X113260000Y-50600000D02*
X113260000Y-104600000D01*
X113260000Y-50600000D02*
X113260000Y-104600000D01*
X113260000Y-50600000D02*
X113846421Y-51726504D01*
X113260000Y-50600000D02*
X112673579Y-51726504D01*
X113260000Y-104600000D02*
X112673579Y-103473496D01*
X113260000Y-104600000D02*
X113846421Y-103473496D01*
D10*
D11*
X177948328Y-83814284D02*
X177948328Y-84099998D01*
X177948328Y-84099998D02*
X178019757Y-84242855D01*
X178019757Y-84242855D02*
X178091185Y-84314284D01*
X178091185Y-84314284D02*
X178305471Y-84457141D01*
X178305471Y-84457141D02*
X178591185Y-84528569D01*
X178591185Y-84528569D02*
X179162614Y-84528569D01*
X179162614Y-84528569D02*
X179305471Y-84457141D01*
X179305471Y-84457141D02*
X179376900Y-84385712D01*
X179376900Y-84385712D02*
X179448328Y-84242855D01*
X179448328Y-84242855D02*
X179448328Y-83957141D01*
X179448328Y-83957141D02*
X179376900Y-83814284D01*
X179376900Y-83814284D02*
X179305471Y-83742855D01*
X179305471Y-83742855D02*
X179162614Y-83671426D01*
X179162614Y-83671426D02*
X178805471Y-83671426D01*
X178805471Y-83671426D02*
X178662614Y-83742855D01*
X178662614Y-83742855D02*
X178591185Y-83814284D01*
X178591185Y-83814284D02*
X178519757Y-83957141D01*
X178519757Y-83957141D02*
X178519757Y-84242855D01*
X178519757Y-84242855D02*
X178591185Y-84385712D01*
X178591185Y-84385712D02*
X178662614Y-84457141D01*
X178662614Y-84457141D02*
X178805471Y-84528569D01*
X179448328Y-82242855D02*
X179448328Y-83099998D01*
X179448328Y-82671427D02*
X177948328Y-82671427D01*
X177948328Y-82671427D02*
X178162614Y-82814284D01*
X178162614Y-82814284D02*
X178305471Y-82957141D01*
X178305471Y-82957141D02*
X178376900Y-83099998D01*
X179376900Y-81528570D02*
X179448328Y-81528570D01*
X179448328Y-81528570D02*
X179591185Y-81599999D01*
X179591185Y-81599999D02*
X179662614Y-81671427D01*
X177948328Y-80599998D02*
X177948328Y-80457141D01*
X177948328Y-80457141D02*
X178019757Y-80314284D01*
X178019757Y-80314284D02*
X178091185Y-80242856D01*
X178091185Y-80242856D02*
X178234042Y-80171427D01*
X178234042Y-80171427D02*
X178519757Y-80099998D01*
X178519757Y-80099998D02*
X178876900Y-80099998D01*
X178876900Y-80099998D02*
X179162614Y-80171427D01*
X179162614Y-80171427D02*
X179305471Y-80242856D01*
X179305471Y-80242856D02*
X179376900Y-80314284D01*
X179376900Y-80314284D02*
X179448328Y-80457141D01*
X179448328Y-80457141D02*
X179448328Y-80599998D01*
X179448328Y-80599998D02*
X179376900Y-80742856D01*
X179376900Y-80742856D02*
X179305471Y-80814284D01*
X179305471Y-80814284D02*
X179162614Y-80885713D01*
X179162614Y-80885713D02*
X178876900Y-80957141D01*
X178876900Y-80957141D02*
X178519757Y-80957141D01*
X178519757Y-80957141D02*
X178234042Y-80885713D01*
X178234042Y-80885713D02*
X178091185Y-80814284D01*
X178091185Y-80814284D02*
X178019757Y-80742856D01*
X178019757Y-80742856D02*
X177948328Y-80599998D01*
X177948328Y-79171427D02*
X177948328Y-79028570D01*
X177948328Y-79028570D02*
X178019757Y-78885713D01*
X178019757Y-78885713D02*
X178091185Y-78814285D01*
X178091185Y-78814285D02*
X178234042Y-78742856D01*
X178234042Y-78742856D02*
X178519757Y-78671427D01*
X178519757Y-78671427D02*
X178876900Y-78671427D01*
X178876900Y-78671427D02*
X179162614Y-78742856D01*
X179162614Y-78742856D02*
X179305471Y-78814285D01*
X179305471Y-78814285D02*
X179376900Y-78885713D01*
X179376900Y-78885713D02*
X179448328Y-79028570D01*
X179448328Y-79028570D02*
X179448328Y-79171427D01*
X179448328Y-79171427D02*
X179376900Y-79314285D01*
X179376900Y-79314285D02*
X179305471Y-79385713D01*
X179305471Y-79385713D02*
X179162614Y-79457142D01*
X179162614Y-79457142D02*
X178876900Y-79528570D01*
X178876900Y-79528570D02*
X178519757Y-79528570D01*
X178519757Y-79528570D02*
X178234042Y-79457142D01*
X178234042Y-79457142D02*
X178091185Y-79385713D01*
X178091185Y-79385713D02*
X178019757Y-79314285D01*
X178019757Y-79314285D02*
X177948328Y-79171427D01*
X177948328Y-77742856D02*
X177948328Y-77599999D01*
X177948328Y-77599999D02*
X178019757Y-77457142D01*
X178019757Y-77457142D02*
X178091185Y-77385714D01*
X178091185Y-77385714D02*
X178234042Y-77314285D01*
X178234042Y-77314285D02*
X178519757Y-77242856D01*
X178519757Y-77242856D02*
X178876900Y-77242856D01*
X178876900Y-77242856D02*
X179162614Y-77314285D01*
X179162614Y-77314285D02*
X179305471Y-77385714D01*
X179305471Y-77385714D02*
X179376900Y-77457142D01*
X179376900Y-77457142D02*
X179448328Y-77599999D01*
X179448328Y-77599999D02*
X179448328Y-77742856D01*
X179448328Y-77742856D02*
X179376900Y-77885714D01*
X179376900Y-77885714D02*
X179305471Y-77957142D01*
X179305471Y-77957142D02*
X179162614Y-78028571D01*
X179162614Y-78028571D02*
X178876900Y-78099999D01*
X178876900Y-78099999D02*
X178519757Y-78099999D01*
X178519757Y-78099999D02*
X178234042Y-78028571D01*
X178234042Y-78028571D02*
X178091185Y-77957142D01*
X178091185Y-77957142D02*
X178019757Y-77885714D01*
X178019757Y-77885714D02*
X177948328Y-77742856D01*
X177948328Y-76314285D02*
X177948328Y-76171428D01*
X177948328Y-76171428D02*
X178019757Y-76028571D01*
X178019757Y-76028571D02*
X178091185Y-75957143D01*
X178091185Y-75957143D02*
X178234042Y-75885714D01*
X178234042Y-75885714D02*
X178519757Y-75814285D01*
X178519757Y-75814285D02*
X178876900Y-75814285D01*
X178876900Y-75814285D02*
X179162614Y-75885714D01*
X179162614Y-75885714D02*
X179305471Y-75957143D01*
X179305471Y-75957143D02*
X179376900Y-76028571D01*
X179376900Y-76028571D02*
X179448328Y-76171428D01*
X179448328Y-76171428D02*
X179448328Y-76314285D01*
X179448328Y-76314285D02*
X179376900Y-76457143D01*
X179376900Y-76457143D02*
X179305471Y-76528571D01*
X179305471Y-76528571D02*
X179162614Y-76600000D01*
X179162614Y-76600000D02*
X178876900Y-76671428D01*
X178876900Y-76671428D02*
X178519757Y-76671428D01*
X178519757Y-76671428D02*
X178234042Y-76600000D01*
X178234042Y-76600000D02*
X178091185Y-76528571D01*
X178091185Y-76528571D02*
X178019757Y-76457143D01*
X178019757Y-76457143D02*
X177948328Y-76314285D01*
X179448328Y-74028572D02*
X178448328Y-74028572D01*
X178591185Y-74028572D02*
X178519757Y-73957143D01*
X178519757Y-73957143D02*
X178448328Y-73814286D01*
X178448328Y-73814286D02*
X178448328Y-73600000D01*
X178448328Y-73600000D02*
X178519757Y-73457143D01*
X178519757Y-73457143D02*
X178662614Y-73385715D01*
X178662614Y-73385715D02*
X179448328Y-73385715D01*
X178662614Y-73385715D02*
X178519757Y-73314286D01*
X178519757Y-73314286D02*
X178448328Y-73171429D01*
X178448328Y-73171429D02*
X178448328Y-72957143D01*
X178448328Y-72957143D02*
X178519757Y-72814286D01*
X178519757Y-72814286D02*
X178662614Y-72742857D01*
X178662614Y-72742857D02*
X179448328Y-72742857D01*
X179448328Y-72028572D02*
X178448328Y-72028572D01*
X178591185Y-72028572D02*
X178519757Y-71957143D01*
X178519757Y-71957143D02*
X178448328Y-71814286D01*
X178448328Y-71814286D02*
X178448328Y-71600000D01*
X178448328Y-71600000D02*
X178519757Y-71457143D01*
X178519757Y-71457143D02*
X178662614Y-71385715D01*
X178662614Y-71385715D02*
X179448328Y-71385715D01*
X178662614Y-71385715D02*
X178519757Y-71314286D01*
X178519757Y-71314286D02*
X178448328Y-71171429D01*
X178448328Y-71171429D02*
X178448328Y-70957143D01*
X178448328Y-70957143D02*
X178519757Y-70814286D01*
X178519757Y-70814286D02*
X178662614Y-70742857D01*
X178662614Y-70742857D02*
X179448328Y-70742857D01*
D12*
X181070000Y-47100000D02*
X181156420Y-47100000D01*
X181070000Y-108100000D02*
X181156420Y-108100000D01*
X180570000Y-47100000D02*
X180570000Y-108100000D01*
X180570000Y-47100000D02*
X180570000Y-108100000D01*
X180570000Y-47100000D02*
X181156421Y-48226504D01*
X180570000Y-47100000D02*
X179983579Y-48226504D01*
X180570000Y-108100000D02*
X179983579Y-106973496D01*
X180570000Y-108100000D02*
X181156421Y-106973496D01*
D10*
D11*
X140407144Y-108478328D02*
X139692858Y-108478328D01*
X139692858Y-108478328D02*
X139621430Y-109192614D01*
X139621430Y-109192614D02*
X139692858Y-109121185D01*
X139692858Y-109121185D02*
X139835716Y-109049757D01*
X139835716Y-109049757D02*
X140192858Y-109049757D01*
X140192858Y-109049757D02*
X140335716Y-109121185D01*
X140335716Y-109121185D02*
X140407144Y-109192614D01*
X140407144Y-109192614D02*
X140478573Y-109335471D01*
X140478573Y-109335471D02*
X140478573Y-109692614D01*
X140478573Y-109692614D02*
X140407144Y-109835471D01*
X140407144Y-109835471D02*
X140335716Y-109906900D01*
X140335716Y-109906900D02*
X140192858Y-109978328D01*
X140192858Y-109978328D02*
X139835716Y-109978328D01*
X139835716Y-109978328D02*
X139692858Y-109906900D01*
X139692858Y-109906900D02*
X139621430Y-109835471D01*
X141764287Y-108978328D02*
X141764287Y-109978328D01*
X141407144Y-108406900D02*
X141050001Y-109478328D01*
X141050001Y-109478328D02*
X141978572Y-109478328D01*
X142621429Y-109906900D02*
X142621429Y-109978328D01*
X142621429Y-109978328D02*
X142550000Y-110121185D01*
X142550000Y-110121185D02*
X142478572Y-110192614D01*
X143978572Y-108478328D02*
X143264286Y-108478328D01*
X143264286Y-108478328D02*
X143192858Y-109192614D01*
X143192858Y-109192614D02*
X143264286Y-109121185D01*
X143264286Y-109121185D02*
X143407144Y-109049757D01*
X143407144Y-109049757D02*
X143764286Y-109049757D01*
X143764286Y-109049757D02*
X143907144Y-109121185D01*
X143907144Y-109121185D02*
X143978572Y-109192614D01*
X143978572Y-109192614D02*
X144050001Y-109335471D01*
X144050001Y-109335471D02*
X144050001Y-109692614D01*
X144050001Y-109692614D02*
X143978572Y-109835471D01*
X143978572Y-109835471D02*
X143907144Y-109906900D01*
X143907144Y-109906900D02*
X143764286Y-109978328D01*
X143764286Y-109978328D02*
X143407144Y-109978328D01*
X143407144Y-109978328D02*
X143264286Y-109906900D01*
X143264286Y-109906900D02*
X143192858Y-109835471D01*
X144978572Y-108478328D02*
X145121429Y-108478328D01*
X145121429Y-108478328D02*
X145264286Y-108549757D01*
X145264286Y-108549757D02*
X145335715Y-108621185D01*
X145335715Y-108621185D02*
X145407143Y-108764042D01*
X145407143Y-108764042D02*
X145478572Y-109049757D01*
X145478572Y-109049757D02*
X145478572Y-109406900D01*
X145478572Y-109406900D02*
X145407143Y-109692614D01*
X145407143Y-109692614D02*
X145335715Y-109835471D01*
X145335715Y-109835471D02*
X145264286Y-109906900D01*
X145264286Y-109906900D02*
X145121429Y-109978328D01*
X145121429Y-109978328D02*
X144978572Y-109978328D01*
X144978572Y-109978328D02*
X144835715Y-109906900D01*
X144835715Y-109906900D02*
X144764286Y-109835471D01*
X144764286Y-109835471D02*
X144692857Y-109692614D01*
X144692857Y-109692614D02*
X144621429Y-109406900D01*
X144621429Y-109406900D02*
X144621429Y-109049757D01*
X144621429Y-109049757D02*
X144692857Y-108764042D01*
X144692857Y-108764042D02*
X144764286Y-108621185D01*
X144764286Y-108621185D02*
X144835715Y-108549757D01*
X144835715Y-108549757D02*
X144978572Y-108478328D01*
X146407143Y-108478328D02*
X146550000Y-108478328D01*
X146550000Y-108478328D02*
X146692857Y-108549757D01*
X146692857Y-108549757D02*
X146764286Y-108621185D01*
X146764286Y-108621185D02*
X146835714Y-108764042D01*
X146835714Y-108764042D02*
X146907143Y-109049757D01*
X146907143Y-109049757D02*
X146907143Y-109406900D01*
X146907143Y-109406900D02*
X146835714Y-109692614D01*
X146835714Y-109692614D02*
X146764286Y-109835471D01*
X146764286Y-109835471D02*
X146692857Y-109906900D01*
X146692857Y-109906900D02*
X146550000Y-109978328D01*
X146550000Y-109978328D02*
X146407143Y-109978328D01*
X146407143Y-109978328D02*
X146264286Y-109906900D01*
X146264286Y-109906900D02*
X146192857Y-109835471D01*
X146192857Y-109835471D02*
X146121428Y-109692614D01*
X146121428Y-109692614D02*
X146050000Y-109406900D01*
X146050000Y-109406900D02*
X146050000Y-109049757D01*
X146050000Y-109049757D02*
X146121428Y-108764042D01*
X146121428Y-108764042D02*
X146192857Y-108621185D01*
X146192857Y-108621185D02*
X146264286Y-108549757D01*
X146264286Y-108549757D02*
X146407143Y-108478328D01*
X147835714Y-108478328D02*
X147978571Y-108478328D01*
X147978571Y-108478328D02*
X148121428Y-108549757D01*
X148121428Y-108549757D02*
X148192857Y-108621185D01*
X148192857Y-108621185D02*
X148264285Y-108764042D01*
X148264285Y-108764042D02*
X148335714Y-109049757D01*
X148335714Y-109049757D02*
X148335714Y-109406900D01*
X148335714Y-109406900D02*
X148264285Y-109692614D01*
X148264285Y-109692614D02*
X148192857Y-109835471D01*
X148192857Y-109835471D02*
X148121428Y-109906900D01*
X148121428Y-109906900D02*
X147978571Y-109978328D01*
X147978571Y-109978328D02*
X147835714Y-109978328D01*
X147835714Y-109978328D02*
X147692857Y-109906900D01*
X147692857Y-109906900D02*
X147621428Y-109835471D01*
X147621428Y-109835471D02*
X147549999Y-109692614D01*
X147549999Y-109692614D02*
X147478571Y-109406900D01*
X147478571Y-109406900D02*
X147478571Y-109049757D01*
X147478571Y-109049757D02*
X147549999Y-108764042D01*
X147549999Y-108764042D02*
X147621428Y-108621185D01*
X147621428Y-108621185D02*
X147692857Y-108549757D01*
X147692857Y-108549757D02*
X147835714Y-108478328D01*
X150121427Y-109978328D02*
X150121427Y-108978328D01*
X150121427Y-109121185D02*
X150192856Y-109049757D01*
X150192856Y-109049757D02*
X150335713Y-108978328D01*
X150335713Y-108978328D02*
X150549999Y-108978328D01*
X150549999Y-108978328D02*
X150692856Y-109049757D01*
X150692856Y-109049757D02*
X150764285Y-109192614D01*
X150764285Y-109192614D02*
X150764285Y-109978328D01*
X150764285Y-109192614D02*
X150835713Y-109049757D01*
X150835713Y-109049757D02*
X150978570Y-108978328D01*
X150978570Y-108978328D02*
X151192856Y-108978328D01*
X151192856Y-108978328D02*
X151335713Y-109049757D01*
X151335713Y-109049757D02*
X151407142Y-109192614D01*
X151407142Y-109192614D02*
X151407142Y-109978328D01*
X152121427Y-109978328D02*
X152121427Y-108978328D01*
X152121427Y-109121185D02*
X152192856Y-109049757D01*
X152192856Y-109049757D02*
X152335713Y-108978328D01*
X152335713Y-108978328D02*
X152549999Y-108978328D01*
X152549999Y-108978328D02*
X152692856Y-109049757D01*
X152692856Y-109049757D02*
X152764285Y-109192614D01*
X152764285Y-109192614D02*
X152764285Y-109978328D01*
X152764285Y-109192614D02*
X152835713Y-109049757D01*
X152835713Y-109049757D02*
X152978570Y-108978328D01*
X152978570Y-108978328D02*
X153192856Y-108978328D01*
X153192856Y-108978328D02*
X153335713Y-109049757D01*
X153335713Y-109049757D02*
X153407142Y-109192614D01*
X153407142Y-109192614D02*
X153407142Y-109978328D01*
D12*
X119300000Y-110600000D02*
X119300000Y-110513580D01*
X173800000Y-110600000D02*
X173800000Y-110513580D01*
X119300000Y-111100000D02*
X173800000Y-111100000D01*
X119300000Y-111100000D02*
X173800000Y-111100000D01*
X119300000Y-111100000D02*
X120426504Y-110513579D01*
X119300000Y-111100000D02*
X120426504Y-111686421D01*
X173800000Y-111100000D02*
X172673496Y-111686421D01*
X173800000Y-111100000D02*
X172673496Y-110513579D01*
D10*
D11*
X140335716Y-41938328D02*
X140050001Y-41938328D01*
X140050001Y-41938328D02*
X139907144Y-42009757D01*
X139907144Y-42009757D02*
X139835716Y-42081185D01*
X139835716Y-42081185D02*
X139692858Y-42295471D01*
X139692858Y-42295471D02*
X139621430Y-42581185D01*
X139621430Y-42581185D02*
X139621430Y-43152614D01*
X139621430Y-43152614D02*
X139692858Y-43295471D01*
X139692858Y-43295471D02*
X139764287Y-43366900D01*
X139764287Y-43366900D02*
X139907144Y-43438328D01*
X139907144Y-43438328D02*
X140192858Y-43438328D01*
X140192858Y-43438328D02*
X140335716Y-43366900D01*
X140335716Y-43366900D02*
X140407144Y-43295471D01*
X140407144Y-43295471D02*
X140478573Y-43152614D01*
X140478573Y-43152614D02*
X140478573Y-42795471D01*
X140478573Y-42795471D02*
X140407144Y-42652614D01*
X140407144Y-42652614D02*
X140335716Y-42581185D01*
X140335716Y-42581185D02*
X140192858Y-42509757D01*
X140192858Y-42509757D02*
X139907144Y-42509757D01*
X139907144Y-42509757D02*
X139764287Y-42581185D01*
X139764287Y-42581185D02*
X139692858Y-42652614D01*
X139692858Y-42652614D02*
X139621430Y-42795471D01*
X141907144Y-43438328D02*
X141050001Y-43438328D01*
X141478572Y-43438328D02*
X141478572Y-41938328D01*
X141478572Y-41938328D02*
X141335715Y-42152614D01*
X141335715Y-42152614D02*
X141192858Y-42295471D01*
X141192858Y-42295471D02*
X141050001Y-42366900D01*
X142621429Y-43366900D02*
X142621429Y-43438328D01*
X142621429Y-43438328D02*
X142550000Y-43581185D01*
X142550000Y-43581185D02*
X142478572Y-43652614D01*
X143978572Y-41938328D02*
X143264286Y-41938328D01*
X143264286Y-41938328D02*
X143192858Y-42652614D01*
X143192858Y-42652614D02*
X143264286Y-42581185D01*
X143264286Y-42581185D02*
X143407144Y-42509757D01*
X143407144Y-42509757D02*
X143764286Y-42509757D01*
X143764286Y-42509757D02*
X143907144Y-42581185D01*
X143907144Y-42581185D02*
X143978572Y-42652614D01*
X143978572Y-42652614D02*
X144050001Y-42795471D01*
X144050001Y-42795471D02*
X144050001Y-43152614D01*
X144050001Y-43152614D02*
X143978572Y-43295471D01*
X143978572Y-43295471D02*
X143907144Y-43366900D01*
X143907144Y-43366900D02*
X143764286Y-43438328D01*
X143764286Y-43438328D02*
X143407144Y-43438328D01*
X143407144Y-43438328D02*
X143264286Y-43366900D01*
X143264286Y-43366900D02*
X143192858Y-43295471D01*
X144978572Y-41938328D02*
X145121429Y-41938328D01*
X145121429Y-41938328D02*
X145264286Y-42009757D01*
X145264286Y-42009757D02*
X145335715Y-42081185D01*
X145335715Y-42081185D02*
X145407143Y-42224042D01*
X145407143Y-42224042D02*
X145478572Y-42509757D01*
X145478572Y-42509757D02*
X145478572Y-42866900D01*
X145478572Y-42866900D02*
X145407143Y-43152614D01*
X145407143Y-43152614D02*
X145335715Y-43295471D01*
X145335715Y-43295471D02*
X145264286Y-43366900D01*
X145264286Y-43366900D02*
X145121429Y-43438328D01*
X145121429Y-43438328D02*
X144978572Y-43438328D01*
X144978572Y-43438328D02*
X144835715Y-43366900D01*
X144835715Y-43366900D02*
X144764286Y-43295471D01*
X144764286Y-43295471D02*
X144692857Y-43152614D01*
X144692857Y-43152614D02*
X144621429Y-42866900D01*
X144621429Y-42866900D02*
X144621429Y-42509757D01*
X144621429Y-42509757D02*
X144692857Y-42224042D01*
X144692857Y-42224042D02*
X144764286Y-42081185D01*
X144764286Y-42081185D02*
X144835715Y-42009757D01*
X144835715Y-42009757D02*
X144978572Y-41938328D01*
X146407143Y-41938328D02*
X146550000Y-41938328D01*
X146550000Y-41938328D02*
X146692857Y-42009757D01*
X146692857Y-42009757D02*
X146764286Y-42081185D01*
X146764286Y-42081185D02*
X146835714Y-42224042D01*
X146835714Y-42224042D02*
X146907143Y-42509757D01*
X146907143Y-42509757D02*
X146907143Y-42866900D01*
X146907143Y-42866900D02*
X146835714Y-43152614D01*
X146835714Y-43152614D02*
X146764286Y-43295471D01*
X146764286Y-43295471D02*
X146692857Y-43366900D01*
X146692857Y-43366900D02*
X146550000Y-43438328D01*
X146550000Y-43438328D02*
X146407143Y-43438328D01*
X146407143Y-43438328D02*
X146264286Y-43366900D01*
X146264286Y-43366900D02*
X146192857Y-43295471D01*
X146192857Y-43295471D02*
X146121428Y-43152614D01*
X146121428Y-43152614D02*
X146050000Y-42866900D01*
X146050000Y-42866900D02*
X146050000Y-42509757D01*
X146050000Y-42509757D02*
X146121428Y-42224042D01*
X146121428Y-42224042D02*
X146192857Y-42081185D01*
X146192857Y-42081185D02*
X146264286Y-42009757D01*
X146264286Y-42009757D02*
X146407143Y-41938328D01*
X147835714Y-41938328D02*
X147978571Y-41938328D01*
X147978571Y-41938328D02*
X148121428Y-42009757D01*
X148121428Y-42009757D02*
X148192857Y-42081185D01*
X148192857Y-42081185D02*
X148264285Y-42224042D01*
X148264285Y-42224042D02*
X148335714Y-42509757D01*
X148335714Y-42509757D02*
X148335714Y-42866900D01*
X148335714Y-42866900D02*
X148264285Y-43152614D01*
X148264285Y-43152614D02*
X148192857Y-43295471D01*
X148192857Y-43295471D02*
X148121428Y-43366900D01*
X148121428Y-43366900D02*
X147978571Y-43438328D01*
X147978571Y-43438328D02*
X147835714Y-43438328D01*
X147835714Y-43438328D02*
X147692857Y-43366900D01*
X147692857Y-43366900D02*
X147621428Y-43295471D01*
X147621428Y-43295471D02*
X147549999Y-43152614D01*
X147549999Y-43152614D02*
X147478571Y-42866900D01*
X147478571Y-42866900D02*
X147478571Y-42509757D01*
X147478571Y-42509757D02*
X147549999Y-42224042D01*
X147549999Y-42224042D02*
X147621428Y-42081185D01*
X147621428Y-42081185D02*
X147692857Y-42009757D01*
X147692857Y-42009757D02*
X147835714Y-41938328D01*
X150121427Y-43438328D02*
X150121427Y-42438328D01*
X150121427Y-42581185D02*
X150192856Y-42509757D01*
X150192856Y-42509757D02*
X150335713Y-42438328D01*
X150335713Y-42438328D02*
X150549999Y-42438328D01*
X150549999Y-42438328D02*
X150692856Y-42509757D01*
X150692856Y-42509757D02*
X150764285Y-42652614D01*
X150764285Y-42652614D02*
X150764285Y-43438328D01*
X150764285Y-42652614D02*
X150835713Y-42509757D01*
X150835713Y-42509757D02*
X150978570Y-42438328D01*
X150978570Y-42438328D02*
X151192856Y-42438328D01*
X151192856Y-42438328D02*
X151335713Y-42509757D01*
X151335713Y-42509757D02*
X151407142Y-42652614D01*
X151407142Y-42652614D02*
X151407142Y-43438328D01*
X152121427Y-43438328D02*
X152121427Y-42438328D01*
X152121427Y-42581185D02*
X152192856Y-42509757D01*
X152192856Y-42509757D02*
X152335713Y-42438328D01*
X152335713Y-42438328D02*
X152549999Y-42438328D01*
X152549999Y-42438328D02*
X152692856Y-42509757D01*
X152692856Y-42509757D02*
X152764285Y-42652614D01*
X152764285Y-42652614D02*
X152764285Y-43438328D01*
X152764285Y-42652614D02*
X152835713Y-42509757D01*
X152835713Y-42509757D02*
X152978570Y-42438328D01*
X152978570Y-42438328D02*
X153192856Y-42438328D01*
X153192856Y-42438328D02*
X153335713Y-42509757D01*
X153335713Y-42509757D02*
X153407142Y-42652614D01*
X153407142Y-42652614D02*
X153407142Y-43438328D01*
D12*
X115800000Y-44560000D02*
X115800000Y-45146420D01*
X177300000Y-44560000D02*
X177300000Y-45146420D01*
X115800000Y-44560000D02*
X177300000Y-44560000D01*
X115800000Y-44560000D02*
X177300000Y-44560000D01*
X115800000Y-44560000D02*
X116926504Y-43973579D01*
X115800000Y-44560000D02*
X116926504Y-45146421D01*
X177300000Y-44560000D02*
X176173496Y-45146421D01*
X177300000Y-44560000D02*
X176173496Y-43973579D01*
D13*
%TO.P,REF\u002A\u002A,1*%
%TO.N,N/C*%
X173800000Y-104600000D03*
%TD*%
D14*
%TO.P,D3,1,K*%
%TO.N,GND*%
X138660000Y-90280000D03*
D15*
%TO.P,D3,2,A*%
%TO.N,Net-(D3-A)*%
X141200000Y-90280000D03*
%TD*%
D16*
%TO.P,C3,1*%
%TO.N,Net-(D2-A)*%
X132090000Y-91600000D03*
%TO.P,C3,2*%
%TO.N,GND*%
X134590000Y-91600000D03*
%TD*%
D17*
%TO.P,R1,1*%
%TO.N,Net-(D2-A)*%
X141200000Y-102980000D03*
%TO.P,R1,2*%
%TO.N,Net-(D3-A)*%
X141200000Y-95360000D03*
%TD*%
D18*
%TO.P,C1,1,1*%
%TO.N,Net-(C2-+)*%
X118340000Y-91450000D03*
D19*
%TO.P,C1,2,2*%
%TO.N,GND*%
X123420000Y-91450000D03*
%TD*%
D13*
%TO.P,REF\u002A\u002A,1*%
%TO.N,N/C*%
X173800000Y-50600000D03*
%TD*%
D20*
%TO.P,D1,1,K*%
%TO.N,Net-(C2-+)*%
X158720000Y-76210000D03*
D21*
%TO.P,D1,2,A*%
%TO.N,Net-(D1-A)*%
X158720000Y-86370000D03*
%TD*%
D22*
%TO.P,J10,1,Pin_1*%
%TO.N,Net-(J10-Pin_1)*%
X166400000Y-58320000D03*
D23*
%TO.P,J10,2,Pin_2*%
%TO.N,Net-(J10-Pin_2)*%
X166400000Y-60860000D03*
%TO.P,J10,3,Pin_3*%
%TO.N,Net-(J10-Pin_3)*%
X166400000Y-63400000D03*
%TO.P,J10,4,Pin_4*%
%TO.N,Net-(J10-Pin_4)*%
X166400000Y-65940000D03*
%TO.P,J10,5,Pin_5*%
%TO.N,Net-(J10-Pin_5)*%
X166400000Y-68480000D03*
%TO.P,J10,6,Pin_6*%
%TO.N,GND*%
X166400000Y-71020000D03*
%TO.P,J10,7,Pin_7*%
X166400000Y-73560000D03*
%TD*%
D24*
%TO.P,C4,1,+*%
%TO.N,+4V*%
X146970000Y-81290000D03*
%TO.P,C4,2,-*%
%TO.N,GND*%
X152370000Y-81290000D03*
%TD*%
D25*
%TO.P,J1,1,1*%
%TO.N,Net-(D1-A)*%
X152290000Y-93900000D03*
%TO.P,J1,2,2*%
%TO.N,GND*%
X147290000Y-93900000D03*
%TD*%
D20*
%TO.P,D2,1,K*%
%TO.N,+4V*%
X163165000Y-76845000D03*
D21*
%TO.P,D2,2,A*%
%TO.N,Net-(D2-A)*%
X163165000Y-87005000D03*
%TD*%
D13*
%TO.P,REF\u002A\u002A,1*%
%TO.N,N/C*%
X119300000Y-50600000D03*
%TD*%
D25*
%TO.P,J2,1,1*%
%TO.N,Net-(U2-SPK-)*%
X164990000Y-93900000D03*
%TO.P,J2,2,2*%
%TO.N,Net-(U2-SPK+)*%
X159990000Y-93900000D03*
%TD*%
D26*
%TO.P,C2,1,+*%
%TO.N,Net-(C2-+)*%
X126150000Y-100440000D03*
%TO.P,C2,2,-*%
%TO.N,GND*%
X134850000Y-100440000D03*
%TD*%
D27*
%TO.P,U2,1,K1*%
%TO.N,Net-(J10-Pin_1)*%
X146020000Y-54620000D03*
D28*
%TO.P,U2,2,K2*%
%TO.N,Net-(J10-Pin_2)*%
X146020000Y-57160000D03*
%TO.P,U2,3,K3*%
%TO.N,Net-(J10-Pin_3)*%
X146020000Y-59700000D03*
%TO.P,U2,4,K4*%
%TO.N,Net-(J10-Pin_4)*%
X146020000Y-62240000D03*
%TO.P,U2,5,K5*%
%TO.N,Net-(J10-Pin_5)*%
X146020000Y-64780000D03*
%TO.P,U2,6,SGND*%
%TO.N,unconnected-(U2-SGND-Pad6)*%
X146020000Y-67320000D03*
%TO.P,U2,7,ADKEY*%
%TO.N,unconnected-(U2-ADKEY-Pad7)*%
X146020000Y-69860000D03*
%TO.P,U2,8,Busy*%
%TO.N,unconnected-(U2-Busy-Pad8)*%
X146020000Y-72400000D03*
%TO.P,U2,9,RX*%
%TO.N,unconnected-(U2-RX-Pad9)*%
X161260000Y-72400000D03*
%TO.P,U2,10,TX*%
%TO.N,unconnected-(U2-TX-Pad10)*%
X161260000Y-69860000D03*
%TO.P,U2,11,GND*%
%TO.N,GND*%
X161260000Y-67320000D03*
%TO.P,U2,12,VCC*%
%TO.N,+4V*%
X161260000Y-64780000D03*
%TO.P,U2,13,Dac_R*%
%TO.N,unconnected-(U2-Dac_R-Pad13)*%
X161260000Y-62240000D03*
%TO.P,U2,14,Dac_L*%
%TO.N,unconnected-(U2-Dac_L-Pad14)*%
X161260000Y-59700000D03*
%TO.P,U2,15,SPK-*%
%TO.N,Net-(U2-SPK-)*%
X161260000Y-57160000D03*
%TO.P,U2,16,SPK+*%
%TO.N,Net-(U2-SPK+)*%
X161260000Y-54620000D03*
%TD*%
D13*
%TO.P,REF\u002A\u002A,1*%
%TO.N,N/C*%
X119300000Y-104600000D03*
%TD*%
D29*
%TO.P,U1,1,VI*%
%TO.N,Net-(C2-+)*%
X126970000Y-87740000D03*
D30*
%TO.P,U1,2,GND*%
%TO.N,GND*%
X129510000Y-87740000D03*
%TO.P,U1,3,VO*%
%TO.N,Net-(D2-A)*%
X132050000Y-87740000D03*
%TD*%
D31*
%TO.N,GND*%
X152370000Y-79763300D03*
X133320000Y-98733600D03*
%TD*%
D32*
%TO.N,Net-(C2-+)*%
X147290000Y-76210000D02*
X143480000Y-80020000D01*
X143480000Y-83830000D02*
X142210000Y-85100000D01*
X126970000Y-87740000D02*
X119610000Y-87740000D01*
X118340000Y-91450000D02*
X118340000Y-89010000D01*
X158720000Y-76210000D02*
X147290000Y-76210000D01*
X118340000Y-92734700D02*
X124620000Y-99014700D01*
X143480000Y-80020000D02*
X143480000Y-83830000D01*
X118340000Y-89010000D02*
X119610000Y-87740000D01*
X128235000Y-85100000D02*
X126970000Y-86365000D01*
X126970000Y-86365000D02*
X126970000Y-87330000D01*
X124620000Y-99014700D02*
X124620000Y-100340000D01*
X142210000Y-85100000D02*
X128235000Y-85100000D01*
X118340000Y-91450000D02*
X118340000Y-92734700D01*
%TO.N,GND*%
X133320000Y-98733600D02*
X133320000Y-100340000D01*
X162700000Y-67320000D02*
X166400000Y-71020000D01*
X152370000Y-79763300D02*
X152370000Y-81290000D01*
X161260000Y-67320000D02*
X162700000Y-67320000D01*
%TO.N,Net-(D2-A)*%
X133325300Y-87330000D02*
X133325300Y-90467800D01*
X163165000Y-87005000D02*
X161739700Y-87005000D01*
X138660000Y-101710000D02*
X139930000Y-102980000D01*
X139930000Y-102980000D02*
X141200000Y-102980000D01*
X132310000Y-94090000D02*
X137390000Y-94090000D01*
X138660000Y-95360000D02*
X138660000Y-101710000D01*
X161739700Y-87005000D02*
X160949700Y-87795000D01*
X137390000Y-94090000D02*
X138660000Y-95360000D01*
X137323100Y-86470000D02*
X133325300Y-90467800D01*
X141155000Y-86470000D02*
X137323100Y-86470000D01*
X132090000Y-91600000D02*
X133222200Y-90467800D01*
X132050000Y-87330000D02*
X133325300Y-87330000D01*
X158129745Y-87795000D02*
X158074745Y-87740000D01*
X142425000Y-87740000D02*
X141155000Y-86470000D01*
X132090000Y-91600000D02*
X132090000Y-93870000D01*
X160949700Y-87795000D02*
X158129745Y-87795000D01*
X158074745Y-87740000D02*
X142425000Y-87740000D01*
X133222200Y-90467800D02*
X133325300Y-90467800D01*
X132090000Y-93870000D02*
X132310000Y-94090000D01*
%TO.N,+4V*%
X163165000Y-76845000D02*
X161739700Y-76845000D01*
X161739700Y-76845000D02*
X160314400Y-78270300D01*
X148739400Y-78270300D02*
X146970000Y-80039700D01*
X160314400Y-78270300D02*
X148739400Y-78270300D01*
X146970000Y-81290000D02*
X146970000Y-80039700D01*
%TO.N,Net-(J10-Pin_1)*%
X166400000Y-53410000D02*
X165070000Y-52080000D01*
X166400000Y-58320000D02*
X166400000Y-53410000D01*
X165070000Y-52080000D02*
X149539300Y-52080000D01*
X146999300Y-54620000D02*
X146020000Y-54620000D01*
X149539300Y-52080000D02*
X146999300Y-54620000D01*
%TO.N,Net-(J10-Pin_2)*%
X165070000Y-59530000D02*
X165070000Y-53350000D01*
X146020000Y-57160000D02*
X150650000Y-52530000D01*
X165070000Y-53350000D02*
X164250000Y-52530000D01*
X164250000Y-52530000D02*
X151100000Y-52530000D01*
X166400000Y-60860000D02*
X165070000Y-59530000D01*
X150650000Y-52530000D02*
X151100000Y-52530000D01*
%TO.N,Net-(J10-Pin_3)*%
X158720000Y-60970000D02*
X163970000Y-60970000D01*
X163970000Y-60970000D02*
X166400000Y-63400000D01*
X157450000Y-59700000D02*
X158720000Y-60970000D01*
X146020000Y-59700000D02*
X157450000Y-59700000D01*
%TO.N,Net-(J10-Pin_4)*%
X163970000Y-63510000D02*
X166400000Y-65940000D01*
X146020000Y-62240000D02*
X157450000Y-62240000D01*
X157450000Y-62240000D02*
X158720000Y-63510000D01*
X158720000Y-63510000D02*
X163970000Y-63510000D01*
%TO.N,Net-(J10-Pin_5)*%
X158720000Y-66050000D02*
X163970000Y-66050000D01*
X163970000Y-66050000D02*
X166400000Y-68480000D01*
X157450000Y-64780000D02*
X158720000Y-66050000D01*
X146020000Y-64780000D02*
X157450000Y-64780000D01*
%TD*%
M02*
