M48
; DRILL file {KiCad 7.0.9} date Thu Sep  4 13:28:02 2025
; FORMAT={-:-/ absolute / inch / decimal}
; #@! TF.CreationDate,2025-09-04T13:28:02+02:00
; #@! TF.GenerationSoftware,Kicad,Pcbnew,7.0.9
; #@! TF.FileFunction,Plated,1,2,PTH
FMAT,2
INCH
; #@! TA.AperFunction,Plated,PTH,ViaDrill
T1C0.0157
; #@! TA.AperFunction,Plated,PTH,ComponentDrill
T2C0.0315
; #@! TA.AperFunction,Plated,PTH,ComponentDrill
T3C0.0329
; #@! TA.AperFunction,Plated,PTH,ComponentDrill
T4C0.0354
; #@! TA.AperFunction,Plated,PTH,ComponentDrill
T5C0.0394
; #@! TA.AperFunction,Plated,PTH,ComponentDrill
T6C0.0433
; #@! TA.AperFunction,Plated,PTH,ComponentDrill
T7C0.1260
%
G90
G05
T1
X5.2488Y-3.8871
X5.9988Y-3.1403
T2
X5.2004Y-3.6063
X5.2988Y-3.6063
X5.5591Y-3.7543
X5.5591Y-4.0543
X5.7488Y-2.1504
X5.7488Y-2.2504
X5.7488Y-2.3504
X5.7488Y-2.4504
X5.7488Y-2.5504
X5.7488Y-2.6504
X5.7488Y-2.7504
X5.7488Y-2.8504
X6.3488Y-2.1504
X6.3488Y-2.2504
X6.3488Y-2.3504
X6.3488Y-2.4504
X6.3488Y-2.5504
X6.3488Y-2.6504
X6.3488Y-2.7504
X6.3488Y-2.8504
T3
X4.6591Y-3.6004
X4.8591Y-3.6004
T4
X5.4591Y-3.5543
X5.5591Y-3.5543
T5
X4.9988Y-3.4543
X5.0988Y-3.4543
X5.1988Y-3.4543
X6.5512Y-2.2961
X6.5512Y-2.3961
X6.5512Y-2.4961
X6.5512Y-2.5961
X6.5512Y-2.6961
X6.5512Y-2.7961
X6.5512Y-2.8961
T6
X5.7988Y-3.6969
X5.9957Y-3.6969
X6.2488Y-3.0004
X6.2488Y-3.4004
X6.2988Y-3.6969
X6.4238Y-3.0254
X6.4238Y-3.4254
X6.4957Y-3.6969
T7
X4.6969Y-1.9921
X4.6969Y-4.1181
X6.8425Y-1.9921
X6.8425Y-4.1181
T0
M30
