%TF.GenerationSoftware,KiCad,Pcbnew,7.0.9*%
%TF.CreationDate,2025-09-04T13:27:59+02:00*%
%TF.ProjectId,Kicad_Projet_Sons_HW896_V1,4b696361-645f-4507-926f-6a65745f536f,rev?*%
%TF.SameCoordinates,Original*%
%TF.FileFunction,Copper,L2,Bot*%
%TF.FilePolarity,Positive*%
%FSLAX46Y46*%
G04 Gerber Fmt 4.6, Leading zero omitted, Abs format (unit mm)*
G04 Created by KiCad (PCBNEW 7.0.9) date 2025-09-04 13:27:59*
%MOMM*%
%LPD*%
G01*
G04 APERTURE LIST*
%TA.AperFunction,ComponentPad*%
%ADD10C,5.600000*%
%TD*%
%TA.AperFunction,ComponentPad*%
%ADD11R,1.800000X1.800000*%
%TD*%
%TA.AperFunction,ComponentPad*%
%ADD12C,1.800000*%
%TD*%
%TA.AperFunction,ComponentPad*%
%ADD13C,1.600000*%
%TD*%
%TA.AperFunction,ComponentPad*%
%ADD14C,2.000000*%
%TD*%
%TA.AperFunction,ComponentPad*%
%ADD15R,1.357000X1.357000*%
%TD*%
%TA.AperFunction,ComponentPad*%
%ADD16C,1.357000*%
%TD*%
%TA.AperFunction,ComponentPad*%
%ADD17R,2.200000X2.200000*%
%TD*%
%TA.AperFunction,ComponentPad*%
%ADD18O,2.200000X2.200000*%
%TD*%
%TA.AperFunction,ComponentPad*%
%ADD19R,1.700000X1.700000*%
%TD*%
%TA.AperFunction,ComponentPad*%
%ADD20O,1.700000X1.700000*%
%TD*%
%TA.AperFunction,ComponentPad*%
%ADD21C,1.650000*%
%TD*%
%TA.AperFunction,ComponentPad*%
%ADD22R,1.308000X1.308000*%
%TD*%
%TA.AperFunction,ComponentPad*%
%ADD23C,1.308000*%
%TD*%
%TA.AperFunction,ComponentPad*%
%ADD24R,1.900000X2.500000*%
%TD*%
%TA.AperFunction,ComponentPad*%
%ADD25O,1.900000X2.500000*%
%TD*%
%TA.AperFunction,ViaPad*%
%ADD26C,0.800000*%
%TD*%
%TA.AperFunction,Conductor*%
%ADD27C,0.250000*%
%TD*%
G04 APERTURE END LIST*
D10*
%TO.P,REF\u002A\u002A,1*%
%TO.N,N/C*%
X173800000Y-104600000D03*
%TD*%
D11*
%TO.P,D3,1,K*%
%TO.N,GND*%
X138660000Y-90280000D03*
D12*
%TO.P,D3,2,A*%
%TO.N,Net-(D3-A)*%
X141200000Y-90280000D03*
%TD*%
D13*
%TO.P,C3,1*%
%TO.N,Net-(D2-A)*%
X132090000Y-91600000D03*
%TO.P,C3,2*%
%TO.N,GND*%
X134590000Y-91600000D03*
%TD*%
D14*
%TO.P,R1,1*%
%TO.N,Net-(D2-A)*%
X141200000Y-102980000D03*
%TO.P,R1,2*%
%TO.N,Net-(D3-A)*%
X141200000Y-95360000D03*
%TD*%
D15*
%TO.P,C1,1,1*%
%TO.N,Net-(C2-+)*%
X118340000Y-91450000D03*
D16*
%TO.P,C1,2,2*%
%TO.N,GND*%
X123420000Y-91450000D03*
%TD*%
D10*
%TO.P,REF\u002A\u002A,1*%
%TO.N,N/C*%
X173800000Y-50600000D03*
%TD*%
D17*
%TO.P,D1,1,K*%
%TO.N,Net-(C2-+)*%
X158720000Y-76210000D03*
D18*
%TO.P,D1,2,A*%
%TO.N,Net-(D1-A)*%
X158720000Y-86370000D03*
%TD*%
D19*
%TO.P,J10,1,Pin_1*%
%TO.N,Net-(J10-Pin_1)*%
X166400000Y-58320000D03*
D20*
%TO.P,J10,2,Pin_2*%
%TO.N,Net-(J10-Pin_2)*%
X166400000Y-60860000D03*
%TO.P,J10,3,Pin_3*%
%TO.N,Net-(J10-Pin_3)*%
X166400000Y-63400000D03*
%TO.P,J10,4,Pin_4*%
%TO.N,Net-(J10-Pin_4)*%
X166400000Y-65940000D03*
%TO.P,J10,5,Pin_5*%
%TO.N,Net-(J10-Pin_5)*%
X166400000Y-68480000D03*
%TO.P,J10,6,Pin_6*%
%TO.N,GND*%
X166400000Y-71020000D03*
%TO.P,J10,7,Pin_7*%
X166400000Y-73560000D03*
%TD*%
D21*
%TO.P,J1,1,1*%
%TO.N,Net-(D1-A)*%
X152290000Y-93900000D03*
%TO.P,J1,2,2*%
%TO.N,GND*%
X147290000Y-93900000D03*
%TD*%
D17*
%TO.P,D2,1,K*%
%TO.N,+4V*%
X163165000Y-76845000D03*
D18*
%TO.P,D2,2,A*%
%TO.N,Net-(D2-A)*%
X163165000Y-87005000D03*
%TD*%
D10*
%TO.P,REF\u002A\u002A,1*%
%TO.N,N/C*%
X119300000Y-50600000D03*
%TD*%
D21*
%TO.P,J2,1,1*%
%TO.N,Net-(U2-SPK-)*%
X164990000Y-93900000D03*
%TO.P,J2,2,2*%
%TO.N,Net-(U2-SPK+)*%
X159990000Y-93900000D03*
%TD*%
D22*
%TO.P,U2,1,K1*%
%TO.N,Net-(J10-Pin_1)*%
X146020000Y-54620000D03*
D23*
%TO.P,U2,2,K2*%
%TO.N,Net-(J10-Pin_2)*%
X146020000Y-57160000D03*
%TO.P,U2,3,K3*%
%TO.N,Net-(J10-Pin_3)*%
X146020000Y-59700000D03*
%TO.P,U2,4,K4*%
%TO.N,Net-(J10-Pin_4)*%
X146020000Y-62240000D03*
%TO.P,U2,5,K5*%
%TO.N,Net-(J10-Pin_5)*%
X146020000Y-64780000D03*
%TO.P,U2,6,SGND*%
%TO.N,unconnected-(U2-SGND-Pad6)*%
X146020000Y-67320000D03*
%TO.P,U2,7,ADKEY*%
%TO.N,unconnected-(U2-ADKEY-Pad7)*%
X146020000Y-69860000D03*
%TO.P,U2,8,Busy*%
%TO.N,unconnected-(U2-Busy-Pad8)*%
X146020000Y-72400000D03*
%TO.P,U2,9,RX*%
%TO.N,unconnected-(U2-RX-Pad9)*%
X161260000Y-72400000D03*
%TO.P,U2,10,TX*%
%TO.N,unconnected-(U2-TX-Pad10)*%
X161260000Y-69860000D03*
%TO.P,U2,11,GND*%
%TO.N,GND*%
X161260000Y-67320000D03*
%TO.P,U2,12,VCC*%
%TO.N,+4V*%
X161260000Y-64780000D03*
%TO.P,U2,13,Dac_R*%
%TO.N,unconnected-(U2-Dac_R-Pad13)*%
X161260000Y-62240000D03*
%TO.P,U2,14,Dac_L*%
%TO.N,unconnected-(U2-Dac_L-Pad14)*%
X161260000Y-59700000D03*
%TO.P,U2,15,SPK-*%
%TO.N,Net-(U2-SPK-)*%
X161260000Y-57160000D03*
%TO.P,U2,16,SPK+*%
%TO.N,Net-(U2-SPK+)*%
X161260000Y-54620000D03*
%TD*%
D10*
%TO.P,REF\u002A\u002A,1*%
%TO.N,N/C*%
X119300000Y-104600000D03*
%TD*%
D24*
%TO.P,U1,1,VI*%
%TO.N,Net-(C2-+)*%
X126970000Y-87740000D03*
D25*
%TO.P,U1,2,GND*%
%TO.N,GND*%
X129510000Y-87740000D03*
%TO.P,U1,3,VO*%
%TO.N,Net-(D2-A)*%
X132050000Y-87740000D03*
%TD*%
D26*
%TO.N,GND*%
X152370000Y-79763300D03*
X133320000Y-98733600D03*
%TD*%
D27*
%TO.N,+4V*%
X161260000Y-64780000D02*
X163800000Y-67320000D01*
X163800000Y-76210000D02*
X163165000Y-76845000D01*
X163800000Y-67320000D02*
X163800000Y-76210000D01*
%TO.N,Net-(D1-A)*%
X152290000Y-93900000D02*
X158394700Y-87795300D01*
X158394700Y-87795300D02*
X158720000Y-87795300D01*
X158720000Y-86370000D02*
X158720000Y-87795300D01*
%TO.N,Net-(D3-A)*%
X141200000Y-90280000D02*
X141200000Y-95360000D01*
%TO.N,Net-(U2-SPK-)*%
X161260000Y-57160000D02*
X164990000Y-60890000D01*
X164990000Y-60890000D02*
X164990000Y-93900000D01*
%TO.N,Net-(U2-SPK+)*%
X159990000Y-93900000D02*
X160145300Y-93744700D01*
X160145300Y-55734700D02*
X161260000Y-54620000D01*
X160145300Y-93744700D02*
X160145300Y-55734700D01*
%TD*%
%TA.AperFunction,Conductor*%
%TO.N,GND*%
G36*
X166650000Y-73124498D02*
G01*
X166542315Y-73075320D01*
X166435763Y-73060000D01*
X166364237Y-73060000D01*
X166257685Y-73075320D01*
X166150000Y-73124498D01*
X166150000Y-71455501D01*
X166257685Y-71504680D01*
X166364237Y-71520000D01*
X166435763Y-71520000D01*
X166542315Y-71504680D01*
X166650000Y-71455501D01*
X166650000Y-73124498D01*
G37*
%TD.AperFunction*%
%TA.AperFunction,Conductor*%
G36*
X173271991Y-47120185D02*
G01*
X173317746Y-47172989D01*
X173327690Y-47242147D01*
X173298665Y-47305703D01*
X173239887Y-47343477D01*
X173231608Y-47345601D01*
X172915726Y-47415131D01*
X172659970Y-47501306D01*
X172576565Y-47529409D01*
X172576563Y-47529410D01*
X172576552Y-47529414D01*
X172251755Y-47679680D01*
X172251751Y-47679682D01*
X172023367Y-47817096D01*
X171945081Y-47864200D01*
X171856768Y-47931333D01*
X171660172Y-48080781D01*
X171660163Y-48080789D01*
X171400331Y-48326914D01*
X171168641Y-48599680D01*
X171168634Y-48599690D01*
X170967790Y-48895913D01*
X170967784Y-48895922D01*
X170800151Y-49212111D01*
X170800142Y-49212129D01*
X170667674Y-49544600D01*
X170667672Y-49544607D01*
X170571932Y-49889434D01*
X170571926Y-49889460D01*
X170514029Y-50242614D01*
X170514028Y-50242631D01*
X170494652Y-50599997D01*
X170494652Y-50600002D01*
X170514028Y-50957368D01*
X170514029Y-50957385D01*
X170571926Y-51310539D01*
X170571932Y-51310565D01*
X170667672Y-51655392D01*
X170667674Y-51655399D01*
X170800142Y-51987870D01*
X170800151Y-51987888D01*
X170967784Y-52304077D01*
X170967790Y-52304086D01*
X171168634Y-52600309D01*
X171168641Y-52600319D01*
X171400331Y-52873085D01*
X171400332Y-52873086D01*
X171660163Y-53119211D01*
X171945081Y-53335800D01*
X172251747Y-53520315D01*
X172251749Y-53520316D01*
X172251751Y-53520317D01*
X172251755Y-53520319D01*
X172576552Y-53670585D01*
X172576565Y-53670591D01*
X172915726Y-53784868D01*
X173265254Y-53861805D01*
X173621052Y-53900500D01*
X173621058Y-53900500D01*
X173978942Y-53900500D01*
X173978948Y-53900500D01*
X174334746Y-53861805D01*
X174684274Y-53784868D01*
X175023435Y-53670591D01*
X175348253Y-53520315D01*
X175654919Y-53335800D01*
X175939837Y-53119211D01*
X176199668Y-52873086D01*
X176431365Y-52600311D01*
X176632211Y-52304085D01*
X176799853Y-51987880D01*
X176932324Y-51655403D01*
X177028071Y-51310552D01*
X177053134Y-51157677D01*
X177083405Y-51094705D01*
X177142915Y-51058096D01*
X177212771Y-51059472D01*
X177270794Y-51098397D01*
X177298562Y-51162512D01*
X177299500Y-51177738D01*
X177299500Y-104022261D01*
X177279815Y-104089300D01*
X177227011Y-104135055D01*
X177157853Y-104144999D01*
X177094297Y-104115974D01*
X177056523Y-104057196D01*
X177053134Y-104042322D01*
X177028073Y-103889460D01*
X177028072Y-103889459D01*
X177028071Y-103889448D01*
X176932324Y-103544597D01*
X176806109Y-103227821D01*
X176799857Y-103212129D01*
X176799848Y-103212111D01*
X176632215Y-102895922D01*
X176632213Y-102895919D01*
X176632211Y-102895915D01*
X176431365Y-102599689D01*
X176431361Y-102599684D01*
X176431358Y-102599680D01*
X176199668Y-102326914D01*
X175939837Y-102080789D01*
X175939830Y-102080783D01*
X175939827Y-102080781D01*
X175872245Y-102029407D01*
X175654919Y-101864200D01*
X175348253Y-101679685D01*
X175348252Y-101679684D01*
X175348248Y-101679682D01*
X175348244Y-101679680D01*
X175023447Y-101529414D01*
X175023441Y-101529411D01*
X175023435Y-101529409D01*
X174853854Y-101472270D01*
X174684273Y-101415131D01*
X174334744Y-101338194D01*
X173978949Y-101299500D01*
X173978948Y-101299500D01*
X173621052Y-101299500D01*
X173621050Y-101299500D01*
X173265255Y-101338194D01*
X172915726Y-101415131D01*
X172659970Y-101501306D01*
X172576565Y-101529409D01*
X172576563Y-101529410D01*
X172576552Y-101529414D01*
X172251755Y-101679680D01*
X172251751Y-101679682D01*
X172023367Y-101817096D01*
X171945081Y-101864200D01*
X171934476Y-101872262D01*
X171660172Y-102080781D01*
X171660163Y-102080789D01*
X171400331Y-102326914D01*
X171168641Y-102599680D01*
X171168634Y-102599690D01*
X170967790Y-102895913D01*
X170967784Y-102895922D01*
X170800151Y-103212111D01*
X170800142Y-103212129D01*
X170667674Y-103544600D01*
X170667672Y-103544607D01*
X170571932Y-103889434D01*
X170571926Y-103889460D01*
X170514029Y-104242614D01*
X170514028Y-104242631D01*
X170494652Y-104599997D01*
X170494652Y-104600002D01*
X170514028Y-104957368D01*
X170514029Y-104957385D01*
X170571926Y-105310539D01*
X170571932Y-105310565D01*
X170667672Y-105655392D01*
X170667674Y-105655399D01*
X170800142Y-105987870D01*
X170800151Y-105987888D01*
X170967784Y-106304077D01*
X170967790Y-106304086D01*
X171168634Y-106600309D01*
X171168641Y-106600319D01*
X171400331Y-106873085D01*
X171400332Y-106873086D01*
X171660163Y-107119211D01*
X171945081Y-107335800D01*
X172251747Y-107520315D01*
X172251749Y-107520316D01*
X172251751Y-107520317D01*
X172251755Y-107520319D01*
X172576552Y-107670585D01*
X172576565Y-107670591D01*
X172915726Y-107784868D01*
X173231608Y-107854399D01*
X173292849Y-107888035D01*
X173326183Y-107949440D01*
X173321027Y-108019119D01*
X173279018Y-108074950D01*
X173213494Y-108099205D01*
X173204952Y-108099500D01*
X119895048Y-108099500D01*
X119828009Y-108079815D01*
X119782254Y-108027011D01*
X119772310Y-107957853D01*
X119801335Y-107894297D01*
X119860113Y-107856523D01*
X119868392Y-107854399D01*
X119928104Y-107841255D01*
X120184274Y-107784868D01*
X120523435Y-107670591D01*
X120848253Y-107520315D01*
X121154919Y-107335800D01*
X121439837Y-107119211D01*
X121699668Y-106873086D01*
X121931365Y-106600311D01*
X122132211Y-106304085D01*
X122299853Y-105987880D01*
X122432324Y-105655403D01*
X122528071Y-105310552D01*
X122563457Y-105094705D01*
X122585970Y-104957385D01*
X122585970Y-104957382D01*
X122585972Y-104957371D01*
X122605348Y-104600000D01*
X122585972Y-104242629D01*
X122569966Y-104144999D01*
X122528073Y-103889460D01*
X122528072Y-103889459D01*
X122528071Y-103889448D01*
X122432324Y-103544597D01*
X122306109Y-103227821D01*
X122299857Y-103212129D01*
X122299848Y-103212111D01*
X122176793Y-102980005D01*
X139694357Y-102980005D01*
X139714890Y-103227812D01*
X139714892Y-103227824D01*
X139775936Y-103468881D01*
X139875826Y-103696606D01*
X140011833Y-103904782D01*
X140011836Y-103904785D01*
X140180256Y-104087738D01*
X140376491Y-104240474D01*
X140595190Y-104358828D01*
X140830386Y-104439571D01*
X141075665Y-104480500D01*
X141324335Y-104480500D01*
X141569614Y-104439571D01*
X141804810Y-104358828D01*
X142023509Y-104240474D01*
X142219744Y-104087738D01*
X142388164Y-103904785D01*
X142524173Y-103696607D01*
X142624063Y-103468881D01*
X142685108Y-103227821D01*
X142685109Y-103227812D01*
X142705643Y-102980005D01*
X142705643Y-102979994D01*
X142685109Y-102732187D01*
X142685107Y-102732175D01*
X142624063Y-102491118D01*
X142524173Y-102263393D01*
X142388166Y-102055217D01*
X142366557Y-102031744D01*
X142219744Y-101872262D01*
X142023509Y-101719526D01*
X142023507Y-101719525D01*
X142023506Y-101719524D01*
X141804811Y-101601172D01*
X141804802Y-101601169D01*
X141569616Y-101520429D01*
X141324335Y-101479500D01*
X141075665Y-101479500D01*
X140830383Y-101520429D01*
X140595197Y-101601169D01*
X140595188Y-101601172D01*
X140376493Y-101719524D01*
X140180257Y-101872261D01*
X140011833Y-102055217D01*
X139875826Y-102263393D01*
X139775936Y-102491118D01*
X139714892Y-102732175D01*
X139714890Y-102732187D01*
X139694357Y-102979994D01*
X139694357Y-102980005D01*
X122176793Y-102980005D01*
X122132215Y-102895922D01*
X122132213Y-102895919D01*
X122132211Y-102895915D01*
X121931365Y-102599689D01*
X121931361Y-102599684D01*
X121931358Y-102599680D01*
X121699668Y-102326914D01*
X121439837Y-102080789D01*
X121439830Y-102080783D01*
X121439827Y-102080781D01*
X121372245Y-102029407D01*
X121154919Y-101864200D01*
X120848253Y-101679685D01*
X120848252Y-101679684D01*
X120848248Y-101679682D01*
X120848244Y-101679680D01*
X120523447Y-101529414D01*
X120523441Y-101529411D01*
X120523435Y-101529409D01*
X120353854Y-101472270D01*
X120184273Y-101415131D01*
X119834744Y-101338194D01*
X119478949Y-101299500D01*
X119478948Y-101299500D01*
X119121052Y-101299500D01*
X119121050Y-101299500D01*
X118765255Y-101338194D01*
X118415726Y-101415131D01*
X118159970Y-101501306D01*
X118076565Y-101529409D01*
X118076563Y-101529410D01*
X118076552Y-101529414D01*
X117751755Y-101679680D01*
X117751751Y-101679682D01*
X117523367Y-101817096D01*
X117445081Y-101864200D01*
X117434476Y-101872262D01*
X117160172Y-102080781D01*
X117160163Y-102080789D01*
X116900331Y-102326914D01*
X116668641Y-102599680D01*
X116668634Y-102599690D01*
X116467790Y-102895913D01*
X116467784Y-102895922D01*
X116300151Y-103212111D01*
X116300142Y-103212129D01*
X116167674Y-103544600D01*
X116167672Y-103544607D01*
X116083480Y-103847842D01*
X116046578Y-103907172D01*
X115983458Y-103937133D01*
X115914160Y-103928212D01*
X115860686Y-103883242D01*
X115840014Y-103816501D01*
X115840000Y-103814669D01*
X115840000Y-92176370D01*
X117161000Y-92176370D01*
X117161001Y-92176376D01*
X117167408Y-92235983D01*
X117217702Y-92370828D01*
X117217706Y-92370835D01*
X117303952Y-92486044D01*
X117303955Y-92486047D01*
X117419164Y-92572293D01*
X117419171Y-92572297D01*
X117554017Y-92622591D01*
X117554016Y-92622591D01*
X117560944Y-92623335D01*
X117613627Y-92629000D01*
X119066372Y-92628999D01*
X119125983Y-92622591D01*
X119260831Y-92572296D01*
X119376046Y-92486046D01*
X119462296Y-92370831D01*
X119512591Y-92235983D01*
X119519000Y-92176373D01*
X119518999Y-91450000D01*
X122236451Y-91450000D01*
X122256602Y-91667476D01*
X122256603Y-91667479D01*
X122316370Y-91877542D01*
X122316373Y-91877548D01*
X122413728Y-92073062D01*
X122426487Y-92089958D01*
X123006751Y-91509695D01*
X123017985Y-91580623D01*
X123078025Y-91698459D01*
X123171541Y-91791975D01*
X123289377Y-91852015D01*
X123360303Y-91863248D01*
X122782288Y-92441262D01*
X122892448Y-92509470D01*
X122892449Y-92509471D01*
X123096103Y-92588366D01*
X123310799Y-92628500D01*
X123529201Y-92628500D01*
X123743896Y-92588366D01*
X123947552Y-92509470D01*
X123947553Y-92509469D01*
X124057710Y-92441262D01*
X123479696Y-91863248D01*
X123550623Y-91852015D01*
X123668459Y-91791975D01*
X123761975Y-91698459D01*
X123822015Y-91580623D01*
X123833248Y-91509695D01*
X124413511Y-92089958D01*
X124426273Y-92073058D01*
X124426275Y-92073055D01*
X124523626Y-91877548D01*
X124523629Y-91877542D01*
X124583396Y-91667479D01*
X124583397Y-91667476D01*
X124589649Y-91600001D01*
X130784532Y-91600001D01*
X130804364Y-91826686D01*
X130804366Y-91826697D01*
X130863258Y-92046488D01*
X130863261Y-92046497D01*
X130959431Y-92252732D01*
X130959432Y-92252734D01*
X131089954Y-92439141D01*
X131250858Y-92600045D01*
X131270301Y-92613659D01*
X131437266Y-92730568D01*
X131643504Y-92826739D01*
X131863308Y-92885635D01*
X132025230Y-92899801D01*
X132089998Y-92905468D01*
X132090000Y-92905468D01*
X132090002Y-92905468D01*
X132146673Y-92900509D01*
X132316692Y-92885635D01*
X132536496Y-92826739D01*
X132742734Y-92730568D01*
X132929139Y-92600047D01*
X133090047Y-92439139D01*
X133220568Y-92252734D01*
X133227893Y-92237023D01*
X133274062Y-92184586D01*
X133341254Y-92165432D01*
X133408136Y-92185645D01*
X133452657Y-92237023D01*
X133459865Y-92252481D01*
X133459866Y-92252483D01*
X133510973Y-92325471D01*
X133510974Y-92325472D01*
X134192046Y-91644399D01*
X134204835Y-91725148D01*
X134262359Y-91838045D01*
X134351955Y-91927641D01*
X134464852Y-91985165D01*
X134545599Y-91997953D01*
X133864526Y-92679025D01*
X133864526Y-92679026D01*
X133937512Y-92730131D01*
X133937516Y-92730133D01*
X134143673Y-92826265D01*
X134143682Y-92826269D01*
X134363389Y-92885139D01*
X134363400Y-92885141D01*
X134589998Y-92904966D01*
X134590002Y-92904966D01*
X134816599Y-92885141D01*
X134816610Y-92885139D01*
X135036317Y-92826269D01*
X135036331Y-92826264D01*
X135242478Y-92730136D01*
X135315472Y-92679025D01*
X134634401Y-91997953D01*
X134715148Y-91985165D01*
X134828045Y-91927641D01*
X134917641Y-91838045D01*
X134975165Y-91725148D01*
X134987953Y-91644400D01*
X135669025Y-92325472D01*
X135720136Y-92252478D01*
X135816264Y-92046331D01*
X135816269Y-92046317D01*
X135875139Y-91826610D01*
X135875141Y-91826599D01*
X135894966Y-91600002D01*
X135894966Y-91599997D01*
X135875141Y-91373400D01*
X135875139Y-91373389D01*
X135836141Y-91227844D01*
X137260000Y-91227844D01*
X137266401Y-91287372D01*
X137266403Y-91287379D01*
X137316645Y-91422086D01*
X137316649Y-91422093D01*
X137402809Y-91537187D01*
X137402812Y-91537190D01*
X137517906Y-91623350D01*
X137517913Y-91623354D01*
X137652620Y-91673596D01*
X137652627Y-91673598D01*
X137712155Y-91679999D01*
X137712172Y-91680000D01*
X138410000Y-91680000D01*
X138410000Y-90654189D01*
X138462547Y-90690016D01*
X138592173Y-90730000D01*
X138693724Y-90730000D01*
X138794138Y-90714865D01*
X138910000Y-90659068D01*
X138910000Y-91680000D01*
X139607828Y-91680000D01*
X139607844Y-91679999D01*
X139667372Y-91673598D01*
X139667379Y-91673596D01*
X139802086Y-91623354D01*
X139802093Y-91623350D01*
X139917187Y-91537190D01*
X139917190Y-91537187D01*
X140003350Y-91422093D01*
X140003355Y-91422084D01*
X140032075Y-91345081D01*
X140073945Y-91289147D01*
X140139409Y-91264729D01*
X140207682Y-91279580D01*
X140239484Y-91304428D01*
X140248216Y-91313913D01*
X140248219Y-91313915D01*
X140248222Y-91313918D01*
X140431365Y-91456464D01*
X140431376Y-91456471D01*
X140509517Y-91498759D01*
X140559108Y-91547978D01*
X140574500Y-91607814D01*
X140574500Y-93918479D01*
X140554815Y-93985518D01*
X140509519Y-94027533D01*
X140376496Y-94099522D01*
X140376494Y-94099523D01*
X140180257Y-94252261D01*
X140011833Y-94435217D01*
X139875826Y-94643393D01*
X139775936Y-94871118D01*
X139714892Y-95112175D01*
X139714890Y-95112187D01*
X139694357Y-95359994D01*
X139694357Y-95360005D01*
X139714890Y-95607812D01*
X139714892Y-95607824D01*
X139775936Y-95848881D01*
X139875826Y-96076606D01*
X140011833Y-96284782D01*
X140011836Y-96284785D01*
X140180256Y-96467738D01*
X140376491Y-96620474D01*
X140595190Y-96738828D01*
X140830386Y-96819571D01*
X141075665Y-96860500D01*
X141324335Y-96860500D01*
X141569614Y-96819571D01*
X141804810Y-96738828D01*
X142023509Y-96620474D01*
X142219744Y-96467738D01*
X142388164Y-96284785D01*
X142524173Y-96076607D01*
X142624063Y-95848881D01*
X142685108Y-95607821D01*
X142705643Y-95360000D01*
X142693201Y-95209852D01*
X142685109Y-95112187D01*
X142685107Y-95112175D01*
X142624063Y-94871118D01*
X142524173Y-94643393D01*
X142388166Y-94435217D01*
X142332133Y-94374349D01*
X142219744Y-94252262D01*
X142023509Y-94099526D01*
X142023508Y-94099525D01*
X142023505Y-94099523D01*
X142023503Y-94099522D01*
X141890481Y-94027533D01*
X141840891Y-93978313D01*
X141825500Y-93918479D01*
X141825500Y-93900000D01*
X145959939Y-93900000D01*
X145980145Y-94130958D01*
X145980147Y-94130968D01*
X146040148Y-94354900D01*
X146040152Y-94354909D01*
X146138132Y-94565029D01*
X146138133Y-94565031D01*
X146193023Y-94643422D01*
X146193024Y-94643423D01*
X146764070Y-94072376D01*
X146766884Y-94085915D01*
X146836442Y-94220156D01*
X146939638Y-94330652D01*
X147068819Y-94409209D01*
X147120002Y-94423549D01*
X146546575Y-94996975D01*
X146624973Y-95051868D01*
X146835090Y-95149847D01*
X146835099Y-95149851D01*
X147059031Y-95209852D01*
X147059041Y-95209854D01*
X147289999Y-95230061D01*
X147290001Y-95230061D01*
X147520958Y-95209854D01*
X147520968Y-95209852D01*
X147744900Y-95149851D01*
X147744909Y-95149847D01*
X147955030Y-95051867D01*
X148033423Y-94996975D01*
X147461568Y-94425121D01*
X147578458Y-94374349D01*
X147695739Y-94278934D01*
X147782928Y-94155415D01*
X147813354Y-94069802D01*
X148386975Y-94643423D01*
X148441867Y-94565030D01*
X148539847Y-94354909D01*
X148539851Y-94354900D01*
X148599852Y-94130968D01*
X148599854Y-94130958D01*
X148620061Y-93900001D01*
X150959437Y-93900001D01*
X150979650Y-94131044D01*
X150979651Y-94131051D01*
X151039678Y-94355074D01*
X151039679Y-94355076D01*
X151039680Y-94355079D01*
X151137699Y-94565282D01*
X151270730Y-94755269D01*
X151434731Y-94919270D01*
X151624718Y-95052301D01*
X151834921Y-95150320D01*
X152058950Y-95210349D01*
X152223985Y-95224787D01*
X152289998Y-95230563D01*
X152290000Y-95230563D01*
X152290002Y-95230563D01*
X152347762Y-95225509D01*
X152521050Y-95210349D01*
X152745079Y-95150320D01*
X152955282Y-95052301D01*
X153145269Y-94919270D01*
X153309270Y-94755269D01*
X153442301Y-94565282D01*
X153540320Y-94355079D01*
X153600349Y-94131050D01*
X153620563Y-93900000D01*
X153600349Y-93668950D01*
X153577731Y-93584540D01*
X153579393Y-93514690D01*
X153609822Y-93464766D01*
X158614895Y-88459694D01*
X158676216Y-88426211D01*
X158694784Y-88423622D01*
X158737722Y-88420921D01*
X158741598Y-88420800D01*
X158759342Y-88420800D01*
X158759350Y-88420800D01*
X158776990Y-88418571D01*
X158780807Y-88418210D01*
X158838138Y-88414604D01*
X158845905Y-88412080D01*
X158868680Y-88406988D01*
X158876792Y-88405964D01*
X158930195Y-88384819D01*
X158933835Y-88383509D01*
X158988441Y-88365767D01*
X158995337Y-88361390D01*
X159016133Y-88350794D01*
X159023732Y-88347786D01*
X159070191Y-88314030D01*
X159073390Y-88311855D01*
X159121877Y-88281086D01*
X159127466Y-88275133D01*
X159144979Y-88259694D01*
X159151587Y-88254894D01*
X159188190Y-88210647D01*
X159190736Y-88207757D01*
X159230062Y-88165882D01*
X159233998Y-88158721D01*
X159247119Y-88139414D01*
X159252324Y-88133123D01*
X159276772Y-88081165D01*
X159278538Y-88077703D01*
X159282334Y-88070798D01*
X159287139Y-88062056D01*
X159336685Y-88012794D01*
X159405000Y-87998138D01*
X159470394Y-88022742D01*
X159512105Y-88078795D01*
X159519800Y-88121796D01*
X159519800Y-92577734D01*
X159500115Y-92644773D01*
X159448205Y-92690116D01*
X159324719Y-92747699D01*
X159324714Y-92747701D01*
X159134735Y-92880726D01*
X159134729Y-92880731D01*
X158970731Y-93044729D01*
X158970726Y-93044735D01*
X158837701Y-93234714D01*
X158837699Y-93234718D01*
X158739681Y-93444917D01*
X158679651Y-93668948D01*
X158679650Y-93668955D01*
X158659437Y-93899998D01*
X158659437Y-93900001D01*
X158679650Y-94131044D01*
X158679651Y-94131051D01*
X158739678Y-94355074D01*
X158739679Y-94355076D01*
X158739680Y-94355079D01*
X158837699Y-94565282D01*
X158970730Y-94755269D01*
X159134731Y-94919270D01*
X159324718Y-95052301D01*
X159534921Y-95150320D01*
X159758950Y-95210349D01*
X159923985Y-95224787D01*
X159989998Y-95230563D01*
X159990000Y-95230563D01*
X159990002Y-95230563D01*
X160047762Y-95225509D01*
X160221050Y-95210349D01*
X160445079Y-95150320D01*
X160655282Y-95052301D01*
X160845269Y-94919270D01*
X161009270Y-94755269D01*
X161142301Y-94565282D01*
X161240320Y-94355079D01*
X161300349Y-94131050D01*
X161320563Y-93900000D01*
X161317248Y-93862114D01*
X161310681Y-93787047D01*
X161300349Y-93668950D01*
X161240320Y-93444921D01*
X161142301Y-93234719D01*
X161142299Y-93234716D01*
X161142298Y-93234714D01*
X161009273Y-93044735D01*
X161009268Y-93044729D01*
X160845272Y-92880733D01*
X160845269Y-92880730D01*
X160840200Y-92877180D01*
X160823674Y-92865608D01*
X160780050Y-92811030D01*
X160770800Y-92764035D01*
X160770800Y-73629606D01*
X160790485Y-73562567D01*
X160843289Y-73516812D01*
X160912447Y-73506868D01*
X160939592Y-73513980D01*
X160942703Y-73515185D01*
X161153020Y-73554500D01*
X161153022Y-73554500D01*
X161366978Y-73554500D01*
X161366980Y-73554500D01*
X161577297Y-73515185D01*
X161776810Y-73437893D01*
X161958722Y-73325258D01*
X162116841Y-73181114D01*
X162245781Y-73010370D01*
X162341151Y-72818840D01*
X162341151Y-72818837D01*
X162341153Y-72818835D01*
X162378115Y-72688926D01*
X162399704Y-72613048D01*
X162419446Y-72400000D01*
X162399704Y-72186952D01*
X162381714Y-72123724D01*
X162341153Y-71981164D01*
X162341150Y-71981158D01*
X162296298Y-71891082D01*
X162245781Y-71789630D01*
X162116841Y-71618886D01*
X161958722Y-71474742D01*
X161958716Y-71474738D01*
X161958713Y-71474736D01*
X161776813Y-71362108D01*
X161776807Y-71362106D01*
X161577297Y-71284815D01*
X161401153Y-71251888D01*
X161338874Y-71220221D01*
X161303601Y-71159908D01*
X161306535Y-71090100D01*
X161346744Y-71032960D01*
X161401152Y-71008112D01*
X161577297Y-70975185D01*
X161776810Y-70897893D01*
X161958722Y-70785258D01*
X162116841Y-70641114D01*
X162245781Y-70470370D01*
X162341151Y-70278840D01*
X162341151Y-70278837D01*
X162341153Y-70278835D01*
X162378115Y-70148926D01*
X162399704Y-70073048D01*
X162419446Y-69860000D01*
X162418693Y-69851879D01*
X162399704Y-69646952D01*
X162399703Y-69646949D01*
X162396496Y-69635679D01*
X162365544Y-69526891D01*
X162341153Y-69441164D01*
X162341150Y-69441158D01*
X162325268Y-69409262D01*
X162245781Y-69249630D01*
X162116841Y-69078886D01*
X161958722Y-68934742D01*
X161958716Y-68934738D01*
X161958713Y-68934736D01*
X161776813Y-68822108D01*
X161776807Y-68822106D01*
X161577297Y-68744815D01*
X161420010Y-68715413D01*
X161399795Y-68711634D01*
X161337514Y-68679965D01*
X161302241Y-68619653D01*
X161305175Y-68549845D01*
X161345384Y-68492705D01*
X161399795Y-68467856D01*
X161577163Y-68434700D01*
X161776585Y-68357444D01*
X161776586Y-68357443D01*
X161879913Y-68293465D01*
X161304401Y-67717953D01*
X161385148Y-67705165D01*
X161498045Y-67647641D01*
X161587641Y-67558045D01*
X161645165Y-67445148D01*
X161657953Y-67364400D01*
X162236018Y-67942465D01*
X162245355Y-67930101D01*
X162245357Y-67930098D01*
X162340678Y-67738669D01*
X162340684Y-67738654D01*
X162399210Y-67532956D01*
X162399211Y-67532954D01*
X162418944Y-67320000D01*
X162399928Y-67114793D01*
X162413343Y-67046223D01*
X162461700Y-66995791D01*
X162529646Y-66979508D01*
X162595608Y-67002545D01*
X162611080Y-67015670D01*
X163138181Y-67542771D01*
X163171666Y-67604094D01*
X163174500Y-67630452D01*
X163174500Y-75120500D01*
X163154815Y-75187539D01*
X163102011Y-75233294D01*
X163050500Y-75244500D01*
X162017129Y-75244500D01*
X162017123Y-75244501D01*
X161957516Y-75250908D01*
X161822671Y-75301202D01*
X161822664Y-75301206D01*
X161707455Y-75387452D01*
X161707452Y-75387455D01*
X161621206Y-75502664D01*
X161621202Y-75502671D01*
X161570908Y-75637517D01*
X161564501Y-75697116D01*
X161564500Y-75697135D01*
X161564500Y-77992870D01*
X161564501Y-77992876D01*
X161570908Y-78052483D01*
X161621202Y-78187328D01*
X161621206Y-78187335D01*
X161707452Y-78302544D01*
X161707455Y-78302547D01*
X161822664Y-78388793D01*
X161822671Y-78388797D01*
X161957517Y-78439091D01*
X161957516Y-78439091D01*
X161964444Y-78439835D01*
X162017127Y-78445500D01*
X164240500Y-78445499D01*
X164307539Y-78465184D01*
X164353294Y-78517987D01*
X164364500Y-78569499D01*
X164364500Y-85655696D01*
X164344815Y-85722735D01*
X164292011Y-85768490D01*
X164222853Y-85778434D01*
X164159969Y-85749987D01*
X164108655Y-85706161D01*
X164108653Y-85706160D01*
X163893859Y-85574533D01*
X163661110Y-85478126D01*
X163416151Y-85419317D01*
X163165000Y-85399551D01*
X162913848Y-85419317D01*
X162668889Y-85478126D01*
X162436140Y-85574533D01*
X162221346Y-85706160D01*
X162221343Y-85706161D01*
X162029776Y-85869776D01*
X161866161Y-86061343D01*
X161866160Y-86061346D01*
X161734533Y-86276140D01*
X161638126Y-86508889D01*
X161579317Y-86753848D01*
X161559551Y-87005000D01*
X161579317Y-87256151D01*
X161638126Y-87501110D01*
X161734533Y-87733859D01*
X161866160Y-87948653D01*
X161866161Y-87948656D01*
X161866164Y-87948659D01*
X162029776Y-88140224D01*
X162136579Y-88231442D01*
X162221343Y-88303838D01*
X162221345Y-88303838D01*
X162237991Y-88314039D01*
X162436140Y-88435466D01*
X162622333Y-88512589D01*
X162668889Y-88531873D01*
X162913852Y-88590683D01*
X163165000Y-88610449D01*
X163416148Y-88590683D01*
X163661111Y-88531873D01*
X163893859Y-88435466D01*
X164108659Y-88303836D01*
X164159970Y-88260011D01*
X164223729Y-88231442D01*
X164292815Y-88241879D01*
X164345291Y-88288009D01*
X164364500Y-88354303D01*
X164364500Y-92655293D01*
X164344815Y-92722332D01*
X164311624Y-92756868D01*
X164134731Y-92880730D01*
X164134729Y-92880731D01*
X163970731Y-93044729D01*
X163970726Y-93044735D01*
X163837701Y-93234714D01*
X163837699Y-93234718D01*
X163739681Y-93444917D01*
X163679651Y-93668948D01*
X163679650Y-93668955D01*
X163659437Y-93899998D01*
X163659437Y-93900001D01*
X163679650Y-94131044D01*
X163679651Y-94131051D01*
X163739678Y-94355074D01*
X163739679Y-94355076D01*
X163739680Y-94355079D01*
X163837699Y-94565282D01*
X163970730Y-94755269D01*
X164134731Y-94919270D01*
X164324718Y-95052301D01*
X164534921Y-95150320D01*
X164758950Y-95210349D01*
X164923985Y-95224787D01*
X164989998Y-95230563D01*
X164990000Y-95230563D01*
X164990002Y-95230563D01*
X165047762Y-95225509D01*
X165221050Y-95210349D01*
X165445079Y-95150320D01*
X165655282Y-95052301D01*
X165845269Y-94919270D01*
X166009270Y-94755269D01*
X166142301Y-94565282D01*
X166240320Y-94355079D01*
X166300349Y-94131050D01*
X166320563Y-93900000D01*
X166317248Y-93862114D01*
X166310681Y-93787047D01*
X166300349Y-93668950D01*
X166240320Y-93444921D01*
X166142301Y-93234719D01*
X166142299Y-93234716D01*
X166142298Y-93234714D01*
X166009273Y-93044735D01*
X166009268Y-93044729D01*
X165845269Y-92880730D01*
X165823673Y-92865608D01*
X165668375Y-92756867D01*
X165624751Y-92702291D01*
X165615500Y-92655293D01*
X165615500Y-74878383D01*
X165635185Y-74811344D01*
X165687989Y-74765589D01*
X165757147Y-74755645D01*
X165791905Y-74766001D01*
X165936507Y-74833429D01*
X165936516Y-74833433D01*
X166150000Y-74890634D01*
X166150000Y-73995501D01*
X166257685Y-74044680D01*
X166364237Y-74060000D01*
X166435763Y-74060000D01*
X166542315Y-74044680D01*
X166650000Y-73995501D01*
X166650000Y-74890633D01*
X166863483Y-74833433D01*
X166863492Y-74833429D01*
X167077578Y-74733600D01*
X167271082Y-74598105D01*
X167438105Y-74431082D01*
X167573600Y-74237578D01*
X167673429Y-74023492D01*
X167673432Y-74023486D01*
X167730636Y-73810000D01*
X166833686Y-73810000D01*
X166859493Y-73769844D01*
X166900000Y-73631889D01*
X166900000Y-73488111D01*
X166859493Y-73350156D01*
X166833686Y-73310000D01*
X167730636Y-73310000D01*
X167730635Y-73309999D01*
X167673432Y-73096513D01*
X167673429Y-73096507D01*
X167573600Y-72882422D01*
X167573599Y-72882420D01*
X167438113Y-72688926D01*
X167438108Y-72688920D01*
X167271082Y-72521894D01*
X167084968Y-72391575D01*
X167041344Y-72336998D01*
X167034151Y-72267499D01*
X167065673Y-72205145D01*
X167084968Y-72188425D01*
X167271082Y-72058105D01*
X167438105Y-71891082D01*
X167573600Y-71697578D01*
X167673429Y-71483492D01*
X167673432Y-71483486D01*
X167730636Y-71270000D01*
X166833686Y-71270000D01*
X166859493Y-71229844D01*
X166900000Y-71091889D01*
X166900000Y-70948111D01*
X166859493Y-70810156D01*
X166833686Y-70770000D01*
X167730636Y-70770000D01*
X167730635Y-70769999D01*
X167673432Y-70556513D01*
X167673429Y-70556507D01*
X167573600Y-70342422D01*
X167573599Y-70342420D01*
X167438113Y-70148926D01*
X167438108Y-70148920D01*
X167271078Y-69981890D01*
X167085405Y-69851879D01*
X167041780Y-69797302D01*
X167034588Y-69727804D01*
X167066110Y-69665449D01*
X167085406Y-69648730D01*
X167271401Y-69518495D01*
X167438495Y-69351401D01*
X167574035Y-69157830D01*
X167673903Y-68943663D01*
X167735063Y-68715408D01*
X167755659Y-68480000D01*
X167735063Y-68244592D01*
X167673903Y-68016337D01*
X167574035Y-67802171D01*
X167529691Y-67738840D01*
X167438494Y-67608597D01*
X167271402Y-67441506D01*
X167271396Y-67441501D01*
X167085842Y-67311575D01*
X167042217Y-67256998D01*
X167035023Y-67187500D01*
X167066546Y-67125145D01*
X167085842Y-67108425D01*
X167174675Y-67046223D01*
X167271401Y-66978495D01*
X167438495Y-66811401D01*
X167574035Y-66617830D01*
X167673903Y-66403663D01*
X167735063Y-66175408D01*
X167755659Y-65940000D01*
X167735063Y-65704592D01*
X167673903Y-65476337D01*
X167574035Y-65262171D01*
X167529691Y-65198840D01*
X167438494Y-65068597D01*
X167271402Y-64901506D01*
X167271396Y-64901501D01*
X167085842Y-64771575D01*
X167042217Y-64716998D01*
X167035023Y-64647500D01*
X167066546Y-64585145D01*
X167085842Y-64568425D01*
X167184501Y-64499343D01*
X167271401Y-64438495D01*
X167438495Y-64271401D01*
X167574035Y-64077830D01*
X167673903Y-63863663D01*
X167735063Y-63635408D01*
X167755659Y-63400000D01*
X167735063Y-63164592D01*
X167673903Y-62936337D01*
X167574035Y-62722171D01*
X167529691Y-62658840D01*
X167438494Y-62528597D01*
X167271402Y-62361506D01*
X167271396Y-62361501D01*
X167085842Y-62231575D01*
X167042217Y-62176998D01*
X167035023Y-62107500D01*
X167066546Y-62045145D01*
X167085842Y-62028425D01*
X167184501Y-61959343D01*
X167271401Y-61898495D01*
X167438495Y-61731401D01*
X167574035Y-61537830D01*
X167673903Y-61323663D01*
X167735063Y-61095408D01*
X167755659Y-60860000D01*
X167735063Y-60624592D01*
X167673903Y-60396337D01*
X167574035Y-60182171D01*
X167544201Y-60139564D01*
X167438496Y-59988600D01*
X167438494Y-59988598D01*
X167316567Y-59866671D01*
X167283084Y-59805351D01*
X167288068Y-59735659D01*
X167329939Y-59679725D01*
X167360915Y-59662810D01*
X167492331Y-59613796D01*
X167607546Y-59527546D01*
X167693796Y-59412331D01*
X167744091Y-59277483D01*
X167750500Y-59217873D01*
X167750499Y-57422128D01*
X167744091Y-57362517D01*
X167693796Y-57227669D01*
X167693795Y-57227668D01*
X167693793Y-57227664D01*
X167607547Y-57112455D01*
X167607544Y-57112452D01*
X167492335Y-57026206D01*
X167492328Y-57026202D01*
X167357482Y-56975908D01*
X167357483Y-56975908D01*
X167297883Y-56969501D01*
X167297881Y-56969500D01*
X167297873Y-56969500D01*
X167297864Y-56969500D01*
X165502129Y-56969500D01*
X165502123Y-56969501D01*
X165442516Y-56975908D01*
X165307671Y-57026202D01*
X165307664Y-57026206D01*
X165192455Y-57112452D01*
X165192452Y-57112455D01*
X165106206Y-57227664D01*
X165106202Y-57227671D01*
X165055908Y-57362517D01*
X165052805Y-57391383D01*
X165049501Y-57422123D01*
X165049500Y-57422135D01*
X165049500Y-59217870D01*
X165049501Y-59217876D01*
X165055908Y-59277483D01*
X165106202Y-59412328D01*
X165106206Y-59412335D01*
X165192452Y-59527544D01*
X165192455Y-59527547D01*
X165307664Y-59613793D01*
X165307671Y-59613797D01*
X165439081Y-59662810D01*
X165495015Y-59704681D01*
X165519432Y-59770145D01*
X165504580Y-59838418D01*
X165483430Y-59866673D01*
X165361505Y-59988598D01*
X165286344Y-60095940D01*
X165231767Y-60139564D01*
X165162268Y-60146757D01*
X165099914Y-60115235D01*
X165097088Y-60112497D01*
X162437297Y-57452706D01*
X162403812Y-57391383D01*
X162401507Y-57353587D01*
X162419446Y-57160000D01*
X162401793Y-56969501D01*
X162399704Y-56946952D01*
X162399703Y-56946949D01*
X162341153Y-56741164D01*
X162341150Y-56741158D01*
X162245781Y-56549630D01*
X162116841Y-56378886D01*
X161958722Y-56234742D01*
X161958716Y-56234738D01*
X161958713Y-56234736D01*
X161776813Y-56122108D01*
X161776807Y-56122106D01*
X161577297Y-56044815D01*
X161401153Y-56011888D01*
X161338874Y-55980221D01*
X161303601Y-55919908D01*
X161306535Y-55850100D01*
X161346744Y-55792960D01*
X161401152Y-55768112D01*
X161577297Y-55735185D01*
X161776810Y-55657893D01*
X161958722Y-55545258D01*
X162116841Y-55401114D01*
X162245781Y-55230370D01*
X162341151Y-55038840D01*
X162341151Y-55038837D01*
X162341153Y-55038835D01*
X162377040Y-54912705D01*
X162399704Y-54833048D01*
X162419446Y-54620000D01*
X162399704Y-54406952D01*
X162391200Y-54377065D01*
X162341153Y-54201164D01*
X162341150Y-54201158D01*
X162245781Y-54009630D01*
X162116841Y-53838886D01*
X161958722Y-53694742D01*
X161958716Y-53694738D01*
X161958713Y-53694736D01*
X161776813Y-53582108D01*
X161776807Y-53582106D01*
X161577297Y-53504815D01*
X161366980Y-53465500D01*
X161153020Y-53465500D01*
X160942703Y-53504815D01*
X160897812Y-53522206D01*
X160743192Y-53582106D01*
X160743186Y-53582108D01*
X160561286Y-53694736D01*
X160561283Y-53694738D01*
X160561279Y-53694740D01*
X160561278Y-53694742D01*
X160462414Y-53784868D01*
X160403158Y-53838887D01*
X160274219Y-54009629D01*
X160178849Y-54201158D01*
X160178846Y-54201164D01*
X160120296Y-54406949D01*
X160120295Y-54406952D01*
X160100554Y-54619999D01*
X160100554Y-54620000D01*
X160118492Y-54813583D01*
X160105077Y-54882152D01*
X160082702Y-54912705D01*
X159761508Y-55233899D01*
X159749251Y-55243720D01*
X159749434Y-55243941D01*
X159743423Y-55248913D01*
X159696072Y-55299336D01*
X159675189Y-55320219D01*
X159675177Y-55320232D01*
X159670921Y-55325717D01*
X159667137Y-55330147D01*
X159635237Y-55364118D01*
X159635236Y-55364120D01*
X159625584Y-55381676D01*
X159614910Y-55397926D01*
X159602629Y-55413761D01*
X159602624Y-55413768D01*
X159584115Y-55456538D01*
X159581545Y-55461784D01*
X159559103Y-55502606D01*
X159554122Y-55522007D01*
X159547821Y-55540410D01*
X159539862Y-55558802D01*
X159539861Y-55558805D01*
X159532571Y-55604827D01*
X159531387Y-55610546D01*
X159519801Y-55655672D01*
X159519800Y-55655682D01*
X159519800Y-55675716D01*
X159518273Y-55695115D01*
X159515140Y-55714894D01*
X159515140Y-55714895D01*
X159519525Y-55761283D01*
X159519800Y-55767121D01*
X159519800Y-74485500D01*
X159500115Y-74552539D01*
X159447311Y-74598294D01*
X159395800Y-74609500D01*
X157572129Y-74609500D01*
X157572123Y-74609501D01*
X157512516Y-74615908D01*
X157377671Y-74666202D01*
X157377664Y-74666206D01*
X157262455Y-74752452D01*
X157262452Y-74752455D01*
X157176206Y-74867664D01*
X157176202Y-74867671D01*
X157125908Y-75002517D01*
X157119501Y-75062116D01*
X157119500Y-75062135D01*
X157119500Y-77357870D01*
X157119501Y-77357876D01*
X157125908Y-77417483D01*
X157176202Y-77552328D01*
X157176206Y-77552335D01*
X157262452Y-77667544D01*
X157262455Y-77667547D01*
X157377664Y-77753793D01*
X157377671Y-77753797D01*
X157512517Y-77804091D01*
X157512516Y-77804091D01*
X157519444Y-77804835D01*
X157572127Y-77810500D01*
X159395800Y-77810499D01*
X159462839Y-77830184D01*
X159508594Y-77882987D01*
X159519800Y-77934499D01*
X159519800Y-84783339D01*
X159500115Y-84850378D01*
X159447311Y-84896133D01*
X159378153Y-84906077D01*
X159348348Y-84897900D01*
X159216113Y-84843127D01*
X158971151Y-84784317D01*
X158720000Y-84764551D01*
X158468848Y-84784317D01*
X158223889Y-84843126D01*
X157991140Y-84939533D01*
X157776346Y-85071160D01*
X157776343Y-85071161D01*
X157584776Y-85234776D01*
X157421161Y-85426343D01*
X157421160Y-85426346D01*
X157289533Y-85641140D01*
X157193126Y-85873889D01*
X157134317Y-86118848D01*
X157114551Y-86370000D01*
X157134317Y-86621151D01*
X157193126Y-86866110D01*
X157289533Y-87098859D01*
X157421160Y-87313653D01*
X157421161Y-87313656D01*
X157502765Y-87409202D01*
X157584776Y-87505224D01*
X157598954Y-87517333D01*
X157637147Y-87575838D01*
X157637647Y-87645705D01*
X157606104Y-87699304D01*
X152725234Y-92580174D01*
X152663911Y-92613659D01*
X152605460Y-92612268D01*
X152521055Y-92589652D01*
X152521051Y-92589651D01*
X152521050Y-92589651D01*
X152521049Y-92589650D01*
X152521044Y-92589650D01*
X152290002Y-92569437D01*
X152289998Y-92569437D01*
X152058955Y-92589650D01*
X152058948Y-92589651D01*
X151834917Y-92649681D01*
X151624718Y-92747699D01*
X151624714Y-92747701D01*
X151434735Y-92880726D01*
X151434729Y-92880731D01*
X151270731Y-93044729D01*
X151270726Y-93044735D01*
X151137701Y-93234714D01*
X151137699Y-93234718D01*
X151039681Y-93444917D01*
X150979651Y-93668948D01*
X150979650Y-93668955D01*
X150959437Y-93899998D01*
X150959437Y-93900001D01*
X148620061Y-93900001D01*
X148620061Y-93900000D01*
X148620061Y-93899999D01*
X148599854Y-93669041D01*
X148599852Y-93669031D01*
X148539851Y-93445099D01*
X148539847Y-93445090D01*
X148441868Y-93234972D01*
X148386974Y-93156576D01*
X147815929Y-93727622D01*
X147813116Y-93714085D01*
X147743558Y-93579844D01*
X147640362Y-93469348D01*
X147511181Y-93390791D01*
X147459997Y-93376450D01*
X148033423Y-92803024D01*
X148033422Y-92803023D01*
X147955031Y-92748133D01*
X147955029Y-92748132D01*
X147744909Y-92650152D01*
X147744900Y-92650148D01*
X147520968Y-92590147D01*
X147520958Y-92590145D01*
X147290001Y-92569939D01*
X147289999Y-92569939D01*
X147059041Y-92590145D01*
X147059031Y-92590147D01*
X146835099Y-92650148D01*
X146835090Y-92650152D01*
X146624971Y-92748132D01*
X146624969Y-92748133D01*
X146546577Y-92803024D01*
X146546576Y-92803024D01*
X147118431Y-93374878D01*
X147001542Y-93425651D01*
X146884261Y-93521066D01*
X146797072Y-93644585D01*
X146766645Y-93730197D01*
X146193024Y-93156576D01*
X146193024Y-93156577D01*
X146138133Y-93234969D01*
X146138132Y-93234971D01*
X146040152Y-93445090D01*
X146040148Y-93445099D01*
X145980147Y-93669031D01*
X145980145Y-93669041D01*
X145959939Y-93899999D01*
X145959939Y-93900000D01*
X141825500Y-93900000D01*
X141825500Y-91607814D01*
X141845185Y-91540775D01*
X141890483Y-91498759D01*
X141899200Y-91494041D01*
X141968626Y-91456470D01*
X142151784Y-91313913D01*
X142308979Y-91143153D01*
X142435924Y-90948849D01*
X142529157Y-90736300D01*
X142586134Y-90511305D01*
X142586446Y-90507541D01*
X142605300Y-90280006D01*
X142605300Y-90279993D01*
X142586135Y-90048702D01*
X142586133Y-90048691D01*
X142529157Y-89823699D01*
X142435924Y-89611151D01*
X142308983Y-89416852D01*
X142308980Y-89416849D01*
X142308979Y-89416847D01*
X142151784Y-89246087D01*
X142151779Y-89246083D01*
X142151777Y-89246081D01*
X141968634Y-89103535D01*
X141968628Y-89103531D01*
X141764504Y-88993064D01*
X141764495Y-88993061D01*
X141544984Y-88917702D01*
X141357404Y-88886401D01*
X141316049Y-88879500D01*
X141083951Y-88879500D01*
X141042596Y-88886401D01*
X140855015Y-88917702D01*
X140635504Y-88993061D01*
X140635495Y-88993064D01*
X140431371Y-89103531D01*
X140431365Y-89103535D01*
X140248222Y-89246081D01*
X140248215Y-89246087D01*
X140239484Y-89255572D01*
X140179595Y-89291561D01*
X140109757Y-89289458D01*
X140052143Y-89249932D01*
X140032075Y-89214918D01*
X140003355Y-89137915D01*
X140003350Y-89137906D01*
X139917190Y-89022812D01*
X139917187Y-89022809D01*
X139802093Y-88936649D01*
X139802086Y-88936645D01*
X139667379Y-88886403D01*
X139667372Y-88886401D01*
X139607844Y-88880000D01*
X138910000Y-88880000D01*
X138910000Y-89905810D01*
X138857453Y-89869984D01*
X138727827Y-89830000D01*
X138626276Y-89830000D01*
X138525862Y-89845135D01*
X138410000Y-89900931D01*
X138410000Y-88880000D01*
X137712155Y-88880000D01*
X137652627Y-88886401D01*
X137652620Y-88886403D01*
X137517913Y-88936645D01*
X137517906Y-88936649D01*
X137402812Y-89022809D01*
X137402809Y-89022812D01*
X137316649Y-89137906D01*
X137316645Y-89137913D01*
X137266403Y-89272620D01*
X137266401Y-89272627D01*
X137260000Y-89332155D01*
X137260000Y-90030000D01*
X138284722Y-90030000D01*
X138236375Y-90113740D01*
X138206190Y-90245992D01*
X138216327Y-90381265D01*
X138265887Y-90507541D01*
X138283797Y-90530000D01*
X137260000Y-90530000D01*
X137260000Y-91227844D01*
X135836141Y-91227844D01*
X135816269Y-91153682D01*
X135816265Y-91153673D01*
X135720133Y-90947516D01*
X135720131Y-90947512D01*
X135669026Y-90874526D01*
X135669025Y-90874526D01*
X134987953Y-91555598D01*
X134975165Y-91474852D01*
X134917641Y-91361955D01*
X134828045Y-91272359D01*
X134715148Y-91214835D01*
X134634400Y-91202046D01*
X135315472Y-90520974D01*
X135315471Y-90520973D01*
X135242483Y-90469866D01*
X135242481Y-90469865D01*
X135036326Y-90373734D01*
X135036317Y-90373730D01*
X134816610Y-90314860D01*
X134816599Y-90314858D01*
X134590002Y-90295034D01*
X134589998Y-90295034D01*
X134363400Y-90314858D01*
X134363389Y-90314860D01*
X134143682Y-90373730D01*
X134143673Y-90373734D01*
X133937513Y-90469868D01*
X133864527Y-90520972D01*
X133864526Y-90520973D01*
X134545600Y-91202046D01*
X134464852Y-91214835D01*
X134351955Y-91272359D01*
X134262359Y-91361955D01*
X134204835Y-91474852D01*
X134192046Y-91555599D01*
X133510973Y-90874526D01*
X133510972Y-90874527D01*
X133459868Y-90947512D01*
X133452656Y-90962979D01*
X133406482Y-91015417D01*
X133339288Y-91034567D01*
X133272407Y-91014350D01*
X133227893Y-90962976D01*
X133220568Y-90947266D01*
X133090047Y-90760861D01*
X133090045Y-90760858D01*
X132929141Y-90599954D01*
X132742734Y-90469432D01*
X132742732Y-90469431D01*
X132536497Y-90373261D01*
X132536488Y-90373258D01*
X132316697Y-90314366D01*
X132316693Y-90314365D01*
X132316692Y-90314365D01*
X132316691Y-90314364D01*
X132316686Y-90314364D01*
X132090002Y-90294532D01*
X132089998Y-90294532D01*
X131863313Y-90314364D01*
X131863302Y-90314366D01*
X131643511Y-90373258D01*
X131643502Y-90373261D01*
X131437267Y-90469431D01*
X131437265Y-90469432D01*
X131250858Y-90599954D01*
X131089954Y-90760858D01*
X130959432Y-90947265D01*
X130959431Y-90947267D01*
X130863261Y-91153502D01*
X130863258Y-91153511D01*
X130804366Y-91373302D01*
X130804364Y-91373313D01*
X130784532Y-91599998D01*
X130784532Y-91600001D01*
X124589649Y-91600001D01*
X124603549Y-91450000D01*
X124603549Y-91449999D01*
X124583397Y-91232523D01*
X124583396Y-91232520D01*
X124523629Y-91022457D01*
X124523626Y-91022451D01*
X124426272Y-90826938D01*
X124413511Y-90810040D01*
X124413510Y-90810040D01*
X123833248Y-91390303D01*
X123822015Y-91319377D01*
X123761975Y-91201541D01*
X123668459Y-91108025D01*
X123550623Y-91047985D01*
X123479696Y-91036751D01*
X124057710Y-90458736D01*
X124057709Y-90458735D01*
X123947556Y-90390531D01*
X123947550Y-90390528D01*
X123743896Y-90311633D01*
X123529201Y-90271500D01*
X123310799Y-90271500D01*
X123096103Y-90311633D01*
X122892449Y-90390528D01*
X122892443Y-90390532D01*
X122782289Y-90458735D01*
X122782288Y-90458736D01*
X123360304Y-91036751D01*
X123289377Y-91047985D01*
X123171541Y-91108025D01*
X123078025Y-91201541D01*
X123017985Y-91319377D01*
X123006751Y-91390303D01*
X122426488Y-90810040D01*
X122413727Y-90826939D01*
X122316373Y-91022451D01*
X122316370Y-91022457D01*
X122256603Y-91232520D01*
X122256602Y-91232523D01*
X122236451Y-91449999D01*
X122236451Y-91450000D01*
X119518999Y-91450000D01*
X119518999Y-90723628D01*
X119512591Y-90664017D01*
X119509603Y-90656007D01*
X119462297Y-90529171D01*
X119462293Y-90529164D01*
X119376047Y-90413955D01*
X119376044Y-90413952D01*
X119260835Y-90327706D01*
X119260828Y-90327702D01*
X119125982Y-90277408D01*
X119125983Y-90277408D01*
X119066383Y-90271001D01*
X119066381Y-90271000D01*
X119066373Y-90271000D01*
X119066364Y-90271000D01*
X117613629Y-90271000D01*
X117613623Y-90271001D01*
X117554016Y-90277408D01*
X117419171Y-90327702D01*
X117419164Y-90327706D01*
X117303955Y-90413952D01*
X117303952Y-90413955D01*
X117217706Y-90529164D01*
X117217702Y-90529171D01*
X117167408Y-90664017D01*
X117161942Y-90714865D01*
X117161001Y-90723623D01*
X117161000Y-90723635D01*
X117161000Y-92176370D01*
X115840000Y-92176370D01*
X115840000Y-89037870D01*
X125519500Y-89037870D01*
X125519501Y-89037876D01*
X125525908Y-89097483D01*
X125576202Y-89232328D01*
X125576206Y-89232335D01*
X125662452Y-89347544D01*
X125662455Y-89347547D01*
X125777664Y-89433793D01*
X125777671Y-89433797D01*
X125912517Y-89484091D01*
X125912516Y-89484091D01*
X125919444Y-89484835D01*
X125972127Y-89490500D01*
X127967872Y-89490499D01*
X128027483Y-89484091D01*
X128162331Y-89433796D01*
X128277546Y-89347546D01*
X128363796Y-89232331D01*
X128376163Y-89199170D01*
X128418033Y-89143237D01*
X128483497Y-89118818D01*
X128551770Y-89133668D01*
X128568508Y-89144649D01*
X128714203Y-89258048D01*
X128714207Y-89258051D01*
X128925544Y-89372421D01*
X128925550Y-89372423D01*
X129152823Y-89450446D01*
X129259999Y-89468330D01*
X129260000Y-89468330D01*
X129260000Y-88175501D01*
X129367685Y-88224680D01*
X129474237Y-88240000D01*
X129545763Y-88240000D01*
X129652315Y-88224680D01*
X129760000Y-88175501D01*
X129760000Y-89468330D01*
X129867176Y-89450446D01*
X130094449Y-89372423D01*
X130094455Y-89372421D01*
X130305790Y-89258052D01*
X130495422Y-89110455D01*
X130658177Y-88933656D01*
X130675891Y-88906543D01*
X130729036Y-88861185D01*
X130798267Y-88851760D01*
X130861603Y-88881260D01*
X130883504Y-88906533D01*
X130901429Y-88933969D01*
X131064236Y-89110825D01*
X131064239Y-89110827D01*
X131064242Y-89110830D01*
X131253924Y-89258466D01*
X131253930Y-89258470D01*
X131253933Y-89258472D01*
X131465344Y-89372882D01*
X131465347Y-89372883D01*
X131692699Y-89450933D01*
X131692701Y-89450933D01*
X131692703Y-89450934D01*
X131929808Y-89490500D01*
X131929809Y-89490500D01*
X132170191Y-89490500D01*
X132170192Y-89490500D01*
X132407297Y-89450934D01*
X132634656Y-89372882D01*
X132846067Y-89258472D01*
X133035764Y-89110825D01*
X133198571Y-88933969D01*
X133330049Y-88732728D01*
X133426610Y-88512591D01*
X133485620Y-88279563D01*
X133500500Y-88099990D01*
X133500500Y-87380010D01*
X133485620Y-87200437D01*
X133426610Y-86967409D01*
X133330049Y-86747272D01*
X133198571Y-86546031D01*
X133035764Y-86369175D01*
X133035759Y-86369171D01*
X133035757Y-86369169D01*
X132846075Y-86221533D01*
X132846069Y-86221529D01*
X132634657Y-86107118D01*
X132634652Y-86107116D01*
X132407300Y-86029066D01*
X132208593Y-85995908D01*
X132170192Y-85989500D01*
X131929808Y-85989500D01*
X131891407Y-85995908D01*
X131692699Y-86029066D01*
X131465347Y-86107116D01*
X131465342Y-86107118D01*
X131253930Y-86221529D01*
X131253924Y-86221533D01*
X131064242Y-86369169D01*
X131064239Y-86369172D01*
X131064236Y-86369174D01*
X131064236Y-86369175D01*
X131063477Y-86370000D01*
X130901428Y-86546031D01*
X130883509Y-86573459D01*
X130830362Y-86618815D01*
X130761130Y-86628238D01*
X130697795Y-86598735D01*
X130675893Y-86573458D01*
X130658178Y-86546344D01*
X130495422Y-86369544D01*
X130305790Y-86221947D01*
X130094455Y-86107578D01*
X130094449Y-86107576D01*
X129867176Y-86029553D01*
X129760000Y-86011668D01*
X129760000Y-87304498D01*
X129652315Y-87255320D01*
X129545763Y-87240000D01*
X129474237Y-87240000D01*
X129367685Y-87255320D01*
X129260000Y-87304498D01*
X129260000Y-86011668D01*
X129259999Y-86011668D01*
X129152823Y-86029553D01*
X128925550Y-86107576D01*
X128925544Y-86107578D01*
X128714209Y-86221948D01*
X128568508Y-86335351D01*
X128503514Y-86360993D01*
X128434974Y-86347426D01*
X128384649Y-86298958D01*
X128376163Y-86280828D01*
X128363796Y-86247669D01*
X128363793Y-86247664D01*
X128277547Y-86132455D01*
X128277544Y-86132452D01*
X128162335Y-86046206D01*
X128162328Y-86046202D01*
X128027482Y-85995908D01*
X128027483Y-85995908D01*
X127967883Y-85989501D01*
X127967881Y-85989500D01*
X127967873Y-85989500D01*
X127967864Y-85989500D01*
X125972129Y-85989500D01*
X125972123Y-85989501D01*
X125912516Y-85995908D01*
X125777671Y-86046202D01*
X125777664Y-86046206D01*
X125662455Y-86132452D01*
X125662452Y-86132455D01*
X125576206Y-86247664D01*
X125576202Y-86247671D01*
X125525908Y-86382517D01*
X125519501Y-86442116D01*
X125519500Y-86442135D01*
X125519500Y-89037870D01*
X115840000Y-89037870D01*
X115840000Y-71540001D01*
X127254671Y-71540001D01*
X127256835Y-71573027D01*
X127256933Y-71579155D01*
X127255723Y-71615367D01*
X127255723Y-71615376D01*
X127266880Y-71726281D01*
X127273965Y-71834376D01*
X127273966Y-71834389D01*
X127281050Y-71870003D01*
X127281930Y-71875891D01*
X127285882Y-71915164D01*
X127310996Y-72020546D01*
X127331516Y-72123711D01*
X127331518Y-72123719D01*
X127344230Y-72161171D01*
X127345831Y-72166727D01*
X127355728Y-72208252D01*
X127355730Y-72208257D01*
X127355731Y-72208261D01*
X127393542Y-72306437D01*
X127425303Y-72400000D01*
X127426348Y-72403076D01*
X127445263Y-72441433D01*
X127447515Y-72446573D01*
X127464019Y-72489428D01*
X127464023Y-72489436D01*
X127513076Y-72578946D01*
X127556822Y-72667655D01*
X127556833Y-72667673D01*
X127582380Y-72705907D01*
X127585199Y-72710557D01*
X127608822Y-72753659D01*
X127608829Y-72753671D01*
X127666671Y-72832175D01*
X127668308Y-72834507D01*
X127709366Y-72895955D01*
X127720727Y-72912957D01*
X127753182Y-72949965D01*
X127756482Y-72954068D01*
X127787551Y-72996235D01*
X127853114Y-73064028D01*
X127855160Y-73066249D01*
X127915242Y-73134758D01*
X127950025Y-73165262D01*
X127954670Y-73169336D01*
X127958358Y-73172849D01*
X127966350Y-73181112D01*
X127997020Y-73212824D01*
X128017760Y-73229202D01*
X128068495Y-73269267D01*
X128070950Y-73271311D01*
X128115067Y-73310000D01*
X128132468Y-73325261D01*
X128137040Y-73329270D01*
X128137040Y-73329271D01*
X128137043Y-73329273D01*
X128168296Y-73350156D01*
X128183336Y-73360205D01*
X128187307Y-73363092D01*
X128233485Y-73399558D01*
X128298204Y-73437891D01*
X128309059Y-73444320D01*
X128311897Y-73446106D01*
X128363617Y-73480665D01*
X128382338Y-73493174D01*
X128399190Y-73501484D01*
X128435187Y-73519236D01*
X128439318Y-73521473D01*
X128473458Y-73541694D01*
X128492717Y-73553102D01*
X128492722Y-73553104D01*
X128492730Y-73553109D01*
X128570665Y-73586156D01*
X128573826Y-73587604D01*
X128646923Y-73623652D01*
X128705759Y-73643624D01*
X128710014Y-73645245D01*
X128770128Y-73670736D01*
X128848640Y-73692242D01*
X128852160Y-73693320D01*
X128926278Y-73718481D01*
X128984967Y-73730154D01*
X128990384Y-73731232D01*
X128994658Y-73732241D01*
X129060729Y-73750340D01*
X129138224Y-73760761D01*
X129142037Y-73761397D01*
X129215620Y-73776034D01*
X129284067Y-73780519D01*
X129288246Y-73780937D01*
X129359347Y-73790500D01*
X129434302Y-73790500D01*
X129438349Y-73790632D01*
X129470372Y-73792731D01*
X129509994Y-73795329D01*
X129510000Y-73795329D01*
X129510004Y-73795329D01*
X129520762Y-73794623D01*
X129582081Y-73790604D01*
X129585222Y-73790500D01*
X129585244Y-73790500D01*
X129658842Y-73785573D01*
X129804380Y-73776034D01*
X129804409Y-73776028D01*
X129805522Y-73775882D01*
X129809478Y-73775489D01*
X129810634Y-73775412D01*
X129953658Y-73746341D01*
X130093722Y-73718481D01*
X130094442Y-73718236D01*
X130102018Y-73716185D01*
X130105903Y-73715396D01*
X130240821Y-73668547D01*
X130373077Y-73623652D01*
X130376687Y-73621871D01*
X130383754Y-73618914D01*
X130390537Y-73616560D01*
X130515220Y-73553554D01*
X130637665Y-73493172D01*
X130643700Y-73489138D01*
X130650164Y-73485364D01*
X130659459Y-73480668D01*
X130772040Y-73403385D01*
X130882957Y-73329273D01*
X130890840Y-73322358D01*
X130896622Y-73317863D01*
X130907869Y-73310144D01*
X131006824Y-73220643D01*
X131104758Y-73134758D01*
X131113799Y-73124446D01*
X131118823Y-73119345D01*
X131131333Y-73108032D01*
X131215443Y-73008545D01*
X131299273Y-72912957D01*
X131308687Y-72898866D01*
X131312895Y-72893279D01*
X131322075Y-72882422D01*
X131325865Y-72877939D01*
X131394276Y-72770775D01*
X131463172Y-72667665D01*
X131472098Y-72649562D01*
X131475441Y-72643631D01*
X131487993Y-72623970D01*
X131540195Y-72511476D01*
X131593652Y-72403077D01*
X131594696Y-72400000D01*
X144860554Y-72400000D01*
X144880295Y-72613047D01*
X144880296Y-72613050D01*
X144938846Y-72818835D01*
X144938849Y-72818841D01*
X144970508Y-72882420D01*
X145034219Y-73010370D01*
X145163159Y-73181114D01*
X145321278Y-73325258D01*
X145321283Y-73325261D01*
X145321286Y-73325263D01*
X145503186Y-73437891D01*
X145503187Y-73437891D01*
X145503190Y-73437893D01*
X145702703Y-73515185D01*
X145913020Y-73554500D01*
X145913022Y-73554500D01*
X146126978Y-73554500D01*
X146126980Y-73554500D01*
X146337297Y-73515185D01*
X146536810Y-73437893D01*
X146718722Y-73325258D01*
X146876841Y-73181114D01*
X147005781Y-73010370D01*
X147101151Y-72818840D01*
X147101151Y-72818837D01*
X147101153Y-72818835D01*
X147138115Y-72688926D01*
X147159704Y-72613048D01*
X147179446Y-72400000D01*
X147159704Y-72186952D01*
X147141714Y-72123724D01*
X147101153Y-71981164D01*
X147101150Y-71981158D01*
X147056298Y-71891082D01*
X147005781Y-71789630D01*
X146876841Y-71618886D01*
X146718722Y-71474742D01*
X146718716Y-71474738D01*
X146718713Y-71474736D01*
X146536813Y-71362108D01*
X146536807Y-71362106D01*
X146337297Y-71284815D01*
X146161153Y-71251888D01*
X146098874Y-71220221D01*
X146063601Y-71159908D01*
X146066535Y-71090100D01*
X146106744Y-71032960D01*
X146161152Y-71008112D01*
X146337297Y-70975185D01*
X146536810Y-70897893D01*
X146718722Y-70785258D01*
X146876841Y-70641114D01*
X147005781Y-70470370D01*
X147101151Y-70278840D01*
X147101151Y-70278837D01*
X147101153Y-70278835D01*
X147138115Y-70148926D01*
X147159704Y-70073048D01*
X147179446Y-69860000D01*
X147178693Y-69851879D01*
X147159704Y-69646952D01*
X147159703Y-69646949D01*
X147156496Y-69635679D01*
X147125544Y-69526891D01*
X147101153Y-69441164D01*
X147101150Y-69441158D01*
X147085268Y-69409262D01*
X147005781Y-69249630D01*
X146876841Y-69078886D01*
X146718722Y-68934742D01*
X146718716Y-68934738D01*
X146718713Y-68934736D01*
X146536813Y-68822108D01*
X146536807Y-68822106D01*
X146337297Y-68744815D01*
X146161153Y-68711888D01*
X146098874Y-68680221D01*
X146063601Y-68619908D01*
X146066535Y-68550100D01*
X146106744Y-68492960D01*
X146161152Y-68468112D01*
X146337297Y-68435185D01*
X146536810Y-68357893D01*
X146718722Y-68245258D01*
X146876841Y-68101114D01*
X147005781Y-67930370D01*
X147101151Y-67738840D01*
X147101151Y-67738837D01*
X147101153Y-67738835D01*
X147146604Y-67579090D01*
X147159704Y-67533048D01*
X147179446Y-67320000D01*
X147178145Y-67305965D01*
X147159704Y-67106952D01*
X147159703Y-67106949D01*
X147101153Y-66901164D01*
X147101150Y-66901158D01*
X147062374Y-66823285D01*
X147005781Y-66709630D01*
X146876841Y-66538886D01*
X146718722Y-66394742D01*
X146718716Y-66394738D01*
X146718713Y-66394736D01*
X146536813Y-66282108D01*
X146536807Y-66282106D01*
X146337297Y-66204815D01*
X146161153Y-66171888D01*
X146098874Y-66140221D01*
X146063601Y-66079908D01*
X146066535Y-66010100D01*
X146106744Y-65952960D01*
X146161152Y-65928112D01*
X146337297Y-65895185D01*
X146536810Y-65817893D01*
X146718722Y-65705258D01*
X146876841Y-65561114D01*
X147005781Y-65390370D01*
X147101151Y-65198840D01*
X147101151Y-65198837D01*
X147101153Y-65198835D01*
X147138208Y-65068597D01*
X147159704Y-64993048D01*
X147179446Y-64780000D01*
X147178145Y-64765965D01*
X147159704Y-64566952D01*
X147159703Y-64566949D01*
X147101153Y-64361164D01*
X147101150Y-64361158D01*
X147056457Y-64271402D01*
X147005781Y-64169630D01*
X146876841Y-63998886D01*
X146718722Y-63854742D01*
X146718716Y-63854738D01*
X146718713Y-63854736D01*
X146536813Y-63742108D01*
X146536807Y-63742106D01*
X146337297Y-63664815D01*
X146161153Y-63631888D01*
X146098874Y-63600221D01*
X146063601Y-63539908D01*
X146066535Y-63470100D01*
X146106744Y-63412960D01*
X146161152Y-63388112D01*
X146337297Y-63355185D01*
X146536810Y-63277893D01*
X146718722Y-63165258D01*
X146876841Y-63021114D01*
X147005781Y-62850370D01*
X147101151Y-62658840D01*
X147101151Y-62658837D01*
X147101153Y-62658835D01*
X147159703Y-62453050D01*
X147159704Y-62453048D01*
X147179446Y-62240000D01*
X147178145Y-62225965D01*
X147159704Y-62026952D01*
X147159703Y-62026949D01*
X147101153Y-61821164D01*
X147101150Y-61821158D01*
X147056457Y-61731402D01*
X147005781Y-61629630D01*
X146876841Y-61458886D01*
X146718722Y-61314742D01*
X146718716Y-61314738D01*
X146718713Y-61314736D01*
X146536813Y-61202108D01*
X146536807Y-61202106D01*
X146532538Y-61200452D01*
X146337297Y-61124815D01*
X146161153Y-61091888D01*
X146098874Y-61060221D01*
X146063601Y-60999908D01*
X146066535Y-60930100D01*
X146106744Y-60872960D01*
X146161152Y-60848112D01*
X146337297Y-60815185D01*
X146536810Y-60737893D01*
X146718722Y-60625258D01*
X146876841Y-60481114D01*
X147005781Y-60310370D01*
X147101151Y-60118840D01*
X147101151Y-60118837D01*
X147101153Y-60118835D01*
X147134679Y-60001000D01*
X147159704Y-59913048D01*
X147164002Y-59866674D01*
X147179446Y-59700000D01*
X147179446Y-59699999D01*
X147159704Y-59486952D01*
X147159703Y-59486949D01*
X147101153Y-59281164D01*
X147101150Y-59281158D01*
X147069643Y-59217883D01*
X147005781Y-59089630D01*
X146876841Y-58918886D01*
X146718722Y-58774742D01*
X146718716Y-58774738D01*
X146718713Y-58774736D01*
X146536813Y-58662108D01*
X146536807Y-58662106D01*
X146337297Y-58584815D01*
X146161153Y-58551888D01*
X146098874Y-58520221D01*
X146063601Y-58459908D01*
X146066535Y-58390100D01*
X146106744Y-58332960D01*
X146161152Y-58308112D01*
X146337297Y-58275185D01*
X146536810Y-58197893D01*
X146718722Y-58085258D01*
X146876841Y-57941114D01*
X147005781Y-57770370D01*
X147101151Y-57578840D01*
X147101151Y-57578837D01*
X147101153Y-57578835D01*
X147137039Y-57452706D01*
X147159704Y-57373048D01*
X147179446Y-57160000D01*
X147161793Y-56969501D01*
X147159704Y-56946952D01*
X147159703Y-56946949D01*
X147101153Y-56741164D01*
X147101150Y-56741158D01*
X147005781Y-56549630D01*
X146876841Y-56378886D01*
X146718722Y-56234742D01*
X146718716Y-56234738D01*
X146718713Y-56234736D01*
X146536813Y-56122108D01*
X146536807Y-56122106D01*
X146337297Y-56044815D01*
X146206622Y-56020387D01*
X146144342Y-55988720D01*
X146109069Y-55928407D01*
X146112003Y-55858599D01*
X146152212Y-55801459D01*
X146216930Y-55775128D01*
X146229401Y-55774499D01*
X146721872Y-55774499D01*
X146781483Y-55768091D01*
X146916331Y-55717796D01*
X147031546Y-55631546D01*
X147117796Y-55516331D01*
X147168091Y-55381483D01*
X147174500Y-55321873D01*
X147174499Y-53918128D01*
X147169299Y-53869757D01*
X147168091Y-53858516D01*
X147117797Y-53723671D01*
X147117793Y-53723664D01*
X147031547Y-53608455D01*
X147031544Y-53608452D01*
X146916335Y-53522206D01*
X146916328Y-53522202D01*
X146781482Y-53471908D01*
X146781483Y-53471908D01*
X146721883Y-53465501D01*
X146721881Y-53465500D01*
X146721873Y-53465500D01*
X146721864Y-53465500D01*
X145318129Y-53465500D01*
X145318123Y-53465501D01*
X145258516Y-53471908D01*
X145123671Y-53522202D01*
X145123664Y-53522206D01*
X145008455Y-53608452D01*
X145008452Y-53608455D01*
X144922206Y-53723664D01*
X144922202Y-53723671D01*
X144871908Y-53858517D01*
X144871555Y-53861805D01*
X144865501Y-53918123D01*
X144865500Y-53918135D01*
X144865500Y-55321870D01*
X144865501Y-55321876D01*
X144871908Y-55381483D01*
X144922202Y-55516328D01*
X144922206Y-55516335D01*
X145008452Y-55631544D01*
X145008455Y-55631547D01*
X145123664Y-55717793D01*
X145123671Y-55717797D01*
X145258517Y-55768091D01*
X145258516Y-55768091D01*
X145265444Y-55768835D01*
X145318127Y-55774500D01*
X145810592Y-55774499D01*
X145877629Y-55794183D01*
X145923384Y-55846987D01*
X145933328Y-55916146D01*
X145904303Y-55979702D01*
X145845525Y-56017476D01*
X145833375Y-56020388D01*
X145702703Y-56044815D01*
X145576533Y-56093693D01*
X145503192Y-56122106D01*
X145503186Y-56122108D01*
X145321286Y-56234736D01*
X145321283Y-56234738D01*
X145321279Y-56234740D01*
X145321278Y-56234742D01*
X145163159Y-56378886D01*
X145163158Y-56378887D01*
X145034219Y-56549629D01*
X144938849Y-56741158D01*
X144938846Y-56741164D01*
X144880296Y-56946949D01*
X144880295Y-56946952D01*
X144860554Y-57159999D01*
X144860554Y-57160000D01*
X144880295Y-57373047D01*
X144880296Y-57373050D01*
X144938846Y-57578835D01*
X144938849Y-57578840D01*
X145034219Y-57770370D01*
X145163159Y-57941114D01*
X145321278Y-58085258D01*
X145321283Y-58085261D01*
X145321286Y-58085263D01*
X145503186Y-58197891D01*
X145503187Y-58197891D01*
X145503190Y-58197893D01*
X145702703Y-58275185D01*
X145878845Y-58308111D01*
X145941125Y-58339779D01*
X145976398Y-58400092D01*
X145973464Y-58469900D01*
X145933255Y-58527040D01*
X145878845Y-58551888D01*
X145702703Y-58584815D01*
X145576533Y-58633693D01*
X145503192Y-58662106D01*
X145503186Y-58662108D01*
X145321286Y-58774736D01*
X145321283Y-58774738D01*
X145321279Y-58774740D01*
X145321278Y-58774742D01*
X145163159Y-58918886D01*
X145163158Y-58918887D01*
X145034219Y-59089629D01*
X144938849Y-59281158D01*
X144938846Y-59281164D01*
X144880296Y-59486949D01*
X144880295Y-59486952D01*
X144860554Y-59699999D01*
X144860554Y-59700000D01*
X144880295Y-59913041D01*
X144880296Y-59913050D01*
X144938846Y-60118835D01*
X144938849Y-60118841D01*
X145034219Y-60310370D01*
X145163159Y-60481114D01*
X145321278Y-60625258D01*
X145321283Y-60625261D01*
X145321286Y-60625263D01*
X145503186Y-60737891D01*
X145503187Y-60737891D01*
X145503190Y-60737893D01*
X145702703Y-60815185D01*
X145878845Y-60848111D01*
X145941125Y-60879779D01*
X145976398Y-60940092D01*
X145973464Y-61009900D01*
X145933255Y-61067040D01*
X145878845Y-61091888D01*
X145702703Y-61124815D01*
X145576533Y-61173693D01*
X145503192Y-61202106D01*
X145503186Y-61202108D01*
X145321286Y-61314736D01*
X145321283Y-61314738D01*
X145321279Y-61314740D01*
X145321278Y-61314742D01*
X145163159Y-61458886D01*
X145163158Y-61458887D01*
X145034219Y-61629629D01*
X144938849Y-61821158D01*
X144938846Y-61821164D01*
X144880296Y-62026949D01*
X144880295Y-62026952D01*
X144860554Y-62239999D01*
X144860554Y-62240000D01*
X144880295Y-62453041D01*
X144880296Y-62453050D01*
X144938846Y-62658835D01*
X144938849Y-62658840D01*
X145034219Y-62850370D01*
X145163159Y-63021114D01*
X145321278Y-63165258D01*
X145321283Y-63165261D01*
X145321286Y-63165263D01*
X145503186Y-63277891D01*
X145503187Y-63277891D01*
X145503190Y-63277893D01*
X145702703Y-63355185D01*
X145878845Y-63388111D01*
X145941125Y-63419779D01*
X145976398Y-63480092D01*
X145973464Y-63549900D01*
X145933255Y-63607040D01*
X145878845Y-63631888D01*
X145702703Y-63664815D01*
X145576533Y-63713693D01*
X145503192Y-63742106D01*
X145503186Y-63742108D01*
X145321286Y-63854736D01*
X145321283Y-63854738D01*
X145321279Y-63854740D01*
X145321278Y-63854742D01*
X145163159Y-63998886D01*
X145163158Y-63998887D01*
X145034219Y-64169629D01*
X144938849Y-64361158D01*
X144938846Y-64361164D01*
X144880296Y-64566949D01*
X144880295Y-64566952D01*
X144860554Y-64779999D01*
X144860554Y-64780000D01*
X144880295Y-64993041D01*
X144880296Y-64993050D01*
X144938846Y-65198835D01*
X144938849Y-65198840D01*
X145034219Y-65390370D01*
X145163159Y-65561114D01*
X145321278Y-65705258D01*
X145321283Y-65705261D01*
X145321286Y-65705263D01*
X145503186Y-65817891D01*
X145503187Y-65817891D01*
X145503190Y-65817893D01*
X145702703Y-65895185D01*
X145878845Y-65928111D01*
X145941125Y-65959779D01*
X145976398Y-66020092D01*
X145973464Y-66089900D01*
X145933255Y-66147040D01*
X145878845Y-66171888D01*
X145702703Y-66204815D01*
X145576533Y-66253693D01*
X145503192Y-66282106D01*
X145503186Y-66282108D01*
X145321286Y-66394736D01*
X145321283Y-66394738D01*
X145321279Y-66394740D01*
X145321278Y-66394742D01*
X145163159Y-66538886D01*
X145163158Y-66538887D01*
X145034219Y-66709629D01*
X144938849Y-66901158D01*
X144938846Y-66901164D01*
X144880296Y-67106949D01*
X144880295Y-67106952D01*
X144860554Y-67319999D01*
X144860554Y-67320000D01*
X144880295Y-67533041D01*
X144880296Y-67533050D01*
X144938846Y-67738835D01*
X144938849Y-67738840D01*
X145034219Y-67930370D01*
X145163159Y-68101114D01*
X145321278Y-68245258D01*
X145321283Y-68245261D01*
X145321286Y-68245263D01*
X145503186Y-68357891D01*
X145503187Y-68357891D01*
X145503190Y-68357893D01*
X145702703Y-68435185D01*
X145878845Y-68468111D01*
X145941125Y-68499779D01*
X145976398Y-68560092D01*
X145973464Y-68629900D01*
X145933255Y-68687040D01*
X145878845Y-68711888D01*
X145702703Y-68744815D01*
X145576533Y-68793693D01*
X145503192Y-68822106D01*
X145503186Y-68822108D01*
X145321286Y-68934736D01*
X145321283Y-68934738D01*
X145321279Y-68934740D01*
X145321278Y-68934742D01*
X145163159Y-69078886D01*
X145163158Y-69078887D01*
X145034219Y-69249629D01*
X144938849Y-69441158D01*
X144938846Y-69441164D01*
X144880296Y-69646949D01*
X144880295Y-69646952D01*
X144860554Y-69859999D01*
X144860554Y-69860000D01*
X144880295Y-70073047D01*
X144880296Y-70073050D01*
X144938846Y-70278835D01*
X144938849Y-70278841D01*
X144970508Y-70342420D01*
X145034219Y-70470370D01*
X145163159Y-70641114D01*
X145321278Y-70785258D01*
X145321283Y-70785261D01*
X145321286Y-70785263D01*
X145503186Y-70897891D01*
X145503187Y-70897891D01*
X145503190Y-70897893D01*
X145702703Y-70975185D01*
X145878845Y-71008111D01*
X145941125Y-71039779D01*
X145976398Y-71100092D01*
X145973464Y-71169900D01*
X145933255Y-71227040D01*
X145878845Y-71251888D01*
X145702703Y-71284815D01*
X145626772Y-71314231D01*
X145503192Y-71362106D01*
X145503186Y-71362108D01*
X145321286Y-71474736D01*
X145321283Y-71474738D01*
X145321279Y-71474740D01*
X145321278Y-71474742D01*
X145206742Y-71579155D01*
X145163158Y-71618887D01*
X145034219Y-71789629D01*
X144938849Y-71981158D01*
X144938846Y-71981164D01*
X144880296Y-72186949D01*
X144880295Y-72186952D01*
X144860554Y-72399999D01*
X144860554Y-72400000D01*
X131594696Y-72400000D01*
X131601179Y-72380899D01*
X131603641Y-72374752D01*
X131614823Y-72350658D01*
X131650632Y-72235219D01*
X131688481Y-72123722D01*
X131693677Y-72097597D01*
X131695271Y-72091316D01*
X131704093Y-72062879D01*
X131723676Y-71946782D01*
X131746034Y-71834380D01*
X131747987Y-71804576D01*
X131748714Y-71798342D01*
X131754209Y-71765770D01*
X131758038Y-71651231D01*
X131760389Y-71615367D01*
X131765329Y-71540005D01*
X131765329Y-71540001D01*
X131765329Y-71540000D01*
X131763162Y-71506955D01*
X131763065Y-71500849D01*
X131764277Y-71464631D01*
X131753119Y-71353718D01*
X131746034Y-71245620D01*
X131738944Y-71209977D01*
X131738068Y-71204107D01*
X131734676Y-71170392D01*
X131734118Y-71164838D01*
X131709003Y-71059454D01*
X131688481Y-70956278D01*
X131675764Y-70918816D01*
X131674169Y-70913283D01*
X131664269Y-70871739D01*
X131626457Y-70773562D01*
X131593652Y-70676923D01*
X131574732Y-70638556D01*
X131572485Y-70633429D01*
X131555977Y-70590566D01*
X131517306Y-70520000D01*
X131506919Y-70501046D01*
X131463173Y-70412339D01*
X131463172Y-70412336D01*
X131437612Y-70374083D01*
X131434798Y-70369444D01*
X131411175Y-70326335D01*
X131353312Y-70247802D01*
X131351706Y-70245514D01*
X131299273Y-70167043D01*
X131266817Y-70130033D01*
X131263516Y-70125930D01*
X131232450Y-70083768D01*
X131232446Y-70083762D01*
X131212801Y-70063449D01*
X131166884Y-70015970D01*
X131164838Y-70013749D01*
X131104760Y-69945244D01*
X131065322Y-69910656D01*
X131061635Y-69907144D01*
X131022981Y-69867176D01*
X130951514Y-69810740D01*
X130949059Y-69808696D01*
X130882960Y-69750729D01*
X130836656Y-69719788D01*
X130832677Y-69716894D01*
X130786517Y-69680443D01*
X130741931Y-69654035D01*
X130710918Y-69635666D01*
X130708089Y-69633884D01*
X130637666Y-69586828D01*
X130584821Y-69560767D01*
X130580668Y-69558518D01*
X130527270Y-69526891D01*
X130527266Y-69526889D01*
X130527262Y-69526887D01*
X130497641Y-69514327D01*
X130449346Y-69493847D01*
X130446157Y-69492386D01*
X130373075Y-69456347D01*
X130314243Y-69436375D01*
X130309969Y-69434746D01*
X130271174Y-69418297D01*
X130249872Y-69409264D01*
X130249868Y-69409263D01*
X130249866Y-69409262D01*
X130171365Y-69387757D01*
X130167815Y-69386670D01*
X130093734Y-69361522D01*
X130093723Y-69361519D01*
X130093722Y-69361519D01*
X130029608Y-69348765D01*
X130025333Y-69347756D01*
X129959281Y-69329662D01*
X129959265Y-69329658D01*
X129881792Y-69319239D01*
X129877962Y-69318601D01*
X129831006Y-69309262D01*
X129804380Y-69303966D01*
X129804377Y-69303965D01*
X129804374Y-69303965D01*
X129735959Y-69299481D01*
X129731750Y-69299061D01*
X129697282Y-69294426D01*
X129660653Y-69289500D01*
X129660650Y-69289500D01*
X129585698Y-69289500D01*
X129581650Y-69289367D01*
X129549627Y-69287268D01*
X129510006Y-69284671D01*
X129510002Y-69284671D01*
X129510000Y-69284671D01*
X129461934Y-69287821D01*
X129437985Y-69289391D01*
X129434765Y-69289499D01*
X129361157Y-69294426D01*
X129215620Y-69303965D01*
X129214420Y-69304123D01*
X129210506Y-69304511D01*
X129209375Y-69304587D01*
X129209372Y-69304587D01*
X129209366Y-69304588D01*
X129066341Y-69333658D01*
X128926277Y-69361518D01*
X128926270Y-69361520D01*
X128925508Y-69361779D01*
X128917943Y-69363822D01*
X128914098Y-69364603D01*
X128850548Y-69386670D01*
X128779178Y-69411452D01*
X128733442Y-69426977D01*
X128646927Y-69456346D01*
X128646922Y-69456348D01*
X128643320Y-69458124D01*
X128636241Y-69461086D01*
X128629462Y-69463440D01*
X128504757Y-69526456D01*
X128382343Y-69586823D01*
X128382328Y-69586832D01*
X128376301Y-69590858D01*
X128369828Y-69594637D01*
X128360544Y-69599329D01*
X128247943Y-69676625D01*
X128137043Y-69750727D01*
X128129156Y-69757642D01*
X128123373Y-69762138D01*
X128112132Y-69769854D01*
X128013175Y-69859356D01*
X127915241Y-69945242D01*
X127906196Y-69955555D01*
X127901175Y-69960653D01*
X127888668Y-69971966D01*
X127804556Y-70071454D01*
X127720726Y-70167042D01*
X127711308Y-70181136D01*
X127707106Y-70186716D01*
X127694141Y-70202052D01*
X127694140Y-70202053D01*
X127625715Y-70309237D01*
X127556830Y-70412331D01*
X127547905Y-70430427D01*
X127544560Y-70436362D01*
X127532006Y-70456031D01*
X127479801Y-70568530D01*
X127426350Y-70676918D01*
X127426345Y-70676930D01*
X127418822Y-70699089D01*
X127416353Y-70705257D01*
X127405176Y-70729344D01*
X127405171Y-70729358D01*
X127369367Y-70844780D01*
X127331518Y-70956279D01*
X127331516Y-70956288D01*
X127326320Y-70982410D01*
X127324728Y-70988683D01*
X127315907Y-71017119D01*
X127301911Y-71100092D01*
X127296323Y-71133217D01*
X127281051Y-71210002D01*
X127273965Y-71245627D01*
X127273964Y-71245628D01*
X127272012Y-71275416D01*
X127271281Y-71281673D01*
X127265791Y-71314231D01*
X127261961Y-71428768D01*
X127254671Y-71540001D01*
X115840000Y-71540001D01*
X115840000Y-51385330D01*
X115859685Y-51318291D01*
X115912489Y-51272536D01*
X115981647Y-51262592D01*
X116045203Y-51291617D01*
X116082977Y-51350395D01*
X116083480Y-51352157D01*
X116167672Y-51655392D01*
X116167674Y-51655399D01*
X116300142Y-51987870D01*
X116300151Y-51987888D01*
X116467784Y-52304077D01*
X116467790Y-52304086D01*
X116668634Y-52600309D01*
X116668641Y-52600319D01*
X116900331Y-52873085D01*
X116900332Y-52873086D01*
X117160163Y-53119211D01*
X117445081Y-53335800D01*
X117751747Y-53520315D01*
X117751749Y-53520316D01*
X117751751Y-53520317D01*
X117751755Y-53520319D01*
X118076552Y-53670585D01*
X118076565Y-53670591D01*
X118415726Y-53784868D01*
X118765254Y-53861805D01*
X119121052Y-53900500D01*
X119121058Y-53900500D01*
X119478942Y-53900500D01*
X119478948Y-53900500D01*
X119834746Y-53861805D01*
X120184274Y-53784868D01*
X120523435Y-53670591D01*
X120848253Y-53520315D01*
X121154919Y-53335800D01*
X121439837Y-53119211D01*
X121699668Y-52873086D01*
X121931365Y-52600311D01*
X122132211Y-52304085D01*
X122299853Y-51987880D01*
X122432324Y-51655403D01*
X122528071Y-51310552D01*
X122563457Y-51094705D01*
X122585970Y-50957385D01*
X122585970Y-50957382D01*
X122585972Y-50957371D01*
X122605348Y-50600000D01*
X122585972Y-50242629D01*
X122569966Y-50144999D01*
X122528073Y-49889460D01*
X122528072Y-49889459D01*
X122528071Y-49889448D01*
X122432324Y-49544597D01*
X122299853Y-49212120D01*
X122132211Y-48895915D01*
X121931365Y-48599689D01*
X121931361Y-48599684D01*
X121931358Y-48599680D01*
X121699668Y-48326914D01*
X121439837Y-48080789D01*
X121439830Y-48080783D01*
X121439827Y-48080781D01*
X121372245Y-48029407D01*
X121154919Y-47864200D01*
X120848253Y-47679685D01*
X120848252Y-47679684D01*
X120848248Y-47679682D01*
X120848244Y-47679680D01*
X120523447Y-47529414D01*
X120523441Y-47529411D01*
X120523435Y-47529409D01*
X120353854Y-47472270D01*
X120184273Y-47415131D01*
X119868392Y-47345601D01*
X119807151Y-47311965D01*
X119773817Y-47250560D01*
X119778973Y-47180881D01*
X119820982Y-47125050D01*
X119886506Y-47100795D01*
X119895048Y-47100500D01*
X173204952Y-47100500D01*
X173271991Y-47120185D01*
G37*
%TD.AperFunction*%
%TD*%
M02*
