%TF.GenerationSoftware,KiCad,Pcbnew,7.0.9*%
%TF.CreationDate,2025-08-10T16:09:38+02:00*%
%TF.ProjectId,Kicad_Projet_Sons_HW896_V1,4b696361-645f-4507-926f-6a65745f536f,rev?*%
%TF.SameCoordinates,Original*%
%TF.FileFunction,Copper,L1,Top*%
%TF.FilePolarity,Positive*%
%FSLAX46Y46*%
G04 Gerber Fmt 4.6, Leading zero omitted, Abs format (unit mm)*
G04 Created by KiCad (PCBNEW 7.0.9) date 2025-08-10 16:09:38*
%MOMM*%
%LPD*%
G01*
G04 APERTURE LIST*
%TA.AperFunction,SMDPad,CuDef*%
%ADD10R,4.100000X2.000000*%
%TD*%
%TA.AperFunction,ComponentPad*%
%ADD11C,5.600000*%
%TD*%
%TA.AperFunction,ComponentPad*%
%ADD12R,1.357000X1.357000*%
%TD*%
%TA.AperFunction,ComponentPad*%
%ADD13C,1.357000*%
%TD*%
%TA.AperFunction,ComponentPad*%
%ADD14R,1.800000X1.800000*%
%TD*%
%TA.AperFunction,ComponentPad*%
%ADD15C,1.800000*%
%TD*%
%TA.AperFunction,ComponentPad*%
%ADD16C,1.650000*%
%TD*%
%TA.AperFunction,ComponentPad*%
%ADD17R,2.200000X2.200000*%
%TD*%
%TA.AperFunction,ComponentPad*%
%ADD18O,2.200000X2.200000*%
%TD*%
%TA.AperFunction,ComponentPad*%
%ADD19R,1.000000X1.000000*%
%TD*%
%TA.AperFunction,SMDPad,CuDef*%
%ADD20R,3.500000X1.850000*%
%TD*%
%TA.AperFunction,ComponentPad*%
%ADD21C,2.000000*%
%TD*%
%TA.AperFunction,ComponentPad*%
%ADD22C,1.600000*%
%TD*%
%TA.AperFunction,ComponentPad*%
%ADD23R,1.308000X1.308000*%
%TD*%
%TA.AperFunction,ComponentPad*%
%ADD24C,1.308000*%
%TD*%
%TA.AperFunction,ComponentPad*%
%ADD25R,1.900000X2.500000*%
%TD*%
%TA.AperFunction,ComponentPad*%
%ADD26O,1.900000X2.500000*%
%TD*%
%TA.AperFunction,ViaPad*%
%ADD27C,0.800000*%
%TD*%
%TA.AperFunction,Conductor*%
%ADD28C,0.250000*%
%TD*%
G04 APERTURE END LIST*
D10*
%TO.P,C2,1,+*%
%TO.N,Net-(C2-+)*%
X123190000Y-95250000D03*
%TO.P,C2,2,-*%
%TO.N,GND*%
X131890000Y-95250000D03*
%TD*%
D11*
%TO.P,REF3,1*%
%TO.N,N/C*%
X173990000Y-104140000D03*
%TD*%
D12*
%TO.P,C1,1,1*%
%TO.N,Net-(C2-+)*%
X121920000Y-86360000D03*
D13*
%TO.P,C1,2,2*%
%TO.N,GND*%
X127000000Y-86360000D03*
%TD*%
D14*
%TO.P,D3,1,K*%
%TO.N,GND*%
X139700000Y-93980000D03*
D15*
%TO.P,D3,2,A*%
%TO.N,Net-(D3-A)*%
X142240000Y-93980000D03*
%TD*%
D16*
%TO.P,J2,1,1*%
%TO.N,Net-(U2-SPK-)*%
X167894000Y-93980000D03*
%TO.P,J2,2,2*%
%TO.N,Net-(U2-SPK+)*%
X162894000Y-93980000D03*
%TD*%
D17*
%TO.P,D1,1,K*%
%TO.N,Net-(C2-+)*%
X173990000Y-86360000D03*
D18*
%TO.P,D1,2,A*%
%TO.N,Net-(D1-A)*%
X163830000Y-86360000D03*
%TD*%
D11*
%TO.P,REF2,1*%
%TO.N,N/C*%
X173990000Y-50800000D03*
%TD*%
D19*
%TO.P,J6,1,Pin_1*%
%TO.N,Net-(J6-Pin_1)*%
X169799000Y-67420000D03*
%TD*%
%TO.P,J4,1,Pin_1*%
%TO.N,Net-(J4-Pin_1)*%
X169799000Y-60720000D03*
%TD*%
D20*
%TO.P,C4,1,+*%
%TO.N,+4V*%
X150175000Y-82804000D03*
%TO.P,C4,2,-*%
%TO.N,GND*%
X155575000Y-82804000D03*
%TD*%
D19*
%TO.P,J3,1,Pin_1*%
%TO.N,Net-(J3-Pin_1)*%
X169799000Y-57370000D03*
%TD*%
D11*
%TO.P,REF1,1*%
%TO.N,N/C*%
X116840000Y-50800000D03*
%TD*%
D21*
%TO.P,R1,1*%
%TO.N,Net-(D2-A)*%
X137160000Y-100330000D03*
%TO.P,R1,2*%
%TO.N,Net-(D3-A)*%
X144780000Y-100330000D03*
%TD*%
D22*
%TO.P,C3,1*%
%TO.N,Net-(D2-A)*%
X139740000Y-86360000D03*
%TO.P,C3,2*%
%TO.N,GND*%
X142240000Y-86360000D03*
%TD*%
D19*
%TO.P,J8,1,Pin_1*%
%TO.N,GND*%
X169799000Y-74120000D03*
%TD*%
%TO.P,J9,1,Pin_1*%
%TO.N,GND*%
X169799000Y-77470000D03*
%TD*%
D23*
%TO.P,U2,1,K1*%
%TO.N,Net-(J3-Pin_1)*%
X149860000Y-54610000D03*
D24*
%TO.P,U2,2,K2*%
%TO.N,Net-(J4-Pin_1)*%
X149860000Y-57150000D03*
%TO.P,U2,3,K3*%
%TO.N,Net-(J5-Pin_1)*%
X149860000Y-59690000D03*
%TO.P,U2,4,K4*%
%TO.N,Net-(J6-Pin_1)*%
X149860000Y-62230000D03*
%TO.P,U2,5,K5*%
%TO.N,Net-(J7-Pin_1)*%
X149860000Y-64770000D03*
%TO.P,U2,6,SGND*%
%TO.N,unconnected-(U2-SGND-Pad6)*%
X149860000Y-67310000D03*
%TO.P,U2,7,ADKEY*%
%TO.N,unconnected-(U2-ADKEY-Pad7)*%
X149860000Y-69850000D03*
%TO.P,U2,8,Busy*%
%TO.N,unconnected-(U2-Busy-Pad8)*%
X149860000Y-72390000D03*
%TO.P,U2,9,RX*%
%TO.N,unconnected-(U2-RX-Pad9)*%
X165100000Y-72390000D03*
%TO.P,U2,10,TX*%
%TO.N,unconnected-(U2-TX-Pad10)*%
X165100000Y-69850000D03*
%TO.P,U2,11,GND*%
%TO.N,GND*%
X165100000Y-67310000D03*
%TO.P,U2,12,VCC*%
%TO.N,+4V*%
X165100000Y-64770000D03*
%TO.P,U2,13,Dac_R*%
%TO.N,unconnected-(U2-Dac_R-Pad13)*%
X165100000Y-62230000D03*
%TO.P,U2,14,Dac_L*%
%TO.N,unconnected-(U2-Dac_L-Pad14)*%
X165100000Y-59690000D03*
%TO.P,U2,15,SPK-*%
%TO.N,Net-(U2-SPK-)*%
X165100000Y-57150000D03*
%TO.P,U2,16,SPK+*%
%TO.N,Net-(U2-SPK+)*%
X165100000Y-54610000D03*
%TD*%
D11*
%TO.P,REF4,1*%
%TO.N,N/C*%
X116840000Y-104140000D03*
%TD*%
D19*
%TO.P,J5,1,Pin_1*%
%TO.N,Net-(J5-Pin_1)*%
X169799000Y-64070000D03*
%TD*%
D16*
%TO.P,J1,1,1*%
%TO.N,Net-(D1-A)*%
X155321000Y-93980000D03*
%TO.P,J1,2,2*%
%TO.N,GND*%
X150321000Y-93980000D03*
%TD*%
D25*
%TO.P,U1,1,VI*%
%TO.N,Net-(C2-+)*%
X130810000Y-84399000D03*
D26*
%TO.P,U1,2,GND*%
%TO.N,GND*%
X133350000Y-84399000D03*
%TO.P,U1,3,VO*%
%TO.N,Net-(D2-A)*%
X135890000Y-84399000D03*
%TD*%
D19*
%TO.P,J7,1,Pin_1*%
%TO.N,Net-(J7-Pin_1)*%
X169799000Y-70770000D03*
%TD*%
D17*
%TO.P,D2,1,K*%
%TO.N,+4V*%
X173990000Y-81280000D03*
D18*
%TO.P,D2,2,A*%
%TO.N,Net-(D2-A)*%
X163830000Y-81280000D03*
%TD*%
D27*
%TO.N,GND*%
X157938000Y-83091700D03*
X131058200Y-93624900D03*
%TD*%
D28*
%TO.N,Net-(C2-+)*%
X130810000Y-84399000D02*
X124884800Y-84399000D01*
X171121800Y-87802900D02*
X134213900Y-87802900D01*
X173990000Y-86360000D02*
X172564700Y-86360000D01*
X122421900Y-86360000D02*
X122421900Y-93156600D01*
X121920000Y-86360000D02*
X122421900Y-86360000D01*
X134213900Y-87802900D02*
X130810000Y-84399000D01*
X123190000Y-95250000D02*
X123190000Y-93924700D01*
X124884800Y-84399000D02*
X122923800Y-86360000D01*
X122421900Y-93156600D02*
X123190000Y-93924700D01*
X122421900Y-86360000D02*
X122923800Y-86360000D01*
X172564700Y-86360000D02*
X171121800Y-87802900D01*
%TO.N,GND*%
X131058200Y-93624900D02*
X131358000Y-93924700D01*
X157650300Y-82804000D02*
X157938000Y-83091700D01*
X131890000Y-95250000D02*
X131890000Y-93924700D01*
X155575000Y-82804000D02*
X157650300Y-82804000D01*
X131358000Y-93924700D02*
X131890000Y-93924700D01*
%TO.N,Net-(D2-A)*%
X141165400Y-84934600D02*
X158750100Y-84934600D01*
X139740000Y-86360000D02*
X141165400Y-84934600D01*
X163830000Y-81280000D02*
X162404700Y-81280000D01*
X158750100Y-84934600D02*
X162404700Y-81280000D01*
%TO.N,+4V*%
X170624400Y-79854700D02*
X171139400Y-79854700D01*
X165100000Y-64770000D02*
X168682700Y-64770000D01*
X173990000Y-81280000D02*
X172564700Y-81280000D01*
X170624400Y-66711700D02*
X170624400Y-79854700D01*
X150175000Y-81553700D02*
X151874000Y-79854700D01*
X151874000Y-79854700D02*
X170624400Y-79854700D01*
X168682700Y-64770000D02*
X170624400Y-66711700D01*
X171139400Y-79854700D02*
X172564700Y-81280000D01*
X150175000Y-82804000D02*
X150175000Y-81553700D01*
%TO.N,Net-(J3-Pin_1)*%
X169799000Y-57370000D02*
X168973700Y-57370000D01*
X151818600Y-55589300D02*
X167193000Y-55589300D01*
X150839300Y-54610000D02*
X151818600Y-55589300D01*
X149860000Y-54610000D02*
X150839300Y-54610000D01*
X167193000Y-55589300D02*
X168973700Y-57370000D01*
%TO.N,Net-(J4-Pin_1)*%
X149860000Y-57150000D02*
X153430000Y-60720000D01*
X153430000Y-60720000D02*
X169799000Y-60720000D01*
%TO.N,Net-(J5-Pin_1)*%
X169799000Y-64070000D02*
X168973700Y-64070000D01*
X153670000Y-63500000D02*
X168403700Y-63500000D01*
X149860000Y-59690000D02*
X153670000Y-63500000D01*
X168403700Y-63500000D02*
X168973700Y-64070000D01*
%TO.N,Net-(J6-Pin_1)*%
X169799000Y-67420000D02*
X168973700Y-67420000D01*
X153670000Y-66040000D02*
X167593700Y-66040000D01*
X149860000Y-62230000D02*
X153670000Y-66040000D01*
X167593700Y-66040000D02*
X168973700Y-67420000D01*
%TO.N,Net-(J7-Pin_1)*%
X166783700Y-68580000D02*
X168973700Y-70770000D01*
X153670000Y-68580000D02*
X166783700Y-68580000D01*
X169799000Y-70770000D02*
X168973700Y-70770000D01*
X149860000Y-64770000D02*
X153670000Y-68580000D01*
%TD*%
M02*
