%TF.GenerationSoftware,KiCad,Pcbnew,7.0.9*%
%TF.CreationDate,2025-08-10T16:09:38+02:00*%
%TF.ProjectId,Kicad_Projet_Sons_HW896_V1,4b696361-645f-4507-926f-6a65745f536f,rev?*%
%TF.SameCoordinates,Original*%
%TF.FileFunction,Copper,L2,Bot*%
%TF.FilePolarity,Positive*%
%FSLAX46Y46*%
G04 Gerber Fmt 4.6, Leading zero omitted, Abs format (unit mm)*
G04 Created by KiCad (PCBNEW 7.0.9) date 2025-08-10 16:09:38*
%MOMM*%
%LPD*%
G01*
G04 APERTURE LIST*
%TA.AperFunction,ComponentPad*%
%ADD10C,5.600000*%
%TD*%
%TA.AperFunction,ComponentPad*%
%ADD11R,1.357000X1.357000*%
%TD*%
%TA.AperFunction,ComponentPad*%
%ADD12C,1.357000*%
%TD*%
%TA.AperFunction,ComponentPad*%
%ADD13R,1.800000X1.800000*%
%TD*%
%TA.AperFunction,ComponentPad*%
%ADD14C,1.800000*%
%TD*%
%TA.AperFunction,ComponentPad*%
%ADD15C,1.650000*%
%TD*%
%TA.AperFunction,ComponentPad*%
%ADD16R,2.200000X2.200000*%
%TD*%
%TA.AperFunction,ComponentPad*%
%ADD17O,2.200000X2.200000*%
%TD*%
%TA.AperFunction,ComponentPad*%
%ADD18R,1.000000X1.000000*%
%TD*%
%TA.AperFunction,ComponentPad*%
%ADD19C,2.000000*%
%TD*%
%TA.AperFunction,ComponentPad*%
%ADD20C,1.600000*%
%TD*%
%TA.AperFunction,ComponentPad*%
%ADD21R,1.308000X1.308000*%
%TD*%
%TA.AperFunction,ComponentPad*%
%ADD22C,1.308000*%
%TD*%
%TA.AperFunction,ComponentPad*%
%ADD23R,1.900000X2.500000*%
%TD*%
%TA.AperFunction,ComponentPad*%
%ADD24O,1.900000X2.500000*%
%TD*%
%TA.AperFunction,ViaPad*%
%ADD25C,0.800000*%
%TD*%
%TA.AperFunction,Conductor*%
%ADD26C,0.250000*%
%TD*%
G04 APERTURE END LIST*
D10*
%TO.P,REF3,1*%
%TO.N,N/C*%
X173990000Y-104140000D03*
%TD*%
D11*
%TO.P,C1,1,1*%
%TO.N,Net-(C2-+)*%
X121920000Y-86360000D03*
D12*
%TO.P,C1,2,2*%
%TO.N,GND*%
X127000000Y-86360000D03*
%TD*%
D13*
%TO.P,D3,1,K*%
%TO.N,GND*%
X139700000Y-93980000D03*
D14*
%TO.P,D3,2,A*%
%TO.N,Net-(D3-A)*%
X142240000Y-93980000D03*
%TD*%
D15*
%TO.P,J2,1,1*%
%TO.N,Net-(U2-SPK-)*%
X167894000Y-93980000D03*
%TO.P,J2,2,2*%
%TO.N,Net-(U2-SPK+)*%
X162894000Y-93980000D03*
%TD*%
D16*
%TO.P,D1,1,K*%
%TO.N,Net-(C2-+)*%
X173990000Y-86360000D03*
D17*
%TO.P,D1,2,A*%
%TO.N,Net-(D1-A)*%
X163830000Y-86360000D03*
%TD*%
D10*
%TO.P,REF2,1*%
%TO.N,N/C*%
X173990000Y-50800000D03*
%TD*%
D18*
%TO.P,J6,1,Pin_1*%
%TO.N,Net-(J6-Pin_1)*%
X169799000Y-67420000D03*
%TD*%
%TO.P,J4,1,Pin_1*%
%TO.N,Net-(J4-Pin_1)*%
X169799000Y-60720000D03*
%TD*%
%TO.P,J3,1,Pin_1*%
%TO.N,Net-(J3-Pin_1)*%
X169799000Y-57370000D03*
%TD*%
D10*
%TO.P,REF1,1*%
%TO.N,N/C*%
X116840000Y-50800000D03*
%TD*%
D19*
%TO.P,R1,1*%
%TO.N,Net-(D2-A)*%
X137160000Y-100330000D03*
%TO.P,R1,2*%
%TO.N,Net-(D3-A)*%
X144780000Y-100330000D03*
%TD*%
D20*
%TO.P,C3,1*%
%TO.N,Net-(D2-A)*%
X139740000Y-86360000D03*
%TO.P,C3,2*%
%TO.N,GND*%
X142240000Y-86360000D03*
%TD*%
D18*
%TO.P,J8,1,Pin_1*%
%TO.N,GND*%
X169799000Y-74120000D03*
%TD*%
%TO.P,J9,1,Pin_1*%
%TO.N,GND*%
X169799000Y-77470000D03*
%TD*%
D21*
%TO.P,U2,1,K1*%
%TO.N,Net-(J3-Pin_1)*%
X149860000Y-54610000D03*
D22*
%TO.P,U2,2,K2*%
%TO.N,Net-(J4-Pin_1)*%
X149860000Y-57150000D03*
%TO.P,U2,3,K3*%
%TO.N,Net-(J5-Pin_1)*%
X149860000Y-59690000D03*
%TO.P,U2,4,K4*%
%TO.N,Net-(J6-Pin_1)*%
X149860000Y-62230000D03*
%TO.P,U2,5,K5*%
%TO.N,Net-(J7-Pin_1)*%
X149860000Y-64770000D03*
%TO.P,U2,6,SGND*%
%TO.N,unconnected-(U2-SGND-Pad6)*%
X149860000Y-67310000D03*
%TO.P,U2,7,ADKEY*%
%TO.N,unconnected-(U2-ADKEY-Pad7)*%
X149860000Y-69850000D03*
%TO.P,U2,8,Busy*%
%TO.N,unconnected-(U2-Busy-Pad8)*%
X149860000Y-72390000D03*
%TO.P,U2,9,RX*%
%TO.N,unconnected-(U2-RX-Pad9)*%
X165100000Y-72390000D03*
%TO.P,U2,10,TX*%
%TO.N,unconnected-(U2-TX-Pad10)*%
X165100000Y-69850000D03*
%TO.P,U2,11,GND*%
%TO.N,GND*%
X165100000Y-67310000D03*
%TO.P,U2,12,VCC*%
%TO.N,+4V*%
X165100000Y-64770000D03*
%TO.P,U2,13,Dac_R*%
%TO.N,unconnected-(U2-Dac_R-Pad13)*%
X165100000Y-62230000D03*
%TO.P,U2,14,Dac_L*%
%TO.N,unconnected-(U2-Dac_L-Pad14)*%
X165100000Y-59690000D03*
%TO.P,U2,15,SPK-*%
%TO.N,Net-(U2-SPK-)*%
X165100000Y-57150000D03*
%TO.P,U2,16,SPK+*%
%TO.N,Net-(U2-SPK+)*%
X165100000Y-54610000D03*
%TD*%
D10*
%TO.P,REF4,1*%
%TO.N,N/C*%
X116840000Y-104140000D03*
%TD*%
D18*
%TO.P,J5,1,Pin_1*%
%TO.N,Net-(J5-Pin_1)*%
X169799000Y-64070000D03*
%TD*%
D15*
%TO.P,J1,1,1*%
%TO.N,Net-(D1-A)*%
X155321000Y-93980000D03*
%TO.P,J1,2,2*%
%TO.N,GND*%
X150321000Y-93980000D03*
%TD*%
D23*
%TO.P,U1,1,VI*%
%TO.N,Net-(C2-+)*%
X130810000Y-84399000D03*
D24*
%TO.P,U1,2,GND*%
%TO.N,GND*%
X133350000Y-84399000D03*
%TO.P,U1,3,VO*%
%TO.N,Net-(D2-A)*%
X135890000Y-84399000D03*
%TD*%
D18*
%TO.P,J7,1,Pin_1*%
%TO.N,Net-(J7-Pin_1)*%
X169799000Y-70770000D03*
%TD*%
D16*
%TO.P,D2,1,K*%
%TO.N,+4V*%
X173990000Y-81280000D03*
D17*
%TO.P,D2,2,A*%
%TO.N,Net-(D2-A)*%
X163830000Y-81280000D03*
%TD*%
D25*
%TO.N,GND*%
X157938000Y-83091700D03*
X131058200Y-93624900D03*
%TD*%
D26*
%TO.N,Net-(D2-A)*%
X139740000Y-86360000D02*
X139126300Y-86360000D01*
X139126300Y-86360000D02*
X137160000Y-88326300D01*
X139126300Y-86360000D02*
X137165300Y-84399000D01*
X135890000Y-84399000D02*
X137165300Y-84399000D01*
X137160000Y-88326300D02*
X137160000Y-100330000D01*
%TO.N,Net-(D1-A)*%
X162404700Y-86360000D02*
X162404700Y-86896300D01*
X162404700Y-86896300D02*
X155321000Y-93980000D01*
X163830000Y-86360000D02*
X162404700Y-86360000D01*
%TO.N,Net-(D3-A)*%
X142240000Y-97790000D02*
X142240000Y-93980000D01*
X144780000Y-100330000D02*
X142240000Y-97790000D01*
%TO.N,Net-(U2-SPK-)*%
X167894000Y-93980000D02*
X167894000Y-59944000D01*
X167894000Y-59944000D02*
X165100000Y-57150000D01*
%TO.N,Net-(U2-SPK+)*%
X162894000Y-93980000D02*
X165280300Y-91593700D01*
X164094200Y-55615800D02*
X165100000Y-54610000D01*
X164094200Y-76367100D02*
X164094200Y-55615800D01*
X165280300Y-91593700D02*
X165280300Y-77553200D01*
X165280300Y-77553200D02*
X164094200Y-76367100D01*
%TD*%
%TA.AperFunction,Conductor*%
%TO.N,GND*%
G36*
X170123039Y-47020185D02*
G01*
X170168794Y-47072989D01*
X170180000Y-47124500D01*
X170180000Y-54610000D01*
X177676000Y-54610000D01*
X177743039Y-54629685D01*
X177788794Y-54682489D01*
X177800000Y-54734000D01*
X177800000Y-100206000D01*
X177780315Y-100273039D01*
X177727511Y-100318794D01*
X177676000Y-100330000D01*
X170180000Y-100330000D01*
X170180000Y-107826000D01*
X170160315Y-107893039D01*
X170107511Y-107938794D01*
X170056000Y-107950000D01*
X120774000Y-107950000D01*
X120706961Y-107930315D01*
X120661206Y-107877511D01*
X120650000Y-107826000D01*
X120650000Y-100330000D01*
X113154000Y-100330000D01*
X113086961Y-100310315D01*
X113041206Y-100257511D01*
X113030000Y-100206000D01*
X113030000Y-87086370D01*
X120741000Y-87086370D01*
X120741001Y-87086376D01*
X120747408Y-87145983D01*
X120797702Y-87280828D01*
X120797706Y-87280835D01*
X120883952Y-87396044D01*
X120883955Y-87396047D01*
X120999164Y-87482293D01*
X120999171Y-87482297D01*
X121134017Y-87532591D01*
X121134016Y-87532591D01*
X121140944Y-87533335D01*
X121193627Y-87539000D01*
X122646372Y-87538999D01*
X122705983Y-87532591D01*
X122840831Y-87482296D01*
X122956046Y-87396046D01*
X123042296Y-87280831D01*
X123092591Y-87145983D01*
X123099000Y-87086373D01*
X123098999Y-86360000D01*
X125816451Y-86360000D01*
X125836602Y-86577476D01*
X125836603Y-86577479D01*
X125896370Y-86787542D01*
X125896373Y-86787548D01*
X125993728Y-86983062D01*
X126006487Y-86999958D01*
X126586751Y-86419695D01*
X126597985Y-86490623D01*
X126658025Y-86608459D01*
X126751541Y-86701975D01*
X126869377Y-86762015D01*
X126940303Y-86773248D01*
X126362288Y-87351262D01*
X126472448Y-87419470D01*
X126472449Y-87419471D01*
X126676103Y-87498366D01*
X126890799Y-87538500D01*
X127109201Y-87538500D01*
X127323896Y-87498366D01*
X127527552Y-87419470D01*
X127527553Y-87419469D01*
X127637710Y-87351262D01*
X127059696Y-86773248D01*
X127130623Y-86762015D01*
X127248459Y-86701975D01*
X127341975Y-86608459D01*
X127402015Y-86490623D01*
X127413248Y-86419695D01*
X127993511Y-86999958D01*
X128006273Y-86983058D01*
X128006275Y-86983055D01*
X128103626Y-86787548D01*
X128103629Y-86787542D01*
X128163396Y-86577479D01*
X128163397Y-86577476D01*
X128183549Y-86360000D01*
X128183549Y-86359999D01*
X128163397Y-86142523D01*
X128163396Y-86142520D01*
X128103629Y-85932457D01*
X128103626Y-85932451D01*
X128006272Y-85736938D01*
X127993511Y-85720040D01*
X127993510Y-85720040D01*
X127413248Y-86300303D01*
X127402015Y-86229377D01*
X127341975Y-86111541D01*
X127248459Y-86018025D01*
X127130623Y-85957985D01*
X127059696Y-85946751D01*
X127309577Y-85696870D01*
X129359500Y-85696870D01*
X129359501Y-85696876D01*
X129365908Y-85756483D01*
X129416202Y-85891328D01*
X129416206Y-85891335D01*
X129502452Y-86006544D01*
X129502455Y-86006547D01*
X129617664Y-86092793D01*
X129617671Y-86092797D01*
X129752517Y-86143091D01*
X129752516Y-86143091D01*
X129759444Y-86143835D01*
X129812127Y-86149500D01*
X131807872Y-86149499D01*
X131867483Y-86143091D01*
X132002331Y-86092796D01*
X132117546Y-86006546D01*
X132203796Y-85891331D01*
X132216163Y-85858170D01*
X132258033Y-85802237D01*
X132323497Y-85777818D01*
X132391770Y-85792668D01*
X132408508Y-85803649D01*
X132554203Y-85917048D01*
X132554207Y-85917051D01*
X132765544Y-86031421D01*
X132765550Y-86031423D01*
X132992823Y-86109446D01*
X133099999Y-86127330D01*
X133100000Y-86127330D01*
X133100000Y-84834501D01*
X133207685Y-84883680D01*
X133314237Y-84899000D01*
X133385763Y-84899000D01*
X133492315Y-84883680D01*
X133600000Y-84834501D01*
X133600000Y-86127330D01*
X133707176Y-86109446D01*
X133934449Y-86031423D01*
X133934455Y-86031421D01*
X134145790Y-85917052D01*
X134335422Y-85769455D01*
X134498177Y-85592656D01*
X134515891Y-85565543D01*
X134569036Y-85520185D01*
X134638267Y-85510760D01*
X134701603Y-85540260D01*
X134723504Y-85565533D01*
X134741429Y-85592969D01*
X134904236Y-85769825D01*
X134904239Y-85769827D01*
X134904242Y-85769830D01*
X135093924Y-85917466D01*
X135093930Y-85917470D01*
X135093933Y-85917472D01*
X135226881Y-85989420D01*
X135279738Y-86018025D01*
X135305344Y-86031882D01*
X135322208Y-86037671D01*
X135532699Y-86109933D01*
X135532701Y-86109933D01*
X135532703Y-86109934D01*
X135769808Y-86149500D01*
X135769809Y-86149500D01*
X136010191Y-86149500D01*
X136010192Y-86149500D01*
X136247297Y-86109934D01*
X136474656Y-86031882D01*
X136686067Y-85917472D01*
X136690937Y-85913682D01*
X136827345Y-85807511D01*
X136875764Y-85769825D01*
X137038571Y-85592969D01*
X137127389Y-85457023D01*
X137180532Y-85411669D01*
X137249764Y-85402245D01*
X137313100Y-85431747D01*
X137318876Y-85437166D01*
X138154028Y-86272318D01*
X138187513Y-86333641D01*
X138182529Y-86403333D01*
X138154028Y-86447680D01*
X136776208Y-87825499D01*
X136763951Y-87835320D01*
X136764134Y-87835541D01*
X136758123Y-87840513D01*
X136710772Y-87890936D01*
X136689889Y-87911819D01*
X136689877Y-87911832D01*
X136685621Y-87917317D01*
X136681837Y-87921747D01*
X136649937Y-87955718D01*
X136649936Y-87955720D01*
X136640284Y-87973276D01*
X136629610Y-87989526D01*
X136617329Y-88005361D01*
X136617324Y-88005368D01*
X136598815Y-88048138D01*
X136596245Y-88053384D01*
X136573803Y-88094206D01*
X136568822Y-88113607D01*
X136562521Y-88132010D01*
X136554562Y-88150402D01*
X136554561Y-88150405D01*
X136547271Y-88196427D01*
X136546087Y-88202146D01*
X136534501Y-88247272D01*
X136534500Y-88247282D01*
X136534500Y-88267316D01*
X136532973Y-88286715D01*
X136529840Y-88306494D01*
X136529840Y-88306495D01*
X136534225Y-88352883D01*
X136534500Y-88358721D01*
X136534500Y-98888479D01*
X136514815Y-98955518D01*
X136469519Y-98997533D01*
X136336496Y-99069522D01*
X136336494Y-99069523D01*
X136140257Y-99222261D01*
X135971833Y-99405217D01*
X135835826Y-99613393D01*
X135735936Y-99841118D01*
X135674892Y-100082175D01*
X135674890Y-100082187D01*
X135654357Y-100329994D01*
X135654357Y-100330000D01*
X135674890Y-100577812D01*
X135674892Y-100577824D01*
X135735936Y-100818881D01*
X135835826Y-101046606D01*
X135971833Y-101254782D01*
X135971836Y-101254785D01*
X136140256Y-101437738D01*
X136336491Y-101590474D01*
X136555190Y-101708828D01*
X136790386Y-101789571D01*
X137035665Y-101830500D01*
X137284335Y-101830500D01*
X137529614Y-101789571D01*
X137764810Y-101708828D01*
X137983509Y-101590474D01*
X138179744Y-101437738D01*
X138348164Y-101254785D01*
X138484173Y-101046607D01*
X138584063Y-100818881D01*
X138645108Y-100577821D01*
X138665643Y-100330000D01*
X138664714Y-100318794D01*
X138645109Y-100082187D01*
X138645107Y-100082175D01*
X138584063Y-99841118D01*
X138484173Y-99613393D01*
X138348166Y-99405217D01*
X138326557Y-99381744D01*
X138179744Y-99222262D01*
X137983509Y-99069526D01*
X137983508Y-99069525D01*
X137983505Y-99069523D01*
X137983503Y-99069522D01*
X137850481Y-98997533D01*
X137800891Y-98948313D01*
X137785500Y-98888479D01*
X137785500Y-94927844D01*
X138300000Y-94927844D01*
X138306401Y-94987372D01*
X138306403Y-94987379D01*
X138356645Y-95122086D01*
X138356649Y-95122093D01*
X138442809Y-95237187D01*
X138442812Y-95237190D01*
X138557906Y-95323350D01*
X138557913Y-95323354D01*
X138692620Y-95373596D01*
X138692627Y-95373598D01*
X138752155Y-95379999D01*
X138752172Y-95380000D01*
X139450000Y-95380000D01*
X139450000Y-94354189D01*
X139502547Y-94390016D01*
X139632173Y-94430000D01*
X139733724Y-94430000D01*
X139834138Y-94414865D01*
X139950000Y-94359068D01*
X139950000Y-95380000D01*
X140647828Y-95380000D01*
X140647844Y-95379999D01*
X140707372Y-95373598D01*
X140707379Y-95373596D01*
X140842086Y-95323354D01*
X140842093Y-95323350D01*
X140957187Y-95237190D01*
X140957190Y-95237187D01*
X141043350Y-95122093D01*
X141043355Y-95122084D01*
X141072075Y-95045081D01*
X141113945Y-94989147D01*
X141179409Y-94964729D01*
X141247682Y-94979580D01*
X141279484Y-95004428D01*
X141288216Y-95013913D01*
X141288219Y-95013915D01*
X141288222Y-95013918D01*
X141471365Y-95156464D01*
X141471376Y-95156471D01*
X141549517Y-95198759D01*
X141599108Y-95247978D01*
X141614500Y-95307814D01*
X141614500Y-97707255D01*
X141612775Y-97722872D01*
X141613061Y-97722899D01*
X141612326Y-97730665D01*
X141614500Y-97799814D01*
X141614500Y-97829343D01*
X141614501Y-97829360D01*
X141615368Y-97836231D01*
X141615826Y-97842050D01*
X141617290Y-97888624D01*
X141617291Y-97888627D01*
X141622880Y-97907867D01*
X141626824Y-97926911D01*
X141629336Y-97946791D01*
X141646490Y-97990119D01*
X141648382Y-97995647D01*
X141661381Y-98040388D01*
X141671580Y-98057634D01*
X141680138Y-98075103D01*
X141687514Y-98093732D01*
X141714898Y-98131423D01*
X141718106Y-98136307D01*
X141741827Y-98176416D01*
X141741833Y-98176424D01*
X141755990Y-98190580D01*
X141768628Y-98205376D01*
X141780405Y-98221586D01*
X141780406Y-98221587D01*
X141816309Y-98251288D01*
X141820620Y-98255210D01*
X142634932Y-99069522D01*
X143316338Y-99750928D01*
X143349823Y-99812251D01*
X143348863Y-99869049D01*
X143294892Y-100082174D01*
X143294890Y-100082187D01*
X143274357Y-100329994D01*
X143274357Y-100330000D01*
X143294890Y-100577812D01*
X143294892Y-100577824D01*
X143355936Y-100818881D01*
X143455826Y-101046606D01*
X143591833Y-101254782D01*
X143591836Y-101254785D01*
X143760256Y-101437738D01*
X143956491Y-101590474D01*
X144175190Y-101708828D01*
X144410386Y-101789571D01*
X144655665Y-101830500D01*
X144904335Y-101830500D01*
X145149614Y-101789571D01*
X145384810Y-101708828D01*
X145603509Y-101590474D01*
X145799744Y-101437738D01*
X145968164Y-101254785D01*
X146104173Y-101046607D01*
X146204063Y-100818881D01*
X146265108Y-100577821D01*
X146285643Y-100330000D01*
X146284714Y-100318794D01*
X146265109Y-100082187D01*
X146265107Y-100082175D01*
X146204063Y-99841118D01*
X146104173Y-99613393D01*
X145968166Y-99405217D01*
X145946557Y-99381744D01*
X145799744Y-99222262D01*
X145603509Y-99069526D01*
X145603507Y-99069525D01*
X145603506Y-99069524D01*
X145384811Y-98951172D01*
X145384802Y-98951169D01*
X145149616Y-98870429D01*
X144904335Y-98829500D01*
X144655665Y-98829500D01*
X144410386Y-98870428D01*
X144330713Y-98897780D01*
X144260914Y-98900929D01*
X144202770Y-98868179D01*
X142901819Y-97567228D01*
X142868334Y-97505905D01*
X142865500Y-97479547D01*
X142865500Y-95307814D01*
X142885185Y-95240775D01*
X142930483Y-95198759D01*
X142939200Y-95194041D01*
X143008626Y-95156470D01*
X143039679Y-95132301D01*
X143070129Y-95108600D01*
X143191784Y-95013913D01*
X143348979Y-94843153D01*
X143475924Y-94648849D01*
X143569157Y-94436300D01*
X143626134Y-94211305D01*
X143635941Y-94092953D01*
X143645300Y-93980006D01*
X143645300Y-93980000D01*
X148990939Y-93980000D01*
X149011145Y-94210958D01*
X149011147Y-94210968D01*
X149071148Y-94434900D01*
X149071152Y-94434909D01*
X149169132Y-94645029D01*
X149169133Y-94645031D01*
X149224023Y-94723422D01*
X149224024Y-94723423D01*
X149795070Y-94152376D01*
X149797884Y-94165915D01*
X149867442Y-94300156D01*
X149970638Y-94410652D01*
X150099819Y-94489209D01*
X150151002Y-94503549D01*
X149577575Y-95076975D01*
X149655973Y-95131868D01*
X149866090Y-95229847D01*
X149866099Y-95229851D01*
X150090031Y-95289852D01*
X150090041Y-95289854D01*
X150320999Y-95310061D01*
X150321001Y-95310061D01*
X150551958Y-95289854D01*
X150551968Y-95289852D01*
X150775900Y-95229851D01*
X150775909Y-95229847D01*
X150986030Y-95131867D01*
X151064423Y-95076975D01*
X150492568Y-94505121D01*
X150609458Y-94454349D01*
X150726739Y-94358934D01*
X150813928Y-94235415D01*
X150844354Y-94149802D01*
X151417975Y-94723423D01*
X151472867Y-94645030D01*
X151570847Y-94434909D01*
X151570851Y-94434900D01*
X151630852Y-94210968D01*
X151630854Y-94210958D01*
X151651061Y-93980001D01*
X153990437Y-93980001D01*
X154010650Y-94211044D01*
X154010651Y-94211051D01*
X154070678Y-94435074D01*
X154070679Y-94435076D01*
X154070680Y-94435079D01*
X154168699Y-94645282D01*
X154301730Y-94835269D01*
X154465731Y-94999270D01*
X154655718Y-95132301D01*
X154865921Y-95230320D01*
X155089950Y-95290349D01*
X155254985Y-95304787D01*
X155320998Y-95310563D01*
X155321000Y-95310563D01*
X155321002Y-95310563D01*
X155378762Y-95305509D01*
X155552050Y-95290349D01*
X155776079Y-95230320D01*
X155986282Y-95132301D01*
X156176269Y-94999270D01*
X156340270Y-94835269D01*
X156473301Y-94645282D01*
X156571320Y-94435079D01*
X156631349Y-94211050D01*
X156648675Y-94013007D01*
X156651563Y-93980001D01*
X156651563Y-93979998D01*
X156648248Y-93942114D01*
X156631349Y-93748950D01*
X156624820Y-93724585D01*
X156608731Y-93664540D01*
X156610393Y-93594690D01*
X156640822Y-93544766D01*
X162611347Y-87574241D01*
X162672668Y-87540758D01*
X162742360Y-87545742D01*
X162779555Y-87567632D01*
X162886341Y-87658836D01*
X162886343Y-87658837D01*
X162886344Y-87658838D01*
X162886346Y-87658839D01*
X163101140Y-87790466D01*
X163221968Y-87840514D01*
X163333889Y-87886873D01*
X163578852Y-87945683D01*
X163830000Y-87965449D01*
X164081148Y-87945683D01*
X164326111Y-87886873D01*
X164483347Y-87821744D01*
X164552817Y-87814275D01*
X164615296Y-87845550D01*
X164650948Y-87905639D01*
X164654800Y-87936305D01*
X164654800Y-91283247D01*
X164635115Y-91350286D01*
X164618481Y-91370928D01*
X163329234Y-92660174D01*
X163267911Y-92693659D01*
X163209460Y-92692268D01*
X163125055Y-92669652D01*
X163125051Y-92669651D01*
X163125050Y-92669651D01*
X163125049Y-92669650D01*
X163125044Y-92669650D01*
X162894002Y-92649437D01*
X162893998Y-92649437D01*
X162662955Y-92669650D01*
X162662948Y-92669651D01*
X162438917Y-92729681D01*
X162228718Y-92827699D01*
X162228714Y-92827701D01*
X162038735Y-92960726D01*
X162038729Y-92960731D01*
X161874731Y-93124729D01*
X161874726Y-93124735D01*
X161741701Y-93314714D01*
X161741699Y-93314718D01*
X161643681Y-93524917D01*
X161583651Y-93748948D01*
X161583650Y-93748955D01*
X161563437Y-93979998D01*
X161563437Y-93980001D01*
X161583650Y-94211044D01*
X161583651Y-94211051D01*
X161643678Y-94435074D01*
X161643679Y-94435076D01*
X161643680Y-94435079D01*
X161741699Y-94645282D01*
X161874730Y-94835269D01*
X162038731Y-94999270D01*
X162228718Y-95132301D01*
X162438921Y-95230320D01*
X162662950Y-95290349D01*
X162827985Y-95304787D01*
X162893998Y-95310563D01*
X162894000Y-95310563D01*
X162894002Y-95310563D01*
X162951762Y-95305509D01*
X163125050Y-95290349D01*
X163349079Y-95230320D01*
X163559282Y-95132301D01*
X163749269Y-94999270D01*
X163913270Y-94835269D01*
X164046301Y-94645282D01*
X164144320Y-94435079D01*
X164204349Y-94211050D01*
X164221675Y-94013007D01*
X164224563Y-93980001D01*
X164224563Y-93979998D01*
X164221248Y-93942114D01*
X164204349Y-93748950D01*
X164197820Y-93724585D01*
X164181731Y-93664540D01*
X164183393Y-93594690D01*
X164213822Y-93544766D01*
X165664087Y-92094501D01*
X165676342Y-92084686D01*
X165676159Y-92084464D01*
X165682166Y-92079492D01*
X165682177Y-92079486D01*
X165713075Y-92046582D01*
X165729527Y-92029064D01*
X165739971Y-92018618D01*
X165750420Y-92008171D01*
X165754679Y-92002678D01*
X165758452Y-91998261D01*
X165790362Y-91964282D01*
X165800015Y-91946720D01*
X165810689Y-91930470D01*
X165822973Y-91914636D01*
X165841480Y-91871867D01*
X165844049Y-91866624D01*
X165866496Y-91825793D01*
X165866497Y-91825792D01*
X165871477Y-91806391D01*
X165877778Y-91787988D01*
X165885738Y-91769596D01*
X165893030Y-91723549D01*
X165894211Y-91717852D01*
X165905800Y-91672719D01*
X165905800Y-91652683D01*
X165907327Y-91633282D01*
X165910460Y-91613504D01*
X165906075Y-91567115D01*
X165905800Y-91561277D01*
X165905800Y-77635942D01*
X165907524Y-77620322D01*
X165907239Y-77620295D01*
X165907973Y-77612533D01*
X165905800Y-77543372D01*
X165905800Y-77513856D01*
X165905800Y-77513850D01*
X165904931Y-77506979D01*
X165904473Y-77501152D01*
X165903010Y-77454573D01*
X165897419Y-77435330D01*
X165893473Y-77416278D01*
X165890964Y-77396408D01*
X165873804Y-77353067D01*
X165871924Y-77347579D01*
X165858918Y-77302810D01*
X165848722Y-77285570D01*
X165840161Y-77268094D01*
X165832787Y-77249470D01*
X165832786Y-77249468D01*
X165805379Y-77211745D01*
X165802188Y-77206886D01*
X165778472Y-77166783D01*
X165778465Y-77166774D01*
X165764306Y-77152615D01*
X165751668Y-77137819D01*
X165739894Y-77121613D01*
X165703988Y-77091909D01*
X165699676Y-77087986D01*
X164756019Y-76144328D01*
X164722534Y-76083005D01*
X164719700Y-76056647D01*
X164719700Y-73642735D01*
X164739385Y-73575696D01*
X164792189Y-73529941D01*
X164861347Y-73519997D01*
X164866459Y-73520841D01*
X164993020Y-73544500D01*
X164993022Y-73544500D01*
X165206978Y-73544500D01*
X165206980Y-73544500D01*
X165417297Y-73505185D01*
X165616810Y-73427893D01*
X165798722Y-73315258D01*
X165956841Y-73171114D01*
X166085781Y-73000370D01*
X166181151Y-72808840D01*
X166181151Y-72808837D01*
X166181153Y-72808835D01*
X166239703Y-72603050D01*
X166239704Y-72603047D01*
X166259446Y-72390000D01*
X166259446Y-72389999D01*
X166239704Y-72176952D01*
X166239703Y-72176949D01*
X166181153Y-71971164D01*
X166181150Y-71971158D01*
X166085781Y-71779630D01*
X165956841Y-71608886D01*
X165798722Y-71464742D01*
X165798716Y-71464738D01*
X165798713Y-71464736D01*
X165616813Y-71352108D01*
X165616807Y-71352106D01*
X165417297Y-71274815D01*
X165241153Y-71241888D01*
X165178874Y-71210221D01*
X165143601Y-71149908D01*
X165146535Y-71080100D01*
X165186744Y-71022960D01*
X165241152Y-70998112D01*
X165417297Y-70965185D01*
X165616810Y-70887893D01*
X165798722Y-70775258D01*
X165956841Y-70631114D01*
X166085781Y-70460370D01*
X166181151Y-70268840D01*
X166181151Y-70268837D01*
X166181153Y-70268835D01*
X166217904Y-70139668D01*
X166239704Y-70063048D01*
X166259446Y-69850000D01*
X166239704Y-69636952D01*
X166221210Y-69571951D01*
X166181153Y-69431164D01*
X166181150Y-69431158D01*
X166171939Y-69412659D01*
X166085781Y-69239630D01*
X165956841Y-69068886D01*
X165798722Y-68924742D01*
X165798716Y-68924738D01*
X165798713Y-68924736D01*
X165616813Y-68812108D01*
X165616807Y-68812106D01*
X165417297Y-68734815D01*
X165282395Y-68709597D01*
X165239795Y-68701634D01*
X165177514Y-68669965D01*
X165142241Y-68609653D01*
X165145175Y-68539845D01*
X165185384Y-68482705D01*
X165239795Y-68457856D01*
X165417163Y-68424700D01*
X165616585Y-68347444D01*
X165616586Y-68347443D01*
X165719913Y-68283465D01*
X165144401Y-67707953D01*
X165225148Y-67695165D01*
X165338045Y-67637641D01*
X165427641Y-67548045D01*
X165485165Y-67435148D01*
X165497953Y-67354400D01*
X166076018Y-67932465D01*
X166085355Y-67920101D01*
X166085357Y-67920098D01*
X166180678Y-67728669D01*
X166180684Y-67728654D01*
X166239210Y-67522956D01*
X166239211Y-67522954D01*
X166258944Y-67310000D01*
X166258944Y-67309999D01*
X166239211Y-67097045D01*
X166239210Y-67097043D01*
X166180684Y-66891345D01*
X166180678Y-66891330D01*
X166085353Y-66699893D01*
X166076019Y-66687533D01*
X165497953Y-67265598D01*
X165485165Y-67184852D01*
X165427641Y-67071955D01*
X165338045Y-66982359D01*
X165225148Y-66924835D01*
X165144400Y-66912046D01*
X165719913Y-66336533D01*
X165719912Y-66336532D01*
X165616589Y-66272557D01*
X165616583Y-66272554D01*
X165417162Y-66195299D01*
X165239795Y-66162143D01*
X165177514Y-66130475D01*
X165142241Y-66070162D01*
X165145175Y-66000354D01*
X165185384Y-65943214D01*
X165239791Y-65918366D01*
X165417297Y-65885185D01*
X165616810Y-65807893D01*
X165798722Y-65695258D01*
X165956841Y-65551114D01*
X166085781Y-65380370D01*
X166181151Y-65188840D01*
X166181151Y-65188837D01*
X166181153Y-65188835D01*
X166239703Y-64983050D01*
X166239704Y-64983047D01*
X166259446Y-64770000D01*
X166259446Y-64769999D01*
X166239704Y-64556952D01*
X166239703Y-64556949D01*
X166181153Y-64351164D01*
X166181150Y-64351158D01*
X166085781Y-64159630D01*
X165956841Y-63988886D01*
X165798722Y-63844742D01*
X165798716Y-63844738D01*
X165798713Y-63844736D01*
X165616813Y-63732108D01*
X165616807Y-63732106D01*
X165417297Y-63654815D01*
X165241153Y-63621888D01*
X165178874Y-63590221D01*
X165143601Y-63529908D01*
X165146535Y-63460100D01*
X165186744Y-63402960D01*
X165241152Y-63378112D01*
X165417297Y-63345185D01*
X165616810Y-63267893D01*
X165798722Y-63155258D01*
X165956841Y-63011114D01*
X166085781Y-62840370D01*
X166181151Y-62648840D01*
X166181151Y-62648837D01*
X166181153Y-62648835D01*
X166239703Y-62443050D01*
X166239704Y-62443047D01*
X166259446Y-62230000D01*
X166259446Y-62229999D01*
X166239704Y-62016952D01*
X166239703Y-62016949D01*
X166181153Y-61811164D01*
X166181150Y-61811158D01*
X166136007Y-61720498D01*
X166085781Y-61619630D01*
X165956841Y-61448886D01*
X165798722Y-61304742D01*
X165798716Y-61304738D01*
X165798713Y-61304736D01*
X165616813Y-61192108D01*
X165616807Y-61192106D01*
X165417297Y-61114815D01*
X165241153Y-61081888D01*
X165178874Y-61050221D01*
X165143601Y-60989908D01*
X165146535Y-60920100D01*
X165186744Y-60862960D01*
X165241152Y-60838112D01*
X165417297Y-60805185D01*
X165616810Y-60727893D01*
X165798722Y-60615258D01*
X165956841Y-60471114D01*
X166085781Y-60300370D01*
X166181151Y-60108840D01*
X166181151Y-60108837D01*
X166181153Y-60108835D01*
X166230848Y-59934172D01*
X166239704Y-59903048D01*
X166259446Y-59690000D01*
X166240481Y-59485343D01*
X166253896Y-59416776D01*
X166302252Y-59366344D01*
X166370198Y-59350061D01*
X166436161Y-59373098D01*
X166451633Y-59386223D01*
X167232181Y-60166771D01*
X167265666Y-60228094D01*
X167268500Y-60254452D01*
X167268500Y-92735293D01*
X167248815Y-92802332D01*
X167215624Y-92836868D01*
X167038731Y-92960730D01*
X167038729Y-92960731D01*
X166874731Y-93124729D01*
X166874726Y-93124735D01*
X166741701Y-93314714D01*
X166741699Y-93314718D01*
X166643681Y-93524917D01*
X166583651Y-93748948D01*
X166583650Y-93748955D01*
X166563437Y-93979998D01*
X166563437Y-93980001D01*
X166583650Y-94211044D01*
X166583651Y-94211051D01*
X166643678Y-94435074D01*
X166643679Y-94435076D01*
X166643680Y-94435079D01*
X166741699Y-94645282D01*
X166874730Y-94835269D01*
X167038731Y-94999270D01*
X167228718Y-95132301D01*
X167438921Y-95230320D01*
X167662950Y-95290349D01*
X167827985Y-95304787D01*
X167893998Y-95310563D01*
X167894000Y-95310563D01*
X167894002Y-95310563D01*
X167951762Y-95305509D01*
X168125050Y-95290349D01*
X168349079Y-95230320D01*
X168559282Y-95132301D01*
X168749269Y-94999270D01*
X168913270Y-94835269D01*
X169046301Y-94645282D01*
X169144320Y-94435079D01*
X169204349Y-94211050D01*
X169221675Y-94013007D01*
X169224563Y-93980001D01*
X169224563Y-93979998D01*
X169218787Y-93913985D01*
X169204349Y-93748950D01*
X169144320Y-93524921D01*
X169046301Y-93314719D01*
X169046299Y-93314716D01*
X169046298Y-93314714D01*
X168913273Y-93124735D01*
X168913268Y-93124729D01*
X168749269Y-92960730D01*
X168683843Y-92914918D01*
X168572375Y-92836867D01*
X168528751Y-92782291D01*
X168519500Y-92735293D01*
X168519500Y-87507870D01*
X172389500Y-87507870D01*
X172389501Y-87507876D01*
X172395908Y-87567483D01*
X172446202Y-87702328D01*
X172446206Y-87702335D01*
X172532452Y-87817544D01*
X172532455Y-87817547D01*
X172647664Y-87903793D01*
X172647671Y-87903797D01*
X172782517Y-87954091D01*
X172782516Y-87954091D01*
X172789444Y-87954835D01*
X172842127Y-87960500D01*
X175137872Y-87960499D01*
X175197483Y-87954091D01*
X175332331Y-87903796D01*
X175447546Y-87817546D01*
X175533796Y-87702331D01*
X175584091Y-87567483D01*
X175590500Y-87507873D01*
X175590499Y-85212128D01*
X175584091Y-85152517D01*
X175577085Y-85133734D01*
X175533797Y-85017671D01*
X175533793Y-85017664D01*
X175447547Y-84902455D01*
X175447544Y-84902452D01*
X175332335Y-84816206D01*
X175332328Y-84816202D01*
X175197482Y-84765908D01*
X175197483Y-84765908D01*
X175137883Y-84759501D01*
X175137881Y-84759500D01*
X175137873Y-84759500D01*
X175137864Y-84759500D01*
X172842129Y-84759500D01*
X172842123Y-84759501D01*
X172782516Y-84765908D01*
X172647671Y-84816202D01*
X172647664Y-84816206D01*
X172532455Y-84902452D01*
X172532452Y-84902455D01*
X172446206Y-85017664D01*
X172446202Y-85017671D01*
X172395908Y-85152517D01*
X172389501Y-85212116D01*
X172389501Y-85212123D01*
X172389500Y-85212135D01*
X172389500Y-87507870D01*
X168519500Y-87507870D01*
X168519500Y-82427870D01*
X172389500Y-82427870D01*
X172389501Y-82427876D01*
X172395908Y-82487483D01*
X172446202Y-82622328D01*
X172446206Y-82622335D01*
X172532452Y-82737544D01*
X172532455Y-82737547D01*
X172647664Y-82823793D01*
X172647671Y-82823797D01*
X172782517Y-82874091D01*
X172782516Y-82874091D01*
X172789444Y-82874835D01*
X172842127Y-82880500D01*
X175137872Y-82880499D01*
X175197483Y-82874091D01*
X175332331Y-82823796D01*
X175447546Y-82737546D01*
X175533796Y-82622331D01*
X175584091Y-82487483D01*
X175590500Y-82427873D01*
X175590499Y-80132128D01*
X175584091Y-80072517D01*
X175550017Y-79981161D01*
X175533797Y-79937671D01*
X175533793Y-79937664D01*
X175447547Y-79822455D01*
X175447544Y-79822452D01*
X175332335Y-79736206D01*
X175332328Y-79736202D01*
X175197482Y-79685908D01*
X175197483Y-79685908D01*
X175137883Y-79679501D01*
X175137881Y-79679500D01*
X175137873Y-79679500D01*
X175137864Y-79679500D01*
X172842129Y-79679500D01*
X172842123Y-79679501D01*
X172782516Y-79685908D01*
X172647671Y-79736202D01*
X172647664Y-79736206D01*
X172532455Y-79822452D01*
X172532452Y-79822455D01*
X172446206Y-79937664D01*
X172446202Y-79937671D01*
X172395908Y-80072517D01*
X172389501Y-80132116D01*
X172389501Y-80132123D01*
X172389500Y-80132135D01*
X172389500Y-82427870D01*
X168519500Y-82427870D01*
X168519500Y-77720000D01*
X168799000Y-77720000D01*
X168799000Y-78017844D01*
X168805401Y-78077372D01*
X168805403Y-78077379D01*
X168855645Y-78212086D01*
X168855649Y-78212093D01*
X168941809Y-78327187D01*
X168941812Y-78327190D01*
X169056906Y-78413350D01*
X169056913Y-78413354D01*
X169191620Y-78463596D01*
X169191627Y-78463598D01*
X169251155Y-78469999D01*
X169251172Y-78470000D01*
X169549000Y-78470000D01*
X169549000Y-77720000D01*
X168799000Y-77720000D01*
X168519500Y-77720000D01*
X168519500Y-77527306D01*
X169474000Y-77527306D01*
X169513199Y-77635007D01*
X169586871Y-77722805D01*
X169686129Y-77780112D01*
X169770564Y-77795000D01*
X169827436Y-77795000D01*
X169911871Y-77780112D01*
X170011129Y-77722805D01*
X170013483Y-77720000D01*
X170049000Y-77720000D01*
X170049000Y-78470000D01*
X170346828Y-78470000D01*
X170346844Y-78469999D01*
X170406372Y-78463598D01*
X170406379Y-78463596D01*
X170541086Y-78413354D01*
X170541093Y-78413350D01*
X170656187Y-78327190D01*
X170656190Y-78327187D01*
X170742350Y-78212093D01*
X170742354Y-78212086D01*
X170792596Y-78077379D01*
X170792598Y-78077372D01*
X170798999Y-78017844D01*
X170799000Y-78017827D01*
X170799000Y-77720000D01*
X170049000Y-77720000D01*
X170013483Y-77720000D01*
X170084801Y-77635007D01*
X170124000Y-77527306D01*
X170124000Y-77412694D01*
X170084801Y-77304993D01*
X170011129Y-77217195D01*
X169911871Y-77159888D01*
X169827436Y-77145000D01*
X169770564Y-77145000D01*
X169686129Y-77159888D01*
X169586871Y-77217195D01*
X169513199Y-77304993D01*
X169474000Y-77412694D01*
X169474000Y-77527306D01*
X168519500Y-77527306D01*
X168519500Y-77220000D01*
X168799000Y-77220000D01*
X169549000Y-77220000D01*
X169549000Y-76470000D01*
X170049000Y-76470000D01*
X170049000Y-77220000D01*
X170799000Y-77220000D01*
X170799000Y-76922172D01*
X170798999Y-76922155D01*
X170792598Y-76862627D01*
X170792596Y-76862620D01*
X170742354Y-76727913D01*
X170742350Y-76727906D01*
X170656190Y-76612812D01*
X170656187Y-76612809D01*
X170541093Y-76526649D01*
X170541086Y-76526645D01*
X170406379Y-76476403D01*
X170406372Y-76476401D01*
X170346844Y-76470000D01*
X170049000Y-76470000D01*
X169549000Y-76470000D01*
X169251155Y-76470000D01*
X169191627Y-76476401D01*
X169191620Y-76476403D01*
X169056913Y-76526645D01*
X169056906Y-76526649D01*
X168941812Y-76612809D01*
X168941809Y-76612812D01*
X168855649Y-76727906D01*
X168855645Y-76727913D01*
X168805403Y-76862620D01*
X168805401Y-76862627D01*
X168799000Y-76922155D01*
X168799000Y-77220000D01*
X168519500Y-77220000D01*
X168519500Y-74370000D01*
X168799000Y-74370000D01*
X168799000Y-74667844D01*
X168805401Y-74727372D01*
X168805403Y-74727379D01*
X168855645Y-74862086D01*
X168855649Y-74862093D01*
X168941809Y-74977187D01*
X168941812Y-74977190D01*
X169056906Y-75063350D01*
X169056913Y-75063354D01*
X169191620Y-75113596D01*
X169191627Y-75113598D01*
X169251155Y-75119999D01*
X169251172Y-75120000D01*
X169549000Y-75120000D01*
X169549000Y-74370000D01*
X168799000Y-74370000D01*
X168519500Y-74370000D01*
X168519500Y-74177306D01*
X169474000Y-74177306D01*
X169513199Y-74285007D01*
X169586871Y-74372805D01*
X169686129Y-74430112D01*
X169770564Y-74445000D01*
X169827436Y-74445000D01*
X169911871Y-74430112D01*
X170011129Y-74372805D01*
X170013483Y-74370000D01*
X170049000Y-74370000D01*
X170049000Y-75120000D01*
X170346828Y-75120000D01*
X170346844Y-75119999D01*
X170406372Y-75113598D01*
X170406379Y-75113596D01*
X170541086Y-75063354D01*
X170541093Y-75063350D01*
X170656187Y-74977190D01*
X170656190Y-74977187D01*
X170742350Y-74862093D01*
X170742354Y-74862086D01*
X170792596Y-74727379D01*
X170792598Y-74727372D01*
X170798999Y-74667844D01*
X170799000Y-74667827D01*
X170799000Y-74370000D01*
X170049000Y-74370000D01*
X170013483Y-74370000D01*
X170084801Y-74285007D01*
X170124000Y-74177306D01*
X170124000Y-74062694D01*
X170084801Y-73954993D01*
X170011129Y-73867195D01*
X169911871Y-73809888D01*
X169827436Y-73795000D01*
X169770564Y-73795000D01*
X169686129Y-73809888D01*
X169586871Y-73867195D01*
X169513199Y-73954993D01*
X169474000Y-74062694D01*
X169474000Y-74177306D01*
X168519500Y-74177306D01*
X168519500Y-73870000D01*
X168799000Y-73870000D01*
X169549000Y-73870000D01*
X169549000Y-73120000D01*
X170049000Y-73120000D01*
X170049000Y-73870000D01*
X170799000Y-73870000D01*
X170799000Y-73572172D01*
X170798999Y-73572155D01*
X170792598Y-73512627D01*
X170792596Y-73512620D01*
X170742354Y-73377913D01*
X170742350Y-73377906D01*
X170656190Y-73262812D01*
X170656187Y-73262809D01*
X170541093Y-73176649D01*
X170541086Y-73176645D01*
X170406379Y-73126403D01*
X170406372Y-73126401D01*
X170346844Y-73120000D01*
X170049000Y-73120000D01*
X169549000Y-73120000D01*
X169251155Y-73120000D01*
X169191627Y-73126401D01*
X169191620Y-73126403D01*
X169056913Y-73176645D01*
X169056906Y-73176649D01*
X168941812Y-73262809D01*
X168941809Y-73262812D01*
X168855649Y-73377906D01*
X168855645Y-73377913D01*
X168805403Y-73512620D01*
X168805401Y-73512627D01*
X168799000Y-73572155D01*
X168799000Y-73870000D01*
X168519500Y-73870000D01*
X168519500Y-71317870D01*
X168798500Y-71317870D01*
X168798501Y-71317876D01*
X168804908Y-71377483D01*
X168855202Y-71512328D01*
X168855206Y-71512335D01*
X168941452Y-71627544D01*
X168941455Y-71627547D01*
X169056664Y-71713793D01*
X169056671Y-71713797D01*
X169191517Y-71764091D01*
X169191516Y-71764091D01*
X169198444Y-71764835D01*
X169251127Y-71770500D01*
X170346872Y-71770499D01*
X170406483Y-71764091D01*
X170541331Y-71713796D01*
X170656546Y-71627546D01*
X170742796Y-71512331D01*
X170793091Y-71377483D01*
X170799500Y-71317873D01*
X170799499Y-70222128D01*
X170793091Y-70162517D01*
X170789233Y-70152174D01*
X170742797Y-70027671D01*
X170742793Y-70027664D01*
X170656547Y-69912455D01*
X170656544Y-69912452D01*
X170541335Y-69826206D01*
X170541328Y-69826202D01*
X170406482Y-69775908D01*
X170406483Y-69775908D01*
X170346883Y-69769501D01*
X170346881Y-69769500D01*
X170346873Y-69769500D01*
X170346864Y-69769500D01*
X169251129Y-69769500D01*
X169251123Y-69769501D01*
X169191516Y-69775908D01*
X169056671Y-69826202D01*
X169056664Y-69826206D01*
X168941455Y-69912452D01*
X168941452Y-69912455D01*
X168855206Y-70027664D01*
X168855202Y-70027671D01*
X168804908Y-70162517D01*
X168799578Y-70212102D01*
X168798501Y-70222123D01*
X168798500Y-70222135D01*
X168798500Y-71317870D01*
X168519500Y-71317870D01*
X168519500Y-67967870D01*
X168798500Y-67967870D01*
X168798501Y-67967876D01*
X168804908Y-68027483D01*
X168855202Y-68162328D01*
X168855206Y-68162335D01*
X168941452Y-68277544D01*
X168941455Y-68277547D01*
X169056664Y-68363793D01*
X169056671Y-68363797D01*
X169191517Y-68414091D01*
X169191516Y-68414091D01*
X169198444Y-68414835D01*
X169251127Y-68420500D01*
X170346872Y-68420499D01*
X170406483Y-68414091D01*
X170541331Y-68363796D01*
X170656546Y-68277546D01*
X170742796Y-68162331D01*
X170793091Y-68027483D01*
X170799500Y-67967873D01*
X170799499Y-66872128D01*
X170793091Y-66812517D01*
X170767076Y-66742768D01*
X170742797Y-66677671D01*
X170742793Y-66677664D01*
X170656547Y-66562455D01*
X170656544Y-66562452D01*
X170541335Y-66476206D01*
X170541328Y-66476202D01*
X170406482Y-66425908D01*
X170406483Y-66425908D01*
X170346883Y-66419501D01*
X170346881Y-66419500D01*
X170346873Y-66419500D01*
X170346864Y-66419500D01*
X169251129Y-66419500D01*
X169251123Y-66419501D01*
X169191516Y-66425908D01*
X169056671Y-66476202D01*
X169056664Y-66476206D01*
X168941455Y-66562452D01*
X168941452Y-66562455D01*
X168855206Y-66677664D01*
X168855202Y-66677671D01*
X168804908Y-66812517D01*
X168798501Y-66872116D01*
X168798501Y-66872123D01*
X168798500Y-66872135D01*
X168798500Y-67967870D01*
X168519500Y-67967870D01*
X168519500Y-64617870D01*
X168798500Y-64617870D01*
X168798501Y-64617876D01*
X168804908Y-64677483D01*
X168855202Y-64812328D01*
X168855206Y-64812335D01*
X168941452Y-64927544D01*
X168941455Y-64927547D01*
X169056664Y-65013793D01*
X169056671Y-65013797D01*
X169191517Y-65064091D01*
X169191516Y-65064091D01*
X169198444Y-65064835D01*
X169251127Y-65070500D01*
X170346872Y-65070499D01*
X170406483Y-65064091D01*
X170541331Y-65013796D01*
X170656546Y-64927546D01*
X170742796Y-64812331D01*
X170793091Y-64677483D01*
X170799500Y-64617873D01*
X170799499Y-63522128D01*
X170793091Y-63462517D01*
X170742796Y-63327669D01*
X170742795Y-63327668D01*
X170742793Y-63327664D01*
X170656547Y-63212455D01*
X170656544Y-63212452D01*
X170541335Y-63126206D01*
X170541328Y-63126202D01*
X170406482Y-63075908D01*
X170406483Y-63075908D01*
X170346883Y-63069501D01*
X170346881Y-63069500D01*
X170346873Y-63069500D01*
X170346864Y-63069500D01*
X169251129Y-63069500D01*
X169251123Y-63069501D01*
X169191516Y-63075908D01*
X169056671Y-63126202D01*
X169056664Y-63126206D01*
X168941455Y-63212452D01*
X168941452Y-63212455D01*
X168855206Y-63327664D01*
X168855202Y-63327671D01*
X168804908Y-63462517D01*
X168798501Y-63522116D01*
X168798501Y-63522123D01*
X168798500Y-63522135D01*
X168798500Y-64617870D01*
X168519500Y-64617870D01*
X168519500Y-61267870D01*
X168798500Y-61267870D01*
X168798501Y-61267876D01*
X168804908Y-61327483D01*
X168855202Y-61462328D01*
X168855206Y-61462335D01*
X168941452Y-61577544D01*
X168941455Y-61577547D01*
X169056664Y-61663793D01*
X169056671Y-61663797D01*
X169191517Y-61714091D01*
X169191516Y-61714091D01*
X169198444Y-61714835D01*
X169251127Y-61720500D01*
X170346872Y-61720499D01*
X170406483Y-61714091D01*
X170541331Y-61663796D01*
X170656546Y-61577546D01*
X170742796Y-61462331D01*
X170793091Y-61327483D01*
X170799500Y-61267873D01*
X170799499Y-60172128D01*
X170793091Y-60112517D01*
X170742796Y-59977669D01*
X170742795Y-59977668D01*
X170742793Y-59977664D01*
X170656547Y-59862455D01*
X170656544Y-59862452D01*
X170541335Y-59776206D01*
X170541328Y-59776202D01*
X170406482Y-59725908D01*
X170406483Y-59725908D01*
X170346883Y-59719501D01*
X170346881Y-59719500D01*
X170346873Y-59719500D01*
X170346864Y-59719500D01*
X169251129Y-59719500D01*
X169251123Y-59719501D01*
X169191516Y-59725908D01*
X169056671Y-59776202D01*
X169056664Y-59776206D01*
X168941455Y-59862452D01*
X168941452Y-59862455D01*
X168855206Y-59977664D01*
X168855202Y-59977671D01*
X168804908Y-60112517D01*
X168799076Y-60166771D01*
X168798501Y-60172123D01*
X168798500Y-60172135D01*
X168798500Y-61267870D01*
X168519500Y-61267870D01*
X168519500Y-60026742D01*
X168521224Y-60011122D01*
X168520939Y-60011095D01*
X168521673Y-60003333D01*
X168520867Y-59977669D01*
X168519500Y-59934171D01*
X168519500Y-59904650D01*
X168518631Y-59897779D01*
X168518173Y-59891952D01*
X168516710Y-59845373D01*
X168511119Y-59826130D01*
X168507173Y-59807078D01*
X168504664Y-59787208D01*
X168487504Y-59743867D01*
X168485624Y-59738379D01*
X168472618Y-59693610D01*
X168470482Y-59689999D01*
X168462423Y-59676371D01*
X168453861Y-59658894D01*
X168446487Y-59640270D01*
X168446486Y-59640268D01*
X168419079Y-59602545D01*
X168415888Y-59597686D01*
X168392172Y-59557583D01*
X168392165Y-59557574D01*
X168378006Y-59543415D01*
X168365368Y-59528619D01*
X168353594Y-59512413D01*
X168320875Y-59485346D01*
X168317688Y-59482709D01*
X168313376Y-59478786D01*
X166752461Y-57917870D01*
X168798500Y-57917870D01*
X168798501Y-57917876D01*
X168804908Y-57977483D01*
X168855202Y-58112328D01*
X168855206Y-58112335D01*
X168941452Y-58227544D01*
X168941455Y-58227547D01*
X169056664Y-58313793D01*
X169056671Y-58313797D01*
X169191517Y-58364091D01*
X169191516Y-58364091D01*
X169198444Y-58364835D01*
X169251127Y-58370500D01*
X170346872Y-58370499D01*
X170406483Y-58364091D01*
X170541331Y-58313796D01*
X170656546Y-58227546D01*
X170742796Y-58112331D01*
X170793091Y-57977483D01*
X170799500Y-57917873D01*
X170799499Y-56822128D01*
X170793091Y-56762517D01*
X170742796Y-56627669D01*
X170742795Y-56627668D01*
X170742793Y-56627664D01*
X170656547Y-56512455D01*
X170656544Y-56512452D01*
X170541335Y-56426206D01*
X170541328Y-56426202D01*
X170406482Y-56375908D01*
X170406483Y-56375908D01*
X170346883Y-56369501D01*
X170346881Y-56369500D01*
X170346873Y-56369500D01*
X170346864Y-56369500D01*
X169251129Y-56369500D01*
X169251123Y-56369501D01*
X169191516Y-56375908D01*
X169056671Y-56426202D01*
X169056664Y-56426206D01*
X168941455Y-56512452D01*
X168941452Y-56512455D01*
X168855206Y-56627664D01*
X168855202Y-56627671D01*
X168804908Y-56762517D01*
X168798501Y-56822116D01*
X168798501Y-56822123D01*
X168798500Y-56822135D01*
X168798500Y-57917870D01*
X166752461Y-57917870D01*
X166277297Y-57442706D01*
X166243812Y-57381383D01*
X166241507Y-57343587D01*
X166259446Y-57150000D01*
X166239704Y-56936952D01*
X166207034Y-56822128D01*
X166181153Y-56731164D01*
X166181150Y-56731158D01*
X166129616Y-56627664D01*
X166085781Y-56539630D01*
X165956841Y-56368886D01*
X165798722Y-56224742D01*
X165798716Y-56224738D01*
X165798713Y-56224736D01*
X165616813Y-56112108D01*
X165616807Y-56112106D01*
X165417297Y-56034815D01*
X165241153Y-56001888D01*
X165178874Y-55970221D01*
X165143601Y-55909908D01*
X165146535Y-55840100D01*
X165186744Y-55782960D01*
X165241152Y-55758112D01*
X165417297Y-55725185D01*
X165616810Y-55647893D01*
X165798722Y-55535258D01*
X165956841Y-55391114D01*
X166085781Y-55220370D01*
X166181151Y-55028840D01*
X166181151Y-55028837D01*
X166181153Y-55028835D01*
X166217040Y-54902705D01*
X166239704Y-54823048D01*
X166259446Y-54610000D01*
X166239704Y-54396952D01*
X166231200Y-54367065D01*
X166181153Y-54191164D01*
X166181150Y-54191158D01*
X166116740Y-54061805D01*
X166085781Y-53999630D01*
X165956841Y-53828886D01*
X165798722Y-53684742D01*
X165798716Y-53684738D01*
X165798713Y-53684736D01*
X165616813Y-53572108D01*
X165616807Y-53572106D01*
X165417297Y-53494815D01*
X165206980Y-53455500D01*
X164993020Y-53455500D01*
X164782703Y-53494815D01*
X164737812Y-53512206D01*
X164583192Y-53572106D01*
X164583186Y-53572108D01*
X164401286Y-53684736D01*
X164401283Y-53684738D01*
X164401279Y-53684740D01*
X164401278Y-53684742D01*
X164243159Y-53828886D01*
X164243158Y-53828887D01*
X164114219Y-53999629D01*
X164018849Y-54191158D01*
X164018846Y-54191164D01*
X163960296Y-54396949D01*
X163960295Y-54396952D01*
X163940554Y-54609999D01*
X163940554Y-54610000D01*
X163958492Y-54803583D01*
X163945077Y-54872152D01*
X163922702Y-54902705D01*
X163710408Y-55114999D01*
X163698151Y-55124820D01*
X163698334Y-55125041D01*
X163692323Y-55130013D01*
X163644972Y-55180436D01*
X163624089Y-55201319D01*
X163624077Y-55201332D01*
X163619821Y-55206817D01*
X163616037Y-55211247D01*
X163584137Y-55245218D01*
X163584136Y-55245220D01*
X163574484Y-55262776D01*
X163563810Y-55279026D01*
X163551529Y-55294861D01*
X163551524Y-55294868D01*
X163533015Y-55337638D01*
X163530445Y-55342884D01*
X163508003Y-55383706D01*
X163503022Y-55403107D01*
X163496721Y-55421510D01*
X163488762Y-55439902D01*
X163488761Y-55439905D01*
X163481471Y-55485927D01*
X163480287Y-55491646D01*
X163468701Y-55536772D01*
X163468700Y-55536782D01*
X163468700Y-55556816D01*
X163467173Y-55576215D01*
X163464040Y-55595994D01*
X163464040Y-55595995D01*
X163468425Y-55642383D01*
X163468700Y-55648221D01*
X163468700Y-76284355D01*
X163466975Y-76299972D01*
X163467261Y-76299999D01*
X163466526Y-76307765D01*
X163468700Y-76376914D01*
X163468700Y-76406443D01*
X163468701Y-76406460D01*
X163469568Y-76413331D01*
X163470026Y-76419150D01*
X163471490Y-76465724D01*
X163471491Y-76465727D01*
X163477080Y-76484967D01*
X163481024Y-76504011D01*
X163483536Y-76523891D01*
X163500690Y-76567219D01*
X163502582Y-76572747D01*
X163515581Y-76617488D01*
X163525780Y-76634734D01*
X163534338Y-76652203D01*
X163541714Y-76670832D01*
X163569098Y-76708523D01*
X163572306Y-76713407D01*
X163596027Y-76753516D01*
X163596033Y-76753524D01*
X163610190Y-76767680D01*
X163622828Y-76782476D01*
X163634605Y-76798686D01*
X163634606Y-76798687D01*
X163670509Y-76828388D01*
X163674820Y-76832310D01*
X164147503Y-77304993D01*
X164618481Y-77775971D01*
X164651966Y-77837294D01*
X164654800Y-77863652D01*
X164654800Y-79703694D01*
X164635115Y-79770733D01*
X164582311Y-79816488D01*
X164513153Y-79826432D01*
X164483348Y-79818255D01*
X164326113Y-79753127D01*
X164081151Y-79694317D01*
X163830000Y-79674551D01*
X163578848Y-79694317D01*
X163333889Y-79753126D01*
X163101140Y-79849533D01*
X162886346Y-79981160D01*
X162886343Y-79981161D01*
X162694776Y-80144776D01*
X162531161Y-80336343D01*
X162531160Y-80336346D01*
X162399533Y-80551140D01*
X162303126Y-80783889D01*
X162244317Y-81028848D01*
X162224551Y-81280000D01*
X162244317Y-81531151D01*
X162303126Y-81776110D01*
X162399533Y-82008859D01*
X162531160Y-82223653D01*
X162531161Y-82223656D01*
X162531164Y-82223659D01*
X162694776Y-82415224D01*
X162843066Y-82541875D01*
X162886343Y-82578838D01*
X162886346Y-82578839D01*
X163101140Y-82710466D01*
X163333889Y-82806873D01*
X163578852Y-82865683D01*
X163830000Y-82885449D01*
X164081148Y-82865683D01*
X164326111Y-82806873D01*
X164483347Y-82741744D01*
X164552817Y-82734275D01*
X164615296Y-82765550D01*
X164650948Y-82825639D01*
X164654800Y-82856305D01*
X164654800Y-84783694D01*
X164635115Y-84850733D01*
X164582311Y-84896488D01*
X164513153Y-84906432D01*
X164483348Y-84898255D01*
X164326113Y-84833127D01*
X164081151Y-84774317D01*
X163830000Y-84754551D01*
X163578848Y-84774317D01*
X163333889Y-84833126D01*
X163101140Y-84929533D01*
X162886346Y-85061160D01*
X162886343Y-85061161D01*
X162694776Y-85224776D01*
X162531161Y-85416343D01*
X162531160Y-85416346D01*
X162399533Y-85631140D01*
X162385557Y-85664883D01*
X162341715Y-85719287D01*
X162291381Y-85739743D01*
X162292799Y-85739507D01*
X162286557Y-85740696D01*
X162278785Y-85743222D01*
X162256020Y-85748310D01*
X162247918Y-85749333D01*
X162247905Y-85749337D01*
X162194510Y-85770477D01*
X162190854Y-85771792D01*
X162136259Y-85789533D01*
X162136256Y-85789534D01*
X162129352Y-85793915D01*
X162108580Y-85804499D01*
X162100973Y-85807511D01*
X162100962Y-85807517D01*
X162054514Y-85841263D01*
X162051295Y-85843451D01*
X162002823Y-85874213D01*
X162002820Y-85874216D01*
X161997229Y-85880170D01*
X161979729Y-85895599D01*
X161973113Y-85900405D01*
X161973112Y-85900406D01*
X161936512Y-85944646D01*
X161933938Y-85947565D01*
X161894637Y-85989417D01*
X161894635Y-85989420D01*
X161890694Y-85996589D01*
X161877589Y-86015873D01*
X161872377Y-86022173D01*
X161872374Y-86022178D01*
X161847931Y-86074121D01*
X161846164Y-86077589D01*
X161818504Y-86127903D01*
X161818503Y-86127908D01*
X161816469Y-86135828D01*
X161808570Y-86157768D01*
X161805086Y-86165172D01*
X161805084Y-86165178D01*
X161794329Y-86221561D01*
X161793479Y-86225361D01*
X161779200Y-86280976D01*
X161779200Y-86289152D01*
X161777005Y-86312379D01*
X161775473Y-86320412D01*
X161779078Y-86377724D01*
X161779200Y-86381595D01*
X161779200Y-86585846D01*
X161759515Y-86652885D01*
X161742881Y-86673527D01*
X155756233Y-92660174D01*
X155694910Y-92693659D01*
X155636459Y-92692268D01*
X155552050Y-92669651D01*
X155321002Y-92649437D01*
X155320998Y-92649437D01*
X155089955Y-92669650D01*
X155089948Y-92669651D01*
X154865917Y-92729681D01*
X154655718Y-92827699D01*
X154655714Y-92827701D01*
X154465735Y-92960726D01*
X154465729Y-92960731D01*
X154301731Y-93124729D01*
X154301726Y-93124735D01*
X154168701Y-93314714D01*
X154168699Y-93314718D01*
X154070681Y-93524917D01*
X154010651Y-93748948D01*
X154010650Y-93748955D01*
X153990437Y-93979998D01*
X153990437Y-93980001D01*
X151651061Y-93980001D01*
X151651061Y-93980000D01*
X151651061Y-93979999D01*
X151630854Y-93749041D01*
X151630852Y-93749031D01*
X151570851Y-93525099D01*
X151570847Y-93525090D01*
X151472868Y-93314972D01*
X151417974Y-93236576D01*
X150846929Y-93807622D01*
X150844116Y-93794085D01*
X150774558Y-93659844D01*
X150671362Y-93549348D01*
X150542181Y-93470791D01*
X150490997Y-93456450D01*
X151064423Y-92883024D01*
X151064422Y-92883023D01*
X150986031Y-92828133D01*
X150986029Y-92828132D01*
X150775909Y-92730152D01*
X150775900Y-92730148D01*
X150551968Y-92670147D01*
X150551958Y-92670145D01*
X150321001Y-92649939D01*
X150320999Y-92649939D01*
X150090041Y-92670145D01*
X150090031Y-92670147D01*
X149866099Y-92730148D01*
X149866090Y-92730152D01*
X149655971Y-92828132D01*
X149655969Y-92828133D01*
X149577577Y-92883024D01*
X149577576Y-92883024D01*
X150149431Y-93454878D01*
X150032542Y-93505651D01*
X149915261Y-93601066D01*
X149828072Y-93724585D01*
X149797645Y-93810197D01*
X149224024Y-93236576D01*
X149224024Y-93236577D01*
X149169133Y-93314969D01*
X149169132Y-93314971D01*
X149071152Y-93525090D01*
X149071148Y-93525099D01*
X149011147Y-93749031D01*
X149011145Y-93749041D01*
X148990939Y-93979999D01*
X148990939Y-93980000D01*
X143645300Y-93980000D01*
X143645300Y-93979993D01*
X143626135Y-93748702D01*
X143626133Y-93748691D01*
X143569157Y-93523699D01*
X143475924Y-93311151D01*
X143348983Y-93116852D01*
X143348980Y-93116849D01*
X143348979Y-93116847D01*
X143191784Y-92946087D01*
X143191779Y-92946083D01*
X143191777Y-92946081D01*
X143008634Y-92803535D01*
X143008628Y-92803531D01*
X142804504Y-92693064D01*
X142804495Y-92693061D01*
X142584984Y-92617702D01*
X142397404Y-92586401D01*
X142356049Y-92579500D01*
X142123951Y-92579500D01*
X142082596Y-92586401D01*
X141895015Y-92617702D01*
X141675504Y-92693061D01*
X141675495Y-92693064D01*
X141471371Y-92803531D01*
X141471365Y-92803535D01*
X141288222Y-92946081D01*
X141288215Y-92946087D01*
X141279484Y-92955572D01*
X141219595Y-92991561D01*
X141149757Y-92989458D01*
X141092143Y-92949932D01*
X141072075Y-92914918D01*
X141043355Y-92837915D01*
X141043350Y-92837906D01*
X140957190Y-92722812D01*
X140957187Y-92722809D01*
X140842093Y-92636649D01*
X140842086Y-92636645D01*
X140707379Y-92586403D01*
X140707372Y-92586401D01*
X140647844Y-92580000D01*
X139950000Y-92580000D01*
X139950000Y-93605810D01*
X139897453Y-93569984D01*
X139767827Y-93530000D01*
X139666276Y-93530000D01*
X139565862Y-93545135D01*
X139450000Y-93600931D01*
X139450000Y-92580000D01*
X138752155Y-92580000D01*
X138692627Y-92586401D01*
X138692620Y-92586403D01*
X138557913Y-92636645D01*
X138557906Y-92636649D01*
X138442812Y-92722809D01*
X138442809Y-92722812D01*
X138356649Y-92837906D01*
X138356645Y-92837913D01*
X138306403Y-92972620D01*
X138306401Y-92972627D01*
X138300000Y-93032155D01*
X138300000Y-93730000D01*
X139324722Y-93730000D01*
X139276375Y-93813740D01*
X139246190Y-93945992D01*
X139256327Y-94081265D01*
X139305887Y-94207541D01*
X139323797Y-94230000D01*
X138300000Y-94230000D01*
X138300000Y-94927844D01*
X137785500Y-94927844D01*
X137785500Y-88636752D01*
X137805185Y-88569713D01*
X137821819Y-88549071D01*
X138322752Y-88048138D01*
X138891977Y-87478912D01*
X138953298Y-87445429D01*
X139022990Y-87450413D01*
X139050779Y-87465020D01*
X139087264Y-87490567D01*
X139087266Y-87490568D01*
X139293504Y-87586739D01*
X139513308Y-87645635D01*
X139675230Y-87659801D01*
X139739998Y-87665468D01*
X139740000Y-87665468D01*
X139740002Y-87665468D01*
X139796673Y-87660509D01*
X139966692Y-87645635D01*
X140186496Y-87586739D01*
X140392734Y-87490568D01*
X140579139Y-87360047D01*
X140740047Y-87199139D01*
X140870568Y-87012734D01*
X140877893Y-86997023D01*
X140924062Y-86944586D01*
X140991254Y-86925432D01*
X141058136Y-86945645D01*
X141102657Y-86997023D01*
X141109865Y-87012481D01*
X141109866Y-87012483D01*
X141160973Y-87085471D01*
X141160974Y-87085472D01*
X141842046Y-86404399D01*
X141854835Y-86485148D01*
X141912359Y-86598045D01*
X142001955Y-86687641D01*
X142114852Y-86745165D01*
X142195599Y-86757953D01*
X141514526Y-87439025D01*
X141514526Y-87439026D01*
X141587512Y-87490131D01*
X141587516Y-87490133D01*
X141793673Y-87586265D01*
X141793682Y-87586269D01*
X142013389Y-87645139D01*
X142013400Y-87645141D01*
X142239998Y-87664966D01*
X142240002Y-87664966D01*
X142466599Y-87645141D01*
X142466610Y-87645139D01*
X142686317Y-87586269D01*
X142686331Y-87586264D01*
X142892478Y-87490136D01*
X142965472Y-87439025D01*
X142284401Y-86757953D01*
X142365148Y-86745165D01*
X142478045Y-86687641D01*
X142567641Y-86598045D01*
X142625165Y-86485148D01*
X142637953Y-86404400D01*
X143319025Y-87085472D01*
X143370136Y-87012478D01*
X143466264Y-86806331D01*
X143466269Y-86806317D01*
X143525139Y-86586610D01*
X143525141Y-86586599D01*
X143544966Y-86360002D01*
X143544966Y-86359997D01*
X143525141Y-86133400D01*
X143525139Y-86133389D01*
X143466269Y-85913682D01*
X143466265Y-85913673D01*
X143370133Y-85707516D01*
X143370131Y-85707512D01*
X143319026Y-85634526D01*
X143319025Y-85634526D01*
X142637953Y-86315598D01*
X142625165Y-86234852D01*
X142567641Y-86121955D01*
X142478045Y-86032359D01*
X142365148Y-85974835D01*
X142284400Y-85962046D01*
X142965472Y-85280974D01*
X142965471Y-85280973D01*
X142892483Y-85229866D01*
X142892481Y-85229865D01*
X142686326Y-85133734D01*
X142686317Y-85133730D01*
X142466610Y-85074860D01*
X142466599Y-85074858D01*
X142240002Y-85055034D01*
X142239998Y-85055034D01*
X142013400Y-85074858D01*
X142013389Y-85074860D01*
X141793682Y-85133730D01*
X141793673Y-85133734D01*
X141587513Y-85229868D01*
X141514527Y-85280972D01*
X141514526Y-85280973D01*
X142195600Y-85962046D01*
X142114852Y-85974835D01*
X142001955Y-86032359D01*
X141912359Y-86121955D01*
X141854835Y-86234852D01*
X141842046Y-86315599D01*
X141160973Y-85634526D01*
X141160972Y-85634527D01*
X141109868Y-85707512D01*
X141102656Y-85722979D01*
X141056482Y-85775417D01*
X140989288Y-85794567D01*
X140922407Y-85774350D01*
X140877893Y-85722976D01*
X140870568Y-85707266D01*
X140740047Y-85520861D01*
X140740045Y-85520858D01*
X140579141Y-85359954D01*
X140392734Y-85229432D01*
X140392732Y-85229431D01*
X140186497Y-85133261D01*
X140186488Y-85133258D01*
X139966697Y-85074366D01*
X139966693Y-85074365D01*
X139966692Y-85074365D01*
X139966691Y-85074364D01*
X139966686Y-85074364D01*
X139740002Y-85054532D01*
X139739998Y-85054532D01*
X139513313Y-85074364D01*
X139513302Y-85074366D01*
X139293511Y-85133258D01*
X139293502Y-85133261D01*
X139087263Y-85229433D01*
X139050778Y-85254980D01*
X138984572Y-85277307D01*
X138916804Y-85260295D01*
X138891975Y-85241085D01*
X137666103Y-84015212D01*
X137656280Y-84002950D01*
X137656059Y-84003134D01*
X137651086Y-83997123D01*
X137600664Y-83949773D01*
X137590219Y-83939328D01*
X137579775Y-83928883D01*
X137574286Y-83924625D01*
X137569861Y-83920847D01*
X137535882Y-83888938D01*
X137535880Y-83888936D01*
X137535877Y-83888935D01*
X137518329Y-83879288D01*
X137502063Y-83868604D01*
X137486233Y-83856325D01*
X137443468Y-83837818D01*
X137438222Y-83835248D01*
X137397395Y-83812804D01*
X137397392Y-83812803D01*
X137379292Y-83808155D01*
X137319256Y-83772416D01*
X137289928Y-83718492D01*
X137266610Y-83626409D01*
X137170049Y-83406272D01*
X137038571Y-83205031D01*
X136875764Y-83028175D01*
X136875759Y-83028171D01*
X136875757Y-83028169D01*
X136686075Y-82880533D01*
X136686069Y-82880529D01*
X136474657Y-82766118D01*
X136474652Y-82766116D01*
X136247300Y-82688066D01*
X136048593Y-82654908D01*
X136010192Y-82648500D01*
X135769808Y-82648500D01*
X135731407Y-82654908D01*
X135532699Y-82688066D01*
X135305347Y-82766116D01*
X135305342Y-82766118D01*
X135093930Y-82880529D01*
X135093924Y-82880533D01*
X134904242Y-83028169D01*
X134904239Y-83028172D01*
X134904236Y-83028174D01*
X134904236Y-83028175D01*
X134891954Y-83041517D01*
X134741428Y-83205031D01*
X134723509Y-83232459D01*
X134670362Y-83277815D01*
X134601130Y-83287238D01*
X134537795Y-83257735D01*
X134515893Y-83232458D01*
X134498178Y-83205344D01*
X134335422Y-83028544D01*
X134145790Y-82880947D01*
X133934455Y-82766578D01*
X133934449Y-82766576D01*
X133707176Y-82688553D01*
X133600000Y-82670668D01*
X133600000Y-83963498D01*
X133492315Y-83914320D01*
X133385763Y-83899000D01*
X133314237Y-83899000D01*
X133207685Y-83914320D01*
X133100000Y-83963498D01*
X133100000Y-82670668D01*
X133099999Y-82670668D01*
X132992823Y-82688553D01*
X132765550Y-82766576D01*
X132765544Y-82766578D01*
X132554209Y-82880948D01*
X132408508Y-82994351D01*
X132343514Y-83019993D01*
X132274974Y-83006426D01*
X132224649Y-82957958D01*
X132216163Y-82939828D01*
X132203796Y-82906669D01*
X132203793Y-82906664D01*
X132117547Y-82791455D01*
X132117544Y-82791452D01*
X132002335Y-82705206D01*
X132002328Y-82705202D01*
X131867482Y-82654908D01*
X131867483Y-82654908D01*
X131807883Y-82648501D01*
X131807881Y-82648500D01*
X131807873Y-82648500D01*
X131807864Y-82648500D01*
X129812129Y-82648500D01*
X129812123Y-82648501D01*
X129752516Y-82654908D01*
X129617671Y-82705202D01*
X129617664Y-82705206D01*
X129502455Y-82791452D01*
X129502452Y-82791455D01*
X129416206Y-82906664D01*
X129416202Y-82906671D01*
X129365908Y-83041517D01*
X129359501Y-83101116D01*
X129359500Y-83101135D01*
X129359500Y-85696870D01*
X127309577Y-85696870D01*
X127637710Y-85368736D01*
X127637709Y-85368735D01*
X127527556Y-85300531D01*
X127527550Y-85300528D01*
X127323896Y-85221633D01*
X127109201Y-85181500D01*
X126890799Y-85181500D01*
X126676103Y-85221633D01*
X126472449Y-85300528D01*
X126472443Y-85300532D01*
X126362289Y-85368735D01*
X126362288Y-85368736D01*
X126940304Y-85946751D01*
X126869377Y-85957985D01*
X126751541Y-86018025D01*
X126658025Y-86111541D01*
X126597985Y-86229377D01*
X126586751Y-86300303D01*
X126006488Y-85720040D01*
X125993727Y-85736939D01*
X125896373Y-85932451D01*
X125896370Y-85932457D01*
X125836603Y-86142520D01*
X125836602Y-86142523D01*
X125816451Y-86359999D01*
X125816451Y-86360000D01*
X123098999Y-86360000D01*
X123098999Y-85633628D01*
X123092591Y-85574017D01*
X123089430Y-85565543D01*
X123042297Y-85439171D01*
X123042293Y-85439164D01*
X122956047Y-85323955D01*
X122956044Y-85323952D01*
X122840835Y-85237706D01*
X122840828Y-85237702D01*
X122705982Y-85187408D01*
X122705983Y-85187408D01*
X122646383Y-85181001D01*
X122646381Y-85181000D01*
X122646373Y-85181000D01*
X122646364Y-85181000D01*
X121193629Y-85181000D01*
X121193623Y-85181001D01*
X121134016Y-85187408D01*
X120999171Y-85237702D01*
X120999164Y-85237706D01*
X120883955Y-85323952D01*
X120883952Y-85323955D01*
X120797706Y-85439164D01*
X120797702Y-85439171D01*
X120747408Y-85574017D01*
X120741267Y-85631140D01*
X120741001Y-85633623D01*
X120741000Y-85633635D01*
X120741000Y-87086370D01*
X113030000Y-87086370D01*
X113030000Y-72390000D01*
X148700554Y-72390000D01*
X148720295Y-72603047D01*
X148720296Y-72603050D01*
X148778846Y-72808835D01*
X148778849Y-72808840D01*
X148874219Y-73000370D01*
X149003159Y-73171114D01*
X149161278Y-73315258D01*
X149161283Y-73315261D01*
X149161286Y-73315263D01*
X149343186Y-73427891D01*
X149343187Y-73427891D01*
X149343190Y-73427893D01*
X149542703Y-73505185D01*
X149753020Y-73544500D01*
X149753022Y-73544500D01*
X149966978Y-73544500D01*
X149966980Y-73544500D01*
X150177297Y-73505185D01*
X150376810Y-73427893D01*
X150558722Y-73315258D01*
X150716841Y-73171114D01*
X150845781Y-73000370D01*
X150941151Y-72808840D01*
X150941151Y-72808837D01*
X150941153Y-72808835D01*
X150999703Y-72603050D01*
X150999704Y-72603047D01*
X151019446Y-72390000D01*
X151019446Y-72389999D01*
X150999704Y-72176952D01*
X150999703Y-72176949D01*
X150941153Y-71971164D01*
X150941150Y-71971158D01*
X150845781Y-71779630D01*
X150716841Y-71608886D01*
X150558722Y-71464742D01*
X150558716Y-71464738D01*
X150558713Y-71464736D01*
X150376813Y-71352108D01*
X150376807Y-71352106D01*
X150177297Y-71274815D01*
X150001153Y-71241888D01*
X149938874Y-71210221D01*
X149903601Y-71149908D01*
X149906535Y-71080100D01*
X149946744Y-71022960D01*
X150001152Y-70998112D01*
X150177297Y-70965185D01*
X150376810Y-70887893D01*
X150558722Y-70775258D01*
X150716841Y-70631114D01*
X150845781Y-70460370D01*
X150941151Y-70268840D01*
X150941151Y-70268837D01*
X150941153Y-70268835D01*
X150977904Y-70139668D01*
X150999704Y-70063048D01*
X151019446Y-69850000D01*
X150999704Y-69636952D01*
X150981210Y-69571951D01*
X150941153Y-69431164D01*
X150941150Y-69431158D01*
X150931939Y-69412659D01*
X150845781Y-69239630D01*
X150716841Y-69068886D01*
X150558722Y-68924742D01*
X150558716Y-68924738D01*
X150558713Y-68924736D01*
X150376813Y-68812108D01*
X150376807Y-68812106D01*
X150177297Y-68734815D01*
X150001153Y-68701888D01*
X149938874Y-68670221D01*
X149903601Y-68609908D01*
X149906535Y-68540100D01*
X149946744Y-68482960D01*
X150001152Y-68458112D01*
X150177297Y-68425185D01*
X150376810Y-68347893D01*
X150558722Y-68235258D01*
X150716841Y-68091114D01*
X150845781Y-67920370D01*
X150941151Y-67728840D01*
X150941151Y-67728837D01*
X150941153Y-67728835D01*
X150974679Y-67611000D01*
X150999704Y-67523048D01*
X151019446Y-67310000D01*
X150999704Y-67096952D01*
X150980212Y-67028444D01*
X150941153Y-66891164D01*
X150941150Y-66891158D01*
X150931668Y-66872116D01*
X150845781Y-66699630D01*
X150716841Y-66528886D01*
X150558722Y-66384742D01*
X150558716Y-66384738D01*
X150558713Y-66384736D01*
X150376813Y-66272108D01*
X150376807Y-66272106D01*
X150177297Y-66194815D01*
X150001153Y-66161888D01*
X149938874Y-66130221D01*
X149903601Y-66069908D01*
X149906535Y-66000100D01*
X149946744Y-65942960D01*
X150001152Y-65918112D01*
X150177297Y-65885185D01*
X150376810Y-65807893D01*
X150558722Y-65695258D01*
X150716841Y-65551114D01*
X150845781Y-65380370D01*
X150941151Y-65188840D01*
X150941151Y-65188837D01*
X150941153Y-65188835D01*
X150999703Y-64983050D01*
X150999704Y-64983047D01*
X151019446Y-64770000D01*
X151019446Y-64769999D01*
X150999704Y-64556952D01*
X150999703Y-64556949D01*
X150941153Y-64351164D01*
X150941150Y-64351158D01*
X150845781Y-64159630D01*
X150716841Y-63988886D01*
X150558722Y-63844742D01*
X150558716Y-63844738D01*
X150558713Y-63844736D01*
X150376813Y-63732108D01*
X150376807Y-63732106D01*
X150177297Y-63654815D01*
X150001153Y-63621888D01*
X149938874Y-63590221D01*
X149903601Y-63529908D01*
X149906535Y-63460100D01*
X149946744Y-63402960D01*
X150001152Y-63378112D01*
X150177297Y-63345185D01*
X150376810Y-63267893D01*
X150558722Y-63155258D01*
X150716841Y-63011114D01*
X150845781Y-62840370D01*
X150941151Y-62648840D01*
X150941151Y-62648837D01*
X150941153Y-62648835D01*
X150999703Y-62443050D01*
X150999704Y-62443047D01*
X151019446Y-62230000D01*
X151019446Y-62229999D01*
X150999704Y-62016952D01*
X150999703Y-62016949D01*
X150941153Y-61811164D01*
X150941150Y-61811158D01*
X150896007Y-61720498D01*
X150845781Y-61619630D01*
X150716841Y-61448886D01*
X150558722Y-61304742D01*
X150558716Y-61304738D01*
X150558713Y-61304736D01*
X150376813Y-61192108D01*
X150376807Y-61192106D01*
X150177297Y-61114815D01*
X150001153Y-61081888D01*
X149938874Y-61050221D01*
X149903601Y-60989908D01*
X149906535Y-60920100D01*
X149946744Y-60862960D01*
X150001152Y-60838112D01*
X150177297Y-60805185D01*
X150376810Y-60727893D01*
X150558722Y-60615258D01*
X150716841Y-60471114D01*
X150845781Y-60300370D01*
X150941151Y-60108840D01*
X150941151Y-60108837D01*
X150941153Y-60108835D01*
X150990848Y-59934172D01*
X150999704Y-59903048D01*
X151019446Y-59690000D01*
X150999704Y-59476952D01*
X150991200Y-59447065D01*
X150941153Y-59271164D01*
X150941150Y-59271158D01*
X150845781Y-59079630D01*
X150716841Y-58908886D01*
X150558722Y-58764742D01*
X150558716Y-58764738D01*
X150558713Y-58764736D01*
X150376813Y-58652108D01*
X150376807Y-58652106D01*
X150177297Y-58574815D01*
X150001153Y-58541888D01*
X149938874Y-58510221D01*
X149903601Y-58449908D01*
X149906535Y-58380100D01*
X149946744Y-58322960D01*
X150001152Y-58298112D01*
X150177297Y-58265185D01*
X150376810Y-58187893D01*
X150558722Y-58075258D01*
X150716841Y-57931114D01*
X150845781Y-57760370D01*
X150941151Y-57568840D01*
X150941151Y-57568837D01*
X150941153Y-57568835D01*
X150977039Y-57442706D01*
X150999704Y-57363048D01*
X151019446Y-57150000D01*
X150999704Y-56936952D01*
X150967034Y-56822128D01*
X150941153Y-56731164D01*
X150941150Y-56731158D01*
X150889616Y-56627664D01*
X150845781Y-56539630D01*
X150716841Y-56368886D01*
X150558722Y-56224742D01*
X150558716Y-56224738D01*
X150558713Y-56224736D01*
X150376813Y-56112108D01*
X150376807Y-56112106D01*
X150177297Y-56034815D01*
X150046622Y-56010387D01*
X149984342Y-55978720D01*
X149949069Y-55918407D01*
X149952003Y-55848599D01*
X149992212Y-55791459D01*
X150056930Y-55765128D01*
X150069401Y-55764499D01*
X150561872Y-55764499D01*
X150621483Y-55758091D01*
X150756331Y-55707796D01*
X150871546Y-55621546D01*
X150957796Y-55506331D01*
X151008091Y-55371483D01*
X151014500Y-55311873D01*
X151014499Y-53908128D01*
X151008091Y-53848517D01*
X151000769Y-53828887D01*
X150957797Y-53713671D01*
X150957793Y-53713664D01*
X150871547Y-53598455D01*
X150871544Y-53598452D01*
X150756335Y-53512206D01*
X150756328Y-53512202D01*
X150621482Y-53461908D01*
X150621483Y-53461908D01*
X150561883Y-53455501D01*
X150561881Y-53455500D01*
X150561873Y-53455500D01*
X150561864Y-53455500D01*
X149158129Y-53455500D01*
X149158123Y-53455501D01*
X149098516Y-53461908D01*
X148963671Y-53512202D01*
X148963664Y-53512206D01*
X148848455Y-53598452D01*
X148848452Y-53598455D01*
X148762206Y-53713664D01*
X148762202Y-53713671D01*
X148711908Y-53848517D01*
X148705501Y-53908116D01*
X148705501Y-53908123D01*
X148705500Y-53908135D01*
X148705500Y-55311870D01*
X148705501Y-55311876D01*
X148711908Y-55371483D01*
X148762202Y-55506328D01*
X148762206Y-55506335D01*
X148848452Y-55621544D01*
X148848455Y-55621547D01*
X148963664Y-55707793D01*
X148963671Y-55707797D01*
X149098517Y-55758091D01*
X149098516Y-55758091D01*
X149105444Y-55758835D01*
X149158127Y-55764500D01*
X149650592Y-55764499D01*
X149717629Y-55784183D01*
X149763384Y-55836987D01*
X149773328Y-55906146D01*
X149744303Y-55969702D01*
X149685525Y-56007476D01*
X149673375Y-56010388D01*
X149542703Y-56034815D01*
X149416533Y-56083693D01*
X149343192Y-56112106D01*
X149343186Y-56112108D01*
X149161286Y-56224736D01*
X149161283Y-56224738D01*
X149161279Y-56224740D01*
X149161278Y-56224742D01*
X149003159Y-56368886D01*
X149003158Y-56368887D01*
X148874219Y-56539629D01*
X148778849Y-56731158D01*
X148778846Y-56731164D01*
X148720296Y-56936949D01*
X148720295Y-56936952D01*
X148700554Y-57149999D01*
X148700554Y-57150000D01*
X148720295Y-57363047D01*
X148720296Y-57363050D01*
X148778846Y-57568835D01*
X148778849Y-57568840D01*
X148874219Y-57760370D01*
X149003159Y-57931114D01*
X149161278Y-58075258D01*
X149161283Y-58075261D01*
X149161286Y-58075263D01*
X149343186Y-58187891D01*
X149343187Y-58187891D01*
X149343190Y-58187893D01*
X149542703Y-58265185D01*
X149718845Y-58298111D01*
X149781125Y-58329779D01*
X149816398Y-58390092D01*
X149813464Y-58459900D01*
X149773255Y-58517040D01*
X149718845Y-58541888D01*
X149542703Y-58574815D01*
X149416533Y-58623693D01*
X149343192Y-58652106D01*
X149343186Y-58652108D01*
X149161286Y-58764736D01*
X149161283Y-58764738D01*
X149161279Y-58764740D01*
X149161278Y-58764742D01*
X149003159Y-58908886D01*
X149003158Y-58908887D01*
X148874219Y-59079629D01*
X148778849Y-59271158D01*
X148778846Y-59271164D01*
X148720296Y-59476949D01*
X148720295Y-59476952D01*
X148700554Y-59689999D01*
X148700554Y-59690000D01*
X148720295Y-59903047D01*
X148720296Y-59903050D01*
X148778846Y-60108835D01*
X148778849Y-60108841D01*
X148838230Y-60228094D01*
X148874219Y-60300370D01*
X149003159Y-60471114D01*
X149161278Y-60615258D01*
X149161283Y-60615261D01*
X149161286Y-60615263D01*
X149343186Y-60727891D01*
X149343187Y-60727891D01*
X149343190Y-60727893D01*
X149542703Y-60805185D01*
X149718845Y-60838111D01*
X149781125Y-60869779D01*
X149816398Y-60930092D01*
X149813464Y-60999900D01*
X149773255Y-61057040D01*
X149718845Y-61081888D01*
X149542703Y-61114815D01*
X149416533Y-61163693D01*
X149343192Y-61192106D01*
X149343186Y-61192108D01*
X149161286Y-61304736D01*
X149161283Y-61304738D01*
X149161279Y-61304740D01*
X149161278Y-61304742D01*
X149003159Y-61448886D01*
X149003158Y-61448887D01*
X148874219Y-61619629D01*
X148778849Y-61811158D01*
X148778846Y-61811164D01*
X148720296Y-62016949D01*
X148720295Y-62016952D01*
X148700554Y-62229999D01*
X148700554Y-62230000D01*
X148720295Y-62443047D01*
X148720296Y-62443050D01*
X148778846Y-62648835D01*
X148778849Y-62648840D01*
X148874219Y-62840370D01*
X149003159Y-63011114D01*
X149161278Y-63155258D01*
X149161283Y-63155261D01*
X149161286Y-63155263D01*
X149343186Y-63267891D01*
X149343187Y-63267891D01*
X149343190Y-63267893D01*
X149542703Y-63345185D01*
X149718845Y-63378111D01*
X149781125Y-63409779D01*
X149816398Y-63470092D01*
X149813464Y-63539900D01*
X149773255Y-63597040D01*
X149718845Y-63621888D01*
X149542703Y-63654815D01*
X149416533Y-63703693D01*
X149343192Y-63732106D01*
X149343186Y-63732108D01*
X149161286Y-63844736D01*
X149161283Y-63844738D01*
X149161279Y-63844740D01*
X149161278Y-63844742D01*
X149003159Y-63988886D01*
X149003158Y-63988887D01*
X148874219Y-64159629D01*
X148778849Y-64351158D01*
X148778846Y-64351164D01*
X148720296Y-64556949D01*
X148720295Y-64556952D01*
X148700554Y-64769999D01*
X148700554Y-64770000D01*
X148720295Y-64983047D01*
X148720296Y-64983050D01*
X148778846Y-65188835D01*
X148778849Y-65188840D01*
X148874219Y-65380370D01*
X149003159Y-65551114D01*
X149161278Y-65695258D01*
X149161283Y-65695261D01*
X149161286Y-65695263D01*
X149343186Y-65807891D01*
X149343187Y-65807891D01*
X149343190Y-65807893D01*
X149542703Y-65885185D01*
X149718845Y-65918111D01*
X149781125Y-65949779D01*
X149816398Y-66010092D01*
X149813464Y-66079900D01*
X149773255Y-66137040D01*
X149718845Y-66161888D01*
X149542703Y-66194815D01*
X149478295Y-66219767D01*
X149343192Y-66272106D01*
X149343186Y-66272108D01*
X149161286Y-66384736D01*
X149161283Y-66384738D01*
X149161279Y-66384740D01*
X149161278Y-66384742D01*
X149014710Y-66518356D01*
X149003158Y-66528887D01*
X148874219Y-66699629D01*
X148778849Y-66891158D01*
X148778846Y-66891164D01*
X148720296Y-67096949D01*
X148720295Y-67096952D01*
X148700554Y-67309999D01*
X148700554Y-67310000D01*
X148720295Y-67523047D01*
X148720296Y-67523050D01*
X148778846Y-67728835D01*
X148778849Y-67728841D01*
X148847183Y-67866075D01*
X148874219Y-67920370D01*
X149003159Y-68091114D01*
X149161278Y-68235258D01*
X149161283Y-68235261D01*
X149161286Y-68235263D01*
X149343186Y-68347891D01*
X149343187Y-68347891D01*
X149343190Y-68347893D01*
X149542703Y-68425185D01*
X149718845Y-68458111D01*
X149781125Y-68489779D01*
X149816398Y-68550092D01*
X149813464Y-68619900D01*
X149773255Y-68677040D01*
X149718845Y-68701888D01*
X149542703Y-68734815D01*
X149419070Y-68782711D01*
X149343192Y-68812106D01*
X149343186Y-68812108D01*
X149161286Y-68924736D01*
X149161283Y-68924738D01*
X149161279Y-68924740D01*
X149161278Y-68924742D01*
X149010629Y-69062076D01*
X149003158Y-69068887D01*
X148874219Y-69239629D01*
X148778849Y-69431158D01*
X148778846Y-69431164D01*
X148720296Y-69636949D01*
X148720295Y-69636952D01*
X148700554Y-69849999D01*
X148700554Y-69850000D01*
X148720295Y-70063047D01*
X148720296Y-70063050D01*
X148778846Y-70268835D01*
X148778849Y-70268841D01*
X148863905Y-70439657D01*
X148874219Y-70460370D01*
X149003159Y-70631114D01*
X149161278Y-70775258D01*
X149161283Y-70775261D01*
X149161286Y-70775263D01*
X149343186Y-70887891D01*
X149343187Y-70887891D01*
X149343190Y-70887893D01*
X149542703Y-70965185D01*
X149718845Y-70998111D01*
X149781125Y-71029779D01*
X149816398Y-71090092D01*
X149813464Y-71159900D01*
X149773255Y-71217040D01*
X149718845Y-71241888D01*
X149542703Y-71274815D01*
X149431558Y-71317873D01*
X149343192Y-71352106D01*
X149343186Y-71352108D01*
X149161286Y-71464736D01*
X149161283Y-71464738D01*
X149161279Y-71464740D01*
X149161278Y-71464742D01*
X149109071Y-71512335D01*
X149003158Y-71608887D01*
X148874219Y-71779629D01*
X148778849Y-71971158D01*
X148778846Y-71971164D01*
X148720296Y-72176949D01*
X148720295Y-72176952D01*
X148700554Y-72389999D01*
X148700554Y-72390000D01*
X113030000Y-72390000D01*
X113030000Y-68199001D01*
X131094671Y-68199001D01*
X131096835Y-68232027D01*
X131096933Y-68238155D01*
X131095723Y-68274367D01*
X131095723Y-68274376D01*
X131106880Y-68385281D01*
X131113965Y-68493376D01*
X131113966Y-68493389D01*
X131121050Y-68529003D01*
X131121930Y-68534891D01*
X131125882Y-68574164D01*
X131150996Y-68679546D01*
X131171516Y-68782711D01*
X131171518Y-68782719D01*
X131184230Y-68820171D01*
X131185831Y-68825727D01*
X131195728Y-68867252D01*
X131195730Y-68867257D01*
X131195731Y-68867261D01*
X131233542Y-68965437D01*
X131266348Y-69062077D01*
X131278294Y-69086301D01*
X131285263Y-69100433D01*
X131287515Y-69105573D01*
X131304019Y-69148428D01*
X131304023Y-69148436D01*
X131353076Y-69237946D01*
X131396822Y-69326655D01*
X131396833Y-69326673D01*
X131422380Y-69364907D01*
X131425199Y-69369557D01*
X131448822Y-69412659D01*
X131448829Y-69412671D01*
X131506671Y-69491175D01*
X131508308Y-69493507D01*
X131549366Y-69554955D01*
X131560727Y-69571957D01*
X131593182Y-69608965D01*
X131596482Y-69613068D01*
X131627551Y-69655235D01*
X131693114Y-69723028D01*
X131695160Y-69725249D01*
X131755242Y-69793758D01*
X131790025Y-69824262D01*
X131794670Y-69828336D01*
X131798358Y-69831849D01*
X131815912Y-69849999D01*
X131837020Y-69871824D01*
X131864375Y-69893426D01*
X131908495Y-69928267D01*
X131910950Y-69930311D01*
X131977040Y-69988270D01*
X131977040Y-69988271D01*
X132023336Y-70019205D01*
X132027307Y-70022092D01*
X132073485Y-70058558D01*
X132149059Y-70103320D01*
X132151897Y-70105106D01*
X132203617Y-70139665D01*
X132222338Y-70152174D01*
X132239190Y-70160484D01*
X132275187Y-70178236D01*
X132279318Y-70180473D01*
X132313458Y-70200694D01*
X132332717Y-70212102D01*
X132332722Y-70212104D01*
X132332730Y-70212109D01*
X132410665Y-70245156D01*
X132413826Y-70246604D01*
X132486923Y-70282652D01*
X132545759Y-70302624D01*
X132550014Y-70304245D01*
X132610128Y-70329736D01*
X132688640Y-70351242D01*
X132692160Y-70352320D01*
X132766278Y-70377481D01*
X132824967Y-70389154D01*
X132830384Y-70390232D01*
X132834658Y-70391241D01*
X132900729Y-70409340D01*
X132978224Y-70419761D01*
X132982037Y-70420397D01*
X133055620Y-70435034D01*
X133124067Y-70439519D01*
X133128246Y-70439937D01*
X133199347Y-70449500D01*
X133274302Y-70449500D01*
X133278349Y-70449632D01*
X133310372Y-70451731D01*
X133349994Y-70454329D01*
X133350000Y-70454329D01*
X133350004Y-70454329D01*
X133360762Y-70453623D01*
X133422081Y-70449604D01*
X133425222Y-70449500D01*
X133425244Y-70449500D01*
X133498842Y-70444573D01*
X133644380Y-70435034D01*
X133644409Y-70435028D01*
X133645522Y-70434882D01*
X133649478Y-70434489D01*
X133650634Y-70434412D01*
X133793658Y-70405341D01*
X133933722Y-70377481D01*
X133934442Y-70377236D01*
X133942018Y-70375185D01*
X133945903Y-70374396D01*
X134080821Y-70327547D01*
X134213077Y-70282652D01*
X134216687Y-70280871D01*
X134223754Y-70277914D01*
X134230537Y-70275560D01*
X134355220Y-70212554D01*
X134477665Y-70152172D01*
X134483700Y-70148138D01*
X134490164Y-70144364D01*
X134499459Y-70139668D01*
X134612040Y-70062385D01*
X134722957Y-69988273D01*
X134730840Y-69981358D01*
X134736622Y-69976863D01*
X134747869Y-69969144D01*
X134846824Y-69879643D01*
X134944758Y-69793758D01*
X134953799Y-69783446D01*
X134958823Y-69778345D01*
X134971333Y-69767032D01*
X135055443Y-69667545D01*
X135139273Y-69571957D01*
X135148687Y-69557866D01*
X135152895Y-69552279D01*
X135165863Y-69536941D01*
X135165865Y-69536939D01*
X135234276Y-69429775D01*
X135303172Y-69326665D01*
X135312098Y-69308562D01*
X135315441Y-69302631D01*
X135327993Y-69282970D01*
X135380195Y-69170476D01*
X135433652Y-69062077D01*
X135441179Y-69039899D01*
X135443641Y-69033752D01*
X135454823Y-69009658D01*
X135490632Y-68894219D01*
X135528481Y-68782722D01*
X135533677Y-68756597D01*
X135535271Y-68750316D01*
X135544093Y-68721879D01*
X135563676Y-68605782D01*
X135586034Y-68493380D01*
X135587987Y-68463576D01*
X135588714Y-68457342D01*
X135594209Y-68424770D01*
X135598038Y-68310231D01*
X135605329Y-68199005D01*
X135605329Y-68199001D01*
X135605329Y-68199000D01*
X135603162Y-68165955D01*
X135603065Y-68159849D01*
X135604277Y-68123631D01*
X135593119Y-68012718D01*
X135586034Y-67904620D01*
X135578944Y-67868977D01*
X135578068Y-67863107D01*
X135574118Y-67823840D01*
X135574118Y-67823838D01*
X135554988Y-67743568D01*
X135549003Y-67718453D01*
X135534310Y-67644585D01*
X135528481Y-67615278D01*
X135515764Y-67577816D01*
X135514169Y-67572283D01*
X135504269Y-67530739D01*
X135501306Y-67523047D01*
X135466457Y-67432562D01*
X135454616Y-67397680D01*
X135433652Y-67335923D01*
X135431775Y-67332117D01*
X135414732Y-67297556D01*
X135412485Y-67292429D01*
X135395977Y-67249566D01*
X135360513Y-67184852D01*
X135346919Y-67160046D01*
X135303173Y-67071339D01*
X135303172Y-67071336D01*
X135277612Y-67033083D01*
X135274798Y-67028444D01*
X135251175Y-66985335D01*
X135193312Y-66906802D01*
X135191706Y-66904514D01*
X135139273Y-66826043D01*
X135139269Y-66826038D01*
X135106817Y-66789033D01*
X135103516Y-66784930D01*
X135072450Y-66742768D01*
X135072446Y-66742762D01*
X135030987Y-66699893D01*
X135006884Y-66674970D01*
X135004838Y-66672749D01*
X134944760Y-66604244D01*
X134905322Y-66569656D01*
X134901635Y-66566144D01*
X134862981Y-66526176D01*
X134791514Y-66469740D01*
X134789059Y-66467696D01*
X134722960Y-66409729D01*
X134676656Y-66378788D01*
X134672677Y-66375894D01*
X134626517Y-66339443D01*
X134611677Y-66330653D01*
X134550918Y-66294666D01*
X134548089Y-66292884D01*
X134477666Y-66245828D01*
X134424821Y-66219767D01*
X134420668Y-66217518D01*
X134367270Y-66185891D01*
X134367266Y-66185889D01*
X134367262Y-66185887D01*
X134337641Y-66173327D01*
X134289346Y-66152847D01*
X134286157Y-66151386D01*
X134213075Y-66115347D01*
X134154243Y-66095375D01*
X134149969Y-66093746D01*
X134111174Y-66077297D01*
X134089872Y-66068264D01*
X134089868Y-66068263D01*
X134089866Y-66068262D01*
X134011365Y-66046757D01*
X134007815Y-66045670D01*
X133933734Y-66020522D01*
X133933723Y-66020519D01*
X133933722Y-66020519D01*
X133869608Y-66007765D01*
X133865333Y-66006756D01*
X133799281Y-65988662D01*
X133799265Y-65988658D01*
X133721792Y-65978239D01*
X133717962Y-65977601D01*
X133671006Y-65968262D01*
X133644380Y-65962966D01*
X133644377Y-65962965D01*
X133644374Y-65962965D01*
X133575959Y-65958481D01*
X133571750Y-65958061D01*
X133537282Y-65953426D01*
X133500653Y-65948500D01*
X133500650Y-65948500D01*
X133425698Y-65948500D01*
X133421650Y-65948367D01*
X133389627Y-65946268D01*
X133350006Y-65943671D01*
X133350002Y-65943671D01*
X133350000Y-65943671D01*
X133301934Y-65946821D01*
X133277985Y-65948391D01*
X133274765Y-65948499D01*
X133201157Y-65953426D01*
X133055620Y-65962965D01*
X133054420Y-65963123D01*
X133050506Y-65963511D01*
X133049375Y-65963587D01*
X133049372Y-65963587D01*
X133049366Y-65963588D01*
X132906341Y-65992658D01*
X132766277Y-66020518D01*
X132766270Y-66020520D01*
X132765508Y-66020779D01*
X132757943Y-66022822D01*
X132754098Y-66023603D01*
X132690548Y-66045670D01*
X132619178Y-66070452D01*
X132591346Y-66079900D01*
X132486927Y-66115346D01*
X132486922Y-66115348D01*
X132483320Y-66117124D01*
X132476241Y-66120086D01*
X132469462Y-66122440D01*
X132344757Y-66185456D01*
X132222343Y-66245823D01*
X132222328Y-66245832D01*
X132216301Y-66249858D01*
X132209828Y-66253637D01*
X132200544Y-66258329D01*
X132087943Y-66335625D01*
X131977043Y-66409727D01*
X131969156Y-66416642D01*
X131963373Y-66421138D01*
X131952132Y-66428854D01*
X131853175Y-66518356D01*
X131755241Y-66604242D01*
X131746196Y-66614555D01*
X131741175Y-66619653D01*
X131728668Y-66630966D01*
X131644556Y-66730454D01*
X131560726Y-66826042D01*
X131551308Y-66840136D01*
X131547106Y-66845716D01*
X131534141Y-66861052D01*
X131534140Y-66861053D01*
X131465715Y-66968237D01*
X131396830Y-67071331D01*
X131387905Y-67089427D01*
X131384560Y-67095362D01*
X131372006Y-67115031D01*
X131319801Y-67227530D01*
X131266350Y-67335918D01*
X131266345Y-67335930D01*
X131258822Y-67358089D01*
X131256353Y-67364257D01*
X131245176Y-67388344D01*
X131245171Y-67388358D01*
X131209367Y-67503780D01*
X131171518Y-67615279D01*
X131171516Y-67615288D01*
X131166320Y-67641410D01*
X131164728Y-67647683D01*
X131155907Y-67676119D01*
X131150192Y-67710000D01*
X131136323Y-67792217D01*
X131121051Y-67869002D01*
X131113965Y-67904627D01*
X131113964Y-67904628D01*
X131112012Y-67934416D01*
X131111281Y-67940673D01*
X131105791Y-67973231D01*
X131101961Y-68087768D01*
X131094671Y-68199001D01*
X113030000Y-68199001D01*
X113030000Y-54734000D01*
X113049685Y-54666961D01*
X113102489Y-54621206D01*
X113154000Y-54610000D01*
X120650000Y-54610000D01*
X120650000Y-47124500D01*
X120669685Y-47057461D01*
X120722489Y-47011706D01*
X120774000Y-47000500D01*
X170056000Y-47000500D01*
X170123039Y-47020185D01*
G37*
%TD.AperFunction*%
%TD*%
M02*
