%TF.GenerationSoftware,KiCad,Pcbnew,7.0.9*%
%TF.CreationDate,2025-08-10T16:09:38+02:00*%
%TF.ProjectId,Kicad_Projet_Sons_HW896_V1,4b696361-645f-4507-926f-6a65745f536f,rev?*%
%TF.SameCoordinates,Original*%
%TF.FileFunction,Legend,Top*%
%TF.FilePolarity,Positive*%
%FSLAX46Y46*%
G04 Gerber Fmt 4.6, Leading zero omitted, Abs format (unit mm)*
G04 Created by KiCad (PCBNEW 7.0.9) date 2025-08-10 16:09:38*
%MOMM*%
%LPD*%
G01*
G04 APERTURE LIST*
%ADD10C,0.200000*%
%ADD11C,0.300000*%
%ADD12C,0.187500*%
%ADD13C,0.254000*%
%ADD14C,0.150000*%
%ADD15C,0.050000*%
%ADD16C,0.100000*%
%ADD17C,0.120000*%
%ADD18C,0.127000*%
G04 APERTURE END LIST*
D10*
X154559000Y-53086000D02*
X160274000Y-53086000D01*
X160274000Y-56388000D01*
X154559000Y-56388000D01*
X154559000Y-53086000D01*
G36*
X154559000Y-53086000D02*
G01*
X160274000Y-53086000D01*
X160274000Y-56388000D01*
X154559000Y-56388000D01*
X154559000Y-53086000D01*
G37*
D11*
X172441082Y-61307400D02*
X172655368Y-61378828D01*
X172655368Y-61378828D02*
X173012510Y-61378828D01*
X173012510Y-61378828D02*
X173155368Y-61307400D01*
X173155368Y-61307400D02*
X173226796Y-61235971D01*
X173226796Y-61235971D02*
X173298225Y-61093114D01*
X173298225Y-61093114D02*
X173298225Y-60950257D01*
X173298225Y-60950257D02*
X173226796Y-60807400D01*
X173226796Y-60807400D02*
X173155368Y-60735971D01*
X173155368Y-60735971D02*
X173012510Y-60664542D01*
X173012510Y-60664542D02*
X172726796Y-60593114D01*
X172726796Y-60593114D02*
X172583939Y-60521685D01*
X172583939Y-60521685D02*
X172512510Y-60450257D01*
X172512510Y-60450257D02*
X172441082Y-60307400D01*
X172441082Y-60307400D02*
X172441082Y-60164542D01*
X172441082Y-60164542D02*
X172512510Y-60021685D01*
X172512510Y-60021685D02*
X172583939Y-59950257D01*
X172583939Y-59950257D02*
X172726796Y-59878828D01*
X172726796Y-59878828D02*
X173083939Y-59878828D01*
X173083939Y-59878828D02*
X173298225Y-59950257D01*
X173798224Y-59878828D02*
X174155367Y-61378828D01*
X174155367Y-61378828D02*
X174441081Y-60307400D01*
X174441081Y-60307400D02*
X174726796Y-61378828D01*
X174726796Y-61378828D02*
X175083939Y-59878828D01*
X175583939Y-60021685D02*
X175655367Y-59950257D01*
X175655367Y-59950257D02*
X175798225Y-59878828D01*
X175798225Y-59878828D02*
X176155367Y-59878828D01*
X176155367Y-59878828D02*
X176298225Y-59950257D01*
X176298225Y-59950257D02*
X176369653Y-60021685D01*
X176369653Y-60021685D02*
X176441082Y-60164542D01*
X176441082Y-60164542D02*
X176441082Y-60307400D01*
X176441082Y-60307400D02*
X176369653Y-60521685D01*
X176369653Y-60521685D02*
X175512510Y-61378828D01*
X175512510Y-61378828D02*
X176441082Y-61378828D01*
X156488368Y-57865828D02*
X156488368Y-58865828D01*
X155845510Y-57865828D02*
X155845510Y-58651542D01*
X155845510Y-58651542D02*
X155916939Y-58794400D01*
X155916939Y-58794400D02*
X156059796Y-58865828D01*
X156059796Y-58865828D02*
X156274082Y-58865828D01*
X156274082Y-58865828D02*
X156416939Y-58794400D01*
X156416939Y-58794400D02*
X156488368Y-58722971D01*
X157131225Y-58794400D02*
X157274082Y-58865828D01*
X157274082Y-58865828D02*
X157559796Y-58865828D01*
X157559796Y-58865828D02*
X157702653Y-58794400D01*
X157702653Y-58794400D02*
X157774082Y-58651542D01*
X157774082Y-58651542D02*
X157774082Y-58580114D01*
X157774082Y-58580114D02*
X157702653Y-58437257D01*
X157702653Y-58437257D02*
X157559796Y-58365828D01*
X157559796Y-58365828D02*
X157345511Y-58365828D01*
X157345511Y-58365828D02*
X157202653Y-58294400D01*
X157202653Y-58294400D02*
X157131225Y-58151542D01*
X157131225Y-58151542D02*
X157131225Y-58080114D01*
X157131225Y-58080114D02*
X157202653Y-57937257D01*
X157202653Y-57937257D02*
X157345511Y-57865828D01*
X157345511Y-57865828D02*
X157559796Y-57865828D01*
X157559796Y-57865828D02*
X157702653Y-57937257D01*
X158416939Y-58865828D02*
X158416939Y-57365828D01*
X158416939Y-57937257D02*
X158559797Y-57865828D01*
X158559797Y-57865828D02*
X158845511Y-57865828D01*
X158845511Y-57865828D02*
X158988368Y-57937257D01*
X158988368Y-57937257D02*
X159059797Y-58008685D01*
X159059797Y-58008685D02*
X159131225Y-58151542D01*
X159131225Y-58151542D02*
X159131225Y-58580114D01*
X159131225Y-58580114D02*
X159059797Y-58722971D01*
X159059797Y-58722971D02*
X158988368Y-58794400D01*
X158988368Y-58794400D02*
X158845511Y-58865828D01*
X158845511Y-58865828D02*
X158559797Y-58865828D01*
X158559797Y-58865828D02*
X158416939Y-58794400D01*
X168639400Y-104926917D02*
X168710828Y-104712632D01*
X168710828Y-104712632D02*
X168710828Y-104355489D01*
X168710828Y-104355489D02*
X168639400Y-104212632D01*
X168639400Y-104212632D02*
X168567971Y-104141203D01*
X168567971Y-104141203D02*
X168425114Y-104069774D01*
X168425114Y-104069774D02*
X168282257Y-104069774D01*
X168282257Y-104069774D02*
X168139400Y-104141203D01*
X168139400Y-104141203D02*
X168067971Y-104212632D01*
X168067971Y-104212632D02*
X167996542Y-104355489D01*
X167996542Y-104355489D02*
X167925114Y-104641203D01*
X167925114Y-104641203D02*
X167853685Y-104784060D01*
X167853685Y-104784060D02*
X167782257Y-104855489D01*
X167782257Y-104855489D02*
X167639400Y-104926917D01*
X167639400Y-104926917D02*
X167496542Y-104926917D01*
X167496542Y-104926917D02*
X167353685Y-104855489D01*
X167353685Y-104855489D02*
X167282257Y-104784060D01*
X167282257Y-104784060D02*
X167210828Y-104641203D01*
X167210828Y-104641203D02*
X167210828Y-104284060D01*
X167210828Y-104284060D02*
X167282257Y-104069774D01*
X168710828Y-103426918D02*
X167210828Y-103426918D01*
X167210828Y-103426918D02*
X167210828Y-102855489D01*
X167210828Y-102855489D02*
X167282257Y-102712632D01*
X167282257Y-102712632D02*
X167353685Y-102641203D01*
X167353685Y-102641203D02*
X167496542Y-102569775D01*
X167496542Y-102569775D02*
X167710828Y-102569775D01*
X167710828Y-102569775D02*
X167853685Y-102641203D01*
X167853685Y-102641203D02*
X167925114Y-102712632D01*
X167925114Y-102712632D02*
X167996542Y-102855489D01*
X167996542Y-102855489D02*
X167996542Y-103426918D01*
X168710828Y-101926918D02*
X167210828Y-101926918D01*
X168710828Y-101069775D02*
X167853685Y-101712632D01*
X167210828Y-101069775D02*
X168067971Y-101926918D01*
X168139400Y-100426918D02*
X168139400Y-99284061D01*
X163559400Y-104926917D02*
X163630828Y-104712632D01*
X163630828Y-104712632D02*
X163630828Y-104355489D01*
X163630828Y-104355489D02*
X163559400Y-104212632D01*
X163559400Y-104212632D02*
X163487971Y-104141203D01*
X163487971Y-104141203D02*
X163345114Y-104069774D01*
X163345114Y-104069774D02*
X163202257Y-104069774D01*
X163202257Y-104069774D02*
X163059400Y-104141203D01*
X163059400Y-104141203D02*
X162987971Y-104212632D01*
X162987971Y-104212632D02*
X162916542Y-104355489D01*
X162916542Y-104355489D02*
X162845114Y-104641203D01*
X162845114Y-104641203D02*
X162773685Y-104784060D01*
X162773685Y-104784060D02*
X162702257Y-104855489D01*
X162702257Y-104855489D02*
X162559400Y-104926917D01*
X162559400Y-104926917D02*
X162416542Y-104926917D01*
X162416542Y-104926917D02*
X162273685Y-104855489D01*
X162273685Y-104855489D02*
X162202257Y-104784060D01*
X162202257Y-104784060D02*
X162130828Y-104641203D01*
X162130828Y-104641203D02*
X162130828Y-104284060D01*
X162130828Y-104284060D02*
X162202257Y-104069774D01*
X163630828Y-103426918D02*
X162130828Y-103426918D01*
X162130828Y-103426918D02*
X162130828Y-102855489D01*
X162130828Y-102855489D02*
X162202257Y-102712632D01*
X162202257Y-102712632D02*
X162273685Y-102641203D01*
X162273685Y-102641203D02*
X162416542Y-102569775D01*
X162416542Y-102569775D02*
X162630828Y-102569775D01*
X162630828Y-102569775D02*
X162773685Y-102641203D01*
X162773685Y-102641203D02*
X162845114Y-102712632D01*
X162845114Y-102712632D02*
X162916542Y-102855489D01*
X162916542Y-102855489D02*
X162916542Y-103426918D01*
X163630828Y-101926918D02*
X162130828Y-101926918D01*
X163630828Y-101069775D02*
X162773685Y-101712632D01*
X162130828Y-101069775D02*
X162987971Y-101926918D01*
X163059400Y-100426918D02*
X163059400Y-99284061D01*
X163630828Y-99855489D02*
X162487971Y-99855489D01*
X149114510Y-104075828D02*
X149114510Y-102575828D01*
X149114510Y-102575828D02*
X149614510Y-103647257D01*
X149614510Y-103647257D02*
X150114510Y-102575828D01*
X150114510Y-102575828D02*
X150114510Y-104075828D01*
X150828796Y-104075828D02*
X150828796Y-103075828D01*
X150828796Y-102575828D02*
X150757368Y-102647257D01*
X150757368Y-102647257D02*
X150828796Y-102718685D01*
X150828796Y-102718685D02*
X150900225Y-102647257D01*
X150900225Y-102647257D02*
X150828796Y-102575828D01*
X150828796Y-102575828D02*
X150828796Y-102718685D01*
X151543082Y-103075828D02*
X151543082Y-104075828D01*
X151543082Y-103218685D02*
X151614511Y-103147257D01*
X151614511Y-103147257D02*
X151757368Y-103075828D01*
X151757368Y-103075828D02*
X151971654Y-103075828D01*
X151971654Y-103075828D02*
X152114511Y-103147257D01*
X152114511Y-103147257D02*
X152185940Y-103290114D01*
X152185940Y-103290114D02*
X152185940Y-104075828D01*
X152900225Y-104075828D02*
X152900225Y-103075828D01*
X152900225Y-102575828D02*
X152828797Y-102647257D01*
X152828797Y-102647257D02*
X152900225Y-102718685D01*
X152900225Y-102718685D02*
X152971654Y-102647257D01*
X152971654Y-102647257D02*
X152900225Y-102575828D01*
X152900225Y-102575828D02*
X152900225Y-102718685D01*
X154828797Y-104075828D02*
X155114511Y-104075828D01*
X155114511Y-104075828D02*
X155257368Y-104004400D01*
X155257368Y-104004400D02*
X155328797Y-103932971D01*
X155328797Y-103932971D02*
X155471654Y-103718685D01*
X155471654Y-103718685D02*
X155543083Y-103432971D01*
X155543083Y-103432971D02*
X155543083Y-102861542D01*
X155543083Y-102861542D02*
X155471654Y-102718685D01*
X155471654Y-102718685D02*
X155400226Y-102647257D01*
X155400226Y-102647257D02*
X155257368Y-102575828D01*
X155257368Y-102575828D02*
X154971654Y-102575828D01*
X154971654Y-102575828D02*
X154828797Y-102647257D01*
X154828797Y-102647257D02*
X154757368Y-102718685D01*
X154757368Y-102718685D02*
X154685940Y-102861542D01*
X154685940Y-102861542D02*
X154685940Y-103218685D01*
X154685940Y-103218685D02*
X154757368Y-103361542D01*
X154757368Y-103361542D02*
X154828797Y-103432971D01*
X154828797Y-103432971D02*
X154971654Y-103504400D01*
X154971654Y-103504400D02*
X155257368Y-103504400D01*
X155257368Y-103504400D02*
X155400226Y-103432971D01*
X155400226Y-103432971D02*
X155471654Y-103361542D01*
X155471654Y-103361542D02*
X155543083Y-103218685D01*
X156043082Y-103075828D02*
X156400225Y-104075828D01*
X156400225Y-104075828D02*
X156757368Y-103075828D01*
X149114510Y-106490828D02*
X149114510Y-104990828D01*
X149114510Y-104990828D02*
X149614510Y-106062257D01*
X149614510Y-106062257D02*
X150114510Y-104990828D01*
X150114510Y-104990828D02*
X150114510Y-106490828D01*
X151471654Y-106490828D02*
X151471654Y-105705114D01*
X151471654Y-105705114D02*
X151400225Y-105562257D01*
X151400225Y-105562257D02*
X151257368Y-105490828D01*
X151257368Y-105490828D02*
X150971654Y-105490828D01*
X150971654Y-105490828D02*
X150828796Y-105562257D01*
X151471654Y-106419400D02*
X151328796Y-106490828D01*
X151328796Y-106490828D02*
X150971654Y-106490828D01*
X150971654Y-106490828D02*
X150828796Y-106419400D01*
X150828796Y-106419400D02*
X150757368Y-106276542D01*
X150757368Y-106276542D02*
X150757368Y-106133685D01*
X150757368Y-106133685D02*
X150828796Y-105990828D01*
X150828796Y-105990828D02*
X150971654Y-105919400D01*
X150971654Y-105919400D02*
X151328796Y-105919400D01*
X151328796Y-105919400D02*
X151471654Y-105847971D01*
X152043082Y-106490828D02*
X152828797Y-105490828D01*
X152043082Y-105490828D02*
X152828797Y-106490828D01*
X153400225Y-106490828D02*
X153400225Y-105490828D01*
X153400225Y-104990828D02*
X153328797Y-105062257D01*
X153328797Y-105062257D02*
X153400225Y-105133685D01*
X153400225Y-105133685D02*
X153471654Y-105062257D01*
X153471654Y-105062257D02*
X153400225Y-104990828D01*
X153400225Y-104990828D02*
X153400225Y-105133685D01*
X156043083Y-106490828D02*
X155185940Y-106490828D01*
X155614511Y-106490828D02*
X155614511Y-104990828D01*
X155614511Y-104990828D02*
X155471654Y-105205114D01*
X155471654Y-105205114D02*
X155328797Y-105347971D01*
X155328797Y-105347971D02*
X155185940Y-105419400D01*
X157400225Y-104990828D02*
X156685939Y-104990828D01*
X156685939Y-104990828D02*
X156614511Y-105705114D01*
X156614511Y-105705114D02*
X156685939Y-105633685D01*
X156685939Y-105633685D02*
X156828797Y-105562257D01*
X156828797Y-105562257D02*
X157185939Y-105562257D01*
X157185939Y-105562257D02*
X157328797Y-105633685D01*
X157328797Y-105633685D02*
X157400225Y-105705114D01*
X157400225Y-105705114D02*
X157471654Y-105847971D01*
X157471654Y-105847971D02*
X157471654Y-106205114D01*
X157471654Y-106205114D02*
X157400225Y-106347971D01*
X157400225Y-106347971D02*
X157328797Y-106419400D01*
X157328797Y-106419400D02*
X157185939Y-106490828D01*
X157185939Y-106490828D02*
X156828797Y-106490828D01*
X156828797Y-106490828D02*
X156685939Y-106419400D01*
X156685939Y-106419400D02*
X156614511Y-106347971D01*
X157971653Y-105490828D02*
X158328796Y-106490828D01*
X158328796Y-106490828D02*
X158685939Y-105490828D01*
D12*
X115727678Y-93890502D02*
X114227678Y-93890502D01*
X115727678Y-93247645D02*
X114941964Y-93247645D01*
X114941964Y-93247645D02*
X114799107Y-93319073D01*
X114799107Y-93319073D02*
X114727678Y-93461930D01*
X114727678Y-93461930D02*
X114727678Y-93676216D01*
X114727678Y-93676216D02*
X114799107Y-93819073D01*
X114799107Y-93819073D02*
X114870535Y-93890502D01*
X114727678Y-92747644D02*
X114727678Y-92176216D01*
X114227678Y-92533359D02*
X115513392Y-92533359D01*
X115513392Y-92533359D02*
X115656250Y-92461930D01*
X115656250Y-92461930D02*
X115727678Y-92319073D01*
X115727678Y-92319073D02*
X115727678Y-92176216D01*
X114727678Y-91890501D02*
X114727678Y-91319073D01*
X114227678Y-91676216D02*
X115513392Y-91676216D01*
X115513392Y-91676216D02*
X115656250Y-91604787D01*
X115656250Y-91604787D02*
X115727678Y-91461930D01*
X115727678Y-91461930D02*
X115727678Y-91319073D01*
X114727678Y-90819073D02*
X116227678Y-90819073D01*
X114799107Y-90819073D02*
X114727678Y-90676216D01*
X114727678Y-90676216D02*
X114727678Y-90390501D01*
X114727678Y-90390501D02*
X114799107Y-90247644D01*
X114799107Y-90247644D02*
X114870535Y-90176216D01*
X114870535Y-90176216D02*
X115013392Y-90104787D01*
X115013392Y-90104787D02*
X115441964Y-90104787D01*
X115441964Y-90104787D02*
X115584821Y-90176216D01*
X115584821Y-90176216D02*
X115656250Y-90247644D01*
X115656250Y-90247644D02*
X115727678Y-90390501D01*
X115727678Y-90390501D02*
X115727678Y-90676216D01*
X115727678Y-90676216D02*
X115656250Y-90819073D01*
X115656250Y-89533358D02*
X115727678Y-89390501D01*
X115727678Y-89390501D02*
X115727678Y-89104787D01*
X115727678Y-89104787D02*
X115656250Y-88961930D01*
X115656250Y-88961930D02*
X115513392Y-88890501D01*
X115513392Y-88890501D02*
X115441964Y-88890501D01*
X115441964Y-88890501D02*
X115299107Y-88961930D01*
X115299107Y-88961930D02*
X115227678Y-89104787D01*
X115227678Y-89104787D02*
X115227678Y-89319073D01*
X115227678Y-89319073D02*
X115156250Y-89461930D01*
X115156250Y-89461930D02*
X115013392Y-89533358D01*
X115013392Y-89533358D02*
X114941964Y-89533358D01*
X114941964Y-89533358D02*
X114799107Y-89461930D01*
X114799107Y-89461930D02*
X114727678Y-89319073D01*
X114727678Y-89319073D02*
X114727678Y-89104787D01*
X114727678Y-89104787D02*
X114799107Y-88961930D01*
X115584821Y-88247644D02*
X115656250Y-88176215D01*
X115656250Y-88176215D02*
X115727678Y-88247644D01*
X115727678Y-88247644D02*
X115656250Y-88319072D01*
X115656250Y-88319072D02*
X115584821Y-88247644D01*
X115584821Y-88247644D02*
X115727678Y-88247644D01*
X114799107Y-88247644D02*
X114870535Y-88176215D01*
X114870535Y-88176215D02*
X114941964Y-88247644D01*
X114941964Y-88247644D02*
X114870535Y-88319072D01*
X114870535Y-88319072D02*
X114799107Y-88247644D01*
X114799107Y-88247644D02*
X114941964Y-88247644D01*
X114156250Y-86461929D02*
X116084821Y-87747643D01*
X114156250Y-84890500D02*
X116084821Y-86176214D01*
X115656250Y-83819071D02*
X115727678Y-83961928D01*
X115727678Y-83961928D02*
X115727678Y-84247643D01*
X115727678Y-84247643D02*
X115656250Y-84390500D01*
X115656250Y-84390500D02*
X115513392Y-84461928D01*
X115513392Y-84461928D02*
X114941964Y-84461928D01*
X114941964Y-84461928D02*
X114799107Y-84390500D01*
X114799107Y-84390500D02*
X114727678Y-84247643D01*
X114727678Y-84247643D02*
X114727678Y-83961928D01*
X114727678Y-83961928D02*
X114799107Y-83819071D01*
X114799107Y-83819071D02*
X114941964Y-83747643D01*
X114941964Y-83747643D02*
X115084821Y-83747643D01*
X115084821Y-83747643D02*
X115227678Y-84461928D01*
X115727678Y-82890500D02*
X115656250Y-83033357D01*
X115656250Y-83033357D02*
X115513392Y-83104786D01*
X115513392Y-83104786D02*
X114227678Y-83104786D01*
X115656250Y-81747643D02*
X115727678Y-81890500D01*
X115727678Y-81890500D02*
X115727678Y-82176215D01*
X115727678Y-82176215D02*
X115656250Y-82319072D01*
X115656250Y-82319072D02*
X115513392Y-82390500D01*
X115513392Y-82390500D02*
X114941964Y-82390500D01*
X114941964Y-82390500D02*
X114799107Y-82319072D01*
X114799107Y-82319072D02*
X114727678Y-82176215D01*
X114727678Y-82176215D02*
X114727678Y-81890500D01*
X114727678Y-81890500D02*
X114799107Y-81747643D01*
X114799107Y-81747643D02*
X114941964Y-81676215D01*
X114941964Y-81676215D02*
X115084821Y-81676215D01*
X115084821Y-81676215D02*
X115227678Y-82390500D01*
X115656250Y-80390501D02*
X115727678Y-80533358D01*
X115727678Y-80533358D02*
X115727678Y-80819072D01*
X115727678Y-80819072D02*
X115656250Y-80961929D01*
X115656250Y-80961929D02*
X115584821Y-81033358D01*
X115584821Y-81033358D02*
X115441964Y-81104786D01*
X115441964Y-81104786D02*
X115013392Y-81104786D01*
X115013392Y-81104786D02*
X114870535Y-81033358D01*
X114870535Y-81033358D02*
X114799107Y-80961929D01*
X114799107Y-80961929D02*
X114727678Y-80819072D01*
X114727678Y-80819072D02*
X114727678Y-80533358D01*
X114727678Y-80533358D02*
X114799107Y-80390501D01*
X114727678Y-79961929D02*
X114727678Y-79390501D01*
X114227678Y-79747644D02*
X115513392Y-79747644D01*
X115513392Y-79747644D02*
X115656250Y-79676215D01*
X115656250Y-79676215D02*
X115727678Y-79533358D01*
X115727678Y-79533358D02*
X115727678Y-79390501D01*
X115727678Y-78890501D02*
X114727678Y-78890501D01*
X115013392Y-78890501D02*
X114870535Y-78819072D01*
X114870535Y-78819072D02*
X114799107Y-78747644D01*
X114799107Y-78747644D02*
X114727678Y-78604786D01*
X114727678Y-78604786D02*
X114727678Y-78461929D01*
X115727678Y-77747644D02*
X115656250Y-77890501D01*
X115656250Y-77890501D02*
X115584821Y-77961930D01*
X115584821Y-77961930D02*
X115441964Y-78033358D01*
X115441964Y-78033358D02*
X115013392Y-78033358D01*
X115013392Y-78033358D02*
X114870535Y-77961930D01*
X114870535Y-77961930D02*
X114799107Y-77890501D01*
X114799107Y-77890501D02*
X114727678Y-77747644D01*
X114727678Y-77747644D02*
X114727678Y-77533358D01*
X114727678Y-77533358D02*
X114799107Y-77390501D01*
X114799107Y-77390501D02*
X114870535Y-77319073D01*
X114870535Y-77319073D02*
X115013392Y-77247644D01*
X115013392Y-77247644D02*
X115441964Y-77247644D01*
X115441964Y-77247644D02*
X115584821Y-77319073D01*
X115584821Y-77319073D02*
X115656250Y-77390501D01*
X115656250Y-77390501D02*
X115727678Y-77533358D01*
X115727678Y-77533358D02*
X115727678Y-77747644D01*
X114727678Y-76604787D02*
X115727678Y-76604787D01*
X114870535Y-76604787D02*
X114799107Y-76533358D01*
X114799107Y-76533358D02*
X114727678Y-76390501D01*
X114727678Y-76390501D02*
X114727678Y-76176215D01*
X114727678Y-76176215D02*
X114799107Y-76033358D01*
X114799107Y-76033358D02*
X114941964Y-75961930D01*
X114941964Y-75961930D02*
X115727678Y-75961930D01*
X115727678Y-75247644D02*
X114727678Y-75247644D01*
X114227678Y-75247644D02*
X114299107Y-75319072D01*
X114299107Y-75319072D02*
X114370535Y-75247644D01*
X114370535Y-75247644D02*
X114299107Y-75176215D01*
X114299107Y-75176215D02*
X114227678Y-75247644D01*
X114227678Y-75247644D02*
X114370535Y-75247644D01*
X114727678Y-73890501D02*
X116227678Y-73890501D01*
X115656250Y-73890501D02*
X115727678Y-74033358D01*
X115727678Y-74033358D02*
X115727678Y-74319072D01*
X115727678Y-74319072D02*
X115656250Y-74461929D01*
X115656250Y-74461929D02*
X115584821Y-74533358D01*
X115584821Y-74533358D02*
X115441964Y-74604786D01*
X115441964Y-74604786D02*
X115013392Y-74604786D01*
X115013392Y-74604786D02*
X114870535Y-74533358D01*
X114870535Y-74533358D02*
X114799107Y-74461929D01*
X114799107Y-74461929D02*
X114727678Y-74319072D01*
X114727678Y-74319072D02*
X114727678Y-74033358D01*
X114727678Y-74033358D02*
X114799107Y-73890501D01*
X114727678Y-72533358D02*
X115727678Y-72533358D01*
X114727678Y-73176215D02*
X115513392Y-73176215D01*
X115513392Y-73176215D02*
X115656250Y-73104786D01*
X115656250Y-73104786D02*
X115727678Y-72961929D01*
X115727678Y-72961929D02*
X115727678Y-72747643D01*
X115727678Y-72747643D02*
X115656250Y-72604786D01*
X115656250Y-72604786D02*
X115584821Y-72533358D01*
X115656250Y-71247643D02*
X115727678Y-71390500D01*
X115727678Y-71390500D02*
X115727678Y-71676215D01*
X115727678Y-71676215D02*
X115656250Y-71819072D01*
X115656250Y-71819072D02*
X115513392Y-71890500D01*
X115513392Y-71890500D02*
X114941964Y-71890500D01*
X114941964Y-71890500D02*
X114799107Y-71819072D01*
X114799107Y-71819072D02*
X114727678Y-71676215D01*
X114727678Y-71676215D02*
X114727678Y-71390500D01*
X114727678Y-71390500D02*
X114799107Y-71247643D01*
X114799107Y-71247643D02*
X114941964Y-71176215D01*
X114941964Y-71176215D02*
X115084821Y-71176215D01*
X115084821Y-71176215D02*
X115227678Y-71890500D01*
X114727678Y-70533358D02*
X116227678Y-70533358D01*
X114799107Y-70533358D02*
X114727678Y-70390501D01*
X114727678Y-70390501D02*
X114727678Y-70104786D01*
X114727678Y-70104786D02*
X114799107Y-69961929D01*
X114799107Y-69961929D02*
X114870535Y-69890501D01*
X114870535Y-69890501D02*
X115013392Y-69819072D01*
X115013392Y-69819072D02*
X115441964Y-69819072D01*
X115441964Y-69819072D02*
X115584821Y-69890501D01*
X115584821Y-69890501D02*
X115656250Y-69961929D01*
X115656250Y-69961929D02*
X115727678Y-70104786D01*
X115727678Y-70104786D02*
X115727678Y-70390501D01*
X115727678Y-70390501D02*
X115656250Y-70533358D01*
X115727678Y-68533358D02*
X114941964Y-68533358D01*
X114941964Y-68533358D02*
X114799107Y-68604786D01*
X114799107Y-68604786D02*
X114727678Y-68747643D01*
X114727678Y-68747643D02*
X114727678Y-69033358D01*
X114727678Y-69033358D02*
X114799107Y-69176215D01*
X115656250Y-68533358D02*
X115727678Y-68676215D01*
X115727678Y-68676215D02*
X115727678Y-69033358D01*
X115727678Y-69033358D02*
X115656250Y-69176215D01*
X115656250Y-69176215D02*
X115513392Y-69247643D01*
X115513392Y-69247643D02*
X115370535Y-69247643D01*
X115370535Y-69247643D02*
X115227678Y-69176215D01*
X115227678Y-69176215D02*
X115156250Y-69033358D01*
X115156250Y-69033358D02*
X115156250Y-68676215D01*
X115156250Y-68676215D02*
X115084821Y-68533358D01*
X115656250Y-67890500D02*
X115727678Y-67747643D01*
X115727678Y-67747643D02*
X115727678Y-67461929D01*
X115727678Y-67461929D02*
X115656250Y-67319072D01*
X115656250Y-67319072D02*
X115513392Y-67247643D01*
X115513392Y-67247643D02*
X115441964Y-67247643D01*
X115441964Y-67247643D02*
X115299107Y-67319072D01*
X115299107Y-67319072D02*
X115227678Y-67461929D01*
X115227678Y-67461929D02*
X115227678Y-67676215D01*
X115227678Y-67676215D02*
X115156250Y-67819072D01*
X115156250Y-67819072D02*
X115013392Y-67890500D01*
X115013392Y-67890500D02*
X114941964Y-67890500D01*
X114941964Y-67890500D02*
X114799107Y-67819072D01*
X114799107Y-67819072D02*
X114727678Y-67676215D01*
X114727678Y-67676215D02*
X114727678Y-67461929D01*
X114727678Y-67461929D02*
X114799107Y-67319072D01*
X115656250Y-66676214D02*
X115727678Y-66533357D01*
X115727678Y-66533357D02*
X115727678Y-66247643D01*
X115727678Y-66247643D02*
X115656250Y-66104786D01*
X115656250Y-66104786D02*
X115513392Y-66033357D01*
X115513392Y-66033357D02*
X115441964Y-66033357D01*
X115441964Y-66033357D02*
X115299107Y-66104786D01*
X115299107Y-66104786D02*
X115227678Y-66247643D01*
X115227678Y-66247643D02*
X115227678Y-66461929D01*
X115227678Y-66461929D02*
X115156250Y-66604786D01*
X115156250Y-66604786D02*
X115013392Y-66676214D01*
X115013392Y-66676214D02*
X114941964Y-66676214D01*
X114941964Y-66676214D02*
X114799107Y-66604786D01*
X114799107Y-66604786D02*
X114727678Y-66461929D01*
X114727678Y-66461929D02*
X114727678Y-66247643D01*
X114727678Y-66247643D02*
X114799107Y-66104786D01*
X115727678Y-65390500D02*
X114727678Y-65390500D01*
X114227678Y-65390500D02*
X114299107Y-65461928D01*
X114299107Y-65461928D02*
X114370535Y-65390500D01*
X114370535Y-65390500D02*
X114299107Y-65319071D01*
X114299107Y-65319071D02*
X114227678Y-65390500D01*
X114227678Y-65390500D02*
X114370535Y-65390500D01*
X115727678Y-64461928D02*
X115656250Y-64604785D01*
X115656250Y-64604785D02*
X115584821Y-64676214D01*
X115584821Y-64676214D02*
X115441964Y-64747642D01*
X115441964Y-64747642D02*
X115013392Y-64747642D01*
X115013392Y-64747642D02*
X114870535Y-64676214D01*
X114870535Y-64676214D02*
X114799107Y-64604785D01*
X114799107Y-64604785D02*
X114727678Y-64461928D01*
X114727678Y-64461928D02*
X114727678Y-64247642D01*
X114727678Y-64247642D02*
X114799107Y-64104785D01*
X114799107Y-64104785D02*
X114870535Y-64033357D01*
X114870535Y-64033357D02*
X115013392Y-63961928D01*
X115013392Y-63961928D02*
X115441964Y-63961928D01*
X115441964Y-63961928D02*
X115584821Y-64033357D01*
X115584821Y-64033357D02*
X115656250Y-64104785D01*
X115656250Y-64104785D02*
X115727678Y-64247642D01*
X115727678Y-64247642D02*
X115727678Y-64461928D01*
X114727678Y-63319071D02*
X115727678Y-63319071D01*
X114870535Y-63319071D02*
X114799107Y-63247642D01*
X114799107Y-63247642D02*
X114727678Y-63104785D01*
X114727678Y-63104785D02*
X114727678Y-62890499D01*
X114727678Y-62890499D02*
X114799107Y-62747642D01*
X114799107Y-62747642D02*
X114941964Y-62676214D01*
X114941964Y-62676214D02*
X115727678Y-62676214D01*
X115584821Y-61961928D02*
X115656250Y-61890499D01*
X115656250Y-61890499D02*
X115727678Y-61961928D01*
X115727678Y-61961928D02*
X115656250Y-62033356D01*
X115656250Y-62033356D02*
X115584821Y-61961928D01*
X115584821Y-61961928D02*
X115727678Y-61961928D01*
X114727678Y-61461927D02*
X114727678Y-60890499D01*
X115727678Y-61247642D02*
X114441964Y-61247642D01*
X114441964Y-61247642D02*
X114299107Y-61176213D01*
X114299107Y-61176213D02*
X114227678Y-61033356D01*
X114227678Y-61033356D02*
X114227678Y-60890499D01*
X115727678Y-60390499D02*
X114727678Y-60390499D01*
X115013392Y-60390499D02*
X114870535Y-60319070D01*
X114870535Y-60319070D02*
X114799107Y-60247642D01*
X114799107Y-60247642D02*
X114727678Y-60104784D01*
X114727678Y-60104784D02*
X114727678Y-59961927D01*
X114156250Y-58390499D02*
X116084821Y-59676213D01*
D11*
X173298225Y-73412257D02*
X173155368Y-73340828D01*
X173155368Y-73340828D02*
X172941082Y-73340828D01*
X172941082Y-73340828D02*
X172726796Y-73412257D01*
X172726796Y-73412257D02*
X172583939Y-73555114D01*
X172583939Y-73555114D02*
X172512510Y-73697971D01*
X172512510Y-73697971D02*
X172441082Y-73983685D01*
X172441082Y-73983685D02*
X172441082Y-74197971D01*
X172441082Y-74197971D02*
X172512510Y-74483685D01*
X172512510Y-74483685D02*
X172583939Y-74626542D01*
X172583939Y-74626542D02*
X172726796Y-74769400D01*
X172726796Y-74769400D02*
X172941082Y-74840828D01*
X172941082Y-74840828D02*
X173083939Y-74840828D01*
X173083939Y-74840828D02*
X173298225Y-74769400D01*
X173298225Y-74769400D02*
X173369653Y-74697971D01*
X173369653Y-74697971D02*
X173369653Y-74197971D01*
X173369653Y-74197971D02*
X173083939Y-74197971D01*
X174012510Y-74840828D02*
X174012510Y-73340828D01*
X174012510Y-73340828D02*
X174869653Y-74840828D01*
X174869653Y-74840828D02*
X174869653Y-73340828D01*
X175583939Y-74840828D02*
X175583939Y-73340828D01*
X175583939Y-73340828D02*
X175941082Y-73340828D01*
X175941082Y-73340828D02*
X176155368Y-73412257D01*
X176155368Y-73412257D02*
X176298225Y-73555114D01*
X176298225Y-73555114D02*
X176369654Y-73697971D01*
X176369654Y-73697971D02*
X176441082Y-73983685D01*
X176441082Y-73983685D02*
X176441082Y-74197971D01*
X176441082Y-74197971D02*
X176369654Y-74483685D01*
X176369654Y-74483685D02*
X176298225Y-74626542D01*
X176298225Y-74626542D02*
X176155368Y-74769400D01*
X176155368Y-74769400D02*
X175941082Y-74840828D01*
X175941082Y-74840828D02*
X175583939Y-74840828D01*
X173298225Y-76714257D02*
X173155368Y-76642828D01*
X173155368Y-76642828D02*
X172941082Y-76642828D01*
X172941082Y-76642828D02*
X172726796Y-76714257D01*
X172726796Y-76714257D02*
X172583939Y-76857114D01*
X172583939Y-76857114D02*
X172512510Y-76999971D01*
X172512510Y-76999971D02*
X172441082Y-77285685D01*
X172441082Y-77285685D02*
X172441082Y-77499971D01*
X172441082Y-77499971D02*
X172512510Y-77785685D01*
X172512510Y-77785685D02*
X172583939Y-77928542D01*
X172583939Y-77928542D02*
X172726796Y-78071400D01*
X172726796Y-78071400D02*
X172941082Y-78142828D01*
X172941082Y-78142828D02*
X173083939Y-78142828D01*
X173083939Y-78142828D02*
X173298225Y-78071400D01*
X173298225Y-78071400D02*
X173369653Y-77999971D01*
X173369653Y-77999971D02*
X173369653Y-77499971D01*
X173369653Y-77499971D02*
X173083939Y-77499971D01*
X174012510Y-78142828D02*
X174012510Y-76642828D01*
X174012510Y-76642828D02*
X174869653Y-78142828D01*
X174869653Y-78142828D02*
X174869653Y-76642828D01*
X175583939Y-78142828D02*
X175583939Y-76642828D01*
X175583939Y-76642828D02*
X175941082Y-76642828D01*
X175941082Y-76642828D02*
X176155368Y-76714257D01*
X176155368Y-76714257D02*
X176298225Y-76857114D01*
X176298225Y-76857114D02*
X176369654Y-76999971D01*
X176369654Y-76999971D02*
X176441082Y-77285685D01*
X176441082Y-77285685D02*
X176441082Y-77499971D01*
X176441082Y-77499971D02*
X176369654Y-77785685D01*
X176369654Y-77785685D02*
X176298225Y-77928542D01*
X176298225Y-77928542D02*
X176155368Y-78071400D01*
X176155368Y-78071400D02*
X175941082Y-78142828D01*
X175941082Y-78142828D02*
X175583939Y-78142828D01*
X172441082Y-67911400D02*
X172655368Y-67982828D01*
X172655368Y-67982828D02*
X173012510Y-67982828D01*
X173012510Y-67982828D02*
X173155368Y-67911400D01*
X173155368Y-67911400D02*
X173226796Y-67839971D01*
X173226796Y-67839971D02*
X173298225Y-67697114D01*
X173298225Y-67697114D02*
X173298225Y-67554257D01*
X173298225Y-67554257D02*
X173226796Y-67411400D01*
X173226796Y-67411400D02*
X173155368Y-67339971D01*
X173155368Y-67339971D02*
X173012510Y-67268542D01*
X173012510Y-67268542D02*
X172726796Y-67197114D01*
X172726796Y-67197114D02*
X172583939Y-67125685D01*
X172583939Y-67125685D02*
X172512510Y-67054257D01*
X172512510Y-67054257D02*
X172441082Y-66911400D01*
X172441082Y-66911400D02*
X172441082Y-66768542D01*
X172441082Y-66768542D02*
X172512510Y-66625685D01*
X172512510Y-66625685D02*
X172583939Y-66554257D01*
X172583939Y-66554257D02*
X172726796Y-66482828D01*
X172726796Y-66482828D02*
X173083939Y-66482828D01*
X173083939Y-66482828D02*
X173298225Y-66554257D01*
X173798224Y-66482828D02*
X174155367Y-67982828D01*
X174155367Y-67982828D02*
X174441081Y-66911400D01*
X174441081Y-66911400D02*
X174726796Y-67982828D01*
X174726796Y-67982828D02*
X175083939Y-66482828D01*
X176298225Y-66982828D02*
X176298225Y-67982828D01*
X175941082Y-66411400D02*
X175583939Y-67482828D01*
X175583939Y-67482828D02*
X176512510Y-67482828D01*
X125141510Y-49457828D02*
X125141510Y-47957828D01*
X125141510Y-47957828D02*
X125712939Y-47957828D01*
X125712939Y-47957828D02*
X125855796Y-48029257D01*
X125855796Y-48029257D02*
X125927225Y-48100685D01*
X125927225Y-48100685D02*
X125998653Y-48243542D01*
X125998653Y-48243542D02*
X125998653Y-48457828D01*
X125998653Y-48457828D02*
X125927225Y-48600685D01*
X125927225Y-48600685D02*
X125855796Y-48672114D01*
X125855796Y-48672114D02*
X125712939Y-48743542D01*
X125712939Y-48743542D02*
X125141510Y-48743542D01*
X126641510Y-49457828D02*
X126641510Y-48457828D01*
X126641510Y-48743542D02*
X126712939Y-48600685D01*
X126712939Y-48600685D02*
X126784368Y-48529257D01*
X126784368Y-48529257D02*
X126927225Y-48457828D01*
X126927225Y-48457828D02*
X127070082Y-48457828D01*
X127784367Y-49457828D02*
X127641510Y-49386400D01*
X127641510Y-49386400D02*
X127570081Y-49314971D01*
X127570081Y-49314971D02*
X127498653Y-49172114D01*
X127498653Y-49172114D02*
X127498653Y-48743542D01*
X127498653Y-48743542D02*
X127570081Y-48600685D01*
X127570081Y-48600685D02*
X127641510Y-48529257D01*
X127641510Y-48529257D02*
X127784367Y-48457828D01*
X127784367Y-48457828D02*
X127998653Y-48457828D01*
X127998653Y-48457828D02*
X128141510Y-48529257D01*
X128141510Y-48529257D02*
X128212939Y-48600685D01*
X128212939Y-48600685D02*
X128284367Y-48743542D01*
X128284367Y-48743542D02*
X128284367Y-49172114D01*
X128284367Y-49172114D02*
X128212939Y-49314971D01*
X128212939Y-49314971D02*
X128141510Y-49386400D01*
X128141510Y-49386400D02*
X127998653Y-49457828D01*
X127998653Y-49457828D02*
X127784367Y-49457828D01*
X128927224Y-48457828D02*
X128927224Y-49743542D01*
X128927224Y-49743542D02*
X128855796Y-49886400D01*
X128855796Y-49886400D02*
X128712939Y-49957828D01*
X128712939Y-49957828D02*
X128641510Y-49957828D01*
X128927224Y-47957828D02*
X128855796Y-48029257D01*
X128855796Y-48029257D02*
X128927224Y-48100685D01*
X128927224Y-48100685D02*
X128998653Y-48029257D01*
X128998653Y-48029257D02*
X128927224Y-47957828D01*
X128927224Y-47957828D02*
X128927224Y-48100685D01*
X130212939Y-49386400D02*
X130070082Y-49457828D01*
X130070082Y-49457828D02*
X129784368Y-49457828D01*
X129784368Y-49457828D02*
X129641510Y-49386400D01*
X129641510Y-49386400D02*
X129570082Y-49243542D01*
X129570082Y-49243542D02*
X129570082Y-48672114D01*
X129570082Y-48672114D02*
X129641510Y-48529257D01*
X129641510Y-48529257D02*
X129784368Y-48457828D01*
X129784368Y-48457828D02*
X130070082Y-48457828D01*
X130070082Y-48457828D02*
X130212939Y-48529257D01*
X130212939Y-48529257D02*
X130284368Y-48672114D01*
X130284368Y-48672114D02*
X130284368Y-48814971D01*
X130284368Y-48814971D02*
X129570082Y-48957828D01*
X130712939Y-48457828D02*
X131284367Y-48457828D01*
X130927224Y-47957828D02*
X130927224Y-49243542D01*
X130927224Y-49243542D02*
X130998653Y-49386400D01*
X130998653Y-49386400D02*
X131141510Y-49457828D01*
X131141510Y-49457828D02*
X131284367Y-49457828D01*
X131427225Y-49600685D02*
X132570082Y-49600685D01*
X132855796Y-49386400D02*
X133070082Y-49457828D01*
X133070082Y-49457828D02*
X133427224Y-49457828D01*
X133427224Y-49457828D02*
X133570082Y-49386400D01*
X133570082Y-49386400D02*
X133641510Y-49314971D01*
X133641510Y-49314971D02*
X133712939Y-49172114D01*
X133712939Y-49172114D02*
X133712939Y-49029257D01*
X133712939Y-49029257D02*
X133641510Y-48886400D01*
X133641510Y-48886400D02*
X133570082Y-48814971D01*
X133570082Y-48814971D02*
X133427224Y-48743542D01*
X133427224Y-48743542D02*
X133141510Y-48672114D01*
X133141510Y-48672114D02*
X132998653Y-48600685D01*
X132998653Y-48600685D02*
X132927224Y-48529257D01*
X132927224Y-48529257D02*
X132855796Y-48386400D01*
X132855796Y-48386400D02*
X132855796Y-48243542D01*
X132855796Y-48243542D02*
X132927224Y-48100685D01*
X132927224Y-48100685D02*
X132998653Y-48029257D01*
X132998653Y-48029257D02*
X133141510Y-47957828D01*
X133141510Y-47957828D02*
X133498653Y-47957828D01*
X133498653Y-47957828D02*
X133712939Y-48029257D01*
X134570081Y-49457828D02*
X134427224Y-49386400D01*
X134427224Y-49386400D02*
X134355795Y-49314971D01*
X134355795Y-49314971D02*
X134284367Y-49172114D01*
X134284367Y-49172114D02*
X134284367Y-48743542D01*
X134284367Y-48743542D02*
X134355795Y-48600685D01*
X134355795Y-48600685D02*
X134427224Y-48529257D01*
X134427224Y-48529257D02*
X134570081Y-48457828D01*
X134570081Y-48457828D02*
X134784367Y-48457828D01*
X134784367Y-48457828D02*
X134927224Y-48529257D01*
X134927224Y-48529257D02*
X134998653Y-48600685D01*
X134998653Y-48600685D02*
X135070081Y-48743542D01*
X135070081Y-48743542D02*
X135070081Y-49172114D01*
X135070081Y-49172114D02*
X134998653Y-49314971D01*
X134998653Y-49314971D02*
X134927224Y-49386400D01*
X134927224Y-49386400D02*
X134784367Y-49457828D01*
X134784367Y-49457828D02*
X134570081Y-49457828D01*
X135712938Y-48457828D02*
X135712938Y-49457828D01*
X135712938Y-48600685D02*
X135784367Y-48529257D01*
X135784367Y-48529257D02*
X135927224Y-48457828D01*
X135927224Y-48457828D02*
X136141510Y-48457828D01*
X136141510Y-48457828D02*
X136284367Y-48529257D01*
X136284367Y-48529257D02*
X136355796Y-48672114D01*
X136355796Y-48672114D02*
X136355796Y-49457828D01*
X136998653Y-49386400D02*
X137141510Y-49457828D01*
X137141510Y-49457828D02*
X137427224Y-49457828D01*
X137427224Y-49457828D02*
X137570081Y-49386400D01*
X137570081Y-49386400D02*
X137641510Y-49243542D01*
X137641510Y-49243542D02*
X137641510Y-49172114D01*
X137641510Y-49172114D02*
X137570081Y-49029257D01*
X137570081Y-49029257D02*
X137427224Y-48957828D01*
X137427224Y-48957828D02*
X137212939Y-48957828D01*
X137212939Y-48957828D02*
X137070081Y-48886400D01*
X137070081Y-48886400D02*
X136998653Y-48743542D01*
X136998653Y-48743542D02*
X136998653Y-48672114D01*
X136998653Y-48672114D02*
X137070081Y-48529257D01*
X137070081Y-48529257D02*
X137212939Y-48457828D01*
X137212939Y-48457828D02*
X137427224Y-48457828D01*
X137427224Y-48457828D02*
X137570081Y-48529257D01*
X137927225Y-49600685D02*
X139070082Y-49600685D01*
X139427224Y-49457828D02*
X139427224Y-47957828D01*
X139427224Y-48672114D02*
X140284367Y-48672114D01*
X140284367Y-49457828D02*
X140284367Y-47957828D01*
X140855796Y-47957828D02*
X141212939Y-49457828D01*
X141212939Y-49457828D02*
X141498653Y-48386400D01*
X141498653Y-48386400D02*
X141784368Y-49457828D01*
X141784368Y-49457828D02*
X142141511Y-47957828D01*
X142927225Y-48600685D02*
X142784368Y-48529257D01*
X142784368Y-48529257D02*
X142712939Y-48457828D01*
X142712939Y-48457828D02*
X142641511Y-48314971D01*
X142641511Y-48314971D02*
X142641511Y-48243542D01*
X142641511Y-48243542D02*
X142712939Y-48100685D01*
X142712939Y-48100685D02*
X142784368Y-48029257D01*
X142784368Y-48029257D02*
X142927225Y-47957828D01*
X142927225Y-47957828D02*
X143212939Y-47957828D01*
X143212939Y-47957828D02*
X143355797Y-48029257D01*
X143355797Y-48029257D02*
X143427225Y-48100685D01*
X143427225Y-48100685D02*
X143498654Y-48243542D01*
X143498654Y-48243542D02*
X143498654Y-48314971D01*
X143498654Y-48314971D02*
X143427225Y-48457828D01*
X143427225Y-48457828D02*
X143355797Y-48529257D01*
X143355797Y-48529257D02*
X143212939Y-48600685D01*
X143212939Y-48600685D02*
X142927225Y-48600685D01*
X142927225Y-48600685D02*
X142784368Y-48672114D01*
X142784368Y-48672114D02*
X142712939Y-48743542D01*
X142712939Y-48743542D02*
X142641511Y-48886400D01*
X142641511Y-48886400D02*
X142641511Y-49172114D01*
X142641511Y-49172114D02*
X142712939Y-49314971D01*
X142712939Y-49314971D02*
X142784368Y-49386400D01*
X142784368Y-49386400D02*
X142927225Y-49457828D01*
X142927225Y-49457828D02*
X143212939Y-49457828D01*
X143212939Y-49457828D02*
X143355797Y-49386400D01*
X143355797Y-49386400D02*
X143427225Y-49314971D01*
X143427225Y-49314971D02*
X143498654Y-49172114D01*
X143498654Y-49172114D02*
X143498654Y-48886400D01*
X143498654Y-48886400D02*
X143427225Y-48743542D01*
X143427225Y-48743542D02*
X143355797Y-48672114D01*
X143355797Y-48672114D02*
X143212939Y-48600685D01*
X144212939Y-49457828D02*
X144498653Y-49457828D01*
X144498653Y-49457828D02*
X144641510Y-49386400D01*
X144641510Y-49386400D02*
X144712939Y-49314971D01*
X144712939Y-49314971D02*
X144855796Y-49100685D01*
X144855796Y-49100685D02*
X144927225Y-48814971D01*
X144927225Y-48814971D02*
X144927225Y-48243542D01*
X144927225Y-48243542D02*
X144855796Y-48100685D01*
X144855796Y-48100685D02*
X144784368Y-48029257D01*
X144784368Y-48029257D02*
X144641510Y-47957828D01*
X144641510Y-47957828D02*
X144355796Y-47957828D01*
X144355796Y-47957828D02*
X144212939Y-48029257D01*
X144212939Y-48029257D02*
X144141510Y-48100685D01*
X144141510Y-48100685D02*
X144070082Y-48243542D01*
X144070082Y-48243542D02*
X144070082Y-48600685D01*
X144070082Y-48600685D02*
X144141510Y-48743542D01*
X144141510Y-48743542D02*
X144212939Y-48814971D01*
X144212939Y-48814971D02*
X144355796Y-48886400D01*
X144355796Y-48886400D02*
X144641510Y-48886400D01*
X144641510Y-48886400D02*
X144784368Y-48814971D01*
X144784368Y-48814971D02*
X144855796Y-48743542D01*
X144855796Y-48743542D02*
X144927225Y-48600685D01*
X146212939Y-47957828D02*
X145927224Y-47957828D01*
X145927224Y-47957828D02*
X145784367Y-48029257D01*
X145784367Y-48029257D02*
X145712939Y-48100685D01*
X145712939Y-48100685D02*
X145570081Y-48314971D01*
X145570081Y-48314971D02*
X145498653Y-48600685D01*
X145498653Y-48600685D02*
X145498653Y-49172114D01*
X145498653Y-49172114D02*
X145570081Y-49314971D01*
X145570081Y-49314971D02*
X145641510Y-49386400D01*
X145641510Y-49386400D02*
X145784367Y-49457828D01*
X145784367Y-49457828D02*
X146070081Y-49457828D01*
X146070081Y-49457828D02*
X146212939Y-49386400D01*
X146212939Y-49386400D02*
X146284367Y-49314971D01*
X146284367Y-49314971D02*
X146355796Y-49172114D01*
X146355796Y-49172114D02*
X146355796Y-48814971D01*
X146355796Y-48814971D02*
X146284367Y-48672114D01*
X146284367Y-48672114D02*
X146212939Y-48600685D01*
X146212939Y-48600685D02*
X146070081Y-48529257D01*
X146070081Y-48529257D02*
X145784367Y-48529257D01*
X145784367Y-48529257D02*
X145641510Y-48600685D01*
X145641510Y-48600685D02*
X145570081Y-48672114D01*
X145570081Y-48672114D02*
X145498653Y-48814971D01*
X146998652Y-48886400D02*
X148141510Y-48886400D01*
X149641510Y-48029257D02*
X149498653Y-47957828D01*
X149498653Y-47957828D02*
X149284367Y-47957828D01*
X149284367Y-47957828D02*
X149070081Y-48029257D01*
X149070081Y-48029257D02*
X148927224Y-48172114D01*
X148927224Y-48172114D02*
X148855795Y-48314971D01*
X148855795Y-48314971D02*
X148784367Y-48600685D01*
X148784367Y-48600685D02*
X148784367Y-48814971D01*
X148784367Y-48814971D02*
X148855795Y-49100685D01*
X148855795Y-49100685D02*
X148927224Y-49243542D01*
X148927224Y-49243542D02*
X149070081Y-49386400D01*
X149070081Y-49386400D02*
X149284367Y-49457828D01*
X149284367Y-49457828D02*
X149427224Y-49457828D01*
X149427224Y-49457828D02*
X149641510Y-49386400D01*
X149641510Y-49386400D02*
X149712938Y-49314971D01*
X149712938Y-49314971D02*
X149712938Y-48814971D01*
X149712938Y-48814971D02*
X149427224Y-48814971D01*
X150355795Y-49457828D02*
X150355795Y-47957828D01*
X150355795Y-47957828D02*
X150712938Y-47957828D01*
X150712938Y-47957828D02*
X150927224Y-48029257D01*
X150927224Y-48029257D02*
X151070081Y-48172114D01*
X151070081Y-48172114D02*
X151141510Y-48314971D01*
X151141510Y-48314971D02*
X151212938Y-48600685D01*
X151212938Y-48600685D02*
X151212938Y-48814971D01*
X151212938Y-48814971D02*
X151141510Y-49100685D01*
X151141510Y-49100685D02*
X151070081Y-49243542D01*
X151070081Y-49243542D02*
X150927224Y-49386400D01*
X150927224Y-49386400D02*
X150712938Y-49457828D01*
X150712938Y-49457828D02*
X150355795Y-49457828D01*
X151712938Y-47957828D02*
X152641510Y-47957828D01*
X152641510Y-47957828D02*
X152141510Y-48529257D01*
X152141510Y-48529257D02*
X152355795Y-48529257D01*
X152355795Y-48529257D02*
X152498653Y-48600685D01*
X152498653Y-48600685D02*
X152570081Y-48672114D01*
X152570081Y-48672114D02*
X152641510Y-48814971D01*
X152641510Y-48814971D02*
X152641510Y-49172114D01*
X152641510Y-49172114D02*
X152570081Y-49314971D01*
X152570081Y-49314971D02*
X152498653Y-49386400D01*
X152498653Y-49386400D02*
X152355795Y-49457828D01*
X152355795Y-49457828D02*
X151927224Y-49457828D01*
X151927224Y-49457828D02*
X151784367Y-49386400D01*
X151784367Y-49386400D02*
X151712938Y-49314971D01*
X153498652Y-48600685D02*
X153355795Y-48529257D01*
X153355795Y-48529257D02*
X153284366Y-48457828D01*
X153284366Y-48457828D02*
X153212938Y-48314971D01*
X153212938Y-48314971D02*
X153212938Y-48243542D01*
X153212938Y-48243542D02*
X153284366Y-48100685D01*
X153284366Y-48100685D02*
X153355795Y-48029257D01*
X153355795Y-48029257D02*
X153498652Y-47957828D01*
X153498652Y-47957828D02*
X153784366Y-47957828D01*
X153784366Y-47957828D02*
X153927224Y-48029257D01*
X153927224Y-48029257D02*
X153998652Y-48100685D01*
X153998652Y-48100685D02*
X154070081Y-48243542D01*
X154070081Y-48243542D02*
X154070081Y-48314971D01*
X154070081Y-48314971D02*
X153998652Y-48457828D01*
X153998652Y-48457828D02*
X153927224Y-48529257D01*
X153927224Y-48529257D02*
X153784366Y-48600685D01*
X153784366Y-48600685D02*
X153498652Y-48600685D01*
X153498652Y-48600685D02*
X153355795Y-48672114D01*
X153355795Y-48672114D02*
X153284366Y-48743542D01*
X153284366Y-48743542D02*
X153212938Y-48886400D01*
X153212938Y-48886400D02*
X153212938Y-49172114D01*
X153212938Y-49172114D02*
X153284366Y-49314971D01*
X153284366Y-49314971D02*
X153355795Y-49386400D01*
X153355795Y-49386400D02*
X153498652Y-49457828D01*
X153498652Y-49457828D02*
X153784366Y-49457828D01*
X153784366Y-49457828D02*
X153927224Y-49386400D01*
X153927224Y-49386400D02*
X153998652Y-49314971D01*
X153998652Y-49314971D02*
X154070081Y-49172114D01*
X154070081Y-49172114D02*
X154070081Y-48886400D01*
X154070081Y-48886400D02*
X153998652Y-48743542D01*
X153998652Y-48743542D02*
X153927224Y-48672114D01*
X153927224Y-48672114D02*
X153784366Y-48600685D01*
X154998652Y-47957828D02*
X155141509Y-47957828D01*
X155141509Y-47957828D02*
X155284366Y-48029257D01*
X155284366Y-48029257D02*
X155355795Y-48100685D01*
X155355795Y-48100685D02*
X155427223Y-48243542D01*
X155427223Y-48243542D02*
X155498652Y-48529257D01*
X155498652Y-48529257D02*
X155498652Y-48886400D01*
X155498652Y-48886400D02*
X155427223Y-49172114D01*
X155427223Y-49172114D02*
X155355795Y-49314971D01*
X155355795Y-49314971D02*
X155284366Y-49386400D01*
X155284366Y-49386400D02*
X155141509Y-49457828D01*
X155141509Y-49457828D02*
X154998652Y-49457828D01*
X154998652Y-49457828D02*
X154855795Y-49386400D01*
X154855795Y-49386400D02*
X154784366Y-49314971D01*
X154784366Y-49314971D02*
X154712937Y-49172114D01*
X154712937Y-49172114D02*
X154641509Y-48886400D01*
X154641509Y-48886400D02*
X154641509Y-48529257D01*
X154641509Y-48529257D02*
X154712937Y-48243542D01*
X154712937Y-48243542D02*
X154784366Y-48100685D01*
X154784366Y-48100685D02*
X154855795Y-48029257D01*
X154855795Y-48029257D02*
X154998652Y-47957828D01*
X156141508Y-49457828D02*
X156141508Y-47957828D01*
X156141508Y-47957828D02*
X156498651Y-47957828D01*
X156498651Y-47957828D02*
X156712937Y-48029257D01*
X156712937Y-48029257D02*
X156855794Y-48172114D01*
X156855794Y-48172114D02*
X156927223Y-48314971D01*
X156927223Y-48314971D02*
X156998651Y-48600685D01*
X156998651Y-48600685D02*
X156998651Y-48814971D01*
X156998651Y-48814971D02*
X156927223Y-49100685D01*
X156927223Y-49100685D02*
X156855794Y-49243542D01*
X156855794Y-49243542D02*
X156712937Y-49386400D01*
X156712937Y-49386400D02*
X156498651Y-49457828D01*
X156498651Y-49457828D02*
X156141508Y-49457828D01*
X157641508Y-48886400D02*
X158784366Y-48886400D01*
X159498651Y-49457828D02*
X159498651Y-47957828D01*
X159498651Y-47957828D02*
X159998651Y-49029257D01*
X159998651Y-49029257D02*
X160498651Y-47957828D01*
X160498651Y-47957828D02*
X160498651Y-49457828D01*
X160855795Y-49600685D02*
X161998652Y-49600685D01*
X162141509Y-47957828D02*
X162641509Y-49457828D01*
X162641509Y-49457828D02*
X163141509Y-47957828D01*
X164427223Y-49457828D02*
X163570080Y-49457828D01*
X163998651Y-49457828D02*
X163998651Y-47957828D01*
X163998651Y-47957828D02*
X163855794Y-48172114D01*
X163855794Y-48172114D02*
X163712937Y-48314971D01*
X163712937Y-48314971D02*
X163570080Y-48386400D01*
X172441082Y-64609400D02*
X172655368Y-64680828D01*
X172655368Y-64680828D02*
X173012510Y-64680828D01*
X173012510Y-64680828D02*
X173155368Y-64609400D01*
X173155368Y-64609400D02*
X173226796Y-64537971D01*
X173226796Y-64537971D02*
X173298225Y-64395114D01*
X173298225Y-64395114D02*
X173298225Y-64252257D01*
X173298225Y-64252257D02*
X173226796Y-64109400D01*
X173226796Y-64109400D02*
X173155368Y-64037971D01*
X173155368Y-64037971D02*
X173012510Y-63966542D01*
X173012510Y-63966542D02*
X172726796Y-63895114D01*
X172726796Y-63895114D02*
X172583939Y-63823685D01*
X172583939Y-63823685D02*
X172512510Y-63752257D01*
X172512510Y-63752257D02*
X172441082Y-63609400D01*
X172441082Y-63609400D02*
X172441082Y-63466542D01*
X172441082Y-63466542D02*
X172512510Y-63323685D01*
X172512510Y-63323685D02*
X172583939Y-63252257D01*
X172583939Y-63252257D02*
X172726796Y-63180828D01*
X172726796Y-63180828D02*
X173083939Y-63180828D01*
X173083939Y-63180828D02*
X173298225Y-63252257D01*
X173798224Y-63180828D02*
X174155367Y-64680828D01*
X174155367Y-64680828D02*
X174441081Y-63609400D01*
X174441081Y-63609400D02*
X174726796Y-64680828D01*
X174726796Y-64680828D02*
X175083939Y-63180828D01*
X175512510Y-63180828D02*
X176441082Y-63180828D01*
X176441082Y-63180828D02*
X175941082Y-63752257D01*
X175941082Y-63752257D02*
X176155367Y-63752257D01*
X176155367Y-63752257D02*
X176298225Y-63823685D01*
X176298225Y-63823685D02*
X176369653Y-63895114D01*
X176369653Y-63895114D02*
X176441082Y-64037971D01*
X176441082Y-64037971D02*
X176441082Y-64395114D01*
X176441082Y-64395114D02*
X176369653Y-64537971D01*
X176369653Y-64537971D02*
X176298225Y-64609400D01*
X176298225Y-64609400D02*
X176155367Y-64680828D01*
X176155367Y-64680828D02*
X175726796Y-64680828D01*
X175726796Y-64680828D02*
X175583939Y-64609400D01*
X175583939Y-64609400D02*
X175512510Y-64537971D01*
D12*
X154755497Y-99956250D02*
X155898355Y-99956250D01*
X155326926Y-100527678D02*
X155326926Y-99384821D01*
D11*
X172441082Y-58005400D02*
X172655368Y-58076828D01*
X172655368Y-58076828D02*
X173012510Y-58076828D01*
X173012510Y-58076828D02*
X173155368Y-58005400D01*
X173155368Y-58005400D02*
X173226796Y-57933971D01*
X173226796Y-57933971D02*
X173298225Y-57791114D01*
X173298225Y-57791114D02*
X173298225Y-57648257D01*
X173298225Y-57648257D02*
X173226796Y-57505400D01*
X173226796Y-57505400D02*
X173155368Y-57433971D01*
X173155368Y-57433971D02*
X173012510Y-57362542D01*
X173012510Y-57362542D02*
X172726796Y-57291114D01*
X172726796Y-57291114D02*
X172583939Y-57219685D01*
X172583939Y-57219685D02*
X172512510Y-57148257D01*
X172512510Y-57148257D02*
X172441082Y-57005400D01*
X172441082Y-57005400D02*
X172441082Y-56862542D01*
X172441082Y-56862542D02*
X172512510Y-56719685D01*
X172512510Y-56719685D02*
X172583939Y-56648257D01*
X172583939Y-56648257D02*
X172726796Y-56576828D01*
X172726796Y-56576828D02*
X173083939Y-56576828D01*
X173083939Y-56576828D02*
X173298225Y-56648257D01*
X173798224Y-56576828D02*
X174155367Y-58076828D01*
X174155367Y-58076828D02*
X174441081Y-57005400D01*
X174441081Y-57005400D02*
X174726796Y-58076828D01*
X174726796Y-58076828D02*
X175083939Y-56576828D01*
X176441082Y-58076828D02*
X175583939Y-58076828D01*
X176012510Y-58076828D02*
X176012510Y-56576828D01*
X176012510Y-56576828D02*
X175869653Y-56791114D01*
X175869653Y-56791114D02*
X175726796Y-56933971D01*
X175726796Y-56933971D02*
X175583939Y-57005400D01*
D10*
X129481006Y-54461409D02*
X129147673Y-54461409D01*
X129147673Y-54985219D02*
X129147673Y-53985219D01*
X129147673Y-53985219D02*
X129623863Y-53985219D01*
X130004816Y-54985219D02*
X130004816Y-53985219D01*
X130576244Y-54985219D02*
X130147673Y-54413790D01*
X130576244Y-53985219D02*
X130004816Y-54556647D01*
X130957197Y-54080457D02*
X131004816Y-54032838D01*
X131004816Y-54032838D02*
X131100054Y-53985219D01*
X131100054Y-53985219D02*
X131338149Y-53985219D01*
X131338149Y-53985219D02*
X131433387Y-54032838D01*
X131433387Y-54032838D02*
X131481006Y-54080457D01*
X131481006Y-54080457D02*
X131528625Y-54175695D01*
X131528625Y-54175695D02*
X131528625Y-54270933D01*
X131528625Y-54270933D02*
X131481006Y-54413790D01*
X131481006Y-54413790D02*
X130909578Y-54985219D01*
X130909578Y-54985219D02*
X131528625Y-54985219D01*
X132481006Y-54985219D02*
X131909578Y-54985219D01*
X132195292Y-54985219D02*
X132195292Y-53985219D01*
X132195292Y-53985219D02*
X132100054Y-54128076D01*
X132100054Y-54128076D02*
X132004816Y-54223314D01*
X132004816Y-54223314D02*
X131909578Y-54270933D01*
X133100054Y-53985219D02*
X133195292Y-53985219D01*
X133195292Y-53985219D02*
X133290530Y-54032838D01*
X133290530Y-54032838D02*
X133338149Y-54080457D01*
X133338149Y-54080457D02*
X133385768Y-54175695D01*
X133385768Y-54175695D02*
X133433387Y-54366171D01*
X133433387Y-54366171D02*
X133433387Y-54604266D01*
X133433387Y-54604266D02*
X133385768Y-54794742D01*
X133385768Y-54794742D02*
X133338149Y-54889980D01*
X133338149Y-54889980D02*
X133290530Y-54937600D01*
X133290530Y-54937600D02*
X133195292Y-54985219D01*
X133195292Y-54985219D02*
X133100054Y-54985219D01*
X133100054Y-54985219D02*
X133004816Y-54937600D01*
X133004816Y-54937600D02*
X132957197Y-54889980D01*
X132957197Y-54889980D02*
X132909578Y-54794742D01*
X132909578Y-54794742D02*
X132861959Y-54604266D01*
X132861959Y-54604266D02*
X132861959Y-54366171D01*
X132861959Y-54366171D02*
X132909578Y-54175695D01*
X132909578Y-54175695D02*
X132957197Y-54080457D01*
X132957197Y-54080457D02*
X133004816Y-54032838D01*
X133004816Y-54032838D02*
X133100054Y-53985219D01*
X133814340Y-54937600D02*
X133957197Y-54985219D01*
X133957197Y-54985219D02*
X134195292Y-54985219D01*
X134195292Y-54985219D02*
X134290530Y-54937600D01*
X134290530Y-54937600D02*
X134338149Y-54889980D01*
X134338149Y-54889980D02*
X134385768Y-54794742D01*
X134385768Y-54794742D02*
X134385768Y-54699504D01*
X134385768Y-54699504D02*
X134338149Y-54604266D01*
X134338149Y-54604266D02*
X134290530Y-54556647D01*
X134290530Y-54556647D02*
X134195292Y-54509028D01*
X134195292Y-54509028D02*
X134004816Y-54461409D01*
X134004816Y-54461409D02*
X133909578Y-54413790D01*
X133909578Y-54413790D02*
X133861959Y-54366171D01*
X133861959Y-54366171D02*
X133814340Y-54270933D01*
X133814340Y-54270933D02*
X133814340Y-54175695D01*
X133814340Y-54175695D02*
X133861959Y-54080457D01*
X133861959Y-54080457D02*
X133909578Y-54032838D01*
X133909578Y-54032838D02*
X134004816Y-53985219D01*
X134004816Y-53985219D02*
X134242911Y-53985219D01*
X134242911Y-53985219D02*
X134385768Y-54032838D01*
X134766721Y-54699504D02*
X135242911Y-54699504D01*
X134671483Y-54985219D02*
X135004816Y-53985219D01*
X135004816Y-53985219D02*
X135338149Y-54985219D01*
X136242911Y-54889980D02*
X136195292Y-54937600D01*
X136195292Y-54937600D02*
X136052435Y-54985219D01*
X136052435Y-54985219D02*
X135957197Y-54985219D01*
X135957197Y-54985219D02*
X135814340Y-54937600D01*
X135814340Y-54937600D02*
X135719102Y-54842361D01*
X135719102Y-54842361D02*
X135671483Y-54747123D01*
X135671483Y-54747123D02*
X135623864Y-54556647D01*
X135623864Y-54556647D02*
X135623864Y-54413790D01*
X135623864Y-54413790D02*
X135671483Y-54223314D01*
X135671483Y-54223314D02*
X135719102Y-54128076D01*
X135719102Y-54128076D02*
X135814340Y-54032838D01*
X135814340Y-54032838D02*
X135957197Y-53985219D01*
X135957197Y-53985219D02*
X136052435Y-53985219D01*
X136052435Y-53985219D02*
X136195292Y-54032838D01*
X136195292Y-54032838D02*
X136242911Y-54080457D01*
X137004816Y-54461409D02*
X137147673Y-54509028D01*
X137147673Y-54509028D02*
X137195292Y-54556647D01*
X137195292Y-54556647D02*
X137242911Y-54651885D01*
X137242911Y-54651885D02*
X137242911Y-54794742D01*
X137242911Y-54794742D02*
X137195292Y-54889980D01*
X137195292Y-54889980D02*
X137147673Y-54937600D01*
X137147673Y-54937600D02*
X137052435Y-54985219D01*
X137052435Y-54985219D02*
X136671483Y-54985219D01*
X136671483Y-54985219D02*
X136671483Y-53985219D01*
X136671483Y-53985219D02*
X137004816Y-53985219D01*
X137004816Y-53985219D02*
X137100054Y-54032838D01*
X137100054Y-54032838D02*
X137147673Y-54080457D01*
X137147673Y-54080457D02*
X137195292Y-54175695D01*
X137195292Y-54175695D02*
X137195292Y-54270933D01*
X137195292Y-54270933D02*
X137147673Y-54366171D01*
X137147673Y-54366171D02*
X137100054Y-54413790D01*
X137100054Y-54413790D02*
X137004816Y-54461409D01*
X137004816Y-54461409D02*
X136671483Y-54461409D01*
D11*
X172441082Y-71213400D02*
X172655368Y-71284828D01*
X172655368Y-71284828D02*
X173012510Y-71284828D01*
X173012510Y-71284828D02*
X173155368Y-71213400D01*
X173155368Y-71213400D02*
X173226796Y-71141971D01*
X173226796Y-71141971D02*
X173298225Y-70999114D01*
X173298225Y-70999114D02*
X173298225Y-70856257D01*
X173298225Y-70856257D02*
X173226796Y-70713400D01*
X173226796Y-70713400D02*
X173155368Y-70641971D01*
X173155368Y-70641971D02*
X173012510Y-70570542D01*
X173012510Y-70570542D02*
X172726796Y-70499114D01*
X172726796Y-70499114D02*
X172583939Y-70427685D01*
X172583939Y-70427685D02*
X172512510Y-70356257D01*
X172512510Y-70356257D02*
X172441082Y-70213400D01*
X172441082Y-70213400D02*
X172441082Y-70070542D01*
X172441082Y-70070542D02*
X172512510Y-69927685D01*
X172512510Y-69927685D02*
X172583939Y-69856257D01*
X172583939Y-69856257D02*
X172726796Y-69784828D01*
X172726796Y-69784828D02*
X173083939Y-69784828D01*
X173083939Y-69784828D02*
X173298225Y-69856257D01*
X173798224Y-69784828D02*
X174155367Y-71284828D01*
X174155367Y-71284828D02*
X174441081Y-70213400D01*
X174441081Y-70213400D02*
X174726796Y-71284828D01*
X174726796Y-71284828D02*
X175083939Y-69784828D01*
X176369653Y-69784828D02*
X175655367Y-69784828D01*
X175655367Y-69784828D02*
X175583939Y-70499114D01*
X175583939Y-70499114D02*
X175655367Y-70427685D01*
X175655367Y-70427685D02*
X175798225Y-70356257D01*
X175798225Y-70356257D02*
X176155367Y-70356257D01*
X176155367Y-70356257D02*
X176298225Y-70427685D01*
X176298225Y-70427685D02*
X176369653Y-70499114D01*
X176369653Y-70499114D02*
X176441082Y-70641971D01*
X176441082Y-70641971D02*
X176441082Y-70999114D01*
X176441082Y-70999114D02*
X176369653Y-71141971D01*
X176369653Y-71141971D02*
X176298225Y-71213400D01*
X176298225Y-71213400D02*
X176155367Y-71284828D01*
X176155367Y-71284828D02*
X175798225Y-71284828D01*
X175798225Y-71284828D02*
X175655367Y-71213400D01*
X175655367Y-71213400D02*
X175583939Y-71141971D01*
D13*
X134408333Y-90843365D02*
X134347857Y-90903842D01*
X134347857Y-90903842D02*
X134166428Y-90964318D01*
X134166428Y-90964318D02*
X134045476Y-90964318D01*
X134045476Y-90964318D02*
X133864047Y-90903842D01*
X133864047Y-90903842D02*
X133743095Y-90782889D01*
X133743095Y-90782889D02*
X133682618Y-90661937D01*
X133682618Y-90661937D02*
X133622142Y-90420032D01*
X133622142Y-90420032D02*
X133622142Y-90238603D01*
X133622142Y-90238603D02*
X133682618Y-89996699D01*
X133682618Y-89996699D02*
X133743095Y-89875746D01*
X133743095Y-89875746D02*
X133864047Y-89754794D01*
X133864047Y-89754794D02*
X134045476Y-89694318D01*
X134045476Y-89694318D02*
X134166428Y-89694318D01*
X134166428Y-89694318D02*
X134347857Y-89754794D01*
X134347857Y-89754794D02*
X134408333Y-89815270D01*
X134892142Y-89815270D02*
X134952618Y-89754794D01*
X134952618Y-89754794D02*
X135073571Y-89694318D01*
X135073571Y-89694318D02*
X135375952Y-89694318D01*
X135375952Y-89694318D02*
X135496904Y-89754794D01*
X135496904Y-89754794D02*
X135557380Y-89815270D01*
X135557380Y-89815270D02*
X135617857Y-89936222D01*
X135617857Y-89936222D02*
X135617857Y-90057175D01*
X135617857Y-90057175D02*
X135557380Y-90238603D01*
X135557380Y-90238603D02*
X134831666Y-90964318D01*
X134831666Y-90964318D02*
X135617857Y-90964318D01*
D14*
X172942380Y-100794819D02*
X172609047Y-100318628D01*
X172370952Y-100794819D02*
X172370952Y-99794819D01*
X172370952Y-99794819D02*
X172751904Y-99794819D01*
X172751904Y-99794819D02*
X172847142Y-99842438D01*
X172847142Y-99842438D02*
X172894761Y-99890057D01*
X172894761Y-99890057D02*
X172942380Y-99985295D01*
X172942380Y-99985295D02*
X172942380Y-100128152D01*
X172942380Y-100128152D02*
X172894761Y-100223390D01*
X172894761Y-100223390D02*
X172847142Y-100271009D01*
X172847142Y-100271009D02*
X172751904Y-100318628D01*
X172751904Y-100318628D02*
X172370952Y-100318628D01*
X173370952Y-100271009D02*
X173704285Y-100271009D01*
X173847142Y-100794819D02*
X173370952Y-100794819D01*
X173370952Y-100794819D02*
X173370952Y-99794819D01*
X173370952Y-99794819D02*
X173847142Y-99794819D01*
X174609047Y-100271009D02*
X174275714Y-100271009D01*
X174275714Y-100794819D02*
X174275714Y-99794819D01*
X174275714Y-99794819D02*
X174751904Y-99794819D01*
X175037619Y-99794819D02*
X175656666Y-99794819D01*
X175656666Y-99794819D02*
X175323333Y-100175771D01*
X175323333Y-100175771D02*
X175466190Y-100175771D01*
X175466190Y-100175771D02*
X175561428Y-100223390D01*
X175561428Y-100223390D02*
X175609047Y-100271009D01*
X175609047Y-100271009D02*
X175656666Y-100366247D01*
X175656666Y-100366247D02*
X175656666Y-100604342D01*
X175656666Y-100604342D02*
X175609047Y-100699580D01*
X175609047Y-100699580D02*
X175561428Y-100747200D01*
X175561428Y-100747200D02*
X175466190Y-100794819D01*
X175466190Y-100794819D02*
X175180476Y-100794819D01*
X175180476Y-100794819D02*
X175085238Y-100747200D01*
X175085238Y-100747200D02*
X175037619Y-100699580D01*
D13*
X124248333Y-86813365D02*
X124187857Y-86873842D01*
X124187857Y-86873842D02*
X124006428Y-86934318D01*
X124006428Y-86934318D02*
X123885476Y-86934318D01*
X123885476Y-86934318D02*
X123704047Y-86873842D01*
X123704047Y-86873842D02*
X123583095Y-86752889D01*
X123583095Y-86752889D02*
X123522618Y-86631937D01*
X123522618Y-86631937D02*
X123462142Y-86390032D01*
X123462142Y-86390032D02*
X123462142Y-86208603D01*
X123462142Y-86208603D02*
X123522618Y-85966699D01*
X123522618Y-85966699D02*
X123583095Y-85845746D01*
X123583095Y-85845746D02*
X123704047Y-85724794D01*
X123704047Y-85724794D02*
X123885476Y-85664318D01*
X123885476Y-85664318D02*
X124006428Y-85664318D01*
X124006428Y-85664318D02*
X124187857Y-85724794D01*
X124187857Y-85724794D02*
X124248333Y-85785270D01*
X125457857Y-86934318D02*
X124732142Y-86934318D01*
X125094999Y-86934318D02*
X125094999Y-85664318D01*
X125094999Y-85664318D02*
X124974047Y-85845746D01*
X124974047Y-85845746D02*
X124853095Y-85966699D01*
X124853095Y-85966699D02*
X124732142Y-86027175D01*
D14*
X140231905Y-90474819D02*
X140231905Y-89474819D01*
X140231905Y-89474819D02*
X140470000Y-89474819D01*
X140470000Y-89474819D02*
X140612857Y-89522438D01*
X140612857Y-89522438D02*
X140708095Y-89617676D01*
X140708095Y-89617676D02*
X140755714Y-89712914D01*
X140755714Y-89712914D02*
X140803333Y-89903390D01*
X140803333Y-89903390D02*
X140803333Y-90046247D01*
X140803333Y-90046247D02*
X140755714Y-90236723D01*
X140755714Y-90236723D02*
X140708095Y-90331961D01*
X140708095Y-90331961D02*
X140612857Y-90427200D01*
X140612857Y-90427200D02*
X140470000Y-90474819D01*
X140470000Y-90474819D02*
X140231905Y-90474819D01*
X141136667Y-89474819D02*
X141755714Y-89474819D01*
X141755714Y-89474819D02*
X141422381Y-89855771D01*
X141422381Y-89855771D02*
X141565238Y-89855771D01*
X141565238Y-89855771D02*
X141660476Y-89903390D01*
X141660476Y-89903390D02*
X141708095Y-89951009D01*
X141708095Y-89951009D02*
X141755714Y-90046247D01*
X141755714Y-90046247D02*
X141755714Y-90284342D01*
X141755714Y-90284342D02*
X141708095Y-90379580D01*
X141708095Y-90379580D02*
X141660476Y-90427200D01*
X141660476Y-90427200D02*
X141565238Y-90474819D01*
X141565238Y-90474819D02*
X141279524Y-90474819D01*
X141279524Y-90474819D02*
X141184286Y-90427200D01*
X141184286Y-90427200D02*
X141136667Y-90379580D01*
D13*
X164970667Y-93284318D02*
X164970667Y-94191461D01*
X164970667Y-94191461D02*
X164910190Y-94372889D01*
X164910190Y-94372889D02*
X164789238Y-94493842D01*
X164789238Y-94493842D02*
X164607809Y-94554318D01*
X164607809Y-94554318D02*
X164486857Y-94554318D01*
X165514952Y-93405270D02*
X165575428Y-93344794D01*
X165575428Y-93344794D02*
X165696381Y-93284318D01*
X165696381Y-93284318D02*
X165998762Y-93284318D01*
X165998762Y-93284318D02*
X166119714Y-93344794D01*
X166119714Y-93344794D02*
X166180190Y-93405270D01*
X166180190Y-93405270D02*
X166240667Y-93526222D01*
X166240667Y-93526222D02*
X166240667Y-93647175D01*
X166240667Y-93647175D02*
X166180190Y-93828603D01*
X166180190Y-93828603D02*
X165454476Y-94554318D01*
X165454476Y-94554318D02*
X166240667Y-94554318D01*
D14*
X160170905Y-86941819D02*
X160170905Y-85941819D01*
X160170905Y-85941819D02*
X160409000Y-85941819D01*
X160409000Y-85941819D02*
X160551857Y-85989438D01*
X160551857Y-85989438D02*
X160647095Y-86084676D01*
X160647095Y-86084676D02*
X160694714Y-86179914D01*
X160694714Y-86179914D02*
X160742333Y-86370390D01*
X160742333Y-86370390D02*
X160742333Y-86513247D01*
X160742333Y-86513247D02*
X160694714Y-86703723D01*
X160694714Y-86703723D02*
X160647095Y-86798961D01*
X160647095Y-86798961D02*
X160551857Y-86894200D01*
X160551857Y-86894200D02*
X160409000Y-86941819D01*
X160409000Y-86941819D02*
X160170905Y-86941819D01*
X161694714Y-86941819D02*
X161123286Y-86941819D01*
X161409000Y-86941819D02*
X161409000Y-85941819D01*
X161409000Y-85941819D02*
X161313762Y-86084676D01*
X161313762Y-86084676D02*
X161218524Y-86179914D01*
X161218524Y-86179914D02*
X161123286Y-86227533D01*
X173728095Y-88914819D02*
X173728095Y-87914819D01*
X174299523Y-88914819D02*
X173870952Y-88343390D01*
X174299523Y-87914819D02*
X173728095Y-88486247D01*
X174466380Y-55445819D02*
X174133047Y-54969628D01*
X173894952Y-55445819D02*
X173894952Y-54445819D01*
X173894952Y-54445819D02*
X174275904Y-54445819D01*
X174275904Y-54445819D02*
X174371142Y-54493438D01*
X174371142Y-54493438D02*
X174418761Y-54541057D01*
X174418761Y-54541057D02*
X174466380Y-54636295D01*
X174466380Y-54636295D02*
X174466380Y-54779152D01*
X174466380Y-54779152D02*
X174418761Y-54874390D01*
X174418761Y-54874390D02*
X174371142Y-54922009D01*
X174371142Y-54922009D02*
X174275904Y-54969628D01*
X174275904Y-54969628D02*
X173894952Y-54969628D01*
X174894952Y-54922009D02*
X175228285Y-54922009D01*
X175371142Y-55445819D02*
X174894952Y-55445819D01*
X174894952Y-55445819D02*
X174894952Y-54445819D01*
X174894952Y-54445819D02*
X175371142Y-54445819D01*
X176133047Y-54922009D02*
X175799714Y-54922009D01*
X175799714Y-55445819D02*
X175799714Y-54445819D01*
X175799714Y-54445819D02*
X176275904Y-54445819D01*
X176609238Y-54541057D02*
X176656857Y-54493438D01*
X176656857Y-54493438D02*
X176752095Y-54445819D01*
X176752095Y-54445819D02*
X176990190Y-54445819D01*
X176990190Y-54445819D02*
X177085428Y-54493438D01*
X177085428Y-54493438D02*
X177133047Y-54541057D01*
X177133047Y-54541057D02*
X177180666Y-54636295D01*
X177180666Y-54636295D02*
X177180666Y-54731533D01*
X177180666Y-54731533D02*
X177133047Y-54874390D01*
X177133047Y-54874390D02*
X176561619Y-55445819D01*
X176561619Y-55445819D02*
X177180666Y-55445819D01*
X169465666Y-65179819D02*
X169465666Y-65894104D01*
X169465666Y-65894104D02*
X169418047Y-66036961D01*
X169418047Y-66036961D02*
X169322809Y-66132200D01*
X169322809Y-66132200D02*
X169179952Y-66179819D01*
X169179952Y-66179819D02*
X169084714Y-66179819D01*
X170370428Y-65179819D02*
X170179952Y-65179819D01*
X170179952Y-65179819D02*
X170084714Y-65227438D01*
X170084714Y-65227438D02*
X170037095Y-65275057D01*
X170037095Y-65275057D02*
X169941857Y-65417914D01*
X169941857Y-65417914D02*
X169894238Y-65608390D01*
X169894238Y-65608390D02*
X169894238Y-65989342D01*
X169894238Y-65989342D02*
X169941857Y-66084580D01*
X169941857Y-66084580D02*
X169989476Y-66132200D01*
X169989476Y-66132200D02*
X170084714Y-66179819D01*
X170084714Y-66179819D02*
X170275190Y-66179819D01*
X170275190Y-66179819D02*
X170370428Y-66132200D01*
X170370428Y-66132200D02*
X170418047Y-66084580D01*
X170418047Y-66084580D02*
X170465666Y-65989342D01*
X170465666Y-65989342D02*
X170465666Y-65751247D01*
X170465666Y-65751247D02*
X170418047Y-65656009D01*
X170418047Y-65656009D02*
X170370428Y-65608390D01*
X170370428Y-65608390D02*
X170275190Y-65560771D01*
X170275190Y-65560771D02*
X170084714Y-65560771D01*
X170084714Y-65560771D02*
X169989476Y-65608390D01*
X169989476Y-65608390D02*
X169941857Y-65656009D01*
X169941857Y-65656009D02*
X169894238Y-65751247D01*
X169465666Y-58479819D02*
X169465666Y-59194104D01*
X169465666Y-59194104D02*
X169418047Y-59336961D01*
X169418047Y-59336961D02*
X169322809Y-59432200D01*
X169322809Y-59432200D02*
X169179952Y-59479819D01*
X169179952Y-59479819D02*
X169084714Y-59479819D01*
X170370428Y-58813152D02*
X170370428Y-59479819D01*
X170132333Y-58432200D02*
X169894238Y-59146485D01*
X169894238Y-59146485D02*
X170513285Y-59146485D01*
D13*
X146026333Y-85543365D02*
X145965857Y-85603842D01*
X145965857Y-85603842D02*
X145784428Y-85664318D01*
X145784428Y-85664318D02*
X145663476Y-85664318D01*
X145663476Y-85664318D02*
X145482047Y-85603842D01*
X145482047Y-85603842D02*
X145361095Y-85482889D01*
X145361095Y-85482889D02*
X145300618Y-85361937D01*
X145300618Y-85361937D02*
X145240142Y-85120032D01*
X145240142Y-85120032D02*
X145240142Y-84938603D01*
X145240142Y-84938603D02*
X145300618Y-84696699D01*
X145300618Y-84696699D02*
X145361095Y-84575746D01*
X145361095Y-84575746D02*
X145482047Y-84454794D01*
X145482047Y-84454794D02*
X145663476Y-84394318D01*
X145663476Y-84394318D02*
X145784428Y-84394318D01*
X145784428Y-84394318D02*
X145965857Y-84454794D01*
X145965857Y-84454794D02*
X146026333Y-84515270D01*
X147114904Y-84817651D02*
X147114904Y-85664318D01*
X146812523Y-84333842D02*
X146510142Y-85240984D01*
X146510142Y-85240984D02*
X147296333Y-85240984D01*
D14*
X169465666Y-55129819D02*
X169465666Y-55844104D01*
X169465666Y-55844104D02*
X169418047Y-55986961D01*
X169418047Y-55986961D02*
X169322809Y-56082200D01*
X169322809Y-56082200D02*
X169179952Y-56129819D01*
X169179952Y-56129819D02*
X169084714Y-56129819D01*
X169846619Y-55129819D02*
X170465666Y-55129819D01*
X170465666Y-55129819D02*
X170132333Y-55510771D01*
X170132333Y-55510771D02*
X170275190Y-55510771D01*
X170275190Y-55510771D02*
X170370428Y-55558390D01*
X170370428Y-55558390D02*
X170418047Y-55606009D01*
X170418047Y-55606009D02*
X170465666Y-55701247D01*
X170465666Y-55701247D02*
X170465666Y-55939342D01*
X170465666Y-55939342D02*
X170418047Y-56034580D01*
X170418047Y-56034580D02*
X170370428Y-56082200D01*
X170370428Y-56082200D02*
X170275190Y-56129819D01*
X170275190Y-56129819D02*
X169989476Y-56129819D01*
X169989476Y-56129819D02*
X169894238Y-56082200D01*
X169894238Y-56082200D02*
X169846619Y-56034580D01*
X115792380Y-55064819D02*
X115459047Y-54588628D01*
X115220952Y-55064819D02*
X115220952Y-54064819D01*
X115220952Y-54064819D02*
X115601904Y-54064819D01*
X115601904Y-54064819D02*
X115697142Y-54112438D01*
X115697142Y-54112438D02*
X115744761Y-54160057D01*
X115744761Y-54160057D02*
X115792380Y-54255295D01*
X115792380Y-54255295D02*
X115792380Y-54398152D01*
X115792380Y-54398152D02*
X115744761Y-54493390D01*
X115744761Y-54493390D02*
X115697142Y-54541009D01*
X115697142Y-54541009D02*
X115601904Y-54588628D01*
X115601904Y-54588628D02*
X115220952Y-54588628D01*
X116220952Y-54541009D02*
X116554285Y-54541009D01*
X116697142Y-55064819D02*
X116220952Y-55064819D01*
X116220952Y-55064819D02*
X116220952Y-54064819D01*
X116220952Y-54064819D02*
X116697142Y-54064819D01*
X117459047Y-54541009D02*
X117125714Y-54541009D01*
X117125714Y-55064819D02*
X117125714Y-54064819D01*
X117125714Y-54064819D02*
X117601904Y-54064819D01*
X118506666Y-55064819D02*
X117935238Y-55064819D01*
X118220952Y-55064819D02*
X118220952Y-54064819D01*
X118220952Y-54064819D02*
X118125714Y-54207676D01*
X118125714Y-54207676D02*
X118030476Y-54302914D01*
X118030476Y-54302914D02*
X117935238Y-54350533D01*
X140803333Y-98414819D02*
X140470000Y-97938628D01*
X140231905Y-98414819D02*
X140231905Y-97414819D01*
X140231905Y-97414819D02*
X140612857Y-97414819D01*
X140612857Y-97414819D02*
X140708095Y-97462438D01*
X140708095Y-97462438D02*
X140755714Y-97510057D01*
X140755714Y-97510057D02*
X140803333Y-97605295D01*
X140803333Y-97605295D02*
X140803333Y-97748152D01*
X140803333Y-97748152D02*
X140755714Y-97843390D01*
X140755714Y-97843390D02*
X140708095Y-97891009D01*
X140708095Y-97891009D02*
X140612857Y-97938628D01*
X140612857Y-97938628D02*
X140231905Y-97938628D01*
X141755714Y-98414819D02*
X141184286Y-98414819D01*
X141470000Y-98414819D02*
X141470000Y-97414819D01*
X141470000Y-97414819D02*
X141374762Y-97557676D01*
X141374762Y-97557676D02*
X141279524Y-97652914D01*
X141279524Y-97652914D02*
X141184286Y-97700533D01*
X140823333Y-84219580D02*
X140775714Y-84267200D01*
X140775714Y-84267200D02*
X140632857Y-84314819D01*
X140632857Y-84314819D02*
X140537619Y-84314819D01*
X140537619Y-84314819D02*
X140394762Y-84267200D01*
X140394762Y-84267200D02*
X140299524Y-84171961D01*
X140299524Y-84171961D02*
X140251905Y-84076723D01*
X140251905Y-84076723D02*
X140204286Y-83886247D01*
X140204286Y-83886247D02*
X140204286Y-83743390D01*
X140204286Y-83743390D02*
X140251905Y-83552914D01*
X140251905Y-83552914D02*
X140299524Y-83457676D01*
X140299524Y-83457676D02*
X140394762Y-83362438D01*
X140394762Y-83362438D02*
X140537619Y-83314819D01*
X140537619Y-83314819D02*
X140632857Y-83314819D01*
X140632857Y-83314819D02*
X140775714Y-83362438D01*
X140775714Y-83362438D02*
X140823333Y-83410057D01*
X141156667Y-83314819D02*
X141775714Y-83314819D01*
X141775714Y-83314819D02*
X141442381Y-83695771D01*
X141442381Y-83695771D02*
X141585238Y-83695771D01*
X141585238Y-83695771D02*
X141680476Y-83743390D01*
X141680476Y-83743390D02*
X141728095Y-83791009D01*
X141728095Y-83791009D02*
X141775714Y-83886247D01*
X141775714Y-83886247D02*
X141775714Y-84124342D01*
X141775714Y-84124342D02*
X141728095Y-84219580D01*
X141728095Y-84219580D02*
X141680476Y-84267200D01*
X141680476Y-84267200D02*
X141585238Y-84314819D01*
X141585238Y-84314819D02*
X141299524Y-84314819D01*
X141299524Y-84314819D02*
X141204286Y-84267200D01*
X141204286Y-84267200D02*
X141156667Y-84219580D01*
X169465666Y-71879819D02*
X169465666Y-72594104D01*
X169465666Y-72594104D02*
X169418047Y-72736961D01*
X169418047Y-72736961D02*
X169322809Y-72832200D01*
X169322809Y-72832200D02*
X169179952Y-72879819D01*
X169179952Y-72879819D02*
X169084714Y-72879819D01*
X170084714Y-72308390D02*
X169989476Y-72260771D01*
X169989476Y-72260771D02*
X169941857Y-72213152D01*
X169941857Y-72213152D02*
X169894238Y-72117914D01*
X169894238Y-72117914D02*
X169894238Y-72070295D01*
X169894238Y-72070295D02*
X169941857Y-71975057D01*
X169941857Y-71975057D02*
X169989476Y-71927438D01*
X169989476Y-71927438D02*
X170084714Y-71879819D01*
X170084714Y-71879819D02*
X170275190Y-71879819D01*
X170275190Y-71879819D02*
X170370428Y-71927438D01*
X170370428Y-71927438D02*
X170418047Y-71975057D01*
X170418047Y-71975057D02*
X170465666Y-72070295D01*
X170465666Y-72070295D02*
X170465666Y-72117914D01*
X170465666Y-72117914D02*
X170418047Y-72213152D01*
X170418047Y-72213152D02*
X170370428Y-72260771D01*
X170370428Y-72260771D02*
X170275190Y-72308390D01*
X170275190Y-72308390D02*
X170084714Y-72308390D01*
X170084714Y-72308390D02*
X169989476Y-72356009D01*
X169989476Y-72356009D02*
X169941857Y-72403628D01*
X169941857Y-72403628D02*
X169894238Y-72498866D01*
X169894238Y-72498866D02*
X169894238Y-72689342D01*
X169894238Y-72689342D02*
X169941857Y-72784580D01*
X169941857Y-72784580D02*
X169989476Y-72832200D01*
X169989476Y-72832200D02*
X170084714Y-72879819D01*
X170084714Y-72879819D02*
X170275190Y-72879819D01*
X170275190Y-72879819D02*
X170370428Y-72832200D01*
X170370428Y-72832200D02*
X170418047Y-72784580D01*
X170418047Y-72784580D02*
X170465666Y-72689342D01*
X170465666Y-72689342D02*
X170465666Y-72498866D01*
X170465666Y-72498866D02*
X170418047Y-72403628D01*
X170418047Y-72403628D02*
X170370428Y-72356009D01*
X170370428Y-72356009D02*
X170275190Y-72308390D01*
X169465666Y-75229819D02*
X169465666Y-75944104D01*
X169465666Y-75944104D02*
X169418047Y-76086961D01*
X169418047Y-76086961D02*
X169322809Y-76182200D01*
X169322809Y-76182200D02*
X169179952Y-76229819D01*
X169179952Y-76229819D02*
X169084714Y-76229819D01*
X169989476Y-76229819D02*
X170179952Y-76229819D01*
X170179952Y-76229819D02*
X170275190Y-76182200D01*
X170275190Y-76182200D02*
X170322809Y-76134580D01*
X170322809Y-76134580D02*
X170418047Y-75991723D01*
X170418047Y-75991723D02*
X170465666Y-75801247D01*
X170465666Y-75801247D02*
X170465666Y-75420295D01*
X170465666Y-75420295D02*
X170418047Y-75325057D01*
X170418047Y-75325057D02*
X170370428Y-75277438D01*
X170370428Y-75277438D02*
X170275190Y-75229819D01*
X170275190Y-75229819D02*
X170084714Y-75229819D01*
X170084714Y-75229819D02*
X169989476Y-75277438D01*
X169989476Y-75277438D02*
X169941857Y-75325057D01*
X169941857Y-75325057D02*
X169894238Y-75420295D01*
X169894238Y-75420295D02*
X169894238Y-75658390D01*
X169894238Y-75658390D02*
X169941857Y-75753628D01*
X169941857Y-75753628D02*
X169989476Y-75801247D01*
X169989476Y-75801247D02*
X170084714Y-75848866D01*
X170084714Y-75848866D02*
X170275190Y-75848866D01*
X170275190Y-75848866D02*
X170370428Y-75801247D01*
X170370428Y-75801247D02*
X170418047Y-75753628D01*
X170418047Y-75753628D02*
X170465666Y-75658390D01*
X146558095Y-50635819D02*
X146558095Y-51445342D01*
X146558095Y-51445342D02*
X146605714Y-51540580D01*
X146605714Y-51540580D02*
X146653333Y-51588200D01*
X146653333Y-51588200D02*
X146748571Y-51635819D01*
X146748571Y-51635819D02*
X146939047Y-51635819D01*
X146939047Y-51635819D02*
X147034285Y-51588200D01*
X147034285Y-51588200D02*
X147081904Y-51540580D01*
X147081904Y-51540580D02*
X147129523Y-51445342D01*
X147129523Y-51445342D02*
X147129523Y-50635819D01*
X147558095Y-50731057D02*
X147605714Y-50683438D01*
X147605714Y-50683438D02*
X147700952Y-50635819D01*
X147700952Y-50635819D02*
X147939047Y-50635819D01*
X147939047Y-50635819D02*
X148034285Y-50683438D01*
X148034285Y-50683438D02*
X148081904Y-50731057D01*
X148081904Y-50731057D02*
X148129523Y-50826295D01*
X148129523Y-50826295D02*
X148129523Y-50921533D01*
X148129523Y-50921533D02*
X148081904Y-51064390D01*
X148081904Y-51064390D02*
X147510476Y-51635819D01*
X147510476Y-51635819D02*
X148129523Y-51635819D01*
X115792380Y-100794819D02*
X115459047Y-100318628D01*
X115220952Y-100794819D02*
X115220952Y-99794819D01*
X115220952Y-99794819D02*
X115601904Y-99794819D01*
X115601904Y-99794819D02*
X115697142Y-99842438D01*
X115697142Y-99842438D02*
X115744761Y-99890057D01*
X115744761Y-99890057D02*
X115792380Y-99985295D01*
X115792380Y-99985295D02*
X115792380Y-100128152D01*
X115792380Y-100128152D02*
X115744761Y-100223390D01*
X115744761Y-100223390D02*
X115697142Y-100271009D01*
X115697142Y-100271009D02*
X115601904Y-100318628D01*
X115601904Y-100318628D02*
X115220952Y-100318628D01*
X116220952Y-100271009D02*
X116554285Y-100271009D01*
X116697142Y-100794819D02*
X116220952Y-100794819D01*
X116220952Y-100794819D02*
X116220952Y-99794819D01*
X116220952Y-99794819D02*
X116697142Y-99794819D01*
X117459047Y-100271009D02*
X117125714Y-100271009D01*
X117125714Y-100794819D02*
X117125714Y-99794819D01*
X117125714Y-99794819D02*
X117601904Y-99794819D01*
X118411428Y-100128152D02*
X118411428Y-100794819D01*
X118173333Y-99747200D02*
X117935238Y-100461485D01*
X117935238Y-100461485D02*
X118554285Y-100461485D01*
X169465666Y-61829819D02*
X169465666Y-62544104D01*
X169465666Y-62544104D02*
X169418047Y-62686961D01*
X169418047Y-62686961D02*
X169322809Y-62782200D01*
X169322809Y-62782200D02*
X169179952Y-62829819D01*
X169179952Y-62829819D02*
X169084714Y-62829819D01*
X170418047Y-61829819D02*
X169941857Y-61829819D01*
X169941857Y-61829819D02*
X169894238Y-62306009D01*
X169894238Y-62306009D02*
X169941857Y-62258390D01*
X169941857Y-62258390D02*
X170037095Y-62210771D01*
X170037095Y-62210771D02*
X170275190Y-62210771D01*
X170275190Y-62210771D02*
X170370428Y-62258390D01*
X170370428Y-62258390D02*
X170418047Y-62306009D01*
X170418047Y-62306009D02*
X170465666Y-62401247D01*
X170465666Y-62401247D02*
X170465666Y-62639342D01*
X170465666Y-62639342D02*
X170418047Y-62734580D01*
X170418047Y-62734580D02*
X170370428Y-62782200D01*
X170370428Y-62782200D02*
X170275190Y-62829819D01*
X170275190Y-62829819D02*
X170037095Y-62829819D01*
X170037095Y-62829819D02*
X169941857Y-62782200D01*
X169941857Y-62782200D02*
X169894238Y-62734580D01*
D13*
X152397667Y-93284318D02*
X152397667Y-94191461D01*
X152397667Y-94191461D02*
X152337190Y-94372889D01*
X152337190Y-94372889D02*
X152216238Y-94493842D01*
X152216238Y-94493842D02*
X152034809Y-94554318D01*
X152034809Y-94554318D02*
X151913857Y-94554318D01*
X153667667Y-94554318D02*
X152941952Y-94554318D01*
X153304809Y-94554318D02*
X153304809Y-93284318D01*
X153304809Y-93284318D02*
X153183857Y-93465746D01*
X153183857Y-93465746D02*
X153062905Y-93586699D01*
X153062905Y-93586699D02*
X152941952Y-93647175D01*
D14*
X122388095Y-81678819D02*
X122388095Y-82488342D01*
X122388095Y-82488342D02*
X122435714Y-82583580D01*
X122435714Y-82583580D02*
X122483333Y-82631200D01*
X122483333Y-82631200D02*
X122578571Y-82678819D01*
X122578571Y-82678819D02*
X122769047Y-82678819D01*
X122769047Y-82678819D02*
X122864285Y-82631200D01*
X122864285Y-82631200D02*
X122911904Y-82583580D01*
X122911904Y-82583580D02*
X122959523Y-82488342D01*
X122959523Y-82488342D02*
X122959523Y-81678819D01*
X123959523Y-82678819D02*
X123388095Y-82678819D01*
X123673809Y-82678819D02*
X123673809Y-81678819D01*
X123673809Y-81678819D02*
X123578571Y-81821676D01*
X123578571Y-81821676D02*
X123483333Y-81916914D01*
X123483333Y-81916914D02*
X123388095Y-81964533D01*
X169465666Y-68529819D02*
X169465666Y-69244104D01*
X169465666Y-69244104D02*
X169418047Y-69386961D01*
X169418047Y-69386961D02*
X169322809Y-69482200D01*
X169322809Y-69482200D02*
X169179952Y-69529819D01*
X169179952Y-69529819D02*
X169084714Y-69529819D01*
X169846619Y-68529819D02*
X170513285Y-68529819D01*
X170513285Y-68529819D02*
X170084714Y-69529819D01*
X160170905Y-81607819D02*
X160170905Y-80607819D01*
X160170905Y-80607819D02*
X160409000Y-80607819D01*
X160409000Y-80607819D02*
X160551857Y-80655438D01*
X160551857Y-80655438D02*
X160647095Y-80750676D01*
X160647095Y-80750676D02*
X160694714Y-80845914D01*
X160694714Y-80845914D02*
X160742333Y-81036390D01*
X160742333Y-81036390D02*
X160742333Y-81179247D01*
X160742333Y-81179247D02*
X160694714Y-81369723D01*
X160694714Y-81369723D02*
X160647095Y-81464961D01*
X160647095Y-81464961D02*
X160551857Y-81560200D01*
X160551857Y-81560200D02*
X160409000Y-81607819D01*
X160409000Y-81607819D02*
X160170905Y-81607819D01*
X161123286Y-80703057D02*
X161170905Y-80655438D01*
X161170905Y-80655438D02*
X161266143Y-80607819D01*
X161266143Y-80607819D02*
X161504238Y-80607819D01*
X161504238Y-80607819D02*
X161599476Y-80655438D01*
X161599476Y-80655438D02*
X161647095Y-80703057D01*
X161647095Y-80703057D02*
X161694714Y-80798295D01*
X161694714Y-80798295D02*
X161694714Y-80893533D01*
X161694714Y-80893533D02*
X161647095Y-81036390D01*
X161647095Y-81036390D02*
X161075667Y-81607819D01*
X161075667Y-81607819D02*
X161694714Y-81607819D01*
X173728095Y-83834819D02*
X173728095Y-82834819D01*
X174299523Y-83834819D02*
X173870952Y-83263390D01*
X174299523Y-82834819D02*
X173728095Y-83406247D01*
D15*
%TO.C,C2*%
X120565000Y-95250000D02*
X120565000Y-95250000D01*
X120615000Y-95250000D02*
X120615000Y-95250000D01*
D10*
X122390000Y-92750000D02*
X125040000Y-90100000D01*
X122390000Y-97750000D02*
X125040000Y-100400000D01*
X125040000Y-90100000D02*
X132690000Y-90100000D01*
X125040000Y-100400000D02*
X132690000Y-100400000D01*
X132690000Y-90100000D02*
X132690000Y-92750000D01*
X132690000Y-100400000D02*
X132690000Y-97750000D01*
D15*
X120615000Y-95250000D02*
G75*
G03*
X120565000Y-95250000I-25000J0D01*
G01*
X120565000Y-95250000D02*
G75*
G03*
X120615000Y-95250000I25000J0D01*
G01*
D16*
%TO.C,C1*%
X120220000Y-86360000D02*
X120220000Y-86360000D01*
X120320000Y-86360000D02*
X120320000Y-86360000D01*
D10*
X120775000Y-85215000D02*
X128145000Y-85215000D01*
X120775000Y-87505000D02*
X120775000Y-85215000D01*
X128145000Y-85215000D02*
X128145000Y-87505000D01*
X128145000Y-87505000D02*
X120775000Y-87505000D01*
D16*
X120320000Y-86360000D02*
G75*
G03*
X120220000Y-86360000I-50000J0D01*
G01*
X120220000Y-86360000D02*
G75*
G03*
X120320000Y-86360000I50000J0D01*
G01*
D17*
%TO.C,D3*%
X138410000Y-92435000D02*
X138410000Y-95525000D01*
X143959999Y-93980462D02*
G75*
G03*
X138410001Y-92435170I-2989999J462D01*
G01*
X138410000Y-95524830D02*
G75*
G03*
X143960000Y-93979538I2560000J1544830D01*
G01*
X143470000Y-93980000D02*
G75*
G03*
X143470000Y-93980000I-2500000J0D01*
G01*
D16*
%TO.C,J2*%
X160394000Y-89880000D02*
X160394000Y-98080000D01*
X160394000Y-98080000D02*
X170394000Y-98080000D01*
X170394000Y-89880000D02*
X160394000Y-89880000D01*
X170394000Y-98080000D02*
X170394000Y-89880000D01*
D17*
%TO.C,D1*%
X172650000Y-86360000D02*
X171630000Y-86360000D01*
X171630000Y-87830000D02*
X171630000Y-84890000D01*
X171630000Y-84890000D02*
X166190000Y-84890000D01*
X170850000Y-87830000D02*
X170850000Y-84890000D01*
X170730000Y-87830000D02*
X170730000Y-84890000D01*
X170610000Y-87830000D02*
X170610000Y-84890000D01*
X166190000Y-87830000D02*
X171630000Y-87830000D01*
X166190000Y-84890000D02*
X166190000Y-87830000D01*
X165170000Y-86360000D02*
X166190000Y-86360000D01*
%TO.C,J6*%
X168689000Y-66660000D02*
X169799000Y-66660000D01*
X168689000Y-67420000D02*
X168689000Y-66660000D01*
X168689000Y-68180000D02*
X168689000Y-68115000D01*
X168689000Y-68180000D02*
X169235529Y-68180000D01*
X168689000Y-68180000D02*
X170909000Y-68180000D01*
X170362471Y-68180000D02*
X170909000Y-68180000D01*
X170909000Y-68180000D02*
X170909000Y-68115000D01*
%TO.C,J4*%
X168689000Y-59960000D02*
X169799000Y-59960000D01*
X168689000Y-60720000D02*
X168689000Y-59960000D01*
X168689000Y-61480000D02*
X168689000Y-61415000D01*
X168689000Y-61480000D02*
X169235529Y-61480000D01*
X168689000Y-61480000D02*
X170909000Y-61480000D01*
X170362471Y-61480000D02*
X170909000Y-61480000D01*
X170909000Y-61480000D02*
X170909000Y-61415000D01*
D16*
%TO.C,C4*%
X149560800Y-84442800D02*
X151210800Y-86092800D01*
X151224000Y-86106000D02*
X156174000Y-86106000D01*
X151236200Y-79464400D02*
X149586200Y-81114400D01*
X151262100Y-79451200D02*
X156113500Y-79451200D01*
X156177000Y-79451200D02*
X156177000Y-81026000D01*
X156177000Y-84505800D02*
X156177000Y-86080600D01*
D17*
%TO.C,J3*%
X168689000Y-56610000D02*
X169799000Y-56610000D01*
X168689000Y-57370000D02*
X168689000Y-56610000D01*
X168689000Y-58130000D02*
X168689000Y-58065000D01*
X168689000Y-58130000D02*
X169235529Y-58130000D01*
X168689000Y-58130000D02*
X170909000Y-58130000D01*
X170362471Y-58130000D02*
X170909000Y-58130000D01*
X170909000Y-58130000D02*
X170909000Y-58065000D01*
%TO.C,R1*%
X137700000Y-98960000D02*
X144240000Y-98960000D01*
X137700000Y-99290000D02*
X137700000Y-98960000D01*
X137700000Y-101370000D02*
X137700000Y-101700000D01*
X137700000Y-101700000D02*
X144240000Y-101700000D01*
X144240000Y-98960000D02*
X144240000Y-99290000D01*
X144240000Y-101700000D02*
X144240000Y-101370000D01*
%TO.C,C3*%
X138370000Y-84990000D02*
X138370000Y-87730000D01*
X138370000Y-84990000D02*
X143610000Y-84990000D01*
X138370000Y-87730000D02*
X143610000Y-87730000D01*
X143610000Y-84990000D02*
X143610000Y-87730000D01*
%TO.C,J8*%
X168689000Y-73360000D02*
X169799000Y-73360000D01*
X168689000Y-74120000D02*
X168689000Y-73360000D01*
X168689000Y-74880000D02*
X168689000Y-74815000D01*
X168689000Y-74880000D02*
X169235529Y-74880000D01*
X168689000Y-74880000D02*
X170909000Y-74880000D01*
X170362471Y-74880000D02*
X170909000Y-74880000D01*
X170909000Y-74880000D02*
X170909000Y-74815000D01*
%TO.C,J9*%
X168689000Y-76710000D02*
X169799000Y-76710000D01*
X168689000Y-77470000D02*
X168689000Y-76710000D01*
X168689000Y-78230000D02*
X168689000Y-78165000D01*
X168689000Y-78230000D02*
X169235529Y-78230000D01*
X168689000Y-78230000D02*
X170909000Y-78230000D01*
X170362471Y-78230000D02*
X170909000Y-78230000D01*
X170909000Y-78230000D02*
X170909000Y-78165000D01*
D18*
%TO.C,U2*%
X148107400Y-52020000D02*
X166852600Y-52020000D01*
X148107400Y-74500000D02*
X148107400Y-52020000D01*
X166852600Y-52020000D02*
X166852600Y-74505000D01*
X166852600Y-74505000D02*
X148107400Y-74500000D01*
D16*
X154305000Y-52832000D02*
X160528000Y-52832000D01*
X160528000Y-52832000D02*
X160528000Y-56642000D01*
X160528000Y-56642000D02*
X154305000Y-56642000D01*
X154305000Y-56642000D02*
X154305000Y-52832000D01*
D10*
X147293000Y-54610000D02*
G75*
G03*
X147293000Y-54610000I-100000J0D01*
G01*
D17*
%TO.C,J5*%
X168689000Y-63310000D02*
X169799000Y-63310000D01*
X168689000Y-64070000D02*
X168689000Y-63310000D01*
X168689000Y-64830000D02*
X168689000Y-64765000D01*
X168689000Y-64830000D02*
X169235529Y-64830000D01*
X168689000Y-64830000D02*
X170909000Y-64830000D01*
X170362471Y-64830000D02*
X170909000Y-64830000D01*
X170909000Y-64830000D02*
X170909000Y-64765000D01*
D16*
%TO.C,J1*%
X147821000Y-89880000D02*
X147821000Y-98080000D01*
X147821000Y-98080000D02*
X157821000Y-98080000D01*
X157821000Y-89880000D02*
X147821000Y-89880000D01*
X157821000Y-98080000D02*
X157821000Y-89880000D01*
D17*
%TO.C,U1*%
X120750000Y-51099000D02*
X120750000Y-80699000D01*
X120750000Y-51099000D02*
X145850000Y-51099000D01*
X120750000Y-80699000D02*
X145850000Y-80699000D01*
X128085000Y-65149000D02*
X138385000Y-65149000D01*
X128085000Y-80374000D02*
X128085000Y-65149000D01*
X130810000Y-80924000D02*
X130810000Y-83074000D01*
X133350000Y-80899000D02*
X133350000Y-83049000D01*
X135890000Y-80924000D02*
X135890000Y-83074000D01*
X138335000Y-80374000D02*
X128085000Y-80374000D01*
X138400000Y-65149000D02*
X138385000Y-80374000D01*
X145850000Y-51099000D02*
X145850000Y-80699000D01*
%TO.C,J7*%
X168689000Y-70010000D02*
X169799000Y-70010000D01*
X168689000Y-70770000D02*
X168689000Y-70010000D01*
X168689000Y-71530000D02*
X168689000Y-71465000D01*
X168689000Y-71530000D02*
X169235529Y-71530000D01*
X168689000Y-71530000D02*
X170909000Y-71530000D01*
X170362471Y-71530000D02*
X170909000Y-71530000D01*
X170909000Y-71530000D02*
X170909000Y-71465000D01*
%TO.C,D2*%
X172650000Y-81280000D02*
X171630000Y-81280000D01*
X171630000Y-82750000D02*
X171630000Y-79810000D01*
X171630000Y-79810000D02*
X166190000Y-79810000D01*
X170850000Y-82750000D02*
X170850000Y-79810000D01*
X170730000Y-82750000D02*
X170730000Y-79810000D01*
X170610000Y-82750000D02*
X170610000Y-79810000D01*
X166190000Y-82750000D02*
X171630000Y-82750000D01*
X166190000Y-79810000D02*
X166190000Y-82750000D01*
X165170000Y-81280000D02*
X166190000Y-81280000D01*
%TD*%
M02*
